<svg width="56" height="20" viewBox="0 0 56 20" fill="none" xmlns="http://www.w3.org/2000/svg">
<g clip-path="url(#clip0_138_31511)">
<path d="M54.0853 11.1329H1.13864C0.508829 11.1329 0 10.624 0 9.99422C0 9.36441 0.508829 8.85558 1.13864 8.85558H51.3348L44.4247 1.94547C43.9799 1.50069 43.9799 0.778366 44.4247 0.333585C44.8695 -0.111195 45.5918 -0.111195 46.0366 0.333585L54.893 9.19005C55.2204 9.51741 55.3165 10.0049 55.1385 10.4319C54.9606 10.8553 54.5443 11.1329 54.0853 11.1329Z" fill="#F04A23"/>
<path d="M45.2184 20.0006C44.9266 20.0006 44.6348 19.8903 44.4142 19.6661C43.9694 19.2213 43.9694 18.499 44.4142 18.0542L53.2813 9.1871C53.7261 8.74232 54.4484 8.74232 54.8932 9.1871C55.338 9.63188 55.338 10.3542 54.8932 10.799L46.0261 19.6661C45.8019 19.8903 45.5101 20.0006 45.2184 20.0006Z" fill="#F04A23"/>
</g>
<defs>
<clipPath id="clip0_138_31511">
<rect width="56" height="20" fill="white"/>
</clipPath>
</defs>
</svg>
