<svg width="56" height="20" viewBox="0 0 56 20" fill="none" xmlns="http://www.w3.org/2000/svg">
<path d="M54.0853 11.1329H1.13864C0.508829 11.1329 0 10.624 0 9.99422C0 9.36441 0.508829 8.85558 1.13864 8.85558H51.3348L44.4247 1.94547C43.9799 1.50069 43.9799 0.778366 44.4247 0.333585C44.8695 -0.111195 45.5918 -0.111195 46.0366 0.333585L54.893 9.19005C55.2204 9.51741 55.3165 10.0049 55.1385 10.4319C54.9606 10.8553 54.5443 11.1329 54.0853 11.1329Z" fill="#282DAD"/>
<path d="M45.2182 20C44.9264 20 44.6346 19.8897 44.414 19.6655C43.9692 19.2207 43.9692 18.4984 44.414 18.0536L53.2811 9.18649C53.7259 8.74171 54.4482 8.74171 54.893 9.18649C55.3378 9.63127 55.3378 10.3536 54.893 10.7984L46.0259 19.6655C45.8017 19.8897 45.5099 20 45.2182 20Z" fill="#282DAD"/>
</svg>
