<svg width="483" height="331" viewBox="0 0 483 331" fill="none" xmlns="http://www.w3.org/2000/svg">
<g clip-path="url(#clip0_128_29899)">
<path d="M135.624 118.357C147.474 111.521 155.532 104.921 153.636 103.743C151.503 102.564 140.364 107.278 128.277 114.114C116.427 120.95 108.369 127.55 110.265 128.728C112.398 129.671 123.774 125.193 135.624 118.357Z" fill="url(#paint0_linear_128_29899)"/>
<path d="M119.27 88.4198C131.12 81.5838 139.178 74.9838 137.282 73.8058C135.386 72.6268 124.01 77.3419 111.923 84.1769C100.073 91.0129 92.0152 97.6128 93.9112 98.7918C96.0442 99.7338 107.42 95.2558 119.27 88.4198Z" fill="url(#paint1_linear_128_29899)"/>
<path d="M167.382 175.635C179.232 168.799 187.29 162.199 185.394 161.02C183.498 159.842 172.122 164.556 160.035 171.392C148.185 178.227 140.127 184.827 142.023 186.006C143.919 187.185 155.295 182.47 167.382 175.635Z" fill="url(#paint2_linear_128_29899)"/>
<path d="M150.317 146.643C162.167 139.807 170.225 133.207 168.329 132.028C166.196 130.85 155.057 135.564 142.97 142.4C131.12 149.235 123.062 155.835 124.958 157.014C126.854 158.193 138.467 153.478 150.317 146.643Z" fill="url(#paint3_linear_128_29899)"/>
<path d="M357.455 245.642C369.305 238.806 380.681 234.092 382.814 235.27C384.947 236.449 376.889 242.813 364.802 249.885C352.952 256.72 341.576 261.435 339.443 260.256C337.547 258.842 345.368 252.477 357.455 245.642Z" fill="url(#paint4_linear_128_29899)"/>
<path d="M409.595 255.071C421.445 248.236 432.821 243.521 434.954 244.7C437.087 245.878 429.029 252.243 416.942 259.314C405.092 266.15 393.716 270.864 391.583 269.686C389.687 268.271 397.745 261.907 409.595 255.071Z" fill="url(#paint5_linear_128_29899)"/>
<path d="M257.443 227.494C269.293 220.658 280.669 215.944 282.802 217.122C284.935 218.301 276.877 224.665 264.79 231.737C252.94 238.572 241.564 243.287 239.431 242.108C237.298 240.93 245.593 234.33 257.443 227.494Z" fill="url(#paint6_linear_128_29899)"/>
<path d="M308.16 237.157C320.01 230.321 331.386 225.607 333.519 226.786C335.652 227.964 327.594 234.329 315.507 241.4C303.657 248.236 292.281 252.95 290.148 251.771C288.252 250.593 296.073 243.993 308.16 237.157Z" fill="url(#paint7_linear_128_29899)"/>
<path d="M51.2519 323.428L49.1189 322.249C48.6449 322.013 47.9339 322.013 47.2229 322.485C45.5639 323.428 44.3789 325.549 44.3789 327.435C44.3789 328.378 44.6159 329.085 45.3269 329.32L47.4599 330.499L51.2519 323.428Z" fill="#18192E"/>
<path d="M52.1997 325.08C52.1997 326.965 51.0147 329.087 49.3557 330.03C47.6957 330.972 46.5117 330.265 46.5117 328.38C46.5117 326.494 47.6967 324.372 49.3557 323.43C50.7777 322.722 52.1997 323.43 52.1997 325.08Z" fill="#18192E"/>
<path d="M49.3553 324.844C48.4073 325.316 47.6953 326.73 47.6953 327.908C47.6953 329.087 48.4073 329.558 49.3553 328.851C50.3033 328.38 51.0143 326.966 51.0143 325.787C51.0143 324.608 50.3043 324.137 49.3553 324.844Z" fill="#18192E"/>
<path d="M50.0666 324.605C50.0666 324.841 50.3036 325.077 50.3036 325.312C50.3036 326.491 49.5926 327.669 48.6446 328.377C48.4076 328.612 48.1706 328.612 47.9336 328.612C48.1706 329.319 48.8816 329.319 49.5926 328.848C50.5406 328.377 51.2516 326.962 51.2516 325.784C51.0146 325.077 50.5406 324.605 50.0666 324.605Z" fill="#4A5A67"/>
<path d="M49.5939 325.077C49.5939 326.019 48.8829 327.198 47.9339 327.905C47.6979 327.905 47.6979 328.141 47.4609 328.141V328.377C47.6979 328.377 47.9349 328.377 48.1709 328.141C49.1199 327.669 49.8309 326.491 49.8309 325.312V324.605H49.5939V325.077Z" fill="#18192E"/>
<path d="M48.6459 325.785C48.4089 326.02 48.1719 326.256 48.1719 326.492C48.1719 326.728 48.4089 326.963 48.6459 326.727C48.8829 326.492 49.1199 326.256 49.1199 326.02C49.1199 325.785 48.6459 325.785 48.6459 325.785Z" fill="#18192E"/>
<path d="M52.2005 321.78L44.3785 326.258L41.7715 322.958L49.5925 318.48L52.2005 321.78Z" fill="url(#paint8_linear_128_29899)"/>
<path d="M258.864 272.752L274.743 263.559C275.691 262.852 277.113 262.852 278.772 263.795C281.853 265.445 284.223 269.923 284.223 273.459C284.223 275.109 283.749 276.288 282.801 276.995C282.801 276.995 282.564 276.995 282.564 277.231L266.922 286.423C265.974 287.131 264.552 287.131 262.893 286.188C259.812 284.538 257.442 280.059 257.442 276.523C257.205 274.402 257.916 273.223 258.864 272.752Z" fill="#18192E"/>
<path d="M241.326 309.757L224.973 281.943L257.442 262.85C259.575 261.436 262.419 261.672 265.737 263.557C272.136 267.093 277.113 276.05 277.113 283.357C277.113 286.893 275.928 289.25 274.032 290.429C273.795 290.429 273.795 290.664 273.558 290.664L241.326 309.757Z" fill="#F04A23"/>
<path d="M230.661 278.645C232.557 277.702 235.401 278.173 238.245 279.823C244.644 283.359 249.621 292.316 249.621 299.623C249.621 303.395 248.199 305.752 246.303 306.931L246.066 307.166L241.326 309.759L224.973 281.945L230.661 278.645Z" fill="url(#paint9_linear_128_29899)"/>
<path d="M221.418 289.251C221.418 296.558 226.632 305.28 232.794 309.051C239.193 312.587 244.17 309.758 244.17 302.451C244.17 295.144 238.956 286.423 232.794 282.651C226.632 279.115 221.418 282.18 221.418 289.251Z" fill="#A9B1B1"/>
<path d="M224.498 291.138C224.498 296.559 228.29 302.923 232.793 305.516C237.296 308.109 241.088 305.988 241.088 300.802C241.088 295.381 237.296 289.016 232.793 286.423C228.29 283.831 224.498 285.716 224.498 291.138Z" fill="#18192E"/>
<path d="M229.714 293.963C229.714 296.085 231.136 298.442 233.032 299.621C234.928 300.563 236.35 299.856 236.35 297.735C236.35 295.613 234.928 293.256 233.032 292.078C231.136 291.135 229.714 292.078 229.714 293.963ZM86.3276 220.656L69.9746 192.842L102.444 173.749C104.577 172.335 107.421 172.57 110.739 174.456C117.138 177.992 122.115 186.949 122.115 194.256C122.115 197.792 120.93 200.149 119.034 201.327C118.797 201.327 118.797 201.563 118.56 201.563L86.3276 220.656Z" fill="#F04A23"/>
<path d="M75.6626 189.778C77.5586 188.835 80.4026 189.306 83.2466 190.956C89.6456 194.492 94.6226 203.449 94.6226 210.756C94.6226 214.528 93.2006 216.885 91.3046 218.063L91.0676 218.299L86.3276 220.892L69.9746 193.078L75.6626 189.778Z" fill="url(#paint10_linear_128_29899)"/>
<path d="M66.4209 200.386C66.4209 207.693 71.6339 216.414 77.7959 220.186C84.1959 223.721 89.1719 220.893 89.1719 213.586C89.1719 206.279 83.9579 197.557 77.7959 193.786C71.6339 190.25 66.4209 193.079 66.4209 200.386Z" fill="#A9B1B1"/>
<path d="M69.5 202.272C69.5 207.694 73.292 214.058 77.795 216.651C82.298 219.244 86.09 217.122 86.09 211.937C86.09 206.751 82.298 200.151 77.795 197.558C73.292 194.73 69.5 196.851 69.5 202.272Z" fill="#18192E"/>
<path d="M74.7148 205.101C74.7148 207.222 76.1368 209.579 78.0328 210.758C79.9288 211.701 81.3508 210.994 81.3508 208.872C81.3508 206.751 79.9288 204.394 78.0328 203.215C76.1368 202.272 74.7148 202.979 74.7148 205.101Z" fill="#F04A23"/>
<path d="M73.055 196.379C72.581 197.321 72.107 198.736 72.107 200.15C72.107 205.571 75.899 211.936 80.402 214.529C82.298 215.471 83.957 215.943 85.142 215.471C83.72 217.829 80.876 218.3 77.795 216.414C73.292 213.821 69.5 207.221 69.5 202.036C69.5 198.971 70.922 196.85 73.055 196.379Z" fill="#18192E"/>
<path d="M114.53 61.3132V30.1992L110.264 32.7922L98.4141 70.7422L114.53 61.3132Z" fill="#F04A23"/>
<path d="M105.998 232.915C105.998 232.915 82.2982 116.708 89.6452 75.9288L114.529 61.5508C114.529 61.5508 151.027 137.922 162.877 157.015C174.727 176.108 187.525 184.358 188.71 185.537L105.998 232.915Z" fill="#EFEFEF"/>
<path d="M149.607 132.501L137.994 139.101C127.329 120.479 114.768 93.1368 114.768 93.1368L126.618 86.3008C126.618 86.3008 146.052 125.901 149.607 132.501Z" fill="#F04A23"/>
<path d="M137.994 139.334L149.607 132.498L149.37 132.263L137.994 138.862C127.803 121.184 115.953 95.2555 114.768 93.1345L126.381 86.2985L126.144 86.0625L114.057 92.8985V93.1345C114.768 93.6055 127.329 120.712 137.994 139.334Z" fill="#D0D0D0"/>
<path d="M144.156 135.563L144.393 135.328C134.439 118.12 121.167 89.8353 120.93 89.3633L120.693 89.5993C120.93 90.0703 134.202 118.356 144.156 135.563Z" fill="#D0D0D0"/>
<path d="M174.018 193.788C156.243 176.109 144.867 153.716 144.867 153.716L157.191 146.645C157.191 146.645 169.752 170.216 183.261 180.824L174.018 193.788Z" fill="#F04A23"/>
<path d="M173.781 193.785L174.018 193.549C157.191 176.813 146.052 155.599 144.867 153.713L156.954 146.642L156.717 146.406L144.393 153.478V153.713C144.63 153.949 156.006 176.342 173.781 193.785Z" fill="#D0D0D0"/>
<path d="M180.653 190.013L180.89 189.778C180.653 189.542 159.56 168.799 151.976 149.706L151.739 149.942C159.323 169.035 180.416 189.778 180.653 190.013ZM120.564 73.7969L120.866 74.4369L95.9924 86.0819L95.6895 85.4419L120.564 73.7969Z" fill="#D0D0D0"/>
<path d="M117.849 226.313C118.086 226.313 118.323 226.078 118.086 225.842C98.889 155.599 95.334 73.3353 95.334 72.3923C95.334 72.1563 95.097 72.1562 94.86 72.1562C94.623 72.1562 94.623 72.3923 94.623 72.6283C94.623 73.3353 98.178 155.835 117.375 226.078C117.612 226.313 117.612 226.313 117.849 226.313ZM164.775 198.97L165.012 198.735L131.358 149.235L103.629 82.0563L103.155 82.2923L130.884 149.47L164.775 198.97Z" fill="#D0D0D0"/>
<path d="M104.577 162.434L131.121 149.705V149.234L104.34 162.198L104.577 162.434Z" fill="#D0D0D0"/>
<path d="M314.56 128.256L310.768 51.1772L334.468 37.7422L382.342 89.3632L314.56 128.256Z" fill="#F04A23"/>
<path d="M365.04 99.264L324.039 50.707L338.733 42.457L382.341 89.364L365.04 99.264Z" fill="#F04A23"/>
<path d="M0.770462 318.478C6.45946 291.842 19.9685 278.406 28.0265 271.099C36.7955 263.32 47.6965 256.956 47.6965 256.956L296.784 116.235C296.784 116.235 370.728 84.6485 385.896 78.5195C386.37 78.7555 387.081 78.9915 387.555 79.2265C391.347 81.3485 394.428 86.5345 394.428 91.0125C394.428 91.7195 394.428 92.4275 394.191 92.8985C386.37 102.799 358.167 137.449 336.6 157.72C333.045 161.02 294.651 188.835 294.651 188.835C294.651 188.835 63.3395 326.728 17.1245 330.263C1.95646 331.678 -0.650538 324.606 0.770462 318.478Z" fill="#EFEFEF"/>
<path d="M200.325 242.577C215.256 231.263 243.696 215.706 259.575 194.492C281.853 164.792 303.183 118.592 278.298 126.606L297.021 115.999C297.021 115.999 370.965 84.4132 386.133 78.2852C386.607 78.5202 387.318 78.7561 387.792 78.9921C391.584 81.1131 394.665 86.2992 394.665 90.7772C394.665 91.4852 394.665 92.1922 394.428 92.6632C386.607 102.563 358.404 137.213 336.837 157.485C333.282 160.785 294.888 188.599 294.888 188.599C294.888 188.599 251.991 214.056 199.377 243.52C199.614 243.52 200.088 243.049 200.325 242.577Z" fill="#F04A23"/>
<path d="M324.514 136.507L458.419 138.629L482.119 125.193V122.6L392.296 98.793L324.514 133.914V136.507Z" fill="#F04A23"/>
<path d="M350.109 123.071L459.366 132.264L474.06 123.779L392.295 98.793L350.109 123.071Z" fill="white"/>
<path d="M459.602 132.972L475.718 123.779L392.294 98.0859L347.738 123.543L459.602 132.972ZM472.163 124.014L459.128 131.557L352.241 122.6L392.294 99.4999L472.163 124.014Z" fill="#18192E"/>
<path d="M324.514 133.913L458.419 136.035L482.119 122.599L392.296 95.0195L324.514 133.913Z" fill="#F04A23"/>
<path d="M374.993 104.921L459.365 128.493L474.059 120.007L392.294 95.021L374.993 104.921ZM319.535 119.064L341.813 92.193L381.392 12.993L402.959 0.5L403.907 0.971L381.866 83.236L322.616 120.243L319.535 119.064Z" fill="#F04A23"/>
<path d="M367.174 91.7219L390.4 12.2859L399.406 7.33594L381.868 83.2359L367.174 91.7219Z" fill="white"/>
<path d="M365.988 93.3729L382.578 83.9449L400.353 5.92188L389.688 11.8149L365.988 93.3729ZM381.156 82.7659L368.121 90.3089L390.873 12.7589L398.22 8.51587L381.156 82.7659Z" fill="#18192E"/>
<path d="M322.617 120.245L344.658 93.6087L382.341 13.4657L403.908 0.972656L384.711 84.6517L322.617 120.245Z" fill="#F04A23"/>
<path d="M370.018 93.1376L393.244 13.7016L402.25 8.51562L384.712 84.6516L370.018 93.1376Z" fill="#F04A23"/>
<path d="M157.19 263.795C157.19 263.795 359.588 277.466 430.688 273.223L455.573 258.845V257.195C455.573 257.195 320.72 237.63 289.199 231.03C256.019 224.195 241.799 216.888 239.666 216.18L156.953 262.145L154.82 263.795H157.19Z" fill="#D0D0D0"/>
<path d="M298.679 160.551L300.101 159.608C300.812 159.137 301.286 159.608 301.286 160.315V164.558C301.286 165.265 300.812 166.444 300.101 166.68L298.679 167.622C297.968 168.094 297.494 167.622 297.494 166.915V162.672C297.257 161.965 297.968 161.022 298.679 160.551Z" fill="#18192E"/>
<path d="M297.968 168.094C298.205 168.094 298.442 168.094 298.679 167.858L300.101 166.915C300.812 166.444 301.523 165.501 301.523 164.558V160.315C301.523 159.844 301.286 159.608 301.049 159.372C300.812 159.137 300.338 159.137 299.864 159.372L298.442 160.315C297.731 160.787 297.02 161.73 297.02 162.672V166.915C297.02 167.387 297.257 167.622 297.494 167.858C297.731 167.858 297.968 168.094 297.968 168.094ZM300.575 159.844H300.812C301.049 159.844 301.049 160.08 301.049 160.551V164.794C301.049 165.501 300.575 166.444 299.864 166.915L298.442 167.858C298.205 168.094 297.968 168.094 297.731 167.858C297.494 167.858 297.494 167.622 297.494 167.151V162.908C297.494 162.201 297.968 161.258 298.679 160.787L300.101 159.844H300.575Z" fill="#D0D0D0"/>
<path d="M291.095 164.793L292.517 163.85C293.228 163.378 293.702 163.85 293.702 164.557V168.8C293.702 169.507 293.228 170.686 292.517 170.921L291.095 171.864C290.384 172.336 289.91 171.864 289.91 171.157V166.914C289.91 166.207 290.621 165.264 291.095 164.793Z" fill="#18192E"/>
<path d="M290.622 172.337C290.859 172.337 291.096 172.337 291.333 172.101L292.755 171.157C293.466 170.686 294.177 169.744 294.177 168.801V164.558C294.177 164.087 293.94 163.851 293.703 163.615C293.466 163.378 292.992 163.378 292.518 163.615L291.096 164.558C290.385 165.029 289.674 165.972 289.674 166.915V171.157C289.674 171.628 289.911 171.865 290.148 172.101C290.385 172.101 290.385 172.337 290.622 172.337ZM293.229 163.851H293.466C293.703 163.851 293.703 164.087 293.703 164.558V168.801C293.703 169.508 293.229 170.451 292.518 170.922L291.096 171.865C290.859 172.101 290.622 172.101 290.385 171.865C290.148 171.865 290.148 171.628 290.148 171.157V166.915C290.148 166.208 290.622 165.265 291.333 164.794L292.755 163.851C292.992 164.087 293.229 163.851 293.229 163.851Z" fill="#D0D0D0"/>
<path d="M283.75 169.035L285.409 168.092C286.12 167.62 286.594 168.092 286.594 168.799V173.042C286.594 173.749 286.12 174.928 285.409 175.163L283.987 176.106C283.276 176.578 282.802 176.106 282.802 175.399V171.156C282.565 170.449 283.039 169.506 283.75 169.035Z" fill="#18192E"/>
<path d="M283.274 176.579C283.511 176.579 283.748 176.579 283.985 176.343L285.407 175.4C286.118 174.929 286.829 173.986 286.829 173.043V168.8C286.829 168.329 286.592 168.093 286.355 167.857C286.118 167.621 285.644 167.621 285.17 167.857L283.748 168.8C283.037 169.271 282.326 170.214 282.326 171.157V175.4C282.326 175.871 282.563 176.107 282.8 176.343C283.037 176.343 283.037 176.579 283.274 176.579ZM285.881 168.093H286.118C286.355 168.093 286.355 168.329 286.355 168.8V173.043C286.355 173.75 285.881 174.693 285.17 175.164L283.748 176.107C283.511 176.343 283.274 176.343 283.037 176.107C282.8 176.107 282.8 175.871 282.8 175.4V171.157C282.8 170.45 283.274 169.507 283.985 169.036L285.407 168.329C285.644 168.329 285.881 168.093 285.881 168.093Z" fill="#D0D0D0"/>
<path d="M276.402 173.277L277.824 172.335C278.535 171.863 279.009 172.335 279.009 173.042V177.285C279.009 177.992 278.535 179.17 277.824 179.406L276.402 180.349C275.691 180.82 275.217 180.349 275.217 179.642V175.399C275.217 174.692 275.691 173.749 276.402 173.277Z" fill="#18192E"/>
<path d="M275.927 180.82C276.164 180.82 276.401 180.82 276.638 180.585L278.06 179.642C278.771 179.17 279.482 178.227 279.482 177.285V173.042C279.482 172.57 279.245 172.335 279.008 172.099C278.771 171.863 278.297 171.863 277.823 172.099L276.401 173.042C275.69 173.513 274.979 174.456 274.979 175.399V179.642C274.979 180.113 275.216 180.349 275.453 180.585C275.69 180.585 275.69 180.82 275.927 180.82ZM278.534 172.335H278.771C279.008 172.335 279.008 172.57 279.008 173.042V177.285C279.008 177.992 278.534 178.935 277.823 179.406L276.401 180.349C276.164 180.585 275.927 180.585 275.69 180.349C275.453 180.349 275.453 180.113 275.453 179.642V175.399C275.453 174.692 275.927 173.749 276.638 173.277L278.06 172.57C278.297 172.57 278.297 172.335 278.534 172.335Z" fill="#D0D0D0"/>
<path d="M269.054 177.519L270.476 176.576C271.187 176.105 271.661 176.576 271.661 177.284V181.526C271.661 182.234 271.187 183.412 270.476 183.648L269.054 184.591C268.343 185.062 267.869 184.591 267.869 183.884V179.641C267.869 178.934 268.343 177.991 269.054 177.519Z" fill="#18192E"/>
<path d="M268.581 185.062C268.818 185.062 269.055 185.062 269.292 184.826L270.714 183.884C271.425 183.412 272.136 182.469 272.136 181.526V177.284C272.136 176.812 271.899 176.576 271.662 176.341C271.425 176.105 270.951 176.105 270.477 176.341L269.055 177.284C268.344 177.755 267.633 178.698 267.633 179.641V183.884C267.633 184.355 267.87 184.591 268.107 184.826C268.107 184.826 268.344 185.062 268.581 185.062ZM271.188 176.576H271.425C271.662 176.576 271.662 176.812 271.662 177.284V181.526C271.662 182.234 271.188 183.176 270.477 183.648L269.055 184.591C268.818 184.826 268.581 184.826 268.344 184.591C268.107 184.591 268.107 184.355 268.107 183.884V179.641C268.107 178.934 268.581 177.991 269.292 177.519L270.714 176.576C270.951 176.812 270.951 176.576 271.188 176.576Z" fill="#D0D0D0"/>
<path d="M261.708 181.765L263.13 180.822C263.841 180.351 264.315 180.822 264.315 181.53V185.772C264.315 186.479 263.841 187.658 263.13 187.894L261.708 188.837C260.997 189.308 260.523 188.837 260.523 188.129V183.887C260.523 183.18 260.997 182.237 261.708 181.765Z" fill="#18192E"/>
<path d="M261.233 189.07C261.47 189.07 261.707 189.07 261.944 188.835L263.366 187.892C264.077 187.42 264.788 186.478 264.788 185.535V181.292C264.788 180.82 264.551 180.585 264.314 180.349C264.077 180.113 263.603 180.113 263.129 180.349L261.707 181.292C260.996 181.763 260.285 182.706 260.285 183.649V187.892C260.285 188.363 260.522 188.599 260.759 188.835C260.759 189.07 260.996 189.07 261.233 189.07ZM263.84 180.82H264.077C264.314 180.82 264.314 181.056 264.314 181.528V185.77C264.314 186.478 263.84 187.42 263.129 187.892L261.707 188.835C261.47 189.07 261.233 189.07 260.996 188.835C260.759 188.835 260.759 188.599 260.759 188.128V183.885C260.759 183.178 261.233 182.235 261.944 181.763L263.366 180.82C263.366 181.056 263.603 180.82 263.84 180.82Z" fill="#D0D0D0"/>
<path d="M254.36 186.008L255.782 185.065C256.493 184.594 256.967 185.065 256.967 185.772V190.015C256.967 190.722 256.493 191.901 255.782 192.137L254.36 193.079C253.649 193.551 253.175 193.079 253.175 192.372V188.129C252.938 187.422 253.649 186.479 254.36 186.008Z" fill="#18192E"/>
<path d="M253.649 193.312C253.886 193.312 254.123 193.312 254.36 193.077L255.782 192.134C256.493 191.662 257.204 190.719 257.204 189.777V185.534C257.204 185.062 256.967 184.827 256.73 184.591C256.493 184.355 256.019 184.355 255.545 184.591L254.123 185.534C253.412 186.005 252.701 186.948 252.701 187.891V192.134C252.701 192.605 252.938 192.841 253.175 193.077C253.412 193.312 253.649 193.312 253.649 193.312ZM256.493 185.062H256.73C256.967 185.062 256.967 185.298 256.967 185.769V190.012C256.967 190.719 256.493 191.662 255.782 192.134L254.36 193.077C254.123 193.312 253.886 193.312 253.649 193.077C253.412 193.077 253.412 192.841 253.412 192.369V188.127C253.412 187.419 253.886 186.477 254.597 186.005L256.019 185.062C256.019 185.298 256.256 185.062 256.493 185.062Z" fill="#D0D0D0"/>
<path d="M247.013 190.25L248.435 189.307C249.146 188.836 249.62 189.307 249.62 190.014V194.257C249.62 194.964 249.146 196.143 248.435 196.379L247.013 197.321C246.302 197.793 245.828 197.321 245.828 196.614V192.371C245.591 191.664 246.302 190.721 247.013 190.25Z" fill="#18192E"/>
<path d="M246.302 197.558C246.539 197.558 246.776 197.558 247.013 197.322L248.435 196.38C249.146 195.908 249.857 194.965 249.857 194.022V189.78C249.857 189.308 249.62 189.072 249.383 188.837C249.146 188.601 248.672 188.601 248.198 188.837L246.776 189.78C246.065 190.251 245.354 191.194 245.354 192.137V196.38C245.354 196.851 245.591 197.087 245.828 197.322C246.065 197.558 246.302 197.558 246.302 197.558ZM248.909 189.308H249.146C249.383 189.308 249.383 189.544 249.383 190.015V194.258C249.383 194.965 248.909 195.908 248.198 196.38L246.776 197.322C246.539 197.558 246.302 197.558 246.065 197.322C245.828 197.322 245.828 197.087 245.828 196.615V192.372C245.828 191.665 246.302 190.722 247.013 190.251L248.435 189.308C248.672 189.544 248.909 189.308 248.909 189.308Z" fill="#D0D0D0"/>
<path d="M239.429 194.492L240.851 193.549C241.562 193.078 242.036 193.549 242.036 194.256V198.499C242.036 199.206 241.562 200.385 240.851 200.62L239.429 201.563C238.718 202.035 238.244 201.563 238.244 200.856V196.613C238.244 195.906 238.955 194.963 239.429 194.492Z" fill="#18192E"/>
<path d="M238.956 201.8C239.193 201.8 239.43 201.8 239.667 201.564L241.089 200.621C241.8 200.15 242.511 199.207 242.511 198.264V194.021C242.511 193.55 242.274 193.314 242.037 193.079C241.8 192.843 241.326 192.843 240.852 193.079L239.43 194.021C238.719 194.493 238.008 195.436 238.008 196.379V200.857C238.008 201.329 238.245 201.564 238.482 201.8H238.956ZM241.563 193.55H241.8C242.037 193.55 242.037 193.786 242.037 194.257V198.5C242.037 199.207 241.563 200.15 240.852 200.621L239.43 201.564C239.193 201.8 238.956 201.8 238.719 201.564C238.482 201.564 238.482 201.329 238.482 200.857V196.614C238.482 195.907 238.956 194.964 239.667 194.493L241.089 193.55C241.326 193.786 241.563 193.55 241.563 193.55Z" fill="#D0D0D0"/>
<path d="M232.081 198.735L233.503 197.792C234.214 197.32 234.688 197.792 234.688 198.499V202.742C234.688 203.449 234.214 204.628 233.503 204.863L232.081 205.806C231.37 206.278 230.896 205.806 230.896 205.099V200.856C230.896 200.149 231.37 199.206 232.081 198.735Z" fill="#18192E"/>
<path d="M231.608 206.042C231.845 206.042 232.082 206.042 232.319 205.806L233.741 204.863C234.452 204.392 235.163 203.449 235.163 202.506V198.499C235.163 198.028 234.926 197.792 234.689 197.556C234.452 197.32 233.978 197.32 233.504 197.556L232.082 198.499C231.371 198.97 230.66 199.913 230.66 200.856V205.099C230.66 205.57 230.897 205.806 231.134 206.042H231.608ZM234.215 197.792H234.452C234.689 197.792 234.689 198.028 234.689 198.499V202.742C234.689 203.449 234.215 204.392 233.504 204.863L232.082 205.806C231.845 206.042 231.608 206.042 231.371 205.806C231.134 205.806 231.134 205.57 231.134 205.099V200.856C231.134 200.149 231.608 199.206 232.319 198.735L233.741 197.792C233.978 198.028 234.215 197.792 234.215 197.792Z" fill="#D0D0D0"/>
<path d="M224.736 202.976L226.158 202.033C226.869 201.562 227.343 202.033 227.343 202.741V206.983C227.343 207.691 226.869 208.869 226.158 209.105L224.736 210.048C224.025 210.519 223.551 210.048 223.551 209.341V205.098C223.551 204.391 224.025 203.448 224.736 202.976Z" fill="#18192E"/>
<path d="M224.26 210.285C224.497 210.285 224.734 210.285 224.971 210.049L226.393 209.106C227.104 208.635 227.815 207.692 227.815 206.749V202.506C227.815 202.035 227.578 201.799 227.341 201.563C227.104 201.328 226.63 201.328 226.156 201.563L224.734 202.506C224.023 202.978 223.312 203.92 223.312 204.863V209.106C223.312 209.578 223.549 209.813 223.786 210.049C224.023 210.285 224.023 210.285 224.26 210.285ZM226.867 202.035H227.104C227.341 202.035 227.341 202.27 227.341 202.742V206.985C227.341 207.692 226.867 208.635 226.156 209.106L224.734 210.049C224.497 210.285 224.26 210.285 224.023 210.049C223.786 210.049 223.786 209.813 223.786 209.342V205.099C223.786 204.392 224.26 203.449 224.971 202.978L226.393 202.035C226.63 202.27 226.63 202.035 226.867 202.035Z" fill="#D0D0D0"/>
<path d="M217.388 207.222L218.81 206.28C219.521 205.808 219.995 206.28 219.995 206.987V211.23C219.995 211.937 219.521 213.115 218.81 213.351L217.388 214.294C216.677 214.765 216.203 214.294 216.203 213.587V209.344C216.203 208.637 216.677 207.694 217.388 207.222Z" fill="#18192E"/>
<path d="M216.915 214.528C217.152 214.528 217.389 214.528 217.626 214.292L219.048 213.349C219.759 212.878 220.47 211.935 220.47 210.992V206.749C220.47 206.278 220.233 206.042 219.996 205.806C219.759 205.57 219.285 205.57 218.811 205.806L217.389 206.749C216.678 207.22 215.967 208.163 215.967 209.106V213.349C215.967 213.82 216.204 214.056 216.441 214.292C216.441 214.528 216.678 214.528 216.915 214.528ZM219.522 206.278H219.759C219.996 206.278 219.996 206.513 219.996 206.985V211.228C219.996 211.935 219.522 212.878 218.811 213.349L217.389 214.292C217.152 214.528 216.915 214.528 216.678 214.292C216.441 214.292 216.441 214.056 216.441 213.585V209.342C216.441 208.635 216.915 207.692 217.626 207.22L219.048 206.278H219.522Z" fill="#D0D0D0"/>
<path d="M210.04 211.465L211.462 210.522C212.173 210.051 212.647 210.522 212.647 211.229V215.472C212.647 216.179 212.173 217.358 211.462 217.594L210.04 218.537C209.329 219.008 208.855 218.537 208.855 217.829V213.587C208.855 212.879 209.329 211.937 210.04 211.465Z" fill="#18192E"/>
<path d="M209.567 218.769C209.804 218.769 210.041 218.769 210.278 218.534L211.7 217.591C212.411 217.119 213.122 216.177 213.122 215.234V210.991C213.122 210.519 212.885 210.284 212.648 210.048C212.411 209.812 211.937 209.812 211.463 210.048L210.041 210.991C209.33 211.462 208.619 212.405 208.619 213.348V217.591C208.619 218.062 208.856 218.298 209.093 218.534C209.093 218.769 209.33 218.769 209.567 218.769ZM212.174 210.519H212.411C212.648 210.519 212.648 210.755 212.648 211.227V215.469C212.648 216.177 212.174 217.119 211.463 217.591L210.041 218.534C209.804 218.769 209.567 218.769 209.33 218.534C209.093 218.534 209.093 218.298 209.093 217.827V213.584C209.093 212.877 209.567 211.934 210.278 211.462L211.7 210.519H212.174Z" fill="#D0D0D0"/>
<path d="M202.694 215.707L204.116 214.764C204.827 214.293 205.301 214.764 205.301 215.471V219.714C205.301 220.421 204.827 221.6 204.116 221.836L202.694 222.779C201.983 223.25 201.509 222.779 201.509 222.071V217.829C201.272 217.121 201.983 216.179 202.694 215.707Z" fill="#18192E"/>
<path d="M201.983 223.015C202.22 223.015 202.457 223.015 202.694 222.779L204.116 221.837C204.827 221.365 205.538 220.422 205.538 219.479V215.237C205.538 214.765 205.301 214.529 205.064 214.294C204.827 214.058 204.353 214.058 203.879 214.294L202.457 215.237C201.746 215.708 201.035 216.651 201.035 217.594V222.072C201.035 222.544 201.272 222.779 201.509 223.015H201.983ZM204.827 214.765H205.064C205.301 214.765 205.301 215.001 205.301 215.472V219.715C205.301 220.422 204.827 221.365 204.116 221.837L202.694 222.779C202.457 223.015 202.22 223.015 201.983 222.779C201.746 222.779 201.746 222.544 201.746 222.072V217.829C201.746 217.122 202.22 216.179 202.931 215.708L204.353 214.765H204.827Z" fill="#D0D0D0"/>
<path d="M195.349 219.949L196.771 219.006C197.482 218.534 197.956 219.006 197.956 219.713V223.956C197.956 224.663 197.482 225.842 196.771 226.077L195.349 227.02C194.638 227.492 194.164 227.02 194.164 226.313V222.07C193.927 221.363 194.638 220.42 195.349 219.949Z" fill="#18192E"/>
<path d="M194.635 227.256C194.872 227.256 195.109 227.256 195.346 227.02L196.768 226.077C197.479 225.606 198.19 224.663 198.19 223.72V219.713C198.19 219.242 197.953 219.006 197.716 218.77C197.479 218.535 197.005 218.535 196.531 218.77L195.109 219.713C194.398 220.185 193.688 221.127 193.688 222.07V226.313C193.688 226.785 193.924 227.02 194.161 227.256H194.635ZM197.242 219.006H197.479C197.716 219.006 197.716 219.242 197.716 219.713V223.956C197.716 224.663 197.242 225.606 196.531 226.077L195.109 227.02C194.872 227.256 194.635 227.256 194.398 227.02C194.161 227.02 194.161 226.785 194.161 226.313V222.07C194.161 221.363 194.635 220.42 195.346 219.949L196.768 219.006H197.242Z" fill="#D0D0D0"/>
<path d="M187.763 224.191L189.185 223.248C189.896 222.777 190.37 223.248 190.37 223.955V228.198C190.37 228.905 189.896 230.084 189.185 230.319L187.763 231.262C187.052 231.734 186.578 231.262 186.578 230.555V226.312C186.578 225.605 187.289 224.662 187.763 224.191Z" fill="#18192E"/>
<path d="M187.29 231.5C187.527 231.5 187.764 231.5 188.001 231.264L189.423 230.321C190.134 229.85 190.845 228.907 190.845 227.964V223.721C190.845 223.25 190.608 223.014 190.371 222.779C190.134 222.543 189.66 222.543 189.186 222.779L187.764 223.721C187.053 224.193 186.342 225.136 186.342 226.079V230.321C186.342 230.793 186.579 231.029 186.816 231.264C187.053 231.5 187.053 231.5 187.29 231.5ZM189.897 223.25H190.134C190.371 223.25 190.371 223.486 190.371 223.957V228.2C190.371 228.907 189.897 229.85 189.186 230.321L187.764 231.264C187.527 231.5 187.29 231.5 187.053 231.264C186.816 231.264 186.816 231.029 186.816 230.557V226.314C186.816 225.607 187.29 224.664 188.001 224.193L189.423 223.25H189.897Z" fill="#D0D0D0"/>
<path d="M180.415 228.438L181.837 227.495C182.548 227.023 183.022 227.495 183.022 228.202V232.445C183.022 233.152 182.548 234.33 181.837 234.566L180.415 235.509C179.704 235.98 179.23 235.509 179.23 234.802V230.559C179.23 229.852 179.704 228.909 180.415 228.438Z" fill="#18192E"/>
<path d="M179.942 235.742C180.179 235.742 180.416 235.742 180.653 235.506L182.075 234.563C182.786 234.092 183.497 233.149 183.497 232.206V227.963C183.497 227.492 183.26 227.256 183.023 227.021C182.786 226.785 182.312 226.785 181.838 227.021L180.416 227.963C179.705 228.435 178.994 229.378 178.994 230.321V234.563C178.994 235.035 179.231 235.271 179.468 235.506C179.705 235.742 179.705 235.742 179.942 235.742ZM182.549 227.492H182.786C183.023 227.492 183.023 227.728 183.023 228.199V232.442C183.023 233.149 182.549 234.092 181.838 234.563L180.416 235.506C180.179 235.742 179.942 235.742 179.705 235.506C179.468 235.506 179.468 235.271 179.468 234.799V230.556C179.468 229.849 179.942 228.906 180.653 228.435L182.075 227.492H182.549Z" fill="#D0D0D0"/>
<path d="M173.07 232.68L174.492 231.737C175.203 231.265 175.677 231.737 175.677 232.444V236.687C175.677 237.394 175.203 238.572 174.492 238.808L173.07 239.751C172.359 240.223 171.885 239.751 171.885 239.044V234.801C171.885 234.094 172.359 233.151 173.07 232.68Z" fill="#18192E"/>
<path d="M172.594 239.984C172.831 239.984 173.068 239.984 173.305 239.748L174.727 238.805C175.438 238.334 176.149 237.391 176.149 236.448V232.205C176.149 231.734 175.912 231.498 175.675 231.262C175.438 231.027 174.964 231.027 174.49 231.262L173.068 232.205C172.357 232.677 171.646 233.619 171.646 234.562V238.805C171.646 239.277 171.883 239.512 172.12 239.748C172.357 239.984 172.357 239.984 172.594 239.984ZM175.201 231.734H175.438C175.675 231.734 175.675 231.969 175.675 232.441V236.684C175.675 237.391 175.201 238.334 174.49 238.805L173.068 239.748C172.831 239.984 172.594 239.984 172.357 239.748C172.12 239.748 172.12 239.512 172.12 239.041V234.798C172.12 234.091 172.594 233.148 173.305 232.677L174.727 231.734H175.201Z" fill="#D0D0D0"/>
<path d="M165.722 236.922L167.144 235.979C167.855 235.508 168.329 235.979 168.329 236.687V240.929C168.329 241.637 167.855 242.815 167.144 243.051L165.722 243.994C165.011 244.465 164.537 243.994 164.537 243.287V239.044C164.537 238.337 165.011 237.394 165.722 236.922Z" fill="#18192E"/>
<path d="M165.249 244.226C165.486 244.226 165.723 244.226 165.96 243.991L167.382 243.048C168.093 242.576 168.804 241.633 168.804 240.691V236.448C168.804 235.976 168.567 235.741 168.33 235.505C168.093 235.269 167.619 235.269 167.145 235.505L165.723 236.448C165.012 236.919 164.301 237.862 164.301 238.805V243.048C164.301 243.519 164.538 243.755 164.775 243.991C164.775 244.226 165.012 244.226 165.249 244.226ZM167.856 235.976H168.093C168.33 235.976 168.33 236.212 168.33 236.683V240.926C168.33 241.633 167.856 242.576 167.145 243.048L165.723 243.991C165.486 244.226 165.249 244.226 165.012 243.991C164.775 243.991 164.775 243.755 164.775 243.283V239.041C164.775 238.333 165.249 237.391 165.96 236.919L167.382 235.976H167.856Z" fill="#D0D0D0"/>
<path d="M158.376 241.164L159.798 240.221C160.509 239.75 160.983 240.221 160.983 240.929V245.171C160.983 245.879 160.509 247.057 159.798 247.293L158.376 248.236C157.665 248.707 157.191 248.236 157.191 247.529V243.286C157.191 242.579 157.665 241.636 158.376 241.164Z" fill="#18192E"/>
<path d="M157.901 248.471C158.138 248.471 158.375 248.471 158.612 248.236L160.034 247.293C160.745 246.821 161.456 245.879 161.456 244.936V240.929C161.456 240.457 161.219 240.221 160.982 239.986C160.745 239.75 160.271 239.75 159.797 239.986L158.375 240.929C157.664 241.4 156.953 242.343 156.953 243.286V247.529C156.953 248 157.19 248.236 157.427 248.471H157.901ZM160.508 240.221H160.745C160.982 240.221 160.982 240.457 160.982 240.929V245.171C160.982 245.879 160.508 246.821 159.797 247.293L158.375 248.236C158.138 248.471 157.901 248.471 157.664 248.236C157.427 248.236 157.427 248 157.427 247.529V243.286C157.427 242.579 157.901 241.636 158.612 241.164L160.034 240.221H160.508Z" fill="#D0D0D0"/>
<path d="M151.028 245.406L152.449 244.463C153.16 243.992 153.634 244.463 153.634 245.17V249.413C153.634 250.12 153.16 251.299 152.449 251.535L151.028 252.477C150.317 252.949 149.843 252.477 149.843 251.77V247.527C149.606 246.82 150.317 245.642 151.028 245.406Z" fill="#18192E"/>
<path d="M150.317 252.714C150.554 252.714 150.791 252.714 151.028 252.479L152.45 251.536C153.161 251.064 153.872 250.121 153.872 249.179V244.936C153.872 244.464 153.635 244.229 153.398 243.993C153.161 243.757 152.687 243.757 152.213 243.993L150.791 244.936C150.08 245.407 149.369 246.35 149.369 247.293V251.536C149.369 252.007 149.606 252.243 149.843 252.479C150.08 252.714 150.317 252.714 150.317 252.714ZM153.161 244.464H153.398C153.635 244.464 153.635 244.7 153.635 245.171V249.414C153.635 250.121 153.161 251.064 152.45 251.536L151.028 252.479C150.791 252.714 150.554 252.714 150.317 252.479C150.08 252.479 150.08 252.243 150.08 251.771V247.529C150.08 246.821 150.554 245.879 151.265 245.407L152.687 244.464H153.161Z" fill="#D0D0D0"/>
<path d="M143.681 249.648L145.103 248.705C145.814 248.234 146.288 248.705 146.288 249.412V253.655C146.288 254.362 145.814 255.541 145.103 255.777L143.681 256.719C142.97 257.191 142.496 256.719 142.496 256.012V251.769C142.259 251.062 142.97 249.884 143.681 249.648Z" fill="#18192E"/>
<path d="M142.969 256.957C143.206 256.957 143.443 256.957 143.68 256.721L145.102 255.778C145.813 255.307 146.524 254.364 146.524 253.421V249.178C146.524 248.707 146.287 248.471 146.05 248.236C145.813 248 145.339 248 144.865 248.236L143.443 249.178C142.732 249.65 142.021 250.593 142.021 251.536V255.778C142.021 256.25 142.258 256.486 142.495 256.721C142.732 256.957 142.969 256.957 142.969 256.957ZM145.576 248.707H145.813C146.05 248.707 146.05 248.943 146.05 249.414V253.657C146.05 254.364 145.576 255.307 144.865 255.778L143.443 256.721C143.206 256.957 142.969 256.957 142.732 256.721C142.495 256.721 142.495 256.486 142.495 256.014V251.771C142.495 251.064 142.969 250.121 143.68 249.65L145.102 248.707H145.576Z" fill="#D0D0D0"/>
<path d="M136.333 253.894L137.755 252.951C138.466 252.48 138.94 252.951 138.94 253.658V257.901C138.94 258.608 138.466 259.787 137.755 260.022L136.333 260.965C135.622 261.437 135.148 260.965 135.148 260.258V256.015C134.911 255.308 135.622 254.13 136.333 253.894Z" fill="#18192E"/>
<path d="M135.624 261.199C135.861 261.199 136.098 261.199 136.335 260.963L137.757 260.02C138.468 259.549 139.179 258.606 139.179 257.663V253.42C139.179 252.949 138.942 252.713 138.705 252.478C138.468 252.242 137.994 252.242 137.52 252.478L136.098 253.42C135.387 253.892 134.676 254.835 134.676 255.778V260.02C134.676 260.492 134.913 260.728 135.15 260.963C135.387 261.199 135.624 261.199 135.624 261.199ZM138.231 252.949H138.468C138.705 252.949 138.705 253.185 138.705 253.656V257.899C138.705 258.606 138.231 259.549 137.52 260.02L136.098 260.963C135.861 261.199 135.624 261.199 135.387 260.963C135.15 260.963 135.15 260.728 135.15 260.256V256.013C135.15 255.306 135.624 254.363 136.335 253.892L137.757 252.949H138.231Z" fill="#D0D0D0"/>
<path d="M128.749 258.137L130.171 257.194C130.882 256.722 131.356 257.194 131.356 257.901V262.144C131.356 262.851 130.882 264.029 130.171 264.265L128.749 265.208C128.038 265.679 127.564 265.208 127.564 264.501V260.258C127.564 259.551 128.038 258.372 128.749 258.137Z" fill="#18192E"/>
<path d="M128.276 265.441C128.513 265.441 128.75 265.441 128.987 265.205L130.409 264.262C131.12 263.791 131.831 262.848 131.831 261.905V257.662C131.831 257.191 131.594 256.955 131.357 256.719C131.12 256.484 130.646 256.484 130.172 256.719L128.75 257.662C128.039 258.134 127.328 259.076 127.328 260.019V264.262C127.328 264.734 127.565 264.969 127.802 265.205C128.039 265.441 128.039 265.441 128.276 265.441ZM130.883 257.191H131.12C131.357 257.191 131.357 257.426 131.357 257.898V262.141C131.357 262.848 130.883 263.791 130.172 264.262L128.75 265.205C128.513 265.441 128.276 265.441 128.039 265.205C127.802 265.205 127.802 264.969 127.802 264.498V260.255C127.802 259.548 128.276 258.605 128.987 258.134L130.409 257.191H130.883Z" fill="#D0D0D0"/>
<path d="M121.404 262.379L122.826 261.436C123.537 260.964 124.011 261.436 124.011 262.143V266.386C124.011 267.093 123.537 268.272 122.826 268.507L121.404 269.45C120.693 269.922 120.219 269.45 120.219 268.743V264.5C120.219 263.793 120.693 262.614 121.404 262.379Z" fill="#18192E"/>
<path d="M120.928 269.686C121.165 269.686 121.402 269.686 121.639 269.45L123.061 268.507C123.772 268.036 124.483 267.093 124.483 266.15V262.143C124.483 261.672 124.246 261.436 124.009 261.2C123.772 260.964 123.298 260.964 122.824 261.2L121.402 262.143C120.691 262.614 119.98 263.557 119.98 264.5V268.743C119.98 269.214 120.217 269.45 120.454 269.686H120.928ZM123.535 261.436H123.772C124.009 261.436 124.009 261.672 124.009 262.143V266.386C124.009 267.093 123.535 268.036 122.824 268.507L121.402 269.45C121.165 269.686 120.928 269.686 120.691 269.45C120.454 269.45 120.454 269.214 120.454 268.743V264.5C120.454 263.793 120.928 262.85 121.639 262.379L123.061 261.436H123.535Z" fill="#D0D0D0"/>
<path d="M114.056 266.621L115.478 265.678C116.189 265.207 116.663 265.678 116.663 266.386V270.628C116.663 271.336 116.189 272.514 115.478 272.75L114.056 273.693C113.345 274.164 112.871 273.693 112.871 272.986V268.743C112.871 268.036 113.345 266.857 114.056 266.621Z" fill="#18192E"/>
<path d="M113.583 273.929C113.82 273.929 114.057 273.929 114.294 273.694L115.716 272.751C116.427 272.279 117.138 271.337 117.138 270.394V266.151C117.138 265.679 116.901 265.444 116.664 265.208C116.427 264.972 115.953 264.972 115.479 265.208L114.057 266.151C113.346 266.622 112.635 267.565 112.635 268.508V272.751C112.635 273.222 112.872 273.458 113.109 273.694C113.109 273.929 113.346 273.929 113.583 273.929ZM116.19 265.679H116.427C116.664 265.679 116.664 265.915 116.664 266.387V270.629C116.664 271.337 116.19 272.279 115.479 272.751L114.057 273.694C113.82 273.929 113.583 273.929 113.346 273.694C113.109 273.694 113.109 273.458 113.109 272.987V268.744C113.109 268.037 113.583 267.094 114.294 266.622L115.716 265.679H116.19Z" fill="#D0D0D0"/>
<path d="M106.708 270.863L108.13 269.92C108.841 269.449 109.315 269.92 109.315 270.627V274.87C109.315 275.577 108.841 276.756 108.13 276.992L106.708 277.935C105.997 278.406 105.523 277.935 105.523 277.227V272.985C105.523 272.042 105.997 271.099 106.708 270.863Z" fill="#18192E"/>
<path d="M106.235 278.171C106.472 278.171 106.709 278.171 106.946 277.936L108.368 276.993C109.079 276.521 109.79 275.578 109.79 274.636V270.393C109.79 269.921 109.553 269.686 109.316 269.45C109.079 269.214 108.605 269.214 108.131 269.45L106.709 270.393C105.998 270.864 105.287 271.807 105.287 272.75V276.993C105.287 277.464 105.524 277.7 105.761 277.936C105.761 278.171 105.998 278.171 106.235 278.171ZM108.842 269.921H109.079C109.316 269.921 109.316 270.157 109.316 270.628V274.871C109.316 275.578 108.842 276.521 108.131 276.993L106.709 277.936C106.472 278.171 106.235 278.171 105.998 277.936C105.761 277.936 105.761 277.7 105.761 277.228V272.986C105.761 272.278 106.235 271.336 106.946 270.864L108.368 269.921H108.842Z" fill="#D0D0D0"/>
<path d="M99.3613 275.105L100.783 274.162C101.494 273.691 101.968 274.162 101.968 274.87V279.112C101.968 279.82 101.494 280.998 100.783 281.234L99.3613 282.177C98.6513 282.648 98.1773 282.177 98.1773 281.47V277.227C97.9403 276.284 98.6513 275.341 99.3613 275.105Z" fill="#18192E"/>
<path d="M98.6513 282.414C98.8883 282.414 99.1263 282.414 99.3633 282.179L100.785 281.236C101.496 280.764 102.207 279.821 102.207 278.879V274.636C102.207 274.164 101.97 273.929 101.733 273.693C101.496 273.457 101.022 273.457 100.548 273.693L99.1263 274.636C98.4143 275.107 97.7043 276.05 97.7043 276.993V281.236C97.7043 281.707 97.9413 281.943 98.1783 282.179C98.4153 282.414 98.6513 282.414 98.6513 282.414ZM101.496 274.164H101.733C101.97 274.164 101.97 274.4 101.97 274.871V279.114C101.97 279.821 101.496 280.764 100.785 281.236L99.3633 282.179C99.1263 282.414 98.8883 282.414 98.6513 282.179C98.4153 282.179 98.4153 281.943 98.4153 281.471V277.229C98.4153 276.521 98.8893 275.579 99.6003 275.107L101.022 274.164H101.496ZM85.8543 297.972C86.3283 297.972 86.8023 297.736 87.2763 297.5L90.5943 295.614C92.2533 294.672 93.4383 292.55 93.4383 290.664V281.472C93.4383 280.529 93.2013 279.822 92.4903 279.586C92.0163 279.35 91.0683 279.35 90.3573 279.822L87.0393 281.707C85.3793 282.65 84.1953 284.772 84.1953 286.657V295.85C84.1953 296.793 84.4323 297.5 85.1433 297.736C85.3803 297.972 85.6183 297.972 85.8543 297.972ZM91.7793 279.822C92.0163 279.822 92.2533 279.822 92.4893 280.057C92.9643 280.293 93.2013 281 93.2013 281.707V290.9C93.2013 292.55 92.0163 294.672 90.5943 295.614L87.2763 297.5C86.5653 297.972 85.8543 297.972 85.3803 297.736C84.9063 297.5 84.6693 296.793 84.6693 296.086V286.893C84.6693 285.243 85.8543 283.122 87.2763 282.179L90.5943 280.293C91.0683 280.057 91.3043 279.822 91.7793 279.822ZM306.738 171.864C307.212 171.864 307.686 171.629 308.16 171.393L311.478 169.507C313.137 168.564 314.322 166.443 314.322 164.557V155.364C314.322 154.422 314.085 153.714 313.374 153.479C312.9 153.243 311.952 153.243 311.241 153.714L307.923 155.6C306.264 156.543 305.079 158.664 305.079 160.55V169.743C305.079 170.686 305.316 171.393 306.027 171.629C306.264 171.864 306.501 171.864 306.738 171.864ZM312.663 153.714C312.9 153.714 313.137 153.714 313.374 153.95C313.848 154.186 314.085 154.893 314.085 155.6V164.793C314.085 166.443 312.9 168.564 311.478 169.507L308.16 171.393C307.449 171.864 306.738 171.864 306.264 171.629C305.79 171.393 305.553 170.686 305.553 169.979V160.786C305.553 159.136 306.738 157.014 308.16 156.072L311.478 153.95C311.952 153.714 312.426 153.714 312.663 153.714Z" fill="#D0D0D0"/>
<path d="M22.5757 309.991C29.2117 309.991 36.5587 308.576 43.1957 305.984L45.3277 297.262C40.1778 298.818 34.8283 299.612 29.4487 299.619C23.9987 299.619 19.4947 298.676 16.1767 296.791C13.5697 295.376 11.9107 293.255 11.4367 290.898C9.06672 294.669 7.17072 298.912 5.51172 303.155C6.22272 304.569 7.64472 305.984 9.54172 307.162C12.8587 309.048 17.3617 309.991 22.5757 309.991Z" fill="#18192E"/>
<path d="M11.4354 291.372C9.30244 295.144 7.40544 298.915 5.74744 303.158C6.45744 304.808 7.88044 305.987 9.77644 307.165C12.8564 309.051 17.3604 309.994 22.8114 309.994C29.2104 309.994 36.5574 308.58 43.4304 305.987L45.3264 297.737C40.1124 299.387 34.6614 300.094 29.6844 300.094C24.2334 300.094 19.4934 299.151 16.4124 297.265C13.8054 295.615 12.1464 293.73 11.4354 291.372ZM11.6724 290.43C12.1464 292.787 13.5684 295.144 16.4124 296.794C19.7304 298.68 24.4704 299.622 29.6844 299.622C34.6614 299.622 40.3494 298.68 45.8004 297.03L43.6674 305.987C36.7944 308.58 29.2104 310.23 22.8114 310.23C17.5974 310.23 12.8574 309.287 9.53944 307.401C7.40644 306.222 6.22144 304.808 5.27344 303.158C7.16944 298.444 9.30244 294.201 11.6724 290.43Z" fill="#D0D0D0"/>
<path d="M157.191 262.141C157.191 262.141 359.589 275.812 430.689 271.569L455.574 257.191C455.574 257.191 322.38 236.212 289.2 229.377C256.02 222.541 241.8 215.234 239.667 214.527L157.191 262.141Z" fill="#EFEFEF"/>
<path d="M331.859 237.156L320.246 243.756C352.715 249.885 400.352 257.192 400.352 257.192L412.202 250.356C412.202 250.356 344.894 239.278 331.859 237.156Z" fill="#F04A23"/>
<path d="M400.353 257.192L412.203 250.356L411.966 250.12L400.116 256.956C398.22 256.72 352.242 249.649 320.484 243.756L331.623 237.392L331.386 237.156L319.299 243.992H319.773C352.242 249.885 399.879 257.192 400.353 257.192Z" fill="#8D8D8D"/>
<path d="M406.516 253.655V253.42C406.042 253.42 356.745 245.641 326.646 239.984V240.22C356.508 245.877 405.805 253.655 406.516 253.655Z" fill="#8D8D8D"/>
<path d="M307.212 232.916L294.888 239.988C294.888 239.988 256.02 233.624 224.973 223.252L239.667 214.766C239.904 214.766 260.286 224.666 307.212 232.916Z" fill="#F04A23"/>
<path d="M294.889 239.988L307.213 232.916L306.976 232.681L294.889 239.752C292.993 239.516 255.073 232.916 225.211 223.016V223.252C255.547 233.388 294.415 239.988 294.889 239.988Z" fill="#8D8D8D"/>
<path d="M301.761 235.98V235.744C268.344 231.265 232.083 219.244 231.846 219.008V219.244C232.083 219.48 268.344 231.501 301.761 235.98ZM433.171 253.383L433.582 253.961L413.273 268.264L412.862 267.687L433.171 253.383Z" fill="#8D8D8D"/>
<path d="M436.139 268.742C436.376 268.742 436.376 268.506 436.376 268.506C436.376 268.27 436.139 268.27 436.139 268.035C434.717 268.035 291.332 265.913 169.04 255.07C168.803 255.07 168.566 255.306 168.566 255.306C168.566 255.542 168.803 255.778 168.803 255.778C291.095 266.62 434.717 268.742 436.139 268.742ZM419.312 263.792V263.556L302.234 247.528L216.203 228.199L215.966 228.435L302.234 247.763L419.312 263.792Z" fill="#8D8D8D"/>
<path d="M279.719 263.084L302.471 247.762L302.234 247.527L279.482 262.848L279.719 263.084Z" fill="#8D8D8D"/>
<path d="M455.336 257.194L459.128 225.844L454.862 228.437L439.22 266.387L455.336 257.194ZM455.336 259.08L459.128 290.194L454.862 292.551L438.746 268.508L455.336 259.08Z" fill="#F04A23"/>
<path d="M228.054 285.242C227.58 286.185 227.106 287.599 227.106 289.013C227.106 294.435 230.898 300.799 235.401 303.392C237.297 304.335 238.956 304.806 240.141 304.335C238.719 306.692 235.875 307.163 232.794 305.278C228.291 302.685 224.499 296.085 224.499 290.899C224.499 287.835 225.921 285.713 228.054 285.242ZM9.77734 293.728C10.7253 291.842 10.7253 292.078 11.6733 290.428C12.1473 292.785 13.5693 295.142 16.4133 296.792C23.0493 300.563 34.4253 300.563 45.8013 297.028L43.6683 305.985C23.9973 311.642 11.4363 300.563 9.77734 293.728Z" fill="#18192E"/>
<path d="M322.617 120.244L414.573 101.858L392.295 95.0228L394.191 93.1368C394.191 93.1368 396.087 83.9438 385.896 78.7578L384.711 84.6508L322.617 120.244ZM324.513 136.508L347.502 147.115L356.745 136.98L324.513 136.508Z" fill="#D0D0D0"/>
</g>
<defs>
<linearGradient id="paint0_linear_128_29899" x1="126.607" y1="110.803" x2="137.356" y2="121.61" gradientUnits="userSpaceOnUse">
<stop stop-color="#E2F0F0"/>
<stop offset="0.008" stop-color="#E3F1F1"/>
<stop offset="0.138" stop-color="#F3F9F9"/>
<stop offset="0.287" stop-color="#FCFEFE"/>
<stop offset="0.496" stop-color="white"/>
<stop offset="0.707" stop-color="#FBFEFE"/>
<stop offset="0.913" stop-color="#EFFAFA"/>
<stop offset="1" stop-color="#E8F7F7"/>
</linearGradient>
<linearGradient id="paint1_linear_128_29899" x1="110.307" y1="80.8508" x2="121.055" y2="91.6578" gradientUnits="userSpaceOnUse">
<stop stop-color="#E2F0F0"/>
<stop offset="0.008" stop-color="#E3F1F1"/>
<stop offset="0.138" stop-color="#F3F9F9"/>
<stop offset="0.287" stop-color="#FCFEFE"/>
<stop offset="0.496" stop-color="white"/>
<stop offset="0.707" stop-color="#FBFEFE"/>
<stop offset="0.913" stop-color="#EFFAFA"/>
<stop offset="1" stop-color="#E8F7F7"/>
</linearGradient>
<linearGradient id="paint2_linear_128_29899" x1="158.254" y1="168.207" x2="169.003" y2="179.015" gradientUnits="userSpaceOnUse">
<stop stop-color="#E2F0F0"/>
<stop offset="0.008" stop-color="#E3F1F1"/>
<stop offset="0.138" stop-color="#F3F9F9"/>
<stop offset="0.287" stop-color="#FCFEFE"/>
<stop offset="0.496" stop-color="white"/>
<stop offset="0.707" stop-color="#FBFEFE"/>
<stop offset="0.913" stop-color="#EFFAFA"/>
<stop offset="1" stop-color="#E8F7F7"/>
</linearGradient>
<linearGradient id="paint3_linear_128_29899" x1="141.279" y1="139.118" x2="152.028" y2="149.926" gradientUnits="userSpaceOnUse">
<stop stop-color="#E2F0F0"/>
<stop offset="0.008" stop-color="#E3F1F1"/>
<stop offset="0.138" stop-color="#F3F9F9"/>
<stop offset="0.287" stop-color="#FCFEFE"/>
<stop offset="0.496" stop-color="white"/>
<stop offset="0.707" stop-color="#FBFEFE"/>
<stop offset="0.913" stop-color="#EFFAFA"/>
<stop offset="1" stop-color="#E8F7F7"/>
</linearGradient>
<linearGradient id="paint4_linear_128_29899" x1="366.485" y1="253.091" x2="355.736" y2="242.284" gradientUnits="userSpaceOnUse">
<stop stop-color="#E2F0F0"/>
<stop offset="0.008" stop-color="#E3F1F1"/>
<stop offset="0.138" stop-color="#F3F9F9"/>
<stop offset="0.287" stop-color="#FCFEFE"/>
<stop offset="0.496" stop-color="white"/>
<stop offset="0.707" stop-color="#FBFEFE"/>
<stop offset="0.913" stop-color="#EFFAFA"/>
<stop offset="1" stop-color="#E8F7F7"/>
</linearGradient>
<linearGradient id="paint5_linear_128_29899" x1="418.642" y1="262.452" x2="407.893" y2="251.644" gradientUnits="userSpaceOnUse">
<stop stop-color="#E2F0F0"/>
<stop offset="0.008" stop-color="#E3F1F1"/>
<stop offset="0.138" stop-color="#F3F9F9"/>
<stop offset="0.287" stop-color="#FCFEFE"/>
<stop offset="0.496" stop-color="white"/>
<stop offset="0.707" stop-color="#FBFEFE"/>
<stop offset="0.913" stop-color="#EFFAFA"/>
<stop offset="1" stop-color="#E8F7F7"/>
</linearGradient>
<linearGradient id="paint6_linear_128_29899" x1="266.518" y1="234.92" x2="255.769" y2="224.113" gradientUnits="userSpaceOnUse">
<stop stop-color="#E2F0F0"/>
<stop offset="0.008" stop-color="#E3F1F1"/>
<stop offset="0.138" stop-color="#F3F9F9"/>
<stop offset="0.287" stop-color="#FCFEFE"/>
<stop offset="0.496" stop-color="white"/>
<stop offset="0.707" stop-color="#FBFEFE"/>
<stop offset="0.913" stop-color="#EFFAFA"/>
<stop offset="1" stop-color="#E8F7F7"/>
</linearGradient>
<linearGradient id="paint7_linear_128_29899" x1="317.175" y1="244.666" x2="306.426" y2="233.859" gradientUnits="userSpaceOnUse">
<stop stop-color="#E2F0F0"/>
<stop offset="0.008" stop-color="#E3F1F1"/>
<stop offset="0.138" stop-color="#F3F9F9"/>
<stop offset="0.287" stop-color="#FCFEFE"/>
<stop offset="0.496" stop-color="white"/>
<stop offset="0.707" stop-color="#FBFEFE"/>
<stop offset="0.913" stop-color="#EFFAFA"/>
<stop offset="1" stop-color="#E8F7F7"/>
</linearGradient>
<linearGradient id="paint8_linear_128_29899" x1="43.7345" y1="325.696" x2="50.3255" y2="319.068" gradientUnits="userSpaceOnUse">
<stop stop-color="#E2F0F0"/>
<stop offset="0.008" stop-color="#E3F1F1"/>
<stop offset="0.138" stop-color="#F3F9F9"/>
<stop offset="0.287" stop-color="#FCFEFE"/>
<stop offset="0.496" stop-color="white"/>
<stop offset="0.707" stop-color="#FBFEFE"/>
<stop offset="0.913" stop-color="#EFFAFA"/>
<stop offset="1" stop-color="#E8F7F7"/>
</linearGradient>
<linearGradient id="paint9_linear_128_29899" x1="231.968" y1="279.034" x2="247.06" y2="305.063" gradientUnits="userSpaceOnUse">
<stop stop-color="#E2F0F0"/>
<stop offset="0.008" stop-color="#E3F1F1"/>
<stop offset="0.138" stop-color="#F3F9F9"/>
<stop offset="0.287" stop-color="#FCFEFE"/>
<stop offset="0.496" stop-color="white"/>
<stop offset="0.707" stop-color="#FBFEFE"/>
<stop offset="0.913" stop-color="#EFFAFA"/>
<stop offset="1" stop-color="#E8F7F7"/>
</linearGradient>
<linearGradient id="paint10_linear_128_29899" x1="77.3986" y1="190.205" x2="92.0206" y2="218.208" gradientUnits="userSpaceOnUse">
<stop stop-color="#E2F0F0"/>
<stop offset="0.008" stop-color="#E3F1F1"/>
<stop offset="0.138" stop-color="#F3F9F9"/>
<stop offset="0.287" stop-color="#FCFEFE"/>
<stop offset="0.496" stop-color="white"/>
<stop offset="0.707" stop-color="#FBFEFE"/>
<stop offset="0.913" stop-color="#EFFAFA"/>
<stop offset="1" stop-color="#E8F7F7"/>
</linearGradient>
<clipPath id="clip0_128_29899">
<rect width="483" height="331" fill="white"/>
</clipPath>
</defs>
</svg>
