<svg width="378" height="330" viewBox="0 0 378 330" fill="none" xmlns="http://www.w3.org/2000/svg">
<g clip-path="url(#clip0_128_29665)">
<path d="M247.392 217.152L185.268 246.943V239.98L247.392 210.188V217.152Z" fill="#18192E"/>
<path d="M243.894 207.75L181.77 237.612L185.269 239.981L247.393 210.19L243.894 207.75Z" fill="#677274"/>
<path d="M185.735 246.873L125.633 279.966L125.166 273.003L185.346 239.91L185.735 246.873Z" fill="#18192E"/>
<path d="M184.647 237.469L124.467 270.563L125.167 273.003L185.347 239.91L184.647 237.469Z" fill="#677274"/>
<path d="M348.546 191.526L352.045 189.731L263.563 142.496L260.064 144.363L348.546 191.526Z" fill="#677274"/>
<path d="M348.547 195.042L352.046 193.248V189.73L348.547 191.525V195.042Z" fill="#18192E"/>
<path d="M348.546 195.043V191.526L260.064 144.363V147.88L348.546 195.043Z" fill="#18192E"/>
<path d="M256.178 176.45C256.178 177.312 255.478 177.67 254.623 177.312L235.729 167.62C234.874 167.19 234.174 166.113 234.174 165.252V151.253C234.174 150.392 234.874 150.033 235.729 150.392L254.623 160.083C255.478 160.514 256.178 161.59 256.178 162.452V176.45Z" fill="#0E191B"/>
<path d="M225.932 149.17L257.189 165.825L254.079 157.21L235.885 146.586L225.932 149.17Z" fill="#0E191B"/>
<path d="M248.714 158.647L238.684 153.694C235.652 152.115 231.453 152.33 226.788 154.843C217.458 159.796 209.916 171.856 209.916 181.834C209.916 186.859 211.86 190.305 214.892 191.956L224.922 196.909C227.954 198.488 232.153 198.273 236.818 195.761C246.148 190.807 253.69 178.747 253.69 168.769C253.69 163.744 251.824 160.298 248.714 158.647Z" fill="#2E373A"/>
<path d="M253.689 168.767C253.689 178.674 246.147 190.805 236.817 195.759C232.152 198.199 228.031 198.486 224.921 196.907C221.811 195.328 219.945 191.81 219.945 186.785C219.945 176.879 227.487 164.747 236.817 159.794C241.482 157.353 245.681 157.066 248.713 158.645C251.823 160.296 253.689 163.742 253.689 168.767Z" fill="#555E61"/>
<path d="M252.68 169.919C252.68 178.964 245.838 189.947 237.286 194.469C228.811 198.992 221.891 195.331 221.891 186.286C221.891 177.241 228.733 166.258 237.286 161.735C245.838 157.213 252.68 160.874 252.68 169.919Z" fill="#3B4447"/>
<path d="M247.625 172.356C247.625 178.458 243.037 185.852 237.284 188.867C231.608 191.882 226.943 189.441 226.943 183.34C226.943 177.238 231.53 169.844 237.284 166.829C243.037 163.814 247.625 166.255 247.625 172.356Z" fill="url(#paint0_linear_128_29665)"/>
<path d="M246.693 172.861C246.693 178.388 242.495 185.136 237.285 187.864C232.076 190.664 227.877 188.367 227.877 182.839C227.877 177.312 232.076 170.564 237.285 167.836C242.495 165.036 246.693 167.333 246.693 172.861Z" fill="url(#paint1_linear_128_29665)"/>
<path d="M241.795 166.614C240.473 166.542 238.918 166.901 237.285 167.762C232.076 170.562 227.877 177.238 227.877 182.765C227.877 184.488 228.266 185.924 229.044 187.001C230.366 187.073 231.921 186.714 233.553 185.852C238.763 183.124 242.961 176.377 242.961 170.849C242.961 169.126 242.573 167.69 241.795 166.614Z" fill="url(#paint2_linear_128_29665)"/>
<path d="M240.627 166.688C239.616 166.831 238.527 167.191 237.361 167.837C232.152 170.636 227.953 177.313 227.953 182.84C227.953 184.06 228.186 185.137 228.575 186.07C229.975 186.429 231.763 186.142 233.629 185.137C238.45 182.553 242.337 176.379 242.337 171.283C242.259 169.201 241.637 167.692 240.627 166.688Z" fill="url(#paint3_linear_128_29665)"/>
<path d="M227.953 182.84C227.953 183.271 227.953 183.701 228.031 184.132C228.964 184.06 230.052 183.773 231.219 183.199C235.417 180.974 238.761 175.518 238.761 171.067C238.761 169.631 238.372 168.411 237.75 167.621C237.594 167.693 237.439 167.765 237.361 167.837C232.152 170.565 227.953 177.312 227.953 182.84Z" fill="url(#paint4_linear_128_29665)"/>
<path d="M237.051 174.586C237.051 176.668 235.496 179.18 233.552 180.185C231.609 181.19 230.053 180.4 230.053 178.319C230.053 176.237 231.609 173.724 233.552 172.719C235.496 171.714 237.051 172.504 237.051 174.586Z" fill="url(#paint5_linear_128_29665)"/>
<path d="M213.804 201.506C213.804 202.367 213.105 202.726 212.249 202.367L193.356 192.676C192.5 192.245 191.801 191.168 191.801 190.307V176.309C191.801 175.447 192.5 175.088 193.356 175.447L212.249 185.138C213.105 185.569 213.804 186.646 213.804 187.507V201.506Z" fill="#0E191B"/>
<path d="M193.9 174.297L183.87 169.343C180.837 167.764 176.639 167.979 171.974 170.492C162.644 175.445 155.102 187.505 155.102 197.483C155.102 202.509 157.045 205.954 160.078 207.605L170.108 212.559C173.14 214.138 177.339 213.922 182.004 211.41C191.334 206.457 198.876 194.397 198.876 184.418C198.876 179.393 197.01 175.876 193.9 174.297Z" fill="#2E373A"/>
<path d="M198.875 184.417C198.875 194.324 191.333 206.456 182.003 211.409C177.338 213.85 173.217 214.137 170.107 212.558C166.997 210.978 165.131 207.461 165.131 202.436C165.131 192.529 172.673 180.469 182.003 175.444C186.668 173.003 190.866 172.716 193.899 174.367C197.009 175.875 198.875 179.392 198.875 184.417Z" fill="#555E61"/>
<path d="M197.864 185.567C197.864 194.612 191.022 205.595 182.469 210.118C173.994 214.64 167.074 210.979 167.074 201.934C167.074 192.889 173.917 181.906 182.469 177.383C191.022 172.861 197.864 176.522 197.864 185.567Z" fill="#3B4447"/>
<path d="M184.18 171.424L215.436 188.078L212.326 179.464L194.132 168.84L184.18 171.424Z" fill="#0E191B"/>
<path d="M251.902 153.047L251.824 152.975C251.668 152.903 251.435 152.76 251.28 152.688L231.22 141.992C227.488 140.341 222.589 140.772 217.147 143.643C205.639 149.817 196.309 164.748 196.309 177.024C196.309 177.239 196.309 177.454 196.309 177.67L215.98 188.15L218.857 186.643C218.857 186.428 218.857 186.212 218.857 185.997C218.857 175.444 226.866 162.523 236.818 157.282C246.77 151.97 254.778 156.277 254.778 166.83C254.778 167.045 254.778 167.261 254.778 167.476L257.655 165.969C257.655 165.753 257.655 165.538 257.655 165.322C257.655 159.364 255.478 155.129 251.902 153.047Z" fill="#18192E"/>
<path d="M218.857 186.644C218.857 186.429 218.857 186.213 218.857 185.998C218.857 175.445 226.865 162.524 236.818 157.283C246.77 151.971 254.778 156.278 254.778 166.831C254.778 167.046 254.778 167.262 254.778 167.477L257.655 165.97C257.655 165.754 257.655 165.539 257.655 165.323C257.655 153.048 248.325 148.095 236.818 154.197C225.31 160.37 215.98 175.302 215.98 187.577C215.98 187.792 215.98 188.008 215.98 188.223L218.857 186.644Z" fill="#18192E"/>
<path d="M207.038 180.899L197.008 175.946C193.976 174.366 189.777 174.582 185.112 177.023C175.782 181.976 168.24 194.036 168.24 204.014C168.24 209.039 170.184 212.485 173.216 214.136L183.246 219.089C186.278 220.668 190.477 220.453 195.142 217.941C204.472 212.987 212.014 200.927 212.014 190.949C212.014 185.996 210.07 182.55 207.038 180.899Z" fill="#2E373A"/>
<path d="M212.015 191.022C212.015 200.928 204.473 213.06 195.143 218.013C190.478 220.454 186.357 220.741 183.247 219.162C180.137 217.583 178.271 214.065 178.271 209.04C178.271 199.134 185.813 187.002 195.143 182.049C199.808 179.608 204.007 179.321 207.039 180.972C210.071 182.551 212.015 185.997 212.015 191.022Z" fill="#555E61"/>
<path d="M210.926 192.173C210.926 201.218 204.084 212.201 195.532 216.723C187.057 221.246 180.137 217.585 180.137 208.54C180.137 199.495 186.979 188.511 195.532 183.989C204.084 179.466 210.926 183.128 210.926 192.173Z" fill="#3B4447"/>
<path d="M205.95 194.61C205.95 200.712 201.363 208.106 195.609 211.121C189.933 214.136 185.268 211.695 185.268 205.594C185.268 199.492 189.856 192.098 195.609 189.083C201.285 186.068 205.95 188.509 205.95 194.61Z" fill="url(#paint6_linear_128_29665)"/>
<path d="M205.017 195.115C205.017 200.642 200.819 207.39 195.609 210.118C190.4 212.918 186.201 210.621 186.201 205.093C186.201 199.566 190.4 192.818 195.609 190.09C200.741 187.29 205.017 189.587 205.017 195.115Z" fill="url(#paint7_linear_128_29665)"/>
<path d="M200.119 188.943C198.797 188.871 197.242 189.23 195.609 190.092C190.4 192.891 186.201 199.567 186.201 205.095C186.201 206.818 186.59 208.253 187.368 209.33C188.689 209.402 190.245 209.043 191.877 208.182C197.087 205.454 201.285 198.706 201.285 193.178C201.285 191.384 200.819 189.948 200.119 188.943Z" fill="url(#paint8_linear_128_29665)"/>
<path d="M198.875 188.941C197.864 189.085 196.776 189.444 195.609 190.09C190.4 192.889 186.201 199.565 186.201 205.093C186.201 206.313 186.435 207.39 186.823 208.323C188.223 208.682 190.011 208.395 191.877 207.39C196.698 204.806 200.585 198.632 200.585 193.535C200.508 191.454 199.886 189.946 198.875 188.941Z" fill="url(#paint9_linear_128_29665)"/>
<path d="M186.201 205.094C186.201 205.525 186.201 205.955 186.279 206.386C187.212 206.314 188.301 206.027 189.467 205.453C193.666 203.227 197.009 197.772 197.009 193.321C197.009 191.885 196.62 190.665 195.998 189.875C195.843 189.947 195.687 190.019 195.609 190.091C190.4 192.818 186.201 199.566 186.201 205.094Z" fill="url(#paint10_linear_128_29665)"/>
<path d="M195.377 196.839C195.377 198.92 193.822 201.433 191.878 202.438C189.934 203.443 188.379 202.653 188.379 200.571C188.379 198.49 189.934 195.977 191.878 194.972C193.744 193.967 195.377 194.829 195.377 196.839Z" fill="url(#paint11_linear_128_29665)"/>
<path d="M210.15 175.301L210.072 175.229C209.917 175.157 209.683 175.014 209.528 174.942L189.468 164.246C185.736 162.595 180.837 163.025 175.395 165.897C163.888 172.07 154.557 187.002 154.557 199.277C154.557 199.493 154.557 199.708 154.557 199.923L174.229 210.404L177.105 208.897C177.105 208.681 177.105 208.466 177.105 208.25C177.105 197.698 185.114 184.776 195.066 179.536C205.018 174.224 213.027 178.531 213.027 189.084C213.027 189.299 213.027 189.514 213.027 189.73L215.904 188.222C215.904 188.007 215.904 187.791 215.904 187.576C215.904 181.618 213.726 177.454 210.15 175.301Z" fill="#18192E"/>
<path d="M177.105 208.898C177.105 208.682 177.105 208.467 177.105 208.251C177.105 197.699 185.114 184.777 195.066 179.537C205.018 174.225 213.027 178.532 213.027 189.085C213.027 189.3 213.027 189.515 213.027 189.731L215.903 188.223C215.903 188.008 215.903 187.792 215.903 187.577C215.903 175.302 206.573 170.348 195.066 176.45C183.559 182.624 174.229 197.555 174.229 209.831C174.229 210.046 174.229 210.261 174.229 210.477L177.105 208.898Z" fill="#18192E"/>
<path d="M278.647 147.522L253.533 134.098L250.734 135.606L275.848 148.958L278.647 147.522Z" fill="#677274"/>
<path d="M275.848 148.957L250.734 135.605V148.383L275.848 161.735V148.957Z" fill="#18192E"/>
<path d="M104.019 250.534L291.789 150.465L287.902 148.383L100.131 248.452L104.019 250.534Z" fill="#677274"/>
<path d="M100.131 248.453L287.902 148.383V139.984L100.131 240.054V248.453Z" fill="#18192E"/>
<path d="M302.13 155.13L283.936 145.438V151.324L302.13 161.016V155.13Z" fill="#18192E"/>
<path d="M297.075 157.929L278.881 148.238V154.124L297.075 163.816V157.929Z" fill="#18192E"/>
<path d="M169.952 224.547L151.758 214.855L147.793 216.937L165.987 226.628L169.952 224.547Z" fill="#677274"/>
<path d="M165.987 226.629L147.793 216.938V222.825L165.987 232.516V226.629Z" fill="#18192E"/>
<path d="M210.071 203.73L191.877 194.039L187.912 196.12L206.106 205.812L210.071 203.73Z" fill="#677274"/>
<path d="M206.106 205.808L187.912 196.117V202.004L206.106 211.695V205.808Z" fill="#18192E"/>
<path d="M253.689 180.973L235.495 171.281L231.607 173.363L249.801 183.054L253.689 180.973Z" fill="#677274"/>
<path d="M249.801 183.054L231.607 173.363V179.25L249.801 188.941V183.054Z" fill="#18192E"/>
<path d="M276.316 148.813C276.082 148.67 275.694 148.742 275.305 148.957L253.301 160.658C252.446 161.089 251.824 162.166 251.824 163.099V171.929C251.824 172.431 252.057 172.79 252.446 172.862L271.262 182.696C271.028 182.553 270.795 182.266 270.795 181.835V173.005C270.795 172.144 271.495 171.067 272.272 170.565L294.276 158.864C294.665 158.648 295.054 158.648 295.287 158.72L276.316 148.813Z" fill="url(#paint12_linear_128_29665)"/>
<path d="M306.096 153.046L287.902 143.355L283.936 145.437L302.13 155.128L306.096 153.046Z" fill="#677274"/>
<path d="M130.143 249.457L317.836 149.388L313.948 147.234L126.256 247.376L130.143 249.457Z" fill="#677274"/>
<path d="M130.143 254.051L317.836 153.982V149.387L130.143 249.457V254.051Z" fill="#18192E"/>
<path d="M315.892 154.984L130.143 254.048V268.549L219.324 220.955L231.376 220.166L291.789 188.005L295.132 186.785L315.892 175.658V154.984Z" fill="#18192E"/>
<path d="M315.892 154.984L130.143 254.048V257.422L315.892 158.43V154.984Z" fill="#18192E"/>
<path d="M98.1864 232.299L285.879 132.23L281.991 130.148L94.2988 230.218L98.1864 232.299Z" fill="#677274"/>
<path d="M100.13 240.054L287.9 139.984L283.935 137.902L96.2422 237.972L100.13 240.054Z" fill="#677274"/>
<path d="M98.1855 236.894L285.879 136.824V132.23L98.1855 232.3V236.894Z" fill="#18192E"/>
<path d="M300.963 155.848L282.769 146.156L278.881 148.238L297.075 157.929L300.963 155.848Z" fill="#677274"/>
<path d="M323.665 212.845C323.665 213.707 322.966 214.066 322.11 213.707L303.217 204.016C302.361 203.585 301.662 202.508 301.662 201.647V187.649C301.662 186.787 302.361 186.428 303.217 186.787L322.11 196.478C322.966 196.909 323.665 197.986 323.665 198.847V212.845Z" fill="#0E191B"/>
<path d="M293.344 185.565L324.678 202.219L321.568 193.677L303.374 182.98L293.344 185.565Z" fill="#0E191B"/>
<path d="M316.202 195.044L306.172 190.09C303.14 188.511 298.942 188.726 294.276 191.167C284.946 196.12 277.404 208.18 277.404 218.159C277.404 223.184 279.348 226.629 282.38 228.28L292.41 233.234C295.443 234.813 299.641 234.598 304.306 232.085C313.637 227.132 321.179 215.072 321.179 205.094C321.179 200.212 319.312 196.695 316.202 195.044Z" fill="#2E373A"/>
<path d="M321.179 205.163C321.179 215.07 313.637 227.202 304.306 232.155C299.641 234.596 295.521 234.883 292.41 233.303C289.3 231.724 287.434 228.207 287.434 223.182C287.434 213.275 294.976 201.143 304.306 196.19C308.972 193.749 313.17 193.462 316.202 195.113C319.313 196.693 321.179 200.21 321.179 205.163Z" fill="#555E61"/>
<path d="M320.169 206.313C320.169 215.358 313.326 226.341 304.774 230.864C296.299 235.386 289.379 231.725 289.379 222.68C289.379 213.635 296.221 202.652 304.774 198.129C313.326 193.607 320.169 197.268 320.169 206.313Z" fill="#3B4447"/>
<path d="M315.114 208.756C315.114 214.857 310.526 222.251 304.773 225.266C299.097 228.281 294.432 225.841 294.432 219.739C294.432 213.637 299.019 206.243 304.773 203.228C310.526 200.213 315.114 202.654 315.114 208.756Z" fill="url(#paint13_linear_128_29665)"/>
<path d="M314.181 209.255C314.181 214.782 309.982 221.53 304.773 224.258C299.564 227.058 295.365 224.761 295.365 219.233C295.365 213.706 299.564 206.958 304.773 204.23C309.982 201.502 314.181 203.727 314.181 209.255Z" fill="url(#paint14_linear_128_29665)"/>
<path d="M309.283 203.083C307.961 203.012 306.406 203.371 304.773 204.232C299.564 207.032 295.365 213.708 295.365 219.235C295.365 220.958 295.754 222.394 296.531 223.471C297.853 223.542 299.408 223.184 301.041 222.322C306.25 219.522 310.449 212.846 310.449 207.319C310.449 205.524 310.06 204.088 309.283 203.083Z" fill="url(#paint15_linear_128_29665)"/>
<path d="M308.116 203.152C307.105 203.296 306.017 203.655 304.851 204.301C299.641 207.101 295.443 213.777 295.443 219.304C295.443 220.524 295.676 221.601 296.065 222.535C297.464 222.893 299.252 222.606 301.119 221.601C305.939 219.017 309.827 212.843 309.827 207.747C309.749 205.665 309.127 204.086 308.116 203.152Z" fill="url(#paint16_linear_128_29665)"/>
<path d="M295.443 219.234C295.443 219.665 295.443 220.096 295.52 220.527C296.453 220.455 297.542 220.168 298.708 219.593C302.907 217.368 306.25 211.912 306.25 207.462C306.25 206.026 305.861 204.806 305.239 204.016C305.084 204.088 304.928 204.159 304.851 204.231C299.641 207.031 295.443 213.707 295.443 219.234Z" fill="url(#paint17_linear_128_29665)"/>
<path d="M304.541 211.051C304.541 213.133 302.986 215.645 301.042 216.65C299.098 217.655 297.543 216.865 297.543 214.784C297.543 212.702 299.098 210.189 301.042 209.184C302.986 208.108 304.541 208.969 304.541 211.051Z" fill="url(#paint18_linear_128_29665)"/>
<path d="M281.291 237.899C281.291 238.76 280.591 239.119 279.736 238.76L260.842 229.069C259.987 228.638 259.287 227.562 259.287 226.7V212.702C259.287 211.841 259.987 211.482 260.842 211.841L279.736 221.532C280.591 221.962 281.291 223.039 281.291 223.901V237.899Z" fill="#0E191B"/>
<path d="M261.388 210.692L251.358 205.739C248.326 204.159 244.127 204.375 239.462 206.816C230.132 211.769 222.59 223.829 222.59 233.807C222.59 238.832 224.534 242.278 227.566 243.929L237.596 248.882C240.629 250.461 244.827 250.246 249.492 247.734C258.822 242.78 266.364 230.72 266.364 220.742C266.364 215.789 264.498 212.343 261.388 210.692Z" fill="#2E373A"/>
<path d="M266.363 220.815C266.363 230.721 258.821 242.853 249.491 247.806C244.826 250.247 240.705 250.534 237.595 248.955C234.485 247.376 232.619 243.858 232.619 238.833C232.619 228.927 240.161 216.867 249.491 211.842C254.156 209.401 258.355 209.114 261.387 210.765C264.497 212.344 266.363 215.79 266.363 220.815Z" fill="#555E61"/>
<path d="M265.351 221.961C265.351 231.006 258.432 241.99 249.957 246.512C241.482 251.035 234.562 247.374 234.562 238.329C234.562 229.284 241.404 218.3 249.957 213.778C258.509 209.255 265.351 212.916 265.351 221.961Z" fill="#3B4447"/>
<path d="M251.668 207.818L282.924 224.473L279.814 215.93L261.62 205.234L251.668 207.818Z" fill="#0E191B"/>
<path d="M319.391 189.516L319.313 189.444C319.158 189.373 318.925 189.229 318.769 189.157L298.709 178.461C294.977 176.81 290.079 177.241 284.636 180.112C273.129 186.286 263.799 201.217 263.799 213.493C263.799 213.708 263.799 213.923 263.799 214.139L283.47 224.619L286.347 223.112C286.347 222.897 286.347 222.681 286.347 222.466C286.347 211.913 294.355 198.992 304.307 193.751C314.259 188.439 322.268 192.746 322.268 203.299C322.268 203.514 322.268 203.73 322.268 203.945L325.145 202.438C325.145 202.222 325.145 202.007 325.145 201.792C325.145 195.833 322.968 191.598 319.391 189.516Z" fill="#18192E"/>
<path d="M286.346 223.112C286.346 222.897 286.346 222.681 286.346 222.466C286.346 211.913 294.354 198.992 304.306 193.751C314.258 188.439 322.267 192.746 322.267 203.299C322.267 203.514 322.267 203.73 322.267 203.945L325.144 202.438C325.144 202.222 325.144 202.007 325.144 201.791C325.144 189.516 315.813 184.563 304.306 190.665C292.799 196.838 283.469 211.77 283.469 224.045C283.469 224.26 283.469 224.476 283.469 224.691L286.346 223.112Z" fill="#18192E"/>
<path d="M274.527 217.298L264.497 212.345C261.465 210.765 257.266 210.981 252.601 213.422C243.271 218.375 235.729 230.435 235.729 240.413C235.729 245.438 237.673 248.884 240.705 250.535L250.735 255.488C253.768 257.067 257.966 256.852 262.631 254.34C271.962 249.386 279.503 237.326 279.503 227.348C279.503 222.467 277.56 218.949 274.527 217.298Z" fill="#2E373A"/>
<path d="M279.505 227.417C279.505 237.323 271.963 249.383 262.632 254.408C257.967 256.849 253.846 257.136 250.736 255.557C247.626 253.977 245.76 250.46 245.76 245.435C245.76 235.528 253.302 223.397 262.632 218.443C267.298 216.003 271.496 215.716 274.528 217.367C277.561 218.946 279.505 222.463 279.505 227.417Z" fill="#555E61"/>
<path d="M278.415 228.567C278.415 237.612 271.495 248.596 263.02 253.118C254.545 257.641 247.625 253.98 247.625 244.935C247.625 235.89 254.467 224.906 263.02 220.384C271.573 215.861 278.415 219.522 278.415 228.567Z" fill="#3B4447"/>
<path d="M273.44 231.009C273.44 237.111 268.852 244.505 263.099 247.52C257.423 250.535 252.758 248.094 252.758 241.992C252.758 235.891 257.345 228.497 263.099 225.482C268.775 222.467 273.44 224.907 273.44 231.009Z" fill="url(#paint19_linear_128_29665)"/>
<path d="M272.427 231.509C272.427 237.037 268.228 243.785 263.019 246.513C257.81 249.312 253.611 247.015 253.611 241.488C253.611 235.96 257.81 229.212 263.019 226.484C268.228 223.757 272.427 225.982 272.427 231.509Z" fill="url(#paint20_linear_128_29665)"/>
<path d="M267.529 225.337C266.207 225.265 264.652 225.624 263.019 226.485C257.81 229.285 253.611 235.961 253.611 241.489C253.611 243.212 254 244.647 254.777 245.724C256.099 245.796 257.654 245.437 259.287 244.575C264.496 241.776 268.695 235.1 268.695 229.572C268.695 227.778 268.306 226.342 267.529 225.337Z" fill="url(#paint21_linear_128_29665)"/>
<path d="M266.362 225.406C265.351 225.549 264.263 225.908 263.097 226.554C257.887 229.354 253.689 236.03 253.689 241.558C253.689 242.778 253.922 243.855 254.311 244.788C255.71 245.147 257.499 244.86 259.365 243.855C264.185 241.27 268.073 235.097 268.073 230C267.995 227.918 267.373 226.339 266.362 225.406Z" fill="url(#paint22_linear_128_29665)"/>
<path d="M253.689 241.489C253.689 241.92 253.689 242.35 253.766 242.781C254.699 242.709 255.788 242.422 256.954 241.848C261.153 239.622 264.496 234.167 264.496 229.716C264.496 228.28 264.107 227.06 263.485 226.27C263.33 226.342 263.174 226.414 263.097 226.486C257.887 229.285 253.689 235.961 253.689 241.489Z" fill="url(#paint23_linear_128_29665)"/>
<path d="M262.865 233.304C262.865 235.386 261.31 237.899 259.366 238.904C257.422 239.909 255.867 239.119 255.867 237.037C255.867 234.955 257.422 232.443 259.366 231.438C261.232 230.361 262.865 231.222 262.865 233.304Z" fill="url(#paint24_linear_128_29665)"/>
<path d="M277.637 211.77L277.56 211.698C277.404 211.626 277.171 211.483 277.015 211.411L256.955 200.715C253.223 199.064 248.325 199.494 242.882 202.366C231.375 208.539 222.045 223.471 222.045 235.746C222.045 235.962 222.045 236.177 222.045 236.392L241.716 246.873L244.593 245.366C244.593 245.15 244.593 244.935 244.593 244.72C244.593 234.167 252.601 221.246 262.554 216.005C272.506 210.693 280.514 215 280.514 225.553C280.514 225.768 280.514 225.983 280.514 226.199L283.391 224.691C283.391 224.476 283.391 224.261 283.391 224.045C283.391 218.087 281.214 213.852 277.637 211.77Z" fill="#18192E"/>
<path d="M244.594 245.367C244.594 245.151 244.594 244.936 244.594 244.72C244.594 234.168 252.602 221.246 262.555 216.006C272.507 210.694 280.515 215.001 280.515 225.554C280.515 225.769 280.515 225.984 280.515 226.2L283.392 224.692C283.392 224.477 283.392 224.261 283.392 224.046C283.392 211.771 274.062 206.818 262.555 212.919C251.047 219.093 241.717 234.024 241.717 246.3C241.717 246.515 241.717 246.73 241.717 246.946L244.594 245.367Z" fill="#18192E"/>
<path d="M335.175 179.463L310.061 166.039L307.262 167.547L332.376 180.899L335.175 179.463Z" fill="#677274"/>
<path d="M332.608 180.903L307.494 167.551V180.328L332.608 193.681V180.903Z" fill="#18192E"/>
<path d="M335.406 192.243V179.465L332.607 180.901V193.678L335.406 192.243Z" fill="#18192E"/>
<path d="M204.705 228.351C202.217 226.987 198.096 226.987 195.608 228.351C194.364 228.997 193.742 229.931 193.742 230.792V246.226C193.742 247.087 194.364 248.021 195.608 248.667C198.096 250.031 202.217 250.031 204.705 248.667C205.949 248.021 206.571 247.087 206.571 246.226V230.792C206.649 229.859 206.027 228.997 204.705 228.351Z" fill="#333E40"/>
<path d="M204.705 228.351C207.193 229.715 207.193 231.869 204.705 233.233C202.217 234.597 198.096 234.597 195.608 233.233C193.12 231.869 193.12 229.715 195.608 228.351C198.096 226.987 202.217 226.987 204.705 228.351Z" fill="#5A6567"/>
<path d="M194.055 233.089C191.567 231.725 187.446 231.725 184.958 233.089C183.714 233.735 183.092 234.668 183.092 235.53V250.964C183.092 251.825 183.714 252.758 184.958 253.405C187.446 254.768 191.567 254.768 194.055 253.405C195.299 252.758 195.921 251.825 195.921 250.964V235.458C195.921 234.597 195.299 233.735 194.055 233.089Z" fill="#333E40"/>
<path d="M194.055 233.089C196.543 234.453 196.543 236.607 194.055 237.971C191.567 239.334 187.446 239.334 184.958 237.971C182.47 236.607 182.47 234.453 184.958 233.089C187.446 231.725 191.567 231.725 194.055 233.089Z" fill="#5A6567"/>
<path d="M197.787 246.439L180.215 237.107C179.749 236.82 179.282 236.892 179.049 237.107L142.817 256.346C142.506 256.489 142.35 256.776 142.35 257.279V272.426C142.35 273.287 143.05 274.364 143.827 274.866L161.399 284.199C161.788 284.414 162.177 284.414 162.488 284.27L198.798 264.96C198.798 264.96 198.798 264.96 198.876 264.96C199.109 264.816 199.264 264.529 199.264 264.099V248.952C199.264 248.019 198.565 246.87 197.787 246.439Z" fill="url(#paint25_linear_128_29665)"/>
<path d="M161.399 284.13C162.255 284.561 162.877 284.202 162.877 283.34V268.193C162.877 267.332 162.177 266.255 161.399 265.753L143.827 256.421C142.972 255.99 142.35 256.349 142.35 257.21V272.357C142.35 273.218 143.05 274.295 143.827 274.798L161.399 284.13Z" fill="#9AA3A9"/>
<path opacity="0.2" d="M190.945 249.959L173.373 240.627C172.907 240.34 172.44 240.411 172.207 240.627L170.807 241.56C171.041 241.416 171.429 241.416 171.818 241.632L189.39 250.964C190.245 251.395 190.867 252.471 190.867 253.405V268.48L190.401 269.413L191.956 268.408C191.956 268.408 191.956 268.408 192.034 268.408C192.267 268.264 192.422 267.977 192.422 267.546V252.4C192.5 251.466 191.8 250.39 190.945 249.959Z" fill="black"/>
<path d="M191.954 249.385L174.382 240.052C173.915 239.765 173.449 239.837 173.216 240.052L171.816 240.986C172.049 240.842 172.438 240.842 172.827 241.057L190.399 250.39C191.254 250.82 191.876 251.897 191.876 252.83V267.977L191.41 268.839L192.965 267.835C192.965 267.835 192.965 267.835 193.042 267.835C193.276 267.691 193.431 267.403 193.431 266.972V251.825C193.431 250.892 192.731 249.815 191.954 249.385Z" fill="url(#paint26_linear_128_29665)"/>
<path opacity="0.2" d="M170.652 260.725L153.08 251.392C152.613 251.105 152.147 251.177 151.914 251.392L150.514 252.326C150.747 252.182 151.136 252.182 151.525 252.397L169.097 261.73C169.952 262.16 170.574 263.237 170.574 264.17V279.317L170.108 280.25L171.663 279.245C171.663 279.245 171.663 279.245 171.74 279.245C171.974 279.102 172.129 278.815 172.129 278.384V263.237C172.129 262.232 171.429 261.155 170.652 260.725Z" fill="black"/>
<path d="M171.583 260.15L154.011 250.818C153.545 250.531 153.078 250.603 152.845 250.818L151.445 251.751C151.679 251.608 152.067 251.608 152.456 251.823L170.028 261.155C170.883 261.586 171.505 262.663 171.505 263.596V278.743L171.039 279.604L172.594 278.599C172.594 278.599 172.594 278.599 172.672 278.599C172.905 278.456 173.06 278.169 173.06 277.738V262.591C173.06 261.658 172.361 260.581 171.583 260.15Z" fill="url(#paint27_linear_128_29665)"/>
<path d="M283.391 0L62.8867 117.514V220.383L156.578 269.987L377.081 152.473V49.6759L283.391 0Z" fill="#E1E8EC"/>
<path opacity="0.1" d="M156.578 166.902V269.987L377.082 152.473V49.6758L156.578 166.902ZM373.583 149.745V150.607L372.65 151.109L160.076 264.459V263.311L372.727 150.248V55.7058L373.66 55.2033V149.745H373.583Z" fill="black"/>
<path d="M178.193 255.557L180.836 261.084V262.951L183.091 261.73V260.725L180.214 254.48L178.193 255.557Z" fill="#8897A0"/>
<path d="M250.424 229.284V227.849L248.558 226.844L169.873 268.838V273.361L171.351 274.15L249.958 232.156V231.007L249.647 230.792V229.715L250.424 229.284Z" fill="#8897A0"/>
<path opacity="0.2" d="M171.816 271.279L171.039 270.992V272.786L249.646 230.792V229.715L171.816 271.279Z" fill="#8897A0"/>
<path opacity="0.5" d="M248.558 226.844L169.873 268.838L171.817 269.843L250.424 227.849L248.558 226.844Z" fill="white"/>
<path opacity="0.2" d="M249.957 231.008L171.35 273.003L171.039 272.788L249.646 230.793L249.957 231.008Z" fill="white"/>
<path d="M250.424 237.54V236.032L248.558 235.027L169.873 277.022V281.544L171.351 282.406L249.958 240.411V239.191L249.647 239.047V237.899L250.424 237.54Z" fill="#8897A0"/>
<path opacity="0.2" d="M171.816 279.534L171.039 279.175V281.042L249.646 239.047V237.898L171.816 279.534Z" fill="#8897A0"/>
<path opacity="0.5" d="M248.558 235.027L169.873 277.022L171.817 278.027L250.424 236.032L248.558 235.027Z" fill="white"/>
<path opacity="0.2" d="M249.957 239.191L171.35 281.185L171.039 281.042L249.646 239.047L249.957 239.191Z" fill="white"/>
<path d="M233.553 225.983L236.197 231.511V233.377L238.451 232.157V231.152L235.575 224.906L233.553 225.983Z" fill="#8897A0"/>
<path opacity="0.5" d="M233.553 225.983L236.197 231.511V233.377L237.363 232.803V231.511L234.564 225.48L233.553 225.983Z" fill="#8897A0"/>
<path opacity="0.5" d="M178.193 255.558L180.836 261.085V262.952L182.003 262.378V261.085L179.204 255.055L178.193 255.558Z" fill="#8897A0"/>
<path opacity="0.1" d="M373.583 55.2031L160.076 168.769V264.459L160.854 264.029V169.199L373.583 55.7774V55.2031Z" fill="black"/>
<path opacity="0.2" d="M66.3848 123.039V218.515L67.2401 218.012V124.475L152.222 169.269L153.078 168.767L66.3848 123.039Z" fill="black"/>
<path opacity="0.2" d="M156.578 166.904L62.8867 117.516V220.385L156.5 270.061L156.578 166.904ZM66.3855 218.519L67.2408 218.088L152.223 263.169V169.345L153.079 168.914V264.605L66.3855 218.519Z" fill="black"/>
<path d="M100.83 322.964L94.7647 319.734L81.5469 326.84L87.5338 329.999L100.83 322.964Z" fill="#404B4D"/>
<path d="M100.831 322.031V322.965L87.5352 330V329.067L100.831 322.031Z" fill="#273234"/>
<path d="M149.425 295.903L147.947 298.2L142.349 295.903L107.361 308.178L108.605 285.565L129.831 276.449L146.703 278.315L149.425 295.903Z" fill="#0E191B"/>
<path d="M146.081 305.377C146.081 306.239 145.382 306.598 144.526 306.239L125.633 296.548C124.777 296.117 124.078 295.04 124.078 294.179V265.823C124.078 264.962 124.777 264.603 125.633 264.962L144.526 274.653C145.382 275.084 146.081 276.161 146.081 277.022V305.377Z" fill="#0E191B"/>
<path d="M138.307 289.082L129.132 284.057C126.022 282.406 121.824 282.693 117.159 285.206C107.751 290.231 100.131 302.363 100.131 312.413C100.131 317.438 102.075 320.955 105.185 322.606L114.359 327.631C117.47 329.21 121.668 328.995 126.333 326.483C135.741 321.458 143.361 309.326 143.361 299.276C143.361 294.251 141.417 290.733 138.307 289.082Z" fill="#2E373A"/>
<path d="M143.361 299.275C143.361 309.253 135.741 321.456 126.333 326.481C121.668 328.994 117.469 329.209 114.359 327.63C111.249 325.979 109.305 322.461 109.305 317.436C109.305 307.458 116.925 295.254 126.333 290.229C130.998 287.717 135.275 287.502 138.307 289.081C141.417 290.732 143.361 294.249 143.361 299.275Z" fill="#555E61"/>
<path d="M142.349 300.422C142.349 309.539 135.429 320.666 126.877 325.188C118.324 329.783 111.404 326.05 111.404 316.933C111.404 307.816 118.324 296.689 126.877 292.167C135.352 287.644 142.349 291.305 142.349 300.422Z" fill="#3B4447"/>
<path d="M137.373 302.505C137.373 308.75 132.63 316.288 126.799 319.447C120.967 322.533 116.225 320.021 116.225 313.775C116.225 307.53 120.967 299.993 126.799 296.834C132.708 293.747 137.373 296.26 137.373 302.505Z" fill="url(#paint28_linear_128_29665)"/>
<path d="M135.274 302.865C135.274 308.177 131.231 314.709 126.177 317.365C121.201 320.022 117.08 317.868 117.08 312.556C117.08 307.172 121.123 300.711 126.177 298.055C131.231 295.399 135.274 297.553 135.274 302.865Z" fill="url(#paint29_linear_128_29665)"/>
<path d="M126.799 297.625C126.255 297.912 125.788 298.199 125.322 298.558C125.633 298.342 125.866 298.199 126.177 298.055C131.231 295.399 135.274 297.553 135.274 302.865C135.274 308.177 131.231 314.71 126.177 317.366C121.201 320.022 117.08 317.868 117.08 312.556C117.08 311.91 117.158 311.264 117.235 310.618C117.002 311.551 116.924 312.484 116.924 313.417C116.924 319.232 121.356 321.601 126.799 318.658C132.241 315.786 136.673 308.68 136.673 302.865C136.673 297.05 132.319 294.753 126.799 297.625Z" fill="url(#paint30_linear_128_29665)"/>
<path d="M134.729 303.153C134.729 308.25 130.842 314.495 126.099 317.008C121.278 319.592 117.469 317.51 117.469 312.413C117.469 307.317 121.356 301.071 126.099 298.559C130.842 295.974 134.729 297.984 134.729 303.153Z" fill="url(#paint31_linear_128_29665)"/>
<path d="M133.097 305.665C133.097 309.183 130.453 313.418 127.188 315.141C123.922 316.864 121.279 315.5 121.279 311.983C121.279 308.465 123.922 304.23 127.188 302.507C130.376 300.784 133.097 302.22 133.097 305.665Z" fill="url(#paint32_linear_128_29665)"/>
<path d="M126.8 300.642C126.955 301.288 126.722 301.862 126.256 302.005C125.789 302.077 125.245 301.647 125.089 301C124.934 300.354 125.167 299.78 125.634 299.637C126.1 299.565 126.644 299.995 126.8 300.642Z" fill="url(#paint33_linear_128_29665)"/>
<path d="M119.412 309.542C120.112 309.614 120.656 310.045 120.579 310.475C120.501 310.906 119.879 311.193 119.179 311.121C118.479 311.05 117.935 310.619 118.013 310.188C118.091 309.757 118.713 309.47 119.412 309.542Z" fill="url(#paint34_linear_128_29665)"/>
<path d="M119.724 314.637C120.346 314.35 121.046 314.35 121.202 314.637C121.357 314.924 120.968 315.355 120.269 315.642C119.647 315.929 118.947 315.929 118.791 315.642C118.714 315.427 119.102 314.924 119.724 314.637Z" fill="url(#paint35_linear_128_29665)"/>
<path d="M122.911 316.719C123.144 316.288 123.611 316.073 123.844 316.216C124.078 316.36 124.078 316.79 123.767 317.221C123.533 317.652 123.067 317.867 122.833 317.724C122.678 317.58 122.678 317.149 122.911 316.719Z" fill="url(#paint36_linear_128_29665)"/>
<path d="M122.521 304.155C123.143 304.514 123.377 305.16 123.066 305.519C122.755 305.95 122.055 305.95 121.433 305.591C120.811 305.232 120.578 304.586 120.889 304.227C121.2 303.796 121.899 303.796 122.521 304.155Z" fill="url(#paint37_linear_128_29665)"/>
<path d="M131.307 299.633C131.307 300.279 130.919 300.853 130.53 300.781C130.141 300.781 129.83 300.207 129.83 299.561C129.83 298.915 130.219 298.341 130.608 298.412C131.074 298.412 131.385 298.987 131.307 299.633Z" fill="url(#paint38_linear_128_29665)"/>
<path d="M133.951 303.437C133.562 303.653 133.096 303.724 132.94 303.437C132.785 303.222 132.94 302.791 133.329 302.576C133.718 302.36 134.184 302.289 134.34 302.576C134.573 302.863 134.34 303.222 133.951 303.437Z" fill="url(#paint39_linear_128_29665)"/>
<path d="M133.253 307.962C133.098 307.962 133.02 307.675 133.02 307.459C133.098 307.244 133.253 307.028 133.409 307.1C133.564 307.1 133.642 307.387 133.642 307.603C133.642 307.818 133.409 307.962 133.253 307.962Z" fill="url(#paint40_linear_128_29665)"/>
<path d="M127.654 315.928C127.498 316 127.343 315.856 127.265 315.641C127.187 315.426 127.265 315.282 127.421 315.21C127.576 315.138 127.732 315.282 127.809 315.497C127.887 315.641 127.809 315.856 127.654 315.928Z" fill="url(#paint41_linear_128_29665)"/>
<path d="M131.619 311.695C131.542 311.838 131.386 311.838 131.231 311.766C131.153 311.695 131.075 311.551 131.231 311.408C131.308 311.264 131.464 311.264 131.619 311.336C131.697 311.408 131.697 311.623 131.619 311.695Z" fill="url(#paint42_linear_128_29665)"/>
<path d="M130.997 307.46C130.997 309.542 129.442 311.983 127.499 313.06C125.555 314.065 124 313.275 124 311.193C124 309.111 125.555 306.671 127.499 305.594C129.442 304.589 130.997 305.378 130.997 307.46Z" fill="url(#paint43_linear_128_29665)"/>
<path d="M131.387 307.745C131.387 309.755 129.832 312.196 127.966 313.129C126.1 314.134 124.545 313.345 124.545 311.335C124.545 309.325 126.1 306.884 127.966 305.951C129.832 304.946 131.387 305.735 131.387 307.745Z" fill="url(#paint44_linear_128_29665)"/>
<path d="M87.5338 330L81.5469 326.841V315.93L85.901 318.227L87.5338 329.067V330Z" fill="#2E373A"/>
<path d="M100.831 322.966L94.7656 319.735V308.824L99.1197 311.193L100.831 322.033V322.966Z" fill="#2E373A"/>
<path d="M12.5805 221.459C12.5805 222.321 11.8807 222.68 11.1032 222.249L5.19409 219.09C4.33882 218.66 3.7168 217.583 3.7168 216.65V194.109C3.7168 193.247 4.41657 192.889 5.19409 193.319L11.1032 196.478C11.9585 196.909 12.5805 197.985 12.5805 198.919V221.459Z" fill="#5A6567"/>
<path d="M11.8047 222.034C11.8047 222.895 11.1049 223.254 10.3274 222.823L4.34056 219.665C3.48529 219.234 2.86328 218.157 2.86328 217.224V194.683C2.86328 193.822 3.56304 193.463 4.34056 193.894L10.2497 197.052C11.1049 197.483 11.7269 198.56 11.7269 199.493L11.8047 222.034Z" fill="#404B4D"/>
<path d="M152.224 296.478C152.224 296.478 151.602 281.905 151.291 279.536C150.98 277.096 150.591 275.373 150.046 275.014C149.502 274.727 144.137 271.855 144.137 271.855L143.438 270.204L149.424 266.615L146.003 262.523L143.904 260.585V255.56L145.07 254.986C145.07 254.986 142.505 217.657 142.116 212.847C141.727 208.038 139.083 202.008 136.595 199.998C134.107 197.988 115.525 187.435 104.017 180.831C92.432 174.226 72.9163 164.248 68.7177 162.238C64.5191 160.228 63.5861 161.161 61.8755 162.238C60.165 163.315 16.2353 189.373 14.5247 191.168C13.9805 191.742 13.2807 192.604 12.6587 193.752C12.4254 193.321 12.1922 192.819 12.0367 192.101C12.0367 192.101 8.69336 192.316 6.51631 193.968C6.51631 193.968 6.0498 200.715 6.28305 202.582C6.43856 203.874 6.67181 205.381 8.3046 207.104C6.82731 215.647 4.49476 232.373 4.49476 232.373L4.02825 243.356C1.8512 244.361 0.529426 248.022 0.373923 249.027C0.218419 249.961 -0.325843 255.847 0.373923 258.718C1.07369 261.662 5.42778 264.748 5.42778 264.748C3.01748 265.395 3.56174 270.994 3.25073 274.87C2.93973 278.675 3.01748 283.054 5.81654 285.638C8.6156 288.222 18.2568 294.97 18.2568 294.97C17.246 297.339 20.0451 299.421 20.0451 299.421C20.0451 299.421 53.7893 318.157 54.7224 318.157C55.6554 318.157 59.3875 317.08 59.3875 317.08C59.3875 317.08 70.195 322.321 75.5598 323.9C80.9247 325.479 85.7453 322.752 85.7453 322.752V319.019L95.6198 314.281V313.06L100.907 310.333L103.784 311.912L108.138 309.758C108.138 309.758 111.015 298.703 113.581 291.955C116.147 285.279 120.967 281.116 125.01 278.603C129.054 276.091 136.129 272.43 136.829 272.286C137.528 272.142 138.306 271.855 139.706 271.784L142.738 277.096L144.448 278.675C144.448 278.675 146.47 282.48 147.247 288.438C148.103 294.396 147.792 298.129 147.792 298.129L152.224 296.478Z" fill="#F04A23"/>
<path opacity="0.15" d="M142.116 212.845C141.883 209.471 140.483 205.523 138.85 202.723L84.2686 232.73C84.2686 232.73 83.9576 239.119 81.3918 242.708C78.7482 246.297 69.8845 241.99 65.4527 239.693C64.9084 239.406 63.9754 238.904 62.6536 238.186L25.6438 233.161L4.80631 229.787C4.57306 231.294 4.49531 232.227 4.49531 232.227L4.0288 243.354C4.0288 243.354 4.0288 246.872 4.0288 247.446C4.0288 248.02 6.51685 251.322 6.90561 251.681C5.42833 251.251 2.00725 251.107 1.15198 251.179C0.840975 251.179 0.529968 250.389 0.296713 249.384C0.14121 250.964 -0.325301 256.06 0.374465 258.716C1.07423 261.66 5.42833 264.746 5.42833 264.746C5.42833 264.746 6.4391 267.761 11.9595 271.638C11.6485 270.489 11.4152 269.7 11.4152 269.7C11.9595 270.418 12.5815 271.135 13.359 271.638C17.0133 274.222 31.5529 282.334 36.9955 285.493C42.4382 288.651 58.144 296.978 60.1656 297.912C60.7876 298.199 61.4096 298.486 62.0316 298.629L66.5412 301.357C66.4634 301.429 66.4634 301.501 66.3857 301.501C66.3857 301.501 69.8845 303.654 77.0377 304.947C79.3702 305.377 81.936 304.731 84.5018 303.87L85.6681 307.531C85.6681 307.531 82.0915 308.823 79.448 308.823C76.2602 308.823 67.1632 305.88 60.8653 302.865C57.9885 302.291 55.0339 300.568 53.7122 299.922C51.4574 298.773 27.1211 285.205 23.6222 283.339C20.3567 281.544 16.7801 279.319 14.8363 277.668C14.8363 277.668 10.6377 275.084 7.52762 272.356C5.11732 270.274 3.79554 268.838 3.56229 267.474C3.48453 268.049 3.40678 268.766 3.32903 269.413C3.87329 269.843 4.3398 270.274 4.3398 270.274L6.51685 276.232L12.6592 282.621C12.6592 282.621 14.3698 284.129 14.4475 284.631C14.5253 285.205 14.914 286.857 14.1365 286.713C13.359 286.569 9.16041 282.908 6.98336 281.185C4.80631 279.391 3.71779 278.386 3.09578 276.089C2.94027 279.606 3.25128 283.339 5.73933 285.636C8.5384 288.22 18.1796 294.968 18.1796 294.968C17.1688 297.337 19.9679 299.419 19.9679 299.419C19.9679 299.419 53.7122 318.155 54.6452 318.155C55.5782 318.155 59.3103 317.078 59.3103 317.078C59.3103 317.078 70.1178 322.319 75.4826 323.898C80.8475 325.477 85.6681 322.75 85.6681 322.75V319.017L95.5426 314.279V313.058L100.83 310.331L102.462 309.469V307.172L85.6681 315.427V310.402L97.6419 304.444C98.5749 299.276 100.363 292.887 100.363 292.887L110.315 287.503C111.093 286.354 115.058 280.18 115.058 280.18L87.6119 294.25V290.23L143.749 260.655V255.558L144.915 254.984C145.07 254.984 142.505 217.655 142.116 212.845ZM61.8761 293.102C60.9431 294.322 58.6883 294.538 57.1332 293.963C55.5004 293.317 41.5051 285.277 37.462 283.124C33.4189 280.97 21.3674 274.509 18.3351 272.786C15.225 270.992 13.4368 266.469 13.4368 266.469L14.0588 265.105C15.6138 266.11 17.3243 267.187 18.8016 267.977C22.8447 270.13 54.8007 288.005 60.3211 290.661C60.9431 290.948 61.4873 291.235 62.0316 291.451C62.1093 292.169 62.1871 292.815 61.8761 293.102ZM64.5196 286.928C64.5196 286.928 61.7983 289.297 59.077 287.933C56.3557 286.569 16.6246 264.316 16.0026 264.029C15.3805 263.741 11.4152 259.793 11.4152 257.424C11.4152 256.922 11.7262 256.491 12.1927 256.132C14.603 257.711 17.0911 259.219 18.1796 259.865C20.2012 261.014 48.0363 276.735 56.0447 280.898C59.9323 282.908 63.5089 284.559 66.0747 285.708L64.5196 286.928ZM13.1257 290.23C11.3375 288.938 4.57306 284.775 4.0288 281.975C3.71779 280.252 3.64004 279.247 3.56229 278.745L3.79554 278.817C4.0288 279.247 4.49531 279.893 5.27282 280.611C5.35058 281.544 5.73933 282.908 6.98336 284.057C8.77165 285.708 13.2035 289.656 14.4475 290.733C14.2143 290.877 13.8255 290.733 13.1257 290.23ZM59.077 306.741C58.8438 307.531 58.3773 309.11 57.833 310.474C57.4442 311.479 56.9777 312.412 56.589 312.915C55.5782 314.063 54.1787 313.417 51.6129 312.197C49.0471 310.977 25.7993 297.912 23.7 296.691C21.6007 295.471 19.9679 295.112 18.8794 292.456C18.4129 291.451 18.0241 289.872 17.7909 288.292L18.9571 289.01L57.9108 310.474L57.522 310.259C57.9885 308.967 58.3773 307.674 58.5328 306.957C58.9215 305.593 58.2218 305.09 56.0447 304.013C53.9454 302.937 36.2958 293.102 32.1749 290.877C28.0541 288.579 18.1019 282.908 18.1019 282.908C17.6353 282.693 17.1688 282.406 16.7801 282.262C16.8578 281.616 17.7909 282.334 18.6461 282.693C18.6461 282.693 28.5983 288.364 32.7192 290.661C36.84 292.958 54.4897 302.721 56.589 303.798C58.766 304.875 59.4658 305.377 59.077 306.741ZM73.4611 322.103C71.8283 321.745 64.9862 318.73 63.4311 318.083C62.5759 317.724 61.8761 317.509 61.4873 317.007C61.8761 317.222 62.3426 317.366 62.9646 317.581C66.4634 318.729 73.4611 320.955 76.3379 321.314C75.8714 322.032 74.7829 322.391 73.4611 322.103ZM76.8044 318.442C74.7051 318.012 68.6405 315.93 65.3749 314.566C62.1093 313.202 61.2541 312.915 61.1763 311.982C61.0986 311.048 62.5759 308.751 62.5759 308.751L66.6189 310.761L74.4719 313.633C74.4719 313.633 80.1477 316.863 79.9922 317.437C79.759 318.012 78.9037 318.873 76.8044 318.442ZM74.3164 291.666C74.3164 291.235 73.6943 290.374 72.9168 289.441C72.0616 288.508 70.7398 287 70.7398 287C70.7398 287 76.3379 288.436 78.9815 288.436C81.625 288.436 85.8236 287 85.8236 287C85.8236 287 87.5342 288.579 87.6119 288.938C87.6897 289.082 87.6897 289.225 87.6897 289.441C82.0138 292.599 74.3164 291.666 74.3164 291.666ZM130.842 246.513C128.743 247.949 79.2147 275.73 79.2147 275.73L80.07 272.571C80.07 272.571 122.989 247.733 128.198 244.575C133.408 241.416 133.719 237.827 133.719 237.827L132.319 213.276L134.574 211.984C134.574 211.984 136.207 229.571 136.907 235.601C137.606 241.703 133.019 245.149 130.842 246.513Z" fill="black"/>
<path opacity="0.15" d="M152.223 296.474C152.223 296.474 151.601 281.901 151.29 279.532C151.057 277.666 150.746 276.158 150.357 275.441C148.647 276.517 144.604 278.815 144.604 278.815C144.915 279.389 146.625 283.05 147.403 288.506C148.258 294.464 147.947 298.197 147.947 298.197L152.223 296.474Z" fill="black"/>
<path opacity="0.15" d="M146.002 274.869L144.136 271.926L143.436 270.275L149.423 266.686L146.002 262.594L146.313 262.953C146.313 262.953 126.253 273.792 122.443 276.233C118.556 278.602 114.124 283.125 110.081 290.519C106.038 297.912 103.861 311.983 103.861 311.983L108.215 309.829C108.215 309.829 111.092 298.774 113.658 292.026C116.223 285.35 121.044 281.186 125.087 278.674C129.13 276.161 136.206 272.5 136.905 272.357C137.605 272.213 138.383 271.926 139.782 271.854L142.814 277.166C142.814 277.166 144.603 276.018 145.613 275.587C146.547 275.3 146.002 274.869 146.002 274.869Z" fill="black"/>
<path opacity="0.3" d="M115.135 280.18C115.135 280.18 111.17 286.354 110.392 287.503L100.44 292.887C100.44 292.887 98.6518 299.275 97.7188 304.444L102.539 307.172V309.469L100.907 310.331L103.783 311.91C103.783 311.91 105.883 297.84 110.003 290.446C114.047 283.052 118.478 278.529 122.366 276.16L115.135 280.18Z" fill="url(#paint45_linear_128_29665)"/>
<path opacity="0.3" d="M136.907 235.747C136.207 229.717 134.574 212.129 134.574 212.129L132.319 213.421L133.719 237.972C133.719 237.972 133.486 241.561 128.198 244.72C122.989 247.879 80.0701 272.717 80.0701 272.717L79.2148 275.875C79.2148 275.875 128.665 248.022 130.842 246.658C133.019 245.151 137.606 241.705 136.907 235.747Z" fill="url(#paint46_linear_128_29665)"/>
<path opacity="0.2" d="M74.3167 291.666C74.3167 291.666 74.1612 292.456 73.7725 293.389C73.306 294.322 72.2174 296.404 71.5954 297.409C70.9734 298.27 70.1959 299.347 67.8633 298.845C68.3298 299.132 68.8741 299.491 69.4961 299.85C71.8287 301.285 77.2713 302.362 80.8479 302.075C84.4245 301.788 87.8455 300.065 87.8455 300.065V294.179V290.159C87.8455 290.159 87.8455 289.8 87.8455 289.512C82.0142 292.599 74.3167 291.666 74.3167 291.666Z" fill="url(#paint47_linear_128_29665)"/>
<path opacity="0.3" d="M70.661 287.789C70.661 287.789 73.1491 290.445 73.5378 290.876C73.8488 291.306 73.8488 291.881 73.5378 292.67C73.2268 293.532 71.2053 297.265 70.661 297.695C70.1167 298.126 68.8727 298.772 66.7734 297.049C66.7734 297.049 68.7172 293.101 69.4947 291.378C70.2722 289.727 70.661 287.789 70.661 287.789Z" fill="url(#paint48_linear_128_29665)"/>
<path opacity="0.15" d="M72.9179 289.441C72.0626 288.508 70.7408 287 70.7408 287L70.4298 287.503L69.9633 288.938C69.4968 290.446 67.7863 293.963 67.7863 293.963C67.553 294.466 67.3197 294.968 67.0865 295.327C67.0865 295.327 66.6977 296.189 65.998 297.122C65.998 297.194 66.0757 297.337 66.1535 297.409C66.1535 297.409 66.1535 297.481 66.2312 297.481C66.309 297.553 66.309 297.624 66.3867 297.696L66.4645 297.768C66.5422 297.84 66.62 297.911 66.62 297.983C66.6977 298.055 66.6977 298.055 66.7755 298.127C66.8532 298.199 66.8532 298.199 66.931 298.27C67.0865 298.342 67.1642 298.486 67.3197 298.558C67.3197 298.558 67.3197 298.558 67.3975 298.629C67.4752 298.701 67.6308 298.773 67.7085 298.845C70.0411 299.275 70.8186 298.27 71.4406 297.409C72.1404 296.476 73.2289 294.394 73.6176 293.389C74.0841 292.456 74.1619 291.666 74.1619 291.666C74.3174 291.235 73.6954 290.374 72.9179 289.441ZM73.4621 292.743C73.1511 293.604 71.1296 297.337 70.5853 297.768C70.0411 298.199 68.797 298.845 66.6977 297.122C66.6977 297.122 68.6415 293.174 69.419 291.451C70.1966 289.728 70.5853 287.861 70.5853 287.861C70.5853 287.861 73.0734 290.518 73.4621 290.948C73.8509 291.307 73.8509 291.881 73.4621 292.743Z" fill="black"/>
<path opacity="0.3" d="M85.8228 307.46L84.6565 303.799C82.0907 304.66 79.5249 305.306 77.1923 304.876C70.0392 303.584 66.5404 301.43 66.5404 301.43C65.1408 303.009 63.1193 303.225 61.0977 302.794C67.3956 305.809 76.5703 308.752 79.6804 308.752C82.2462 308.752 85.8228 307.46 85.8228 307.46Z" fill="url(#paint49_linear_128_29665)"/>
<path opacity="0.3" d="M87.6898 299.205V300.066C87.6898 300.066 86.368 300.712 84.502 301.286L84.5797 303.799L85.746 307.46V310.403L97.7197 304.445C98.6528 299.276 100.441 292.887 100.441 292.887L87.6898 299.205Z" fill="url(#paint50_linear_128_29665)"/>
<path opacity="0.3" d="M63.0427 317.58C66.5416 318.728 73.5392 320.954 76.416 321.313C76.5715 321.097 76.6493 320.882 76.727 320.667C76.9603 319.518 75.483 318.872 72.2174 317.867C70.5846 317.364 65.5308 315.283 63.587 314.565C61.7209 313.847 61.5654 314.565 61.4099 314.924C61.0212 316 61.0989 316.575 61.4877 317.005C61.8765 317.149 62.343 317.364 63.0427 317.58Z" fill="url(#paint51_linear_128_29665)"/>
<path opacity="0.4" d="M14.3697 290.804C13.1256 289.727 8.7715 285.707 6.90546 284.128C5.66143 282.979 5.27266 281.615 5.19491 280.682C4.41739 279.964 3.95088 279.318 3.71762 278.887L3.48438 278.816C3.48438 279.318 3.63987 280.323 3.95088 282.046C4.49514 284.846 11.1818 289.009 13.0479 290.301C13.8254 290.732 14.2142 290.876 14.3697 290.804Z" fill="url(#paint52_linear_128_29665)"/>
<path opacity="0.4" d="M7.13917 281.187C9.31622 282.981 13.5148 286.57 14.2923 286.714C15.0698 286.858 14.681 285.207 14.6033 284.632C14.5255 284.058 12.815 282.622 12.815 282.622L6.67266 276.233L4.49561 270.275C4.49561 270.275 4.0291 269.844 3.48484 269.414C3.32934 271.208 3.40709 273.218 3.25159 274.869C3.25159 275.3 3.17383 275.731 3.17383 276.161C3.79585 278.315 4.88437 279.32 7.13917 281.187Z" fill="url(#paint53_linear_128_29665)"/>
<g opacity="0.3">
<path d="M6.98398 284.127C8.77227 285.778 13.2041 289.726 14.4482 290.803C14.7592 290.731 14.6814 290.229 14.6814 290.229C14.6814 290.229 14.8369 288.003 13.5151 287.142C12.1934 286.352 7.21723 282.189 5.6622 280.968C5.50669 280.825 5.42894 280.753 5.27344 280.609C5.35119 281.614 5.73995 282.978 6.98398 284.127Z" fill="url(#paint54_linear_128_29665)"/>
<path d="M3.79575 278.887C3.64025 278.6 3.5625 278.457 3.5625 278.457C3.5625 278.457 3.5625 278.6 3.5625 278.815L3.79575 278.887Z" fill="url(#paint55_linear_128_29665)"/>
</g>
<path opacity="0.15" d="M85.8242 286.714L143.828 255.918V255.559L85.8242 286.427V286.714Z" fill="black"/>
<path opacity="0.15" d="M0.996852 252.471C0.9191 251.322 1.07461 251.107 1.07461 251.107C0.763597 250.963 0.530341 250.246 0.374838 249.312C0.219334 250.893 -0.247176 255.989 0.45259 258.645C1.15236 261.589 5.50645 264.675 5.50645 264.675C5.66196 264.747 5.81746 264.819 5.89521 264.891C3.64041 262.809 2.8629 260.87 2.39638 259.219C1.77437 257.496 1.07461 253.619 0.996852 252.471Z" fill="black"/>
<path opacity="0.3" d="M1.54154 252.041C1.54154 252.041 1.30828 251.539 2.24131 251.539C3.09657 251.539 5.81789 251.826 6.20664 251.898C6.5954 251.97 6.67315 252.4 6.82866 252.831C6.98416 253.262 7.21742 254.626 7.37292 255.559C7.52842 256.492 8.8502 265.25 8.8502 265.25C8.8502 265.25 6.75091 264.532 5.19587 263.096C3.56308 261.661 2.78557 259.292 2.24131 256.779C1.7748 254.267 1.61929 252.831 1.54154 252.041Z" fill="url(#paint56_linear_128_29665)"/>
<path opacity="0.2" d="M3.7168 267.401C3.95006 268.837 5.27184 270.201 7.68214 272.283C10.8699 275.011 14.9908 277.595 14.9908 277.595C14.913 277.523 14.7575 277.451 14.6798 277.308C13.5135 276.231 12.5027 273.431 11.9585 271.493C6.36036 267.689 5.42734 264.602 5.42734 264.602C4.49432 264.961 4.02781 266.037 3.7168 267.401Z" fill="url(#paint57_linear_128_29665)"/>
<g opacity="0.15">
<path d="M86.9888 241.992C86.9111 242.279 86.9111 242.567 86.9111 242.925C86.8333 242.638 86.9111 242.351 86.9888 241.992Z" fill="black"/>
<path d="M140.792 207.031L90.7978 234.955C90.7978 234.955 87.6877 236.965 86.9102 242.062C87.5322 238.545 90.7978 236.606 90.7978 236.606L141.181 208.466C141.103 207.892 140.947 207.461 140.792 207.031Z" fill="black"/>
</g>
<path d="M19.3468 297.263C19.7355 296.905 20.2021 296.115 21.5238 296.905C22.8456 297.694 48.1149 311.621 49.0479 312.123C49.9032 312.626 51.4582 314.133 52.158 315.138C52.9355 316.215 54.1796 317.148 55.0348 317.005C55.9678 316.861 57.0564 316.215 57.0564 316.215L53.8685 314.707C53.8685 314.707 52.6245 313.272 51.4582 312.123C48.1927 310.472 25.8002 297.909 23.7009 296.689C22.2236 295.828 21.0573 295.397 20.1243 294.392C19.1135 294.32 18.336 294.966 18.336 294.966C18.025 295.684 18.1028 296.402 18.336 297.048C18.7248 297.263 19.1913 297.479 19.3468 297.263Z" fill="#2E383B"/>
<path opacity="0.15" d="M74.3946 235.098C63.1206 230.288 22.3787 206.814 16.5473 202.794C11.8822 199.564 8.77212 198.415 6.51732 193.965C6.51732 193.965 6.05081 200.712 6.28406 202.579C6.43957 203.871 6.67282 205.379 8.30561 207.101C8.30561 207.101 11.1824 209.255 20.2016 214.424C29.2208 219.592 61.0213 237.539 65.4531 239.764C69.8072 242.061 78.7487 246.368 81.3922 242.779C82.7918 240.769 83.5693 237.969 83.958 235.816C81.8588 236.534 78.5932 236.893 74.3946 235.098Z" fill="black"/>
<path opacity="0.1" d="M18.6471 188.438C16.3145 189.873 14.8372 190.878 14.5262 191.165C13.982 191.739 13.2822 192.601 12.6602 193.749C13.5154 196.333 24.4007 202.794 27.6663 205.02L60.7107 223.54C64.3651 225.407 69.6522 228.566 76.1833 230.792C82.7145 233.017 84.2695 232.801 84.2695 232.801L92.9 228.063L18.6471 188.438Z" fill="url(#paint58_linear_128_29665)"/>
<path opacity="0.2" d="M72.2175 164.031L28.832 189.658C28.9875 189.73 29.0653 189.802 29.2208 189.874L72.6063 164.246C72.4508 164.174 72.373 164.103 72.2175 164.031Z" fill="white"/>
<path opacity="0.15" d="M74.2386 165.035L30.7754 190.734C30.9309 190.806 31.0864 190.878 31.1641 190.95L74.6274 165.25C74.4719 165.178 74.3941 165.107 74.2386 165.035Z" fill="black"/>
<path opacity="0.15" d="M82.9461 169.559L39.1719 195.402C39.3274 195.474 39.4829 195.546 39.5606 195.617L83.4126 169.703C83.1793 169.703 83.0238 169.631 82.9461 169.559Z" fill="black"/>
<path opacity="0.2" d="M37.6172 194.539L81.3914 168.696C81.2359 168.624 81.1582 168.552 81.0027 168.48L37.2285 194.323C37.3062 194.395 37.4617 194.467 37.6172 194.539Z" fill="white"/>
<path opacity="0.2" d="M125.556 193.246L80.9258 218.012C81.0814 218.084 81.1591 218.155 81.3146 218.227L125.867 193.461C125.789 193.389 125.633 193.317 125.556 193.246Z" fill="white"/>
<path opacity="0.15" d="M83.2579 219.306L127.81 194.54C127.654 194.468 127.576 194.396 127.421 194.324L82.8691 219.09C82.9469 219.162 83.1024 219.234 83.2579 219.306Z" fill="black"/>
<path opacity="0.2" d="M116.846 188.223L72.1387 213.061C72.2942 213.132 72.372 213.204 72.5275 213.276L117.234 188.438C117.157 188.366 117.001 188.294 116.846 188.223Z" fill="white"/>
<path opacity="0.15" d="M74.4727 214.353L119.025 189.586C118.869 189.515 118.792 189.443 118.636 189.371L74.084 214.137C74.1617 214.209 74.3172 214.281 74.4727 214.353Z" fill="black"/>
<g opacity="0.4">
<path d="M85.98 287.071H85.669L86.291 271.78L85.0469 269.77V269.699C85.0469 269.411 88.9345 241.846 89.09 240.625C89.1678 239.261 90.1786 237.036 91.1116 235.887L91.3448 236.031C90.4118 237.18 89.4788 239.333 89.3233 240.625C89.2455 241.846 85.5912 267.976 85.3579 269.699L86.602 271.709V271.78L85.98 287.071Z" fill="black"/>
</g>
<g opacity="0.4">
<path d="M73.6043 275.691L70.5977 286.984L70.8997 287.053L73.9064 275.76L73.6043 275.691Z" fill="black"/>
</g>
<g opacity="0.4">
<path d="M7.06109 252.686L6.36133 238.688H6.59458L7.3721 252.615L7.06109 252.686Z" fill="black"/>
</g>
<g opacity="0.3">
<path d="M95.3091 232.372L94.2206 227.203C94.2206 227.203 93.3653 225.552 91.7325 224.619C91.4215 224.404 90.333 223.758 88.7002 222.824C81.9358 218.804 65.4524 209.831 55.1114 204.304C42.2824 197.484 25.4103 188.152 25.2548 188.008C25.2548 188.008 22.6112 186.716 21.7559 186.573L21.8337 186.285C22.7667 186.429 25.3325 187.721 25.488 187.793C25.6435 187.865 42.5934 197.269 55.3447 204.088C65.6857 209.616 82.169 218.589 88.9334 222.609C90.5662 223.614 91.6548 224.26 91.9658 224.404C93.6763 225.337 94.5316 227.06 94.5316 227.132L95.6201 232.3L95.3091 232.372Z" fill="black"/>
</g>
<path opacity="0.4" d="M123.534 251.107L123.845 266.182L124.156 266.038L123.845 251.035L122.368 248.164L121.28 220.383H120.969L122.057 248.236L123.534 251.107Z" fill="black"/>
<path opacity="0.4" d="M125.244 278.599L125.166 274.579L122.678 271.779V267.113L122.367 267.257V271.851L124.855 274.651L124.933 278.743C125.011 278.743 125.011 278.671 125.088 278.671C125.166 278.671 125.244 278.671 125.244 278.599Z" fill="black"/>
<path d="M65.4523 236.676C61.0982 234.379 29.22 216.504 20.2008 211.336C11.1816 206.167 8.30474 204.013 8.30474 204.013C7.44947 203.08 6.74971 202.003 6.2832 201.07C6.2832 201.716 6.2832 202.291 6.36095 202.65C6.51645 203.942 6.74971 205.449 8.38249 207.172C8.38249 207.172 11.2594 209.326 20.2786 214.494C29.2978 219.663 61.0981 237.609 65.53 239.835C69.8841 242.132 78.8256 246.439 81.4692 242.85C82.0134 242.06 82.4799 241.199 82.7909 240.337C80.0696 243.855 69.8064 238.901 65.4523 236.676Z" fill="#404B4D"/>
<path d="M96.9427 304.875L101.764 307.603V308.464L85.8242 316.432V310.402L96.9427 304.875Z" fill="#404B4D"/>
<path d="M85.8242 315.211V316.431L101.764 308.463V307.602L85.8242 315.211Z" fill="#273234"/>
<path d="M122.367 271.495L113.037 276.449V272.644L122.367 267.691V271.495Z" fill="#404B4D"/>
<path d="M55.8886 280.829C47.8802 276.665 20.0451 261.016 18.0235 259.795C16.002 258.647 8.53783 254.052 7.06055 252.473L7.68256 254.627L11.2591 257.426L15.4577 258.79C15.7687 260.513 18.179 262.667 18.179 262.667C18.179 262.667 55.5776 283.198 58.2212 284.633C60.8647 286.069 61.9533 284.633 61.9533 284.633L64.4413 286.93L69.9617 289.012L70.4282 287.505C70.4282 287.505 63.897 284.992 55.8886 280.829Z" fill="#2E383B"/>
<path d="M60.3205 290.662C54.8001 287.934 22.9219 270.131 18.8011 267.978C14.758 265.824 8.69336 261.445 8.69336 261.445L9.00436 263.24C9.47087 263.67 13.4362 266.47 13.4362 266.47L17.8681 267.834C18.1791 269.054 19.5786 271.064 20.5894 271.567C21.6779 272.069 53.1673 289.513 55.4999 290.59C57.7547 291.739 59.3097 290.734 59.3097 290.734L61.8755 293.103L67.0849 295.328C67.3181 294.969 67.4737 294.467 67.7847 293.964C67.7847 294.036 65.8409 293.39 60.3205 290.662Z" fill="#2E383B"/>
<path d="M65.2976 297.984C64.0536 299.205 62.2653 298.774 60.166 297.841C58.1445 296.908 42.5164 288.509 36.996 285.422C31.8644 282.479 18.8799 275.228 14.2148 272.141C14.5258 273.146 15.4588 275.802 16.9361 276.951C18.8021 278.459 23.4672 281.258 27.5103 283.484C31.5534 285.709 48.3478 294.969 51.4578 296.62C54.5679 298.271 60.0105 301.358 62.2653 301.717C64.4424 302.076 66.3862 302.148 66.6972 301.071C67.0082 300.066 67.1637 298.415 67.1637 298.415C67.1637 298.415 66.5417 297.697 66.0752 297.123C65.8419 297.41 65.6086 297.697 65.2976 297.984Z" fill="#2E383B"/>
<path d="M18.957 289.012C19.268 290.376 20.1233 293.319 21.1341 294.037C21.7561 294.468 48.8914 309.471 51.224 310.835C52.6235 311.696 55.5003 313.06 56.8999 312.63C57.2886 312.127 57.5996 311.337 57.9884 310.476L18.957 289.012Z" fill="#2E383B"/>
<path d="M83.413 237.97C82.9465 239.621 82.3244 241.416 81.3137 242.78C78.6701 246.369 69.8064 242.062 65.3746 239.765C61.0205 237.468 29.1423 219.593 20.1231 214.424C11.1039 209.256 8.22705 207.102 8.22705 207.102C6.74977 215.645 4.41722 232.371 4.41722 232.371L4.26172 235.601C4.96148 237.396 6.05001 239.262 7.91605 240.626C12.7366 244 30.2308 253.763 39.6387 259.075C49.0467 264.316 66.3853 273.72 71.5947 275.299C76.8041 276.95 80.3806 276.591 81.2359 273.433C82.0134 270.274 85.1235 247.949 85.901 243.426C86.6008 239.478 85.279 238.832 83.413 237.97Z" fill="#141C1E"/>
<path d="M82.7135 240.195C82.3247 241.128 81.936 241.989 81.3917 242.707C78.7482 246.297 69.8845 241.989 65.4526 239.692C61.0985 237.395 29.2203 219.52 20.2011 214.352C14.603 211.121 11.4152 209.111 9.70458 208.035C9.16031 211.05 7.29427 222.607 6.90551 226.125C6.51676 230.217 5.58373 232.155 8.6938 234.452C11.8817 236.677 29.7646 246.656 39.5613 251.968C49.358 257.28 67.3187 267.043 71.6727 268.837C76.1046 270.56 80.1477 272.642 81.1585 265.894C82.1692 259.146 84.424 245.004 84.6573 242.851C84.8905 241.343 84.1908 240.769 82.7135 240.195Z" fill="#303E42"/>
<path d="M83.2583 253.046C66.7749 243.714 28.2101 222.825 26.1885 221.604C23.856 220.24 17.1693 224.476 13.0485 226.988C10.4827 228.567 8.69436 231.582 7.68359 233.592C7.99459 233.88 8.3056 234.167 8.69436 234.454C11.8822 236.679 29.7651 246.657 39.5618 251.97C49.3585 257.282 67.3192 267.045 71.6733 268.839C76.1051 270.562 80.1482 272.644 81.159 265.896C81.781 262.594 82.5585 257.569 83.2583 253.046Z" fill="#39464A"/>
<path d="M117.857 226.268V247.373C117.857 247.373 117.546 250.316 113.97 252.398C110.393 254.408 92.5881 264.961 92.5881 264.961C92.5881 264.961 89.0115 267.186 89.167 263.453C89.3225 259.72 91.1108 242.851 91.1886 241.63C91.2663 240.41 92.8214 238.472 95.7759 236.892C98.7305 235.313 112.648 227.704 114.203 226.842C115.836 226.053 117.857 225.119 117.857 226.268Z" fill="#141C1E"/>
<path d="M112.803 251.827C116.38 249.817 116.691 246.802 116.691 246.802V225.84C115.991 226.056 115.058 226.486 114.281 226.917C112.726 227.779 98.8076 235.388 95.853 236.967C92.8985 238.475 91.3434 240.485 91.2657 241.705C91.1879 242.925 89.3996 259.795 89.2441 263.528C89.2441 264.246 89.3219 264.748 89.5551 265.107C90.4882 265.107 91.4989 264.461 91.4989 264.461C91.4989 264.461 109.227 253.837 112.803 251.827Z" fill="#303E42"/>
<path d="M76.1041 244.717C68.0179 240.482 65.5299 243.138 62.7308 245.866C59.9318 248.522 59.854 253.403 67.5514 256.275C75.2489 259.074 93.1318 253.619 76.1041 244.717Z" fill="#3D4B4F"/>
<path opacity="0.7" d="M20.2009 214.425C18.1793 213.276 16.4688 212.271 14.9915 211.41C14.214 215.86 12.8145 224.475 13.903 224.475C15.0693 224.547 23.622 219.809 26.6543 218.086C23.933 216.578 21.7559 215.286 20.2009 214.425Z" fill="#C5D0D3"/>
<path opacity="0.2" d="M20.2011 214.423C14.603 211.192 11.4152 209.182 9.70458 208.105C9.16031 211.12 7.29427 222.678 6.90551 226.195C6.51676 230.287 5.58373 232.226 8.6938 234.523C9.78233 235.312 12.5814 236.963 16.2358 239.045C20.4344 234.307 26.9655 228.134 35.9069 223.396C29.2981 219.591 23.3112 216.217 20.2011 214.423Z" fill="white"/>
<path d="M46.092 303.868C45.8588 303.868 45.7033 303.796 45.47 303.724L28.5979 294.392C27.9759 294.033 27.4316 293.243 27.4316 292.525V290.3C27.4316 289.654 27.8981 289.367 28.2869 289.367C28.5202 289.367 28.6757 289.439 28.9089 289.51L45.781 298.843C46.403 299.202 46.9473 299.991 46.9473 300.709V302.934C46.9473 303.581 46.5586 303.868 46.092 303.868Z" fill="#939A9E"/>
<path d="M46.6377 302.935C46.6377 303.51 46.1712 303.725 45.627 303.438L28.7548 294.106C28.2106 293.819 27.7441 293.101 27.7441 292.526V290.301C27.7441 289.727 28.2106 289.511 28.7548 289.798L45.627 299.131C46.1712 299.418 46.6377 300.136 46.6377 300.71V302.935Z" fill="#DEE5E9"/>
<path opacity="0.2" d="M81.7028 244.287C82.9468 242.565 83.6466 240.267 84.0353 238.257C83.8021 238.186 83.5688 238.042 83.3356 237.97C82.8691 239.621 82.247 241.416 81.2363 242.78C78.5927 246.369 69.729 242.062 65.2972 239.765C60.9431 237.468 29.0649 219.593 20.0457 214.424C11.0265 209.256 8.14964 207.102 8.14964 207.102C8.07189 207.389 8.07189 207.677 7.99414 208.036C8.14964 208.251 8.30515 208.466 8.5384 208.682C8.5384 208.682 11.4152 210.835 20.4344 216.004C29.4536 221.172 61.2541 239.119 65.6859 241.344C70.1955 243.57 79.0592 247.949 81.7028 244.287Z" fill="black"/>
<path d="M6.98277 284.128C7.68253 284.774 8.69331 285.707 9.85958 286.712C10.3261 286.353 10.7926 285.779 11.1036 285.42C9.23757 283.912 6.90502 281.974 5.81649 281.113L5.42773 281.328C5.50548 282.189 5.97199 283.194 6.98277 284.128Z" fill="white"/>
<path d="M76.3381 321.312C76.4936 321.096 76.5713 320.881 76.6491 320.666C76.8823 319.517 75.405 318.871 72.1395 317.866C71.5174 317.651 70.429 317.292 69.185 316.789C68.874 317.364 68.252 318.584 68.252 319.302C71.362 320.235 74.6276 321.096 76.3381 321.312Z" fill="white"/>
<path d="M85.28 311.121C85.28 311.408 85.0467 311.695 84.8134 311.767L82.6364 312.557C82.4031 312.629 82.1699 312.485 82.1699 312.27V311.552C82.1699 311.265 82.4031 310.978 82.6364 310.906L84.8134 310.116C85.0467 310.044 85.28 310.188 85.28 310.403V311.121Z" fill="#F09041"/>
<path d="M151.678 295.258C151.678 295.545 151.445 295.832 151.212 295.904L149.035 296.765C148.802 296.837 148.568 296.765 148.568 296.478V295.76C148.568 295.473 148.802 295.186 149.035 295.114L151.212 294.253C151.445 294.181 151.678 294.252 151.678 294.54V295.258Z" fill="#F09041"/>
<path d="M63.4311 307.028C62.9646 307.961 61.1763 311.192 62.1094 312.053C63.1201 312.915 67.0077 314.422 69.729 315.499C72.4503 316.576 77.1932 318.011 78.2817 318.083C79.3702 318.155 80.07 317.796 80.1478 316.791C80.2255 315.714 80.1478 312.34 80.1478 311.91C80.1478 311.479 79.2147 311.048 77.9707 310.833C76.7267 310.546 70.4288 308.608 68.2517 307.674C66.1525 306.741 63.8977 306.239 63.4311 307.028Z" fill="url(#paint59_linear_128_29665)"/>
<path d="M70.5835 312.054C70.5835 313.562 69.4949 314.136 68.0954 313.418C66.6959 312.7 65.6074 310.906 65.6074 309.398C65.6074 307.891 66.6959 307.316 68.0954 308.034C69.4949 308.824 70.5835 310.619 70.5835 312.054Z" fill="white"/>
<path d="M77.2703 310.62C76.1818 310.332 74.3935 309.758 72.6052 309.184C72.372 309.543 72.1387 310.045 72.1387 310.691C72.1387 312.558 73.5382 314.855 75.3265 315.86C77.1148 316.793 78.5143 316.004 78.5143 314.137C78.5921 312.917 78.0478 311.625 77.2703 310.62Z" fill="white"/>
<path d="M4.49609 270.273C4.49609 270.273 4.57384 275.442 4.65159 276.231C4.72934 276.949 5.04035 278.313 6.05112 279.174C7.13965 279.964 12.66 284.774 13.5931 285.276C14.5261 285.779 14.9148 285.85 14.5261 284.271C14.1373 282.764 12.4268 277.595 11.0273 276.088C9.6277 274.58 4.49609 270.273 4.49609 270.273Z" fill="url(#paint60_linear_128_29665)"/>
<path d="M6.43988 276.807C8.22817 277.741 9.6277 277.023 9.6277 275.085C9.6277 274.941 9.6277 274.869 9.6277 274.726C7.60616 272.859 4.49609 270.203 4.49609 270.203C4.49609 270.203 4.57384 273.362 4.57384 275.156C5.19585 275.874 5.81787 276.449 6.43988 276.807Z" fill="white"/>
<path d="M11.0266 276.089C11.0266 276.017 10.9488 276.017 11.0266 276.089C10.0158 275.873 9.23828 276.447 9.23828 277.668C9.23828 279.175 10.3268 280.97 11.7263 281.688C12.5039 282.119 13.2036 282.119 13.6701 281.688C12.9704 279.606 11.8818 277.022 11.0266 276.089Z" fill="white"/>
<path d="M63.4311 307.028C62.9646 307.961 61.1763 311.192 62.1094 312.053C63.1201 312.915 67.0077 314.422 69.729 315.499C72.4503 316.576 77.1932 318.011 78.2817 318.083C79.3702 318.155 80.07 317.796 80.1478 316.791C80.2255 315.714 80.1478 312.34 80.1478 311.91C80.1478 311.479 79.2147 311.048 77.9707 310.833C76.7267 310.546 70.4288 308.608 68.2517 307.674C66.1525 306.741 63.8977 306.239 63.4311 307.028Z" fill="url(#paint61_linear_128_29665)"/>
<path d="M80.1478 311.909C80.1478 311.478 79.2147 311.047 77.9707 310.832C76.7267 310.545 70.4288 308.607 68.2517 307.674C66.1525 306.812 63.8199 306.238 63.4311 307.027C62.9646 307.961 61.1763 311.191 62.1094 312.052C63.1201 312.914 67.0077 314.421 69.729 315.498C72.4503 316.575 77.1932 318.011 78.2817 318.082C79.3702 318.154 80.07 317.795 80.1478 316.79C80.2255 315.714 80.1478 312.34 80.1478 311.909ZM79.9923 316.79C79.9145 317.58 79.448 317.939 78.5927 317.939C78.515 317.939 78.4372 317.939 78.2817 317.939C77.1932 317.867 72.4503 316.36 69.8068 315.355C67.3187 314.421 63.2756 312.842 62.2649 311.909C61.8761 311.55 61.7984 310.401 63.5866 307.099C63.7421 306.884 63.9754 306.74 64.4419 306.74C65.2972 306.74 66.6967 307.099 68.2517 307.745C70.4288 308.607 76.8044 310.617 77.9707 310.904C79.2147 311.191 79.9923 311.55 79.9923 311.837C79.9923 312.411 80.07 315.714 79.9923 316.79Z" fill="#2E383B"/>
<path d="M4.49609 270.273C4.49609 270.273 4.57384 275.442 4.65159 276.231C4.72934 276.949 5.04035 278.313 6.05112 279.174C7.13965 279.964 12.66 284.774 13.5931 285.276C14.5261 285.779 14.9148 285.85 14.5261 284.271C14.1373 282.764 12.4268 277.595 11.0273 276.088C9.6277 274.58 4.49609 270.273 4.49609 270.273Z" fill="url(#paint62_linear_128_29665)"/>
<path d="M13.7469 285.133C12.8139 284.63 7.29358 279.82 6.20506 279.031C5.11653 278.241 4.88328 276.877 4.80553 276.088C4.72778 275.442 4.65002 271.278 4.65002 270.345C4.57227 270.273 4.57227 270.273 4.57227 270.273C4.57227 270.273 4.65002 275.442 4.72778 276.231C4.80553 276.949 5.11653 278.313 6.12731 279.174C7.21583 279.964 12.7362 284.774 13.6692 285.276C14.2135 285.563 14.5245 285.707 14.68 285.492C14.4467 285.492 14.1357 285.348 13.7469 285.133Z" fill="#2E383B"/>
<path d="M98.2639 274.939C97.8751 274.939 97.4864 274.795 97.0199 274.58L92.1215 271.996C91.8105 271.852 91.7328 271.493 91.8883 271.206C92.0438 270.919 92.4325 270.847 92.7435 270.991L97.6419 273.575C97.9529 273.79 98.2639 273.79 98.4972 273.719C98.6527 273.647 98.8082 273.36 98.8082 273.001V241.917C98.8082 240.912 98.0306 239.62 97.0199 239.118L92.1215 236.534C91.8105 236.39 91.7328 236.031 91.8883 235.744C92.0438 235.457 92.4325 235.385 92.7435 235.529L97.6419 238.113C98.9637 238.831 100.052 240.482 100.052 241.917V273.001C100.052 273.79 99.7412 274.437 99.1192 274.724C98.8082 274.867 98.5749 274.939 98.2639 274.939Z" fill="#404B4D"/>
<path d="M107.127 271.065C107.127 271.926 106.427 272.285 105.65 271.854L99.7409 268.696C98.8857 268.265 98.2637 267.188 98.2637 266.255V243.714C98.2637 242.853 98.9634 242.494 99.7409 242.924L105.65 246.083C106.505 246.514 107.127 247.591 107.127 248.524V271.065Z" fill="#5A6567"/>
<path d="M106.35 271.639C106.35 272.5 105.651 272.859 104.873 272.428L98.9636 269.27C98.1083 268.839 97.4863 267.762 97.4863 266.829V244.288C97.4863 243.427 98.186 243.068 98.9636 243.499L104.873 246.657C105.728 247.088 106.35 248.165 106.35 249.098V271.639Z" fill="#404B4D"/>
<path d="M135.273 165.394L91.0321 141.848C91.0321 141.848 84.5787 145.294 79.2916 148.093C74.0045 150.893 67.6289 160.728 67.6289 160.728C67.6289 160.728 66.3848 164.317 66.3848 167.26C66.3848 167.835 66.5403 168.265 66.8514 168.552L111.403 192.17C112.569 192.888 114.824 192.098 114.824 192.098L135.195 181.259L135.351 181.187V173.29L135.273 165.394Z" fill="#E1E8EC"/>
<path opacity="0.1" d="M114.747 192.1C114.747 192.1 110.549 193.536 110.549 190.593C110.549 187.649 111.793 184.06 111.793 184.06C111.793 184.06 118.168 174.225 123.455 171.426C128.742 168.626 135.196 165.18 135.196 165.18V181.117L114.747 192.1Z" fill="black"/>
<path d="M112.026 178.892L73.6943 158.074C73.4611 158.361 73.2278 158.648 73.0723 158.935L111.404 179.753C111.56 179.394 111.793 179.179 112.026 178.892Z" fill="#4A585C"/>
<path d="M113.27 177.31L75.0162 156.492C74.7829 156.78 74.5497 157.067 74.3164 157.282L112.57 178.1C112.804 177.813 113.037 177.526 113.27 177.31Z" fill="#4A585C"/>
<path d="M110.938 180.326L72.6064 159.508C72.3731 159.795 72.1399 160.083 71.9844 160.37L110.315 181.188C110.471 180.901 110.704 180.613 110.938 180.326Z" fill="#4A585C"/>
<path d="M108.759 183.412L70.4279 162.594C70.3501 162.738 70.2724 162.81 70.2724 162.81C70.2724 162.81 70.1946 163.097 70.0391 163.527L108.448 184.417C108.604 183.986 108.682 183.628 108.759 183.412Z" fill="#4A585C"/>
<path d="M109.848 181.834L71.5165 161.016C71.2832 161.303 71.05 161.59 70.8945 161.877L109.226 182.695C109.381 182.48 109.615 182.193 109.848 181.834Z" fill="#4A585C"/>
</g>
<defs>
<linearGradient id="paint0_linear_128_29665" x1="236.75" y1="166.419" x2="237.796" y2="190.823" gradientUnits="userSpaceOnUse">
<stop stop-color="#F3F5F7"/>
<stop offset="1" stop-color="#999D9E"/>
</linearGradient>
<linearGradient id="paint1_linear_128_29665" x1="231.61" y1="186.395" x2="243.313" y2="165.847" gradientUnits="userSpaceOnUse">
<stop stop-color="#F3F5F7"/>
<stop offset="1" stop-color="#999D9E"/>
</linearGradient>
<linearGradient id="paint2_linear_128_29665" x1="227.932" y1="176.853" x2="242.986" y2="176.853" gradientUnits="userSpaceOnUse">
<stop stop-color="#C3C5C7"/>
<stop offset="1" stop-color="#696D6E"/>
</linearGradient>
<linearGradient id="paint3_linear_128_29665" x1="227.93" y1="176.454" x2="242.261" y2="176.454" gradientUnits="userSpaceOnUse">
<stop stop-color="#F3F5F7"/>
<stop offset="1" stop-color="#999D9E"/>
</linearGradient>
<linearGradient id="paint4_linear_128_29665" x1="227.93" y1="175.879" x2="238.74" y2="175.879" gradientUnits="userSpaceOnUse">
<stop stop-color="#C1C3C5"/>
<stop offset="1" stop-color="#676B6C"/>
</linearGradient>
<linearGradient id="paint5_linear_128_29665" x1="235.259" y1="170.346" x2="231.132" y2="187.951" gradientUnits="userSpaceOnUse">
<stop stop-color="#F3F5F7"/>
<stop offset="1" stop-color="#999D9E"/>
</linearGradient>
<linearGradient id="paint6_linear_128_29665" x1="195.013" y1="188.678" x2="196.059" y2="213.081" gradientUnits="userSpaceOnUse">
<stop stop-color="#F3F5F7"/>
<stop offset="1" stop-color="#999D9E"/>
</linearGradient>
<linearGradient id="paint7_linear_128_29665" x1="189.871" y1="208.653" x2="201.574" y2="188.105" gradientUnits="userSpaceOnUse">
<stop stop-color="#F3F5F7"/>
<stop offset="1" stop-color="#999D9E"/>
</linearGradient>
<linearGradient id="paint8_linear_128_29665" x1="186.193" y1="199.115" x2="201.248" y2="199.115" gradientUnits="userSpaceOnUse">
<stop stop-color="#C3C5C7"/>
<stop offset="1" stop-color="#696D6E"/>
</linearGradient>
<linearGradient id="paint9_linear_128_29665" x1="186.193" y1="198.711" x2="200.525" y2="198.711" gradientUnits="userSpaceOnUse">
<stop stop-color="#F3F5F7"/>
<stop offset="1" stop-color="#999D9E"/>
</linearGradient>
<linearGradient id="paint10_linear_128_29665" x1="186.193" y1="198.137" x2="197.004" y2="198.137" gradientUnits="userSpaceOnUse">
<stop stop-color="#C1C3C5"/>
<stop offset="1" stop-color="#676B6C"/>
</linearGradient>
<linearGradient id="paint11_linear_128_29665" x1="193.521" y1="192.604" x2="189.395" y2="210.208" gradientUnits="userSpaceOnUse">
<stop stop-color="#F3F5F7"/>
<stop offset="1" stop-color="#999D9E"/>
</linearGradient>
<linearGradient id="paint12_linear_128_29665" x1="278.74" y1="150.816" x2="265.54" y2="180.204" gradientUnits="userSpaceOnUse">
<stop stop-color="#B8BFC3"/>
<stop offset="0.1261" stop-color="#C7CED1"/>
<stop offset="0.4556" stop-color="#EBF2F2"/>
<stop offset="0.6324" stop-color="#F8FFFF"/>
<stop offset="0.7175" stop-color="#EBF2F6"/>
<stop offset="0.8952" stop-color="#B8BFC3"/>
<stop offset="1" stop-color="#89939A"/>
</linearGradient>
<linearGradient id="paint13_linear_128_29665" x1="304.235" y1="202.84" x2="305.282" y2="227.243" gradientUnits="userSpaceOnUse">
<stop stop-color="#F3F5F7"/>
<stop offset="1" stop-color="#999D9E"/>
</linearGradient>
<linearGradient id="paint14_linear_128_29665" x1="299.094" y1="222.81" x2="310.797" y2="202.262" gradientUnits="userSpaceOnUse">
<stop stop-color="#F3F5F7"/>
<stop offset="1" stop-color="#999D9E"/>
</linearGradient>
<linearGradient id="paint15_linear_128_29665" x1="295.416" y1="213.273" x2="310.47" y2="213.273" gradientUnits="userSpaceOnUse">
<stop stop-color="#C3C5C7"/>
<stop offset="1" stop-color="#696D6E"/>
</linearGradient>
<linearGradient id="paint16_linear_128_29665" x1="295.416" y1="212.867" x2="309.748" y2="212.867" gradientUnits="userSpaceOnUse">
<stop stop-color="#F3F5F7"/>
<stop offset="1" stop-color="#999D9E"/>
</linearGradient>
<linearGradient id="paint17_linear_128_29665" x1="295.416" y1="212.295" x2="306.227" y2="212.295" gradientUnits="userSpaceOnUse">
<stop stop-color="#C1C3C5"/>
<stop offset="1" stop-color="#676B6C"/>
</linearGradient>
<linearGradient id="paint18_linear_128_29665" x1="302.744" y1="206.76" x2="298.617" y2="224.366" gradientUnits="userSpaceOnUse">
<stop stop-color="#F3F5F7"/>
<stop offset="1" stop-color="#999D9E"/>
</linearGradient>
<linearGradient id="paint19_linear_128_29665" x1="262.499" y1="225.097" x2="263.545" y2="249.5" gradientUnits="userSpaceOnUse">
<stop stop-color="#F3F5F7"/>
<stop offset="1" stop-color="#999D9E"/>
</linearGradient>
<linearGradient id="paint20_linear_128_29665" x1="257.355" y1="245.069" x2="269.058" y2="224.52" gradientUnits="userSpaceOnUse">
<stop stop-color="#F3F5F7"/>
<stop offset="1" stop-color="#999D9E"/>
</linearGradient>
<linearGradient id="paint21_linear_128_29665" x1="253.678" y1="235.53" x2="268.731" y2="235.53" gradientUnits="userSpaceOnUse">
<stop stop-color="#C3C5C7"/>
<stop offset="1" stop-color="#696D6E"/>
</linearGradient>
<linearGradient id="paint22_linear_128_29665" x1="253.678" y1="235.124" x2="268.008" y2="235.124" gradientUnits="userSpaceOnUse">
<stop stop-color="#F3F5F7"/>
<stop offset="1" stop-color="#999D9E"/>
</linearGradient>
<linearGradient id="paint23_linear_128_29665" x1="253.678" y1="234.553" x2="264.487" y2="234.553" gradientUnits="userSpaceOnUse">
<stop stop-color="#C1C3C5"/>
<stop offset="1" stop-color="#676B6C"/>
</linearGradient>
<linearGradient id="paint24_linear_128_29665" x1="261.006" y1="229.018" x2="256.879" y2="246.623" gradientUnits="userSpaceOnUse">
<stop stop-color="#F3F5F7"/>
<stop offset="1" stop-color="#999D9E"/>
</linearGradient>
<linearGradient id="paint25_linear_128_29665" x1="162.665" y1="247.623" x2="177.135" y2="274.769" gradientUnits="userSpaceOnUse">
<stop offset="0.4393" stop-color="#B8BFC3"/>
<stop offset="0.4438" stop-color="#BAC1C5"/>
<stop offset="0.5216" stop-color="#DEE5E9"/>
<stop offset="0.5633" stop-color="#EBF2F6"/>
<stop offset="0.8396" stop-color="#B8BFC3"/>
<stop offset="1" stop-color="#89939A"/>
</linearGradient>
<linearGradient id="paint26_linear_128_29665" x1="177.4" y1="237.742" x2="193.408" y2="267.773" gradientUnits="userSpaceOnUse">
<stop offset="0.4393" stop-color="#D2D9DD"/>
<stop offset="0.5171" stop-color="#F2F4F5"/>
<stop offset="0.5633" stop-color="white"/>
<stop offset="0.8396" stop-color="#D2D9DD"/>
<stop offset="1" stop-color="#A3ADB4"/>
</linearGradient>
<linearGradient id="paint27_linear_128_29665" x1="157.044" y1="248.522" x2="173.052" y2="278.552" gradientUnits="userSpaceOnUse">
<stop offset="0.4393" stop-color="#D2D9DD"/>
<stop offset="0.5171" stop-color="#F2F4F5"/>
<stop offset="0.5633" stop-color="white"/>
<stop offset="0.8396" stop-color="#D2D9DD"/>
<stop offset="1" stop-color="#A3ADB4"/>
</linearGradient>
<linearGradient id="paint28_linear_128_29665" x1="128.937" y1="295.144" x2="124.642" y2="326.239" gradientUnits="userSpaceOnUse">
<stop stop-color="#F3F5F7"/>
<stop offset="1" stop-color="#999D9E"/>
</linearGradient>
<linearGradient id="paint29_linear_128_29665" x1="123.681" y1="322.108" x2="125.934" y2="306.975" gradientUnits="userSpaceOnUse">
<stop stop-color="#E6E8EA"/>
<stop offset="1" stop-color="#8C9091"/>
</linearGradient>
<linearGradient id="paint30_linear_128_29665" x1="124.014" y1="315.015" x2="130.863" y2="296.704" gradientUnits="userSpaceOnUse">
<stop stop-color="#F3F5F7"/>
<stop offset="1" stop-color="#999D9E"/>
</linearGradient>
<linearGradient id="paint31_linear_128_29665" x1="128.18" y1="297.487" x2="123.78" y2="322.192" gradientUnits="userSpaceOnUse">
<stop stop-color="#F3F5F7"/>
<stop offset="1" stop-color="#999D9E"/>
</linearGradient>
<linearGradient id="paint32_linear_128_29665" x1="127.198" y1="302.496" x2="127.047" y2="322.002" gradientUnits="userSpaceOnUse">
<stop stop-color="#F3F5F7"/>
<stop offset="1" stop-color="#999D9E"/>
</linearGradient>
<linearGradient id="paint33_linear_128_29665" x1="125.061" y1="300.829" x2="126.859" y2="300.829" gradientUnits="userSpaceOnUse">
<stop stop-color="#8F9193"/>
<stop offset="1" stop-color="#35393A"/>
</linearGradient>
<linearGradient id="paint34_linear_128_29665" x1="117.983" y1="310.37" x2="120.565" y2="310.37" gradientUnits="userSpaceOnUse">
<stop stop-color="#8F9193"/>
<stop offset="1" stop-color="#35393A"/>
</linearGradient>
<linearGradient id="paint35_linear_128_29665" x1="118.81" y1="315.178" x2="121.222" y2="315.178" gradientUnits="userSpaceOnUse">
<stop stop-color="#8F9193"/>
<stop offset="1" stop-color="#35393A"/>
</linearGradient>
<linearGradient id="paint36_linear_128_29665" x1="122.729" y1="316.969" x2="124.03" y2="316.969" gradientUnits="userSpaceOnUse">
<stop stop-color="#8F9193"/>
<stop offset="1" stop-color="#35393A"/>
</linearGradient>
<linearGradient id="paint37_linear_128_29665" x1="120.772" y1="304.862" x2="123.178" y2="304.862" gradientUnits="userSpaceOnUse">
<stop stop-color="#8F9193"/>
<stop offset="1" stop-color="#35393A"/>
</linearGradient>
<linearGradient id="paint38_linear_128_29665" x1="129.839" y1="299.628" x2="131.34" y2="299.628" gradientUnits="userSpaceOnUse">
<stop stop-color="#8F9193"/>
<stop offset="1" stop-color="#35393A"/>
</linearGradient>
<linearGradient id="paint39_linear_128_29665" x1="132.886" y1="303.051" x2="134.462" y2="303.051" gradientUnits="userSpaceOnUse">
<stop stop-color="#8F9193"/>
<stop offset="1" stop-color="#35393A"/>
</linearGradient>
<linearGradient id="paint40_linear_128_29665" x1="133.021" y1="307.516" x2="133.682" y2="307.516" gradientUnits="userSpaceOnUse">
<stop stop-color="#8F9193"/>
<stop offset="1" stop-color="#35393A"/>
</linearGradient>
<linearGradient id="paint41_linear_128_29665" x1="127.195" y1="315.556" x2="127.823" y2="315.556" gradientUnits="userSpaceOnUse">
<stop stop-color="#8F9193"/>
<stop offset="1" stop-color="#35393A"/>
</linearGradient>
<linearGradient id="paint42_linear_128_29665" x1="131.137" y1="311.579" x2="131.68" y2="311.579" gradientUnits="userSpaceOnUse">
<stop stop-color="#8F9193"/>
<stop offset="1" stop-color="#35393A"/>
</linearGradient>
<linearGradient id="paint43_linear_128_29665" x1="130.928" y1="307.995" x2="124.136" y2="311.05" gradientUnits="userSpaceOnUse">
<stop stop-color="#F3F5F7"/>
<stop offset="1" stop-color="#999D9E"/>
</linearGradient>
<linearGradient id="paint44_linear_128_29665" x1="128.68" y1="306.182" x2="126.353" y2="319.001" gradientUnits="userSpaceOnUse">
<stop stop-color="#F3F5F7"/>
<stop offset="1" stop-color="#999D9E"/>
</linearGradient>
<linearGradient id="paint45_linear_128_29665" x1="109.928" y1="289.705" x2="102.606" y2="318.676" gradientUnits="userSpaceOnUse">
<stop stop-color="white"/>
<stop offset="1"/>
</linearGradient>
<linearGradient id="paint46_linear_128_29665" x1="114.997" y1="240.834" x2="120.174" y2="226.746" gradientUnits="userSpaceOnUse">
<stop stop-color="white"/>
<stop offset="1"/>
</linearGradient>
<linearGradient id="paint47_linear_128_29665" x1="77.8242" y1="291.941" x2="77.6936" y2="304.481" gradientUnits="userSpaceOnUse">
<stop stop-color="white"/>
<stop offset="0.1072" stop-color="#FAFAFA"/>
<stop offset="0.2309" stop-color="#ECECEC"/>
<stop offset="0.3629" stop-color="#D5D5D5"/>
<stop offset="0.5005" stop-color="#B5B5B5"/>
<stop offset="0.6427" stop-color="#8B8B8B"/>
<stop offset="0.7887" stop-color="#585858"/>
<stop offset="0.9349" stop-color="#1D1D1D"/>
<stop offset="1"/>
</linearGradient>
<linearGradient id="paint48_linear_128_29665" x1="65.9391" y1="291.465" x2="73.9719" y2="295.369" gradientUnits="userSpaceOnUse">
<stop stop-color="white"/>
<stop offset="1"/>
</linearGradient>
<linearGradient id="paint49_linear_128_29665" x1="78.3429" y1="305.511" x2="46.4537" y2="292.539" gradientUnits="userSpaceOnUse">
<stop stop-color="white"/>
<stop offset="1"/>
</linearGradient>
<linearGradient id="paint50_linear_128_29665" x1="94.4619" y1="305.792" x2="90.4757" y2="290.821" gradientUnits="userSpaceOnUse">
<stop stop-color="white"/>
<stop offset="1"/>
</linearGradient>
<linearGradient id="paint51_linear_128_29665" x1="61.1988" y1="317.751" x2="76.6742" y2="317.751" gradientUnits="userSpaceOnUse">
<stop stop-color="white"/>
<stop offset="1"/>
</linearGradient>
<linearGradient id="paint52_linear_128_29665" x1="8.07258" y1="282.528" x2="6.54106" y2="276.367" gradientUnits="userSpaceOnUse">
<stop stop-color="white"/>
<stop offset="1"/>
</linearGradient>
<linearGradient id="paint53_linear_128_29665" x1="6.97426" y1="276.484" x2="5.25008" y2="272.282" gradientUnits="userSpaceOnUse">
<stop stop-color="white"/>
<stop offset="1"/>
</linearGradient>
<linearGradient id="paint54_linear_128_29665" x1="15.1401" y1="289.718" x2="7.15065" y2="282.71" gradientUnits="userSpaceOnUse">
<stop stop-color="white"/>
<stop offset="1"/>
</linearGradient>
<linearGradient id="paint55_linear_128_29665" x1="16.4486" y1="288.22" x2="8.46128" y2="281.213" gradientUnits="userSpaceOnUse">
<stop stop-color="white"/>
<stop offset="1"/>
</linearGradient>
<linearGradient id="paint56_linear_128_29665" x1="12.1384" y1="258.569" x2="2.45849" y2="258.272" gradientUnits="userSpaceOnUse">
<stop stop-color="white"/>
<stop offset="1"/>
</linearGradient>
<linearGradient id="paint57_linear_128_29665" x1="3.75063" y1="271.188" x2="15.039" y2="271.188" gradientUnits="userSpaceOnUse">
<stop stop-color="white"/>
<stop offset="0.1072" stop-color="#FAFAFA"/>
<stop offset="0.2309" stop-color="#ECECEC"/>
<stop offset="0.3629" stop-color="#D5D5D5"/>
<stop offset="0.5005" stop-color="#B5B5B5"/>
<stop offset="0.6427" stop-color="#8B8B8B"/>
<stop offset="0.7887" stop-color="#585858"/>
<stop offset="0.9349" stop-color="#1D1D1D"/>
<stop offset="1"/>
</linearGradient>
<linearGradient id="paint58_linear_128_29665" x1="53.1248" y1="210.342" x2="48.4661" y2="218.451" gradientUnits="userSpaceOnUse">
<stop stop-color="white"/>
<stop offset="1"/>
</linearGradient>
<linearGradient id="paint59_linear_128_29665" x1="61.8537" y1="312.36" x2="80.1916" y2="312.36" gradientUnits="userSpaceOnUse">
<stop stop-color="white"/>
<stop offset="1" stop-color="#969696"/>
</linearGradient>
<linearGradient id="paint60_linear_128_29665" x1="4.52073" y1="277.9" x2="14.6548" y2="277.9" gradientUnits="userSpaceOnUse">
<stop stop-color="white"/>
<stop offset="1" stop-color="#969696"/>
</linearGradient>
<linearGradient id="paint61_linear_128_29665" x1="61.8537" y1="312.36" x2="80.1916" y2="312.36" gradientUnits="userSpaceOnUse">
<stop stop-color="white"/>
<stop offset="1" stop-color="white"/>
</linearGradient>
<linearGradient id="paint62_linear_128_29665" x1="4.52073" y1="277.9" x2="14.6548" y2="277.9" gradientUnits="userSpaceOnUse">
<stop stop-color="white"/>
<stop offset="1" stop-color="white"/>
</linearGradient>
<clipPath id="clip0_128_29665">
<rect width="378" height="330" fill="white"/>
</clipPath>
</defs>
</svg>
