<svg width="30" height="30" viewBox="0 0 30 30" fill="none" xmlns="http://www.w3.org/2000/svg">
<rect opacity="0.1" width="30" height="30" fill="#F8F8F8"/>
<path d="M16 6.875H14C11.0315 6.875 9.54719 6.875 8.50668 7.63097C8.17064 7.87512 7.87512 8.17064 7.63097 8.50668C6.875 9.54719 6.875 11.0315 6.875 14V16C6.875 18.9685 6.875 20.4528 7.63097 21.4933C7.87512 21.8294 8.17064 22.1249 8.50668 22.369C9.54719 23.125 11.0315 23.125 14 23.125H16C18.9685 23.125 20.4528 23.125 21.4933 22.369C21.8294 22.1249 22.1249 21.8294 22.369 21.4933C23.125 20.4528 23.125 18.9685 23.125 16V14C23.125 11.0315 23.125 9.54719 22.369 8.50668C22.1249 8.17064 21.8294 7.87512 21.4933 7.63097C20.4528 6.875 18.9685 6.875 16 6.875Z" fill="white" fill-opacity="0.25"/>
<path d="M18.3334 14.9998C18.3334 16.8408 16.841 18.3332 15 18.3332C13.1591 18.3332 11.6667 16.8408 11.6667 14.9998C11.6667 13.1589 13.1591 11.6665 15 11.6665C16.841 11.6665 18.3334 13.1589 18.3334 14.9998Z" fill="white"/>
<path d="M20.4167 10.4168C20.4167 10.8771 20.0436 11.2502 19.5833 11.2502C19.1231 11.2502 18.75 10.8771 18.75 10.4168C18.75 9.95659 19.1231 9.5835 19.5833 9.5835C20.0436 9.5835 20.4167 9.95659 20.4167 10.4168Z" fill="white"/>
</svg>
