<svg width="24" height="25" viewBox="0 0 24 25" fill="none" xmlns="http://www.w3.org/2000/svg">
<path d="M9.68944 3.50312C10.9395 2.16563 13.0605 2.16563 14.3106 3.50312C14.934 4.1702 15.8154 4.53527 16.7279 4.50443C18.5576 4.4426 20.0574 5.9424 19.9956 7.77206C19.9647 8.68461 20.3298 9.56597 20.9969 10.1894C22.3344 11.4395 22.3344 13.5605 20.9969 14.8106C20.3298 15.434 19.9647 16.3154 19.9956 17.2279C20.0574 19.0576 18.5576 20.5574 16.7279 20.4956C15.8154 20.4647 14.934 20.8298 14.3106 21.4969C13.0605 22.8344 10.9395 22.8344 9.68944 21.4969C9.06597 20.8298 8.18461 20.4647 7.27206 20.4956C5.4424 20.5574 3.9426 19.0576 4.00443 17.2279C4.03527 16.3154 3.6702 15.434 3.00312 14.8106C1.66563 13.5605 1.66563 11.4395 3.00312 10.1894C3.6702 9.56597 4.03527 8.68461 4.00443 7.77206C3.9426 5.9424 5.4424 4.4426 7.27206 4.50443C8.18461 4.53527 9.06597 4.1702 9.68944 3.50312Z" fill="#282DAD" fill-opacity="0.18"/>
<path d="M8.5 12.5L9.96217 14.2407C10.2254 14.5541 10.3571 14.7108 10.5267 14.7461C10.5812 14.7574 10.6373 14.7596 10.6925 14.7524C10.8644 14.7302 11.0076 14.5841 11.2941 14.2917L15.5 10" stroke="#282DAD" stroke-width="1.5" stroke-linecap="round" stroke-linejoin="round"/>
</svg>
