<svg width="24" height="24" viewBox="0 0 24 24" fill="none" xmlns="http://www.w3.org/2000/svg">
<path d="M7.03052 16.9708C10.0571 19.9962 13.7963 21.6998 17.0598 21.7304C18.2749 21.8448 19.5332 21.4367 20.4653 20.5049C22.1252 18.8457 22.1252 16.1555 20.4653 14.4962C18.8056 12.8372 16.1148 12.8372 14.4551 14.4962C14.063 14.8882 13.7632 15.3384 13.5562 15.8191C12.5219 15.1769 11.5103 14.3801 10.5658 13.436L7.03052 16.9708Z" fill="#212C42"/>
<path d="M9.50507 3.54117C7.84537 1.88211 5.15458 1.88211 3.49487 3.54117C2.5627 4.47298 2.15435 5.73087 2.26879 6.9458C2.2994 10.2084 4.00384 13.9462 7.03041 16.9716L10.5657 13.4368C9.62149 12.4929 8.82444 11.4819 8.18207 10.4482C8.66278 10.2413 9.11305 9.94172 9.50507 9.54985C11.1649 7.89063 11.1649 5.20039 9.50507 3.54117Z" fill="#212C42" fill-opacity="0.31"/>
</svg>
