<svg width="24" height="24" viewBox="0 0 24 24" fill="none" xmlns="http://www.w3.org/2000/svg">
<path d="M2.47802 7.91528C2.25 8.7986 2.25 9.94627 2.25 11.9999C2.25 14.3275 2.25 15.4913 2.582 16.4254C3.16141 18.0557 4.44414 19.3385 6.07444 19.9179C7.0086 20.2499 8.1724 20.2499 10.5 20.2499H13.5C15.8276 20.2499 16.9914 20.2499 17.9256 19.9179C19.5559 19.3385 20.8386 18.0557 21.418 16.4254C21.75 15.4913 21.75 14.3275 21.75 11.9999C21.75 9.94629 21.75 8.79862 21.522 7.91531L17.754 10.6918C16.6402 11.5126 15.7625 12.1594 15.002 12.6177C14.2228 13.0873 13.5145 13.3925 12.7288 13.4928C12.2452 13.5546 11.7557 13.5546 11.2721 13.4928C10.4864 13.3925 9.77801 13.0874 8.99883 12.6178C8.23833 12.1595 7.36057 11.5128 6.24672 10.6921L2.47802 7.91528Z" fill="white" fill-opacity="0.18"/>
<path d="M3.0918 6.50448L7.1064 9.46247C8.25686 10.3101 9.0791 10.915 9.77299 11.3332C10.455 11.7442 10.9601 11.941 11.462 12.005C11.8195 12.0507 12.1812 12.0507 12.5387 12.005C13.0406 11.9409 13.5457 11.7441 14.2277 11.3331C14.9215 10.9149 15.7438 10.31 16.8942 9.46225L20.9081 6.50449C20.2273 5.38896 19.1791 4.52754 17.9255 4.082C16.9913 3.75 15.8275 3.75 13.4999 3.75L10.4999 3.75C8.17235 3.75 7.00855 3.75 6.07439 4.082C4.82076 4.52754 3.77264 5.38895 3.0918 6.50448Z" fill="white"/>
</svg>
