<svg width="136" height="136" viewBox="0 0 136 136" fill="none" xmlns="http://www.w3.org/2000/svg">
<path d="M7.86 101.87L90.89 18.83H94.4C97.12 18.83 99.76 17.98 101.97 16.4L115.08 7.01998C116.38 6.07998 117.81 5.31998 119.3 4.74998C120.79 4.17998 122.36 3.79998 123.96 3.61998C125.09 3.49998 126.19 3.23998 127.24 2.84998C128.29 2.45998 129.3 1.94998 130.24 1.32998C131.14 0.719978 132.15 0.289978 133.19 0.0399777C134.29 -0.230022 135.31 0.789978 135.04 1.88998C134.79 2.93998 134.35 3.93998 133.75 4.83998C133.12 5.77998 132.61 6.78998 132.23 7.83998C131.85 8.88998 131.59 9.98998 131.46 11.12C131.1 14.32 129.93 17.38 128.06 20L118.68 33.11C117.1 35.32 116.25 37.96 116.25 40.68V44.19L33.23 127.24C31.21 129.26 28.88 130.93 26.28 132.25C23.67 133.57 20.8 134.53 17.69 135.1L68.44 84.35C77.82 74.97 85.8 64.29 92.14 52.65L94.98 47.44C96.12 45.34 95.75 42.74 94.06 41.05C92.37 39.36 89.77 38.99 87.67 40.13L82.46 42.97C70.81 49.31 60.13 57.29 50.76 66.67L0 117.41C0.57 114.3 1.53 111.42 2.85 108.82C4.16 106.22 5.84 103.89 7.86 101.87Z" fill="#212C42"/>
<path d="M45.1298 126L110.84 60.2897C114.32 56.8097 116.27 52.0997 116.27 47.1797L29.5898 133.85C32.6998 133.27 35.5798 132.32 38.1798 131C40.7798 129.69 43.1098 128.01 45.1298 125.99V126Z" fill="#212C42"/>
<path d="M57.03 124.74L110.84 70.9303C114.32 67.4503 116.27 62.7403 116.27 57.8203L41.5 132.59C44.61 132.02 47.49 131.06 50.09 129.74C52.69 128.43 55.02 126.75 57.04 124.73L57.03 124.74Z" fill="#212C42"/>
<path d="M68.9399 123.491L110.84 81.5907C114.32 78.1107 116.27 73.3907 116.27 68.4707L53.3999 131.341C56.5099 130.761 59.3899 129.811 61.9899 128.491C64.5899 127.181 66.9199 125.501 68.9399 123.481V123.491Z" fill="#212C42"/>
<path d="M80.8398 122.241L110.84 92.2409C114.32 88.7609 116.27 84.0509 116.27 79.1309L65.2998 130.091C68.4098 129.521 71.2898 128.561 73.8898 127.241C76.4898 125.931 78.8198 124.251 80.8398 122.231V122.241Z" fill="#212C42"/>
<path d="M92.7402 120.98L110.84 102.88C114.32 99.4 116.27 94.69 116.27 89.77V89.75L77.2002 128.82C80.3102 128.25 83.1902 127.29 85.8002 125.98C88.4102 124.66 90.7302 122.99 92.7502 120.97L92.7402 120.98Z" fill="#212C42"/>
<path d="M104.64 119.73L110.83 113.54C114.31 110.06 116.27 105.33 116.27 100.4L89.1001 127.57C92.2101 126.99 95.0901 126.04 97.6901 124.72C100.3 123.41 102.63 121.73 104.64 119.72V119.73Z" fill="#212C42"/>
<path d="M1.25023 105.51L87.9302 18.8301C83.0102 18.8301 78.3002 20.7801 74.8202 24.2601L9.10023 89.9701C7.09023 91.9801 5.41023 94.3101 4.09023 96.9201C2.78023 99.5201 1.82023 102.4 1.24023 105.51H1.25023Z" fill="#212C42"/>
<path d="M2.51 93.6101L77.28 18.8301C72.36 18.8301 67.65 20.7801 64.17 24.2601L10.36 78.0701C8.35 80.0801 6.67 82.4101 5.35 85.0201C4.04 87.6201 3.08 90.5001 2.5 93.6101H2.51Z" fill="#212C42"/>
<path d="M3.76 81.7001L66.63 18.8301C61.71 18.8301 56.99 20.7801 53.51 24.2601L11.61 66.1601C9.6 68.1701 7.92 70.5001 6.6 73.1101C5.29 75.7101 4.33 78.5901 3.75 81.7001H3.76Z" fill="#212C42"/>
<path d="M5.00977 69.8001L55.9798 18.8301C51.0598 18.8301 46.3498 20.7801 42.8698 24.2601L12.8698 54.2601C10.8598 56.2701 9.17977 58.6001 7.85977 61.2101C6.54977 63.8101 5.58977 66.6901 5.00977 69.8001Z" fill="#212C42"/>
<path d="M6.26977 57.9001L45.3398 18.8301H45.3198C40.3998 18.8301 35.6898 20.7801 32.2098 24.2601L14.1098 42.3601C12.0998 44.3701 10.4198 46.7001 9.09977 49.3101C7.78977 51.9101 6.82977 54.7901 6.25977 57.9101L6.26977 57.9001Z" fill="#212C42"/>
<path d="M10.37 37.4101C9.05002 40.0101 8.10002 42.8901 7.52002 46.0001L34.69 18.8301C29.76 18.8301 25.04 20.7901 21.55 24.2701L15.36 30.4601C13.35 32.4701 11.67 34.8001 10.36 37.4101H10.37Z" fill="#212C42"/>
</svg>
