<?xml version="1.0" encoding="UTF-8"?>
<svg id="Calque_2" data-name="Calque 2" xmlns="http://www.w3.org/2000/svg" viewBox="0 0 219.93 52.09">
  <defs>
    <style>
      .cls-1 {
        fill: #ef841a;
      }
    </style>
  </defs>
  <g id="Calque_1-2" data-name="Calque 1">
    <g>
      <path class="cls-1" d="M34.45,28.36c4.93-5.5,13.52-7.92,20.75-7.55,2.71.14,5.08,1,7.64,2.1l-1.86,6.49c-.59-1.3-.95-2.58-2.28-3-4.58-1.44-9.64-.95-13.83,1.27-2.36,1.25-3.61,3.47-3.35,6.1.46,4.59,7.34,4.77,10.84,4.35,6.69-.8,13.27-2.72,19.15-6.03,2.79-1.57,5.09-3.49,7.75-5.26l-6.51,2.87,1.52-4.99c-3.33-.03-6.34-.7-9.02,1.66.31-1.99,1.08-3.57,1.64-5.55l20.92-.02,3.62-2.47c-.29,1.29-1.46,1.42-2.04,2.63,1.16-.24,2.24-.19,3.56-.13l-1.7,5.69c-.66-.91-1-1.54-2.03-1.67-5.17-.68-2.64-.04-7.16,3.17l-4.34,14.07c-.52,1.69,1.36,2.23.86,2.45-.09.04-.19.26-.38.25l-11.95-.11c1.39-1.01,2.41-1.65,2.79-3.11.32-1.25.84-2.43,1.05-3.81-7.79,4.91-17.15,8.23-26.28,7.38-3.41-.32-6.8-1.15-9.36-3.27-4.83-4-3.59-9.49,0-13.5Z"/>
      <path class="cls-1" d="M108.97,31.5c2.1-1.07,3.53-3.47,2.58-5.7-.64-1.52-6.14-1.93-6.71-.74-1.07,2-1.61,4.22-2.27,6.39l-3.28,10.88c-.31,1.02.4,1.55,1.16,2.38l-12.67.07c1.36-1.33,2.21-.01,3.29-3.48l5.72-18.47c.26-.85-.15-1.3-.87-1.79l20.82.07c1.66,0,3.25,1.28,3.69,2.75,1.49,4.97-2.93,7.58-6.78,9.43.87,3.12,1.71,7.21,3.91,9.53.33.97,1.24,1.03,2.06,1.89-3.08.06-6,.15-8.96-.01-2.07-.12-3.5-1.61-3.97-3.47l-2.12-8.41c1.61-.14,2.91-.55,4.4-1.31Z"/>
      <path class="cls-1" d="M205.5,44.67l-17.25.08,1.98-5.83c.38.62.54,1.74,1.41,1.74,3.93,0,7.73.14,11.61-.06,1.34-.07,2.92-.77,3.18-2.1.29-1.47-1.19-2.43-2.5-2.69-2.41-.47-4.73-.62-6.97-1.66-1.88-.88-3.77-2.13-4.41-4.21-.95-3.09.86-6.25,3.73-7.59,2.51-1.17,5.13-1.43,7.91-1.44l15.72-.1-2.07,5.79c-.5-.52-.59-1.67-1.38-1.68-4.19-.04-8.35-.16-12.47.05-1.11.06-1.91,1.21-1.89,1.92.03,1.19.76,1.86,2.01,2.07,5.05.82,11.53,1.39,11.55,7.65,0,2.81-1.23,5.14-3.75,6.44-1.97,1.01-4,1.62-6.42,1.63Z"/>
      <path class="cls-1" d="M178.98,40.27l-3.9-3.65-3.83-3.59-3.56-3.38c-.47-.45-.99-.72-1.38-1.18l-4.37,14.2c-.23.75.52,1.31.9,1.73-.15.16-.28.39-.48.39-2.56-.11-4.98.13-7.61-.13,1.08-.85,2.11-1.23,2.47-2.39l5.9-19.01c.29-.95-.23-1.58-.9-2.4h8.64s3.26,3.07,3.26,3.07l4.31,4.07,4.44,4.23c1.01-3.05,1.97-5.98,2.78-8.98.25-.94-.18-1.56-.9-2.39l8.26.04c-1.06.83-1.92,1.18-2.46,2.23l-6.72,21.48c-.51-.28-.82-.48-1.12-.77l-3.73-3.56Z"/>
      <path class="cls-1" d="M130.62,40.44l-2.23,2.22c-.55.55-.61,1.19-.36,1.85-1.65.47-6.01.27-7.79.14,3.08-1.78,3.51-2.57,5.7-4.92l3.12-3.35,3.36-3.59,3.36-3.59,3.36-3.59c1.05-1.13,2.15-2.14,3.17-3.31.67-.78,1.2-1.63,2.19-2.3l7.09,21.89c.37,1.15,1.54,1.77,2.39,2.48-.06.35-.49.42-.91.42l-11.66-.07c.75-.96,1.04-1.58.78-2.51l-3.09-10.67c-2.21,2.07-3.48,3.82-5.73,5.99l3.59.07.79,2.84h-7.09Z"/>
      <path class="cls-1" d="M19.04,48.9c-4.9,3.95-13.59,4.08-19.04,1.2l5.22-.16c5.07-.16,9.05-3.74,10.6-8.64l5.29-16.73c.43-1.37.39-2.71-.96-3.51l12.42.02c-1.81,1.04-2.56,2.4-3.12,4.22l-4.4,14.22c-1.18,3.83-2.89,6.85-6.02,9.37Z"/>
      <path class="cls-1" d="M93.58,24.96l.99-10.44-9.85-2.05,11.17-2.06c1.86-3.6,2.99-6.66,5.19-10.41l-1.08,10.38,10.03,2.07-11.19,2.09c-.5.3-.55,1.15-.79,1.62l-4.46,8.8Z"/>
    </g>
  </g>
</svg>