<svg width="30" height="30" viewBox="0 0 30 30" fill="none" xmlns="http://www.w3.org/2000/svg">
<rect opacity="0.1" width="30" height="30" fill="#F8F8F8"/>
<path d="M14.5834 18.7502V17.4571M14.5834 17.4571C14.5834 15.87 15.8699 14.5835 17.4569 14.5835C18.1711 14.5835 18.75 15.1624 18.75 15.8766V18.7502M14.5834 17.4571V14.5835M11.6667 14.5835V18.7502" stroke="white" stroke-width="1.25" stroke-linecap="round" stroke-linejoin="round"/>
<circle cx="11.6666" cy="12.0833" r="0.833333" fill="white"/>
<path d="M6.875 14C6.875 11.0315 6.875 9.54719 7.63097 8.50668C7.87512 8.17064 8.17064 7.87512 8.50668 7.63097C9.54719 6.875 11.0315 6.875 14 6.875H16C18.9685 6.875 20.4528 6.875 21.4933 7.63097C21.8294 7.87512 22.1249 8.17064 22.369 8.50668C23.125 9.54719 23.125 11.0315 23.125 14V16C23.125 18.9685 23.125 20.4528 22.369 21.4933C22.1249 21.8294 21.8294 22.1249 21.4933 22.369C20.4528 23.125 18.9685 23.125 16 23.125H14C11.0315 23.125 9.54719 23.125 8.50668 22.369C8.17064 22.1249 7.87512 21.8294 7.63097 21.4933C6.875 20.4528 6.875 18.9685 6.875 16V14Z" fill="white" fill-opacity="0.25"/>
</svg>
