<svg width="24" height="25" viewBox="0 0 24 25" fill="none" xmlns="http://www.w3.org/2000/svg">
<path d="M9.69029 3.50312C10.9403 2.16563 13.0614 2.16563 14.3114 3.50312C14.9349 4.1702 15.8162 4.53527 16.7288 4.50443C18.5585 4.4426 20.0583 5.9424 19.9964 7.77206C19.9656 8.68461 20.3307 9.56597 20.9977 10.1894C22.3352 11.4395 22.3352 13.5605 20.9977 14.8106C20.3307 15.434 19.9656 16.3154 19.9964 17.2279C20.0583 19.0576 18.5585 20.5574 16.7288 20.4956C15.8162 20.4647 14.9349 20.8298 14.3114 21.4969C13.0614 22.8344 10.9403 22.8344 9.69029 21.4969C9.06682 20.8298 8.18547 20.4647 7.27291 20.4956C5.44325 20.5574 3.94345 19.0576 4.00528 17.2279C4.03612 16.3154 3.67105 15.434 3.00397 14.8106C1.66648 13.5605 1.66648 11.4395 3.00397 10.1894C3.67105 9.56597 4.03612 8.68461 4.00528 7.77206C3.94345 5.9424 5.44325 4.4426 7.27291 4.50443C8.18547 4.53527 9.06682 4.1702 9.69029 3.50312Z" fill="white" fill-opacity="0.18"/>
<path d="M8.50085 12.5L9.96302 14.2407C10.2263 14.5541 10.3579 14.7108 10.5275 14.7461C10.5821 14.7574 10.6381 14.7596 10.6934 14.7524C10.8652 14.7302 11.0085 14.5841 11.2949 14.2917L15.5009 10" stroke="white" stroke-width="1.5" stroke-linecap="round" stroke-linejoin="round"/>
</svg>
