<svg width="24" height="25" viewBox="0 0 24 25" fill="none" xmlns="http://www.w3.org/2000/svg">
<path d="M13.5573 21.8204C14.2451 21.3085 15.174 20.572 16.1369 19.6733C18.0303 17.9062 20.1864 15.3931 20.7356 12.6471C21.8463 7.09263 17.3472 2.75 12.0001 2.75C6.65311 2.75 2.15361 7.0926 3.26469 12.6471C3.81397 15.3931 5.97011 17.9062 7.86344 19.6733C8.8263 20.572 9.75517 21.3085 10.443 21.8204C10.4887 21.8544 10.3745 21.7694 10.3908 21.7812C11.275 22.4193 12.7253 22.4193 13.6095 21.7812C13.6258 21.7694 13.5116 21.8544 13.5573 21.8204Z" fill="white" fill-opacity="0.18"/>
<path d="M15.5 11.6499C15.5 13.5829 13.933 15.1499 12 15.1499C10.067 15.1499 8.5 13.5829 8.5 11.6499C8.5 9.71691 10.067 8.1499 12 8.1499C13.933 8.1499 15.5 9.71691 15.5 11.6499Z" fill="white"/>
</svg>
