<?xml version="1.0" encoding="UTF-8"?>
<svg id="Calque_2" data-name="Calque 2" xmlns="http://www.w3.org/2000/svg" viewBox="0 0 712.13 135.1">
  <defs>
    <style>
      .cls-1 {
        fill: #212c42;
      }
    </style>
  </defs>
  <g id="Layer_1" data-name="Layer 1">
    <g>
      <g>
        <path class="cls-1" d="M7.86,101.87L90.89,18.83h3.51c2.72,0,5.36-.85,7.57-2.43l13.11-9.38c1.3-.94,2.73-1.7,4.22-2.27,1.49-.57,3.06-.95,4.66-1.13,1.13-.12,2.23-.38,3.28-.77,1.05-.39,2.06-.9,3-1.52.9-.61,1.91-1.04,2.95-1.29,1.1-.27,2.12.75,1.85,1.85-.25,1.05-.69,2.05-1.29,2.95-.63.94-1.14,1.95-1.52,3-.38,1.05-.64,2.15-.77,3.28-.36,3.2-1.53,6.26-3.4,8.88l-9.38,13.11c-1.58,2.21-2.43,4.85-2.43,7.57v3.51S33.23,127.24,33.23,127.24c-2.02,2.02-4.35,3.69-6.95,5.01-2.61,1.32-5.48,2.28-8.59,2.85l50.75-50.75c9.38-9.38,17.36-20.06,23.7-31.7l2.84-5.21c1.14-2.1.77-4.7-.92-6.39h0c-1.69-1.69-4.29-2.06-6.39-.92l-5.21,2.84c-11.65,6.34-22.33,14.32-31.7,23.7L0,117.41c.57-3.11,1.53-5.99,2.85-8.59,1.31-2.6,2.99-4.93,5.01-6.95Z"/>
        <path class="cls-1" d="M45.13,126L110.84,60.29c3.48-3.48,5.43-8.19,5.43-13.11h0S29.59,133.85,29.59,133.85c3.11-.58,5.99-1.53,8.59-2.85,2.6-1.31,4.93-2.99,6.95-5.01Z"/>
        <path class="cls-1" d="M57.03,124.74l53.81-53.81c3.48-3.48,5.43-8.19,5.43-13.11h0s-74.77,74.77-74.77,74.77c3.11-.57,5.99-1.53,8.59-2.85,2.6-1.31,4.93-2.99,6.95-5.01Z"/>
        <path class="cls-1" d="M68.94,123.49l41.9-41.9c3.48-3.48,5.43-8.2,5.43-13.12h0s-62.87,62.87-62.87,62.87c3.11-.58,5.99-1.53,8.59-2.85,2.6-1.31,4.93-2.99,6.95-5.01Z"/>
        <path class="cls-1" d="M80.84,122.24l30-30c3.48-3.48,5.43-8.19,5.43-13.11h0s-50.97,50.96-50.97,50.96c3.11-.57,5.99-1.53,8.59-2.85,2.6-1.31,4.93-2.99,6.95-5.01Z"/>
        <path class="cls-1" d="M92.74,120.98l18.1-18.1c3.48-3.48,5.43-8.19,5.43-13.11v-.02s-39.07,39.07-39.07,39.07c3.11-.57,5.99-1.53,8.6-2.84,2.61-1.32,4.93-2.99,6.95-5.01Z"/>
        <path class="cls-1" d="M104.64,119.73l6.19-6.19c3.48-3.48,5.44-8.21,5.44-13.14l-27.17,27.17c3.11-.58,5.99-1.53,8.59-2.85,2.61-1.31,4.94-2.99,6.95-5Z"/>
        <path class="cls-1" d="M1.25,105.51L87.93,18.83h0c-4.92,0-9.63,1.95-13.11,5.43L9.1,89.97c-2.01,2.01-3.69,4.34-5.01,6.95-1.31,2.6-2.27,5.48-2.85,8.59Z"/>
        <path class="cls-1" d="M2.51,93.61L77.28,18.83h0c-4.92,0-9.63,1.95-13.11,5.43L10.36,78.07c-2.01,2.01-3.69,4.34-5.01,6.95-1.31,2.6-2.27,5.48-2.85,8.59Z"/>
        <path class="cls-1" d="M3.76,81.7l62.87-62.87h0c-4.92,0-9.64,1.95-13.12,5.43L11.61,66.16c-2.01,2.01-3.69,4.34-5.01,6.95-1.31,2.6-2.27,5.48-2.85,8.59Z"/>
        <path class="cls-1" d="M5.01,69.8L55.98,18.83h0c-4.92,0-9.63,1.95-13.11,5.43l-30,30c-2.01,2.01-3.69,4.34-5.01,6.95-1.31,2.6-2.27,5.48-2.85,8.59Z"/>
        <path class="cls-1" d="M6.27,57.9L45.34,18.83h-.02c-4.92,0-9.63,1.95-13.11,5.43l-18.1,18.1c-2.01,2.01-3.69,4.34-5.01,6.95-1.31,2.6-2.27,5.48-2.84,8.6Z"/>
        <path class="cls-1" d="M10.37,37.41c-1.32,2.6-2.27,5.48-2.85,8.59l27.17-27.17c-4.93,0-9.65,1.96-13.14,5.44l-6.19,6.19c-2.01,2.01-3.69,4.34-5,6.95Z"/>
      </g>
      <g>
        <path class="cls-1" d="M183.26,104.1V31.18h12.29l24.58,49.17,24.69-49.17h12.4v72.92h-10.42v-54.69l-22.6,44.48h-8.02l-22.5-44.27v54.48h-10.42Z"/>
        <path class="cls-1" d="M270.24,104.1V31.18h10.42v72.92h-10.42ZM278.89,71.18v-8.54h40v8.54h-40ZM316.6,104.1V31.18h10.42v72.92h-10.42Z"/>
        <path class="cls-1" d="M396.7,105.35c-7.08,0-13.23-1.58-18.44-4.74-5.21-3.16-9.2-7.57-11.98-13.23-2.78-5.66-4.17-12.24-4.17-19.74s1.39-13.99,4.17-19.69c2.78-5.69,6.77-10.12,11.98-13.28,5.21-3.16,11.35-4.74,18.44-4.74,8.47,0,15.4,2.05,20.78,6.15,5.38,4.1,8.77,9.86,10.16,17.29h-11.56c-1.04-4.3-3.16-7.74-6.35-10.31-3.2-2.57-7.57-3.85-13.13-3.85-4.93,0-9.17,1.15-12.71,3.44-3.54,2.29-6.29,5.56-8.23,9.79-1.94,4.24-2.92,9.31-2.92,15.21s.97,10.99,2.92,15.26c1.94,4.27,4.69,7.54,8.23,9.79,3.54,2.26,7.78,3.38,12.71,3.38,5.56,0,9.93-1.23,13.13-3.7,3.19-2.46,5.31-5.82,6.35-10.05h11.56c-1.39,7.22-4.78,12.87-10.16,16.93-5.38,4.06-12.31,6.09-20.78,6.09Z"/>
        <path class="cls-1" d="M431.91,104.1l26.77-72.92h11.35l26.77,72.92h-11.15l-21.35-60.42-21.46,60.42h-10.94ZM444,86.08l2.92-8.33h34.27l2.92,8.33h-40.11Z"/>
        <path class="cls-1" d="M505.15,104.1V31.18h24.69c5.76,0,10.49.97,14.17,2.92,3.68,1.95,6.41,4.53,8.18,7.76s2.66,6.89,2.66,10.99-.89,7.48-2.66,10.78c-1.77,3.3-4.53,5.94-8.28,7.92s-8.54,2.97-14.38,2.97h-13.96v29.58h-10.42ZM515.56,66.59h13.65c5.14,0,8.91-1.27,11.3-3.8,2.4-2.53,3.59-5.78,3.59-9.74s-1.18-7.22-3.54-9.58c-2.36-2.36-6.18-3.54-11.46-3.54h-13.54v26.67ZM543.48,104.1l-15.73-32.4h11.46l16.36,32.4h-12.08Z"/>
        <path class="cls-1" d="M597.75,105.35c-6.88,0-12.88-1.56-18.02-4.69-5.14-3.12-9.11-7.5-11.93-13.13-2.81-5.62-4.22-12.19-4.22-19.69s1.44-13.99,4.32-19.69c2.88-5.69,7-10.16,12.34-13.39,5.35-3.23,11.7-4.84,19.06-4.84,8.33,0,15.28,2,20.83,5.99,5.55,3.99,9.13,9.53,10.73,16.62h-11.98c-1.04-4.03-3.23-7.2-6.56-9.53-3.33-2.33-7.71-3.49-13.12-3.49s-9.58,1.15-13.33,3.44-6.63,5.56-8.65,9.79c-2.01,4.24-3.02,9.27-3.02,15.1s.99,10.97,2.97,15.21c1.98,4.24,4.81,7.47,8.49,9.69,3.68,2.22,7.92,3.33,12.71,3.33,7.36,0,12.92-2.12,16.67-6.35,3.75-4.23,5.9-9.9,6.46-16.98h-20.1v-8.02h30.73v39.38h-9.58l-.83-11.15c-1.74,2.71-3.7,4.98-5.89,6.82-2.19,1.84-4.74,3.23-7.66,4.17-2.92.94-6.39,1.41-10.42,1.41Z"/>
        <path class="cls-1" d="M676.5,105.35c-7.01,0-13.16-1.58-18.44-4.74-5.28-3.16-9.43-7.57-12.45-13.23-3.02-5.66-4.53-12.24-4.53-19.74s1.51-13.98,4.53-19.64c3.02-5.66,7.17-10.09,12.45-13.28,5.28-3.19,11.42-4.79,18.44-4.79s13.32,1.6,18.7,4.79c5.38,3.2,9.55,7.62,12.5,13.28,2.95,5.66,4.43,12.21,4.43,19.64s-1.48,14.08-4.43,19.74c-2.95,5.66-7.12,10.07-12.5,13.23-5.38,3.16-11.62,4.74-18.7,4.74ZM676.5,96.08c5.07,0,9.48-1.15,13.23-3.44s6.65-5.55,8.7-9.79c2.05-4.24,3.07-9.31,3.07-15.21s-1.03-10.97-3.07-15.21c-2.05-4.24-4.95-7.48-8.7-9.74-3.75-2.26-8.16-3.38-13.23-3.38s-9.25,1.13-12.97,3.38c-3.72,2.26-6.62,5.5-8.7,9.74-2.08,4.24-3.12,9.31-3.12,15.21s1.04,10.97,3.12,15.21c2.08,4.24,4.98,7.5,8.7,9.79,3.71,2.29,8.04,3.44,12.97,3.44Z"/>
      </g>
    </g>
  </g>
</svg>