<svg width="713" height="136" viewBox="0 0 713 136" fill="none" xmlns="http://www.w3.org/2000/svg">
<g clip-path="url(#clip0_63_32184)">
<path d="M7.86 101.87L90.89 18.83H94.4C97.12 18.83 99.76 17.98 101.97 16.4L115.08 7.01998C116.38 6.07998 117.81 5.31998 119.3 4.74998C120.79 4.17998 122.36 3.79998 123.96 3.61998C125.09 3.49998 126.19 3.23998 127.24 2.84998C128.29 2.45998 129.3 1.94998 130.24 1.32998C131.14 0.719978 132.15 0.289978 133.19 0.0399777C134.29 -0.230022 135.31 0.789978 135.04 1.88998C134.79 2.93998 134.35 3.93998 133.75 4.83998C133.12 5.77998 132.61 6.78998 132.23 7.83998C131.85 8.88998 131.59 9.98998 131.46 11.12C131.1 14.32 129.93 17.38 128.06 20L118.68 33.11C117.1 35.32 116.25 37.96 116.25 40.68V44.19L33.23 127.24C31.21 129.26 28.88 130.93 26.28 132.25C23.67 133.57 20.8 134.53 17.69 135.1L68.44 84.35C77.82 74.97 85.8 64.29 92.14 52.65L94.98 47.44C96.12 45.34 95.75 42.74 94.06 41.05C92.37 39.36 89.77 38.99 87.67 40.13L82.46 42.97C70.81 49.31 60.13 57.29 50.76 66.67L0 117.41C0.57 114.3 1.53 111.42 2.85 108.82C4.16 106.22 5.84 103.89 7.86 101.87Z" fill="#F3F0EC"/>
<path d="M45.1298 126L110.84 60.2897C114.32 56.8097 116.27 52.0997 116.27 47.1797L29.5898 133.85C32.6998 133.27 35.5798 132.32 38.1798 131C40.7798 129.69 43.1098 128.01 45.1298 125.99V126Z" fill="#F3F0EC"/>
<path d="M57.03 124.74L110.84 70.9303C114.32 67.4503 116.27 62.7403 116.27 57.8203L41.5 132.59C44.61 132.02 47.49 131.06 50.09 129.74C52.69 128.43 55.02 126.75 57.04 124.73L57.03 124.74Z" fill="#F3F0EC"/>
<path d="M68.9399 123.491L110.84 81.5907C114.32 78.1107 116.27 73.3907 116.27 68.4707L53.3999 131.341C56.5099 130.761 59.3899 129.811 61.9899 128.491C64.5899 127.181 66.9199 125.501 68.9399 123.481V123.491Z" fill="#F3F0EC"/>
<path d="M80.8398 122.241L110.84 92.2409C114.32 88.7609 116.27 84.0509 116.27 79.1309L65.2998 130.091C68.4098 129.521 71.2898 128.561 73.8898 127.241C76.4898 125.931 78.8198 124.251 80.8398 122.231V122.241Z" fill="#F3F0EC"/>
<path d="M92.7402 120.98L110.84 102.88C114.32 99.4 116.27 94.69 116.27 89.77V89.75L77.2002 128.82C80.3102 128.25 83.1902 127.29 85.8002 125.98C88.4102 124.66 90.7302 122.99 92.7502 120.97L92.7402 120.98Z" fill="#F3F0EC"/>
<path d="M104.64 119.73L110.83 113.54C114.31 110.06 116.27 105.33 116.27 100.4L89.1001 127.57C92.2101 126.99 95.0901 126.04 97.6901 124.72C100.3 123.41 102.63 121.73 104.64 119.72V119.73Z" fill="#F3F0EC"/>
<path d="M1.25023 105.51L87.9302 18.8301C83.0102 18.8301 78.3002 20.7801 74.8202 24.2601L9.10023 89.9701C7.09023 91.9801 5.41023 94.3101 4.09023 96.9201C2.78023 99.5201 1.82023 102.4 1.24023 105.51H1.25023Z" fill="#F3F0EC"/>
<path d="M2.51 93.6101L77.28 18.8301C72.36 18.8301 67.65 20.7801 64.17 24.2601L10.36 78.0701C8.35 80.0801 6.67 82.4101 5.35 85.0201C4.04 87.6201 3.08 90.5001 2.5 93.6101H2.51Z" fill="#F3F0EC"/>
<path d="M3.76 81.7001L66.63 18.8301C61.71 18.8301 56.99 20.7801 53.51 24.2601L11.61 66.1601C9.6 68.1701 7.92 70.5001 6.6 73.1101C5.29 75.7101 4.33 78.5901 3.75 81.7001H3.76Z" fill="#F3F0EC"/>
<path d="M5.00977 69.8001L55.9798 18.8301C51.0598 18.8301 46.3498 20.7801 42.8698 24.2601L12.8698 54.2601C10.8598 56.2701 9.17977 58.6001 7.85977 61.2101C6.54977 63.8101 5.58977 66.6901 5.00977 69.8001Z" fill="#F3F0EC"/>
<path d="M6.26977 57.9001L45.3398 18.8301H45.3198C40.3998 18.8301 35.6898 20.7801 32.2098 24.2601L14.1098 42.3601C12.0998 44.3701 10.4198 46.7001 9.09977 49.3101C7.78977 51.9101 6.82977 54.7901 6.25977 57.9101L6.26977 57.9001Z" fill="#F3F0EC"/>
<path d="M10.37 37.4101C9.05002 40.0101 8.10002 42.8901 7.52002 46.0001L34.69 18.8301C29.76 18.8301 25.04 20.7901 21.55 24.2701L15.36 30.4601C13.35 32.4701 11.67 34.8001 10.36 37.4101H10.37Z" fill="#F3F0EC"/>
<path d="M183.26 104.1V31.1797H195.55L220.13 80.3497L244.82 31.1797H257.22V104.1H246.8V49.4097L224.2 93.8897H216.18L193.68 49.6197V104.1H183.26Z" fill="#F3F0EC"/>
<path d="M270.24 104.1V31.1797H280.66V104.1H270.24ZM278.89 71.1797V62.6397H318.89V71.1797H278.89ZM316.6 104.1V31.1797H327.02V104.1H316.6Z" fill="#F3F0EC"/>
<path d="M396.7 105.35C389.62 105.35 383.47 103.77 378.26 100.61C373.05 97.4497 369.06 93.0397 366.28 87.3797C363.5 81.7197 362.11 75.1397 362.11 67.6397C362.11 60.1397 363.5 53.6497 366.28 47.9497C369.06 42.2597 373.05 37.8297 378.26 34.6697C383.47 31.5097 389.61 29.9297 396.7 29.9297C405.17 29.9297 412.1 31.9797 417.48 36.0797C422.86 40.1797 426.25 45.9397 427.64 53.3697H416.08C415.04 49.0697 412.92 45.6297 409.73 43.0597C406.53 40.4897 402.16 39.2097 396.6 39.2097C391.67 39.2097 387.43 40.3597 383.89 42.6497C380.35 44.9397 377.6 48.2097 375.66 52.4397C373.72 56.6797 372.74 61.7497 372.74 67.6497C372.74 73.5497 373.71 78.6397 375.66 82.9097C377.6 87.1797 380.35 90.4497 383.89 92.6997C387.43 94.9597 391.67 96.0797 396.6 96.0797C402.16 96.0797 406.53 94.8497 409.73 92.3797C412.92 89.9197 415.04 86.5597 416.08 82.3297H427.64C426.25 89.5497 422.86 95.1997 417.48 99.2597C412.1 103.32 405.17 105.35 396.7 105.35Z" fill="#F3F0EC"/>
<path d="M431.91 104.1L458.68 31.1797H470.03L496.8 104.1H485.65L464.3 43.6797L442.84 104.1H431.9H431.91ZM444 86.0797L446.92 77.7497H481.19L484.11 86.0797H444Z" fill="#F3F0EC"/>
<path d="M505.15 104.1V31.1797H529.84C535.6 31.1797 540.33 32.1497 544.01 34.0997C547.69 36.0497 550.42 38.6297 552.19 41.8597C553.96 45.0897 554.85 48.7497 554.85 52.8497C554.85 56.9497 553.96 60.3297 552.19 63.6297C550.42 66.9297 547.66 69.5697 543.91 71.5497C540.16 73.5297 535.37 74.5197 529.53 74.5197H515.57V104.1H505.15ZM515.56 66.5897H529.21C534.35 66.5897 538.12 65.3197 540.51 62.7897C542.91 60.2597 544.1 57.0097 544.1 53.0497C544.1 49.0897 542.92 45.8297 540.56 43.4697C538.2 41.1097 534.38 39.9297 529.1 39.9297H515.56V66.5997V66.5897ZM543.48 104.1L527.75 71.6997H539.21L555.57 104.1H543.49H543.48Z" fill="#F3F0EC"/>
<path d="M597.75 105.35C590.87 105.35 584.87 103.79 579.73 100.66C574.59 97.5399 570.62 93.1599 567.8 87.5299C564.99 81.9099 563.58 75.3399 563.58 67.8399C563.58 60.3399 565.02 53.8499 567.9 48.1499C570.78 42.4599 574.9 37.9899 580.24 34.7599C585.59 31.5299 591.94 29.9199 599.3 29.9199C607.63 29.9199 614.58 31.9199 620.13 35.9099C625.68 39.8999 629.26 45.4399 630.86 52.5299H618.88C617.84 48.4999 615.65 45.3299 612.32 42.9999C608.99 40.6699 604.61 39.5099 599.2 39.5099C593.79 39.5099 589.62 40.6599 585.87 42.9499C582.12 45.2399 579.24 48.5099 577.22 52.7399C575.21 56.9799 574.2 62.0099 574.2 67.8399C574.2 73.6699 575.19 78.8099 577.17 83.0499C579.15 87.2899 581.98 90.5199 585.66 92.7399C589.34 94.9599 593.58 96.0699 598.37 96.0699C605.73 96.0699 611.29 93.9499 615.04 89.7199C618.79 85.4899 620.94 79.8199 621.5 72.7399H601.4V64.7199H632.13V104.1H622.55L621.72 92.9499C619.98 95.6599 618.02 97.9299 615.83 99.7699C613.64 101.61 611.09 103 608.17 103.94C605.25 104.88 601.78 105.35 597.75 105.35Z" fill="#F3F0EC"/>
<path d="M676.5 105.35C669.49 105.35 663.34 103.77 658.06 100.61C652.78 97.4497 648.63 93.0397 645.61 87.3797C642.59 81.7197 641.08 75.1397 641.08 67.6397C641.08 60.1397 642.59 53.6597 645.61 47.9997C648.63 42.3397 652.78 37.9097 658.06 34.7197C663.34 31.5297 669.48 29.9297 676.5 29.9297C683.52 29.9297 689.82 31.5297 695.2 34.7197C700.58 37.9197 704.75 42.3397 707.7 47.9997C710.65 53.6597 712.13 60.2097 712.13 67.6397C712.13 75.0697 710.65 81.7197 707.7 87.3797C704.75 93.0397 700.58 97.4497 695.2 100.61C689.82 103.77 683.58 105.35 676.5 105.35ZM676.5 96.0797C681.57 96.0797 685.98 94.9297 689.73 92.6397C693.48 90.3497 696.38 87.0897 698.43 82.8497C700.48 78.6097 701.5 73.5397 701.5 67.6397C701.5 61.7397 700.47 56.6697 698.43 52.4297C696.38 48.1897 693.48 44.9497 689.73 42.6897C685.98 40.4297 681.57 39.3097 676.5 39.3097C671.43 39.3097 667.25 40.4397 663.53 42.6897C659.81 44.9497 656.91 48.1897 654.83 52.4297C652.75 56.6697 651.71 61.7397 651.71 67.6397C651.71 73.5397 652.75 78.6097 654.83 82.8497C656.91 87.0897 659.81 90.3497 663.53 92.6397C667.24 94.9297 671.57 96.0797 676.5 96.0797Z" fill="#F3F0EC"/>
</g>
<defs>
<clipPath id="clip0_63_32184">
<rect width="712.13" height="135.1" fill="white"/>
</clipPath>
</defs>
</svg>
