<svg width="15" height="15" viewBox="0 0 15 15" fill="none" xmlns="http://www.w3.org/2000/svg">
<path d="M4.39404 10.6072C6.28567 12.4981 8.62265 13.5629 10.6624 13.582C11.4218 13.6535 12.2082 13.3984 12.7908 12.8161C13.8282 11.7791 13.8282 10.0977 12.7908 9.06064C11.7535 8.02373 10.0717 8.02373 9.03443 9.06064C8.78936 9.30562 8.602 9.58701 8.47262 9.88745C7.82617 9.48607 7.19389 8.98803 6.60362 8.39799L4.39404 10.6072Z" fill="white"/>
<path d="M5.94067 2.21323C4.90336 1.17632 3.22161 1.17632 2.1843 2.21323C1.60169 2.79561 1.34647 3.58179 1.41799 4.34113C1.43712 6.38023 2.5024 8.71637 4.39401 10.6072L6.60358 8.398C6.01343 7.80807 5.51528 7.17618 5.11379 6.53013C5.41424 6.40082 5.69565 6.21358 5.94067 5.96866C6.97809 4.93164 6.97809 3.25024 5.94067 2.21323Z" fill="white" fill-opacity="0.18"/>
</svg>
