<svg width="149" height="140" viewBox="0 0 149 140" fill="none" xmlns="http://www.w3.org/2000/svg">
<g clip-path="url(#clip0_128_31123)">
<path d="M51.7168 92.126L76.0501 104.764V101.81L51.7168 89.1719V92.126Z" fill="#18192E"/>
<path d="M53.0872 88.1367L77.4205 100.806L76.0501 101.811L51.7168 89.1721L53.0872 88.1367Z" fill="#677274"/>
<path d="M75.8672 104.735L99.4087 118.774L99.5914 115.82L76.0195 101.781L75.8672 104.735Z" fill="#18192E"/>
<path d="M76.2936 100.742L99.8655 114.782L99.5914 115.817L76.0195 101.778L76.2936 100.742Z" fill="#677274"/>
<path d="M12.0951 81.2536L10.7246 80.4923L45.382 60.4531L46.7524 61.2449L12.0951 81.2536Z" fill="#677274"/>
<path d="M12.0951 82.7459L10.7246 81.9845V80.4922L12.0951 81.2536V82.7459Z" fill="#18192E"/>
<path d="M12.0957 82.7471V81.2548L46.753 61.2461V62.7384L12.0957 82.7471Z" fill="#18192E"/>
<path d="M48.2754 74.8597C48.2754 75.2251 48.5495 75.3774 48.8845 75.2251L56.285 71.1138C56.62 70.931 56.894 70.4742 56.894 70.1088V64.1701C56.894 63.8047 56.62 63.6524 56.285 63.8047L48.8845 67.916C48.5495 68.0988 48.2754 68.5556 48.2754 68.921V74.8597Z" fill="#0E191B"/>
<path d="M60.1217 63.2839L47.8789 70.3493L49.0971 66.6948L56.2235 62.1875L60.1217 63.2839Z" fill="#0E191B"/>
<path d="M51.1991 67.3043L55.1278 65.2029C56.3155 64.5329 57.9601 64.6243 59.7873 65.6902C63.4419 67.7916 66.396 72.9079 66.396 77.1411C66.396 79.273 65.6346 80.7348 64.4469 81.4352L60.5182 83.5366C59.3305 84.2066 57.686 84.1152 55.8587 83.0493C52.2041 80.948 49.25 75.8316 49.25 71.5984C49.25 69.4666 49.9809 68.0047 51.1991 67.3043Z" fill="#2E373A"/>
<path d="M49.25 71.6011C49.25 75.8038 52.2041 80.9506 55.8586 83.052C57.6859 84.0875 59.3 84.2093 60.5182 83.5393C61.7364 82.8693 62.4673 81.377 62.4673 79.2452C62.4673 75.0424 59.5132 69.8956 55.8586 67.7942C54.0313 66.7588 52.3868 66.637 51.1991 67.307C49.9809 68.0074 49.25 69.4692 49.25 71.6011Z" fill="#555E61"/>
<path d="M49.6465 72.0871C49.6465 75.9244 52.3265 80.584 55.6765 82.5026C58.9961 84.4212 61.7066 82.868 61.7066 79.0307C61.7066 75.1934 59.0265 70.5339 55.6765 68.6153C52.3265 66.6966 49.6465 68.2498 49.6465 72.0871Z" fill="#3B4447"/>
<path d="M51.625 73.1229C51.625 75.7116 53.4218 78.8484 55.6754 80.1275C57.8986 81.4066 59.7259 80.3711 59.7259 77.7825C59.7259 75.1938 57.9291 72.057 55.6754 70.7779C53.4218 69.4988 51.625 70.5343 51.625 73.1229Z" fill="url(#paint0_linear_128_31123)"/>
<path d="M51.9902 73.3343C51.9902 75.6793 53.6348 78.542 55.6752 79.6993C57.7157 80.887 59.3602 79.9125 59.3602 77.5675C59.3602 75.2225 57.7157 72.3597 55.6752 71.2024C53.6348 70.0147 51.9902 70.9893 51.9902 73.3343Z" fill="url(#paint1_linear_128_31123)"/>
<path d="M53.91 70.6835C54.4277 70.6531 55.0368 70.8053 55.6763 71.1708C57.7168 72.3585 59.3613 75.1908 59.3613 77.5358C59.3613 78.2667 59.2091 78.8758 58.9045 79.3326C58.3868 79.3631 57.7777 79.2108 57.1382 78.8454C55.0977 77.6881 53.4531 74.8254 53.4531 72.4804C53.4531 71.7494 53.6054 71.1403 53.91 70.6835Z" fill="url(#paint2_linear_128_31123)"/>
<path d="M54.3673 70.7148C54.7632 70.7758 55.1895 70.928 55.6464 71.2021C57.6868 72.3898 59.3314 75.2221 59.3314 77.5671C59.3314 78.0849 59.24 78.5417 59.0877 78.9376C58.5395 79.0899 57.8391 78.9681 57.1082 78.5417C55.22 77.4453 53.6973 74.8262 53.6973 72.6639C53.7277 71.7808 53.9714 71.1412 54.3673 70.7148Z" fill="url(#paint3_linear_128_31123)"/>
<path d="M59.3309 77.5697C59.3309 77.7524 59.3309 77.9352 59.3004 78.1179C58.935 78.0874 58.5086 77.9656 58.0518 77.722C56.4072 76.7779 55.0977 74.4633 55.0977 72.5751C55.0977 71.966 55.2499 71.4483 55.4936 71.1133C55.5545 71.1438 55.6154 71.1742 55.6459 71.2047C57.6863 72.362 59.3309 75.2247 59.3309 77.5697Z" fill="url(#paint4_linear_128_31123)"/>
<path d="M55.7676 74.0658C55.7676 74.9489 56.3767 76.0149 57.138 76.4412C57.8994 76.8676 58.5085 76.5325 58.5085 75.6493C58.5085 74.7661 57.8994 73.7003 57.138 73.2739C56.3767 72.8476 55.7676 73.1826 55.7676 74.0658Z" fill="url(#paint5_linear_128_31123)"/>
<path d="M64.873 85.4848C64.873 85.8502 65.1471 86.0025 65.4821 85.8502L72.8826 81.7388C73.2176 81.5561 73.4917 81.0993 73.4917 80.7338V74.7952C73.4917 74.4297 73.2176 74.2774 72.8826 74.4297L65.4821 78.5411C65.1471 78.7238 64.873 79.1806 64.873 79.5461V85.4848Z" fill="#0E191B"/>
<path d="M72.6698 73.9448L76.5984 71.8435C77.7862 71.1735 79.4307 71.2648 81.258 72.3308C84.9126 74.4321 87.8667 79.5485 87.8667 83.7817C87.8667 85.9135 87.1053 87.3753 85.9176 88.0758L81.9889 90.1772C80.8012 90.8472 79.1566 90.7558 77.3293 89.6899C73.6748 87.5885 70.7207 82.4721 70.7207 78.2389C70.7207 76.1071 71.4516 74.6148 72.6698 73.9448Z" fill="#2E373A"/>
<path d="M70.7207 78.2395C70.7207 82.4422 73.6748 87.5891 77.3294 89.6904C79.1567 90.7259 80.7708 90.8477 81.9889 90.1777C83.2071 89.5077 83.938 88.0154 83.938 85.8836C83.938 81.6809 80.9839 76.5645 77.3294 74.4326C75.5021 73.3972 73.8576 73.2754 72.6698 73.9758C71.4516 74.6154 70.7207 76.1077 70.7207 78.2395Z" fill="#555E61"/>
<path d="M71.1172 78.7238C71.1172 82.5611 73.7972 87.2206 77.1472 89.1393C80.4667 91.0579 83.1772 89.5047 83.1772 85.6674C83.1772 81.8301 80.4972 77.1706 77.1472 75.2519C73.7972 73.3333 71.1172 74.8865 71.1172 78.7238Z" fill="#3B4447"/>
<path d="M76.4771 72.7253L64.2344 79.7908L65.4525 76.1362L72.5789 71.6289L76.4771 72.7253Z" fill="#0E191B"/>
<path d="M49.951 64.9296L49.9814 64.8992C50.0423 64.8687 50.1337 64.8078 50.1946 64.7774L58.0519 60.2396C59.5137 59.5392 61.4324 59.7219 63.5642 60.9401C68.0715 63.5592 71.726 69.8937 71.726 75.1015C71.726 75.1929 71.726 75.2842 71.726 75.3756L64.021 79.822L62.8942 79.1824C62.8942 79.091 62.8942 78.9997 62.8942 78.9083C62.8942 74.4315 59.7574 68.9496 55.8592 66.7265C51.961 64.4728 48.8241 66.3001 48.8241 70.7769C48.8241 70.8683 48.8241 70.9597 48.8241 71.051L47.6973 70.4115C47.6973 70.3201 47.6973 70.2287 47.6973 70.1374C47.6973 67.6096 48.5501 65.8128 49.951 64.9296Z" fill="#18192E"/>
<path d="M62.8942 79.1816C62.8942 79.0902 62.8942 78.9989 62.8942 78.9075C62.8942 74.4307 59.7574 68.9488 55.8592 66.7256C51.961 64.472 48.8241 66.2993 48.8241 70.7761C48.8241 70.8675 48.8241 70.9588 48.8241 71.0502L47.6973 70.4106C47.6973 70.3193 47.6973 70.2279 47.6973 70.1366C47.6973 64.9288 51.3519 62.8274 55.8592 65.4161C60.3665 68.0352 64.021 74.3697 64.021 79.5775C64.021 79.6688 64.021 79.7602 64.021 79.8516L62.8942 79.1816Z" fill="#18192E"/>
<path d="M67.5233 76.744L71.452 74.6426C72.6397 73.9726 74.2842 74.064 76.1115 75.0995C79.7661 77.2008 82.7202 82.3172 82.7202 86.5504C82.7202 88.6822 81.9588 90.1441 80.7711 90.8445L76.8424 92.9459C75.6547 93.6159 74.0102 93.5245 72.1829 92.4586C68.5283 90.3572 65.5742 85.2409 65.5742 81.0077C65.5742 78.9063 66.3356 77.4445 67.5233 76.744Z" fill="#2E373A"/>
<path d="M65.5742 81.0403C65.5742 85.2431 68.5283 90.3899 72.1828 92.4913C74.0101 93.5267 75.6242 93.6486 76.8424 92.9786C78.0606 92.3085 78.7915 90.8163 78.7915 88.6845C78.7915 84.4817 75.8374 79.3349 72.1828 77.2335C70.3555 76.198 68.711 76.0762 67.5232 76.7767C66.3355 77.4467 65.5742 78.9085 65.5742 81.0403Z" fill="#555E61"/>
<path d="M66 81.5285C66 85.3657 68.68 90.0253 72.03 91.9439C75.3496 93.8626 78.06 92.3094 78.06 88.4721C78.06 84.6348 75.38 79.9753 72.03 78.0566C68.68 76.138 66 77.6912 66 81.5285Z" fill="#3B4447"/>
<path d="M67.9492 82.5643C67.9492 85.153 69.746 88.2898 71.9996 89.5689C74.2228 90.848 76.0501 89.8125 76.0501 87.2239C76.0501 84.6353 74.2533 81.4984 71.9996 80.2193C69.7764 78.9402 67.9492 79.9757 67.9492 82.5643Z" fill="url(#paint6_linear_128_31123)"/>
<path d="M68.3145 82.7756C68.3145 85.1206 69.9591 87.9834 71.9996 89.1406C74.04 90.3284 75.6846 89.3538 75.6846 87.0088C75.6846 84.6638 74.04 81.8011 71.9996 80.6438C69.9895 79.456 68.3145 80.4306 68.3145 82.7756Z" fill="url(#paint7_linear_128_31123)"/>
<path d="M70.2341 80.1561C70.7518 80.1256 71.3609 80.2779 72.0005 80.6433C74.0409 81.8311 75.6855 84.6634 75.6855 87.0084C75.6855 87.7393 75.5332 88.3484 75.2287 88.8052C74.7109 88.8356 74.1018 88.6834 73.4623 88.3179C71.4218 87.1606 69.7773 84.2979 69.7773 81.9529C69.7773 81.1915 69.96 80.5824 70.2341 80.1561Z" fill="url(#paint8_linear_128_31123)"/>
<path d="M70.7208 80.1562C71.1167 80.2171 71.543 80.3695 71.9999 80.6435C74.0403 81.8313 75.6849 84.6636 75.6849 87.0086C75.6849 87.5263 75.5935 87.9831 75.4412 88.379C74.893 88.5313 74.1926 88.4095 73.4617 87.9831C71.5735 86.8868 70.0508 84.2677 70.0508 82.1054C70.0812 81.2222 70.3249 80.5825 70.7208 80.1562Z" fill="url(#paint9_linear_128_31123)"/>
<path d="M75.6844 87.0072C75.6844 87.19 75.6844 87.3727 75.6539 87.5554C75.2885 87.5249 74.8621 87.4031 74.4053 87.1595C72.7607 86.2154 71.4512 83.9008 71.4512 82.0127C71.4512 81.4036 71.6034 80.8858 71.8471 80.5508C71.908 80.5813 71.9689 80.6117 71.9994 80.6422C74.0398 81.7995 75.6844 84.6622 75.6844 87.0072Z" fill="url(#paint10_linear_128_31123)"/>
<path d="M72.0918 83.5056C72.0918 84.3888 72.7009 85.4547 73.4622 85.8811C74.2236 86.3075 74.8327 85.9725 74.8327 85.0893C74.8327 84.2061 74.2236 83.1402 73.4622 82.7138C72.7313 82.2875 72.0918 82.6529 72.0918 83.5056Z" fill="url(#paint11_linear_128_31123)"/>
<path d="M66.3044 74.3711L66.3349 74.3406C66.3958 74.3101 66.4871 74.2492 66.5481 74.2188L74.4054 69.681C75.8672 68.9806 77.7858 69.1633 79.9176 70.3815C84.4249 73.0006 88.0795 79.3352 88.0795 84.5429C88.0795 84.6343 88.0795 84.7256 88.0795 84.817L80.3745 89.2634L79.2476 88.6238C79.2476 88.5325 79.2476 88.4411 79.2476 88.3497C79.2476 83.8729 76.1108 78.3911 72.2126 76.1679C68.3144 73.9142 65.1776 75.7415 65.1776 80.2183C65.1776 80.3097 65.1776 80.4011 65.1776 80.4924L64.0508 79.8529C64.0508 79.7615 64.0508 79.6702 64.0508 79.5788C64.0508 77.0511 64.9035 75.2847 66.3044 74.3711Z" fill="#18192E"/>
<path d="M79.2477 88.6229C79.2477 88.5315 79.2477 88.4402 79.2477 88.3488C79.2477 83.872 76.1109 78.3901 72.2127 76.1669C68.3145 73.9133 65.1776 75.7406 65.1776 80.2174C65.1776 80.3088 65.1776 80.4001 65.1776 80.4915L64.0508 79.852C64.0508 79.7606 64.0508 79.6692 64.0508 79.5779C64.0508 74.3701 67.7054 72.2688 72.2127 74.8574C76.72 77.4765 80.3745 83.8111 80.3745 89.0188C80.3745 89.1102 80.3745 89.2015 80.3745 89.2929L79.2477 88.6229Z" fill="#18192E"/>
<path d="M39.4746 62.5856L49.3115 56.8906L50.4078 57.5301L40.571 63.1947L39.4746 62.5856Z" fill="#677274"/>
<path d="M40.5703 63.1919L50.4071 57.5273V62.9483L40.5703 68.6128V63.1919Z" fill="#18192E"/>
<path d="M107.874 106.286L34.3262 63.8323L35.8489 62.9492L109.397 105.403L107.874 106.286Z" fill="#677274"/>
<path d="M109.398 105.404L35.8496 62.9499V59.3867L109.398 101.84V105.404Z" fill="#18192E"/>
<path d="M30.2773 65.8145L37.4037 61.7031V64.2004L30.2773 68.3118V65.8145Z" fill="#18192E"/>
<path d="M32.2559 67.002L39.3823 62.8906V65.3879L32.2559 69.4993V67.002Z" fill="#18192E"/>
<path d="M82.0488 95.2637L89.1752 91.1523L90.7284 92.0355L83.602 96.1468L82.0488 95.2637Z" fill="#677274"/>
<path d="M83.6035 96.1465L90.7299 92.0352V94.5324L83.6035 98.6438V96.1465Z" fill="#18192E"/>
<path d="M66.334 86.4317L73.4604 82.3203L75.0136 83.2035L67.8872 87.3149L66.334 86.4317Z" fill="#677274"/>
<path d="M67.8887 87.3144L75.0151 83.2031V85.7003L67.8887 89.8117V87.3144Z" fill="#18192E"/>
<path d="M49.25 76.7755L56.3764 72.6641L57.8991 73.5473L50.7727 77.6587L49.25 76.7755Z" fill="#677274"/>
<path d="M50.7734 77.6583L57.8998 73.5469V76.0442L50.7734 80.1556V77.6583Z" fill="#18192E"/>
<path d="M40.3879 63.1332C40.4793 63.0723 40.6315 63.1028 40.7838 63.1941L49.4025 68.1583C49.7375 68.341 49.9811 68.7978 49.9811 69.1937V72.9396C49.9811 73.1528 49.8897 73.3051 49.7375 73.3355L42.3675 77.5078C42.4588 77.4469 42.5502 77.3251 42.5502 77.1424V73.3965C42.5502 73.031 42.2761 72.5742 41.9715 72.361L33.3529 67.3969C33.2006 67.3055 33.0483 67.3055 32.957 67.336L40.3879 63.1332Z" fill="url(#paint12_linear_128_31123)"/>
<path d="M28.7227 64.9278L35.8491 60.8164L37.4023 61.6996L30.2759 65.811L28.7227 64.9278Z" fill="#677274"/>
<path d="M97.6425 105.828L24.125 63.3746L25.6477 62.4609L99.1652 104.945L97.6425 105.828Z" fill="#677274"/>
<path d="M97.6425 107.778L24.125 65.3241V63.375L97.6425 105.829V107.778Z" fill="#18192E"/>
<path d="M24.8867 65.75L97.6428 107.777V113.929L62.7114 93.7378L57.9909 93.4028L34.3276 79.7591L33.0181 79.2414L24.8867 74.5209V65.75Z" fill="#18192E"/>
<path d="M24.8867 65.75L97.6428 107.777V109.208L24.8867 67.2118V65.75Z" fill="#18192E"/>
<path d="M110.158 98.5517L36.6406 56.0979L38.1634 55.2148L111.681 97.6685L110.158 98.5517Z" fill="#677274"/>
<path d="M109.398 101.84L35.8496 59.3871L37.4028 58.5039L110.92 100.957L109.398 101.84Z" fill="#677274"/>
<path d="M110.16 100.501L36.6426 58.0468V56.0977L110.16 98.5514V100.501Z" fill="#18192E"/>
<path d="M30.7344 66.1191L37.8607 62.0078L39.3835 62.8909L32.2571 67.0023L30.7344 66.1191Z" fill="#677274"/>
<path d="M21.8398 90.2972C21.8398 90.6627 22.1139 90.8149 22.4489 90.6627L29.8493 86.5513C30.1843 86.3686 30.4584 85.9117 30.4584 85.5463V79.6076C30.4584 79.2422 30.1843 79.0899 29.8493 79.2422L22.4489 83.3535C22.1139 83.5363 21.8398 83.9931 21.8398 84.3585V90.2972Z" fill="#0E191B"/>
<path d="M33.7185 78.7253L21.4453 85.7908L22.6634 82.1666L29.7898 77.6289L33.7185 78.7253Z" fill="#0E191B"/>
<path d="M24.7636 82.744L28.6923 80.6426C29.88 79.9726 31.5246 80.064 33.3518 81.0995C37.0064 83.2008 39.9605 88.3172 39.9605 92.5504C39.9605 94.6822 39.1991 96.1441 38.0114 96.8445L34.0827 98.9459C32.895 99.6159 31.2505 99.5245 29.4232 98.4586C25.7686 96.3572 22.8145 91.2409 22.8145 87.0077C22.8145 84.9368 23.5454 83.4445 24.7636 82.744Z" fill="#2E373A"/>
<path d="M22.8145 87.0403C22.8145 91.243 25.7686 96.3899 29.4231 98.4913C31.2504 99.5267 32.8645 99.6485 34.0827 98.9785C35.3009 98.3085 36.0318 96.8162 36.0318 94.6844C36.0318 90.4817 33.0777 85.3348 29.4231 83.2335C27.5958 82.198 25.9513 82.0762 24.7636 82.7767C23.5454 83.4467 22.8145 84.9389 22.8145 87.0403Z" fill="#555E61"/>
<path d="M23.2109 87.5284C23.2109 91.3657 25.8909 96.0253 29.2409 97.9439C32.5605 99.8626 35.2709 98.3094 35.2709 94.4721C35.2709 90.6348 32.5909 85.9753 29.2409 84.0566C25.8909 82.138 23.2109 83.6912 23.2109 87.5284Z" fill="#3B4447"/>
<path d="M25.1914 88.5604C25.1914 91.149 26.9882 94.2859 29.2418 95.565C31.465 96.8441 33.2923 95.8086 33.2923 93.22C33.2923 90.6313 31.4955 87.4945 29.2418 86.2154C26.9882 84.9363 25.1914 85.9718 25.1914 88.5604Z" fill="url(#paint13_linear_128_31123)"/>
<path d="M25.5566 88.774C25.5566 91.119 27.2012 93.9818 29.2417 95.139C31.2821 96.3268 32.9267 95.3522 32.9267 93.0072C32.9267 90.6622 31.2821 87.7995 29.2417 86.6422C27.2012 85.4849 25.5566 86.429 25.5566 88.774Z" fill="url(#paint14_linear_128_31123)"/>
<path d="M27.4744 86.1561C27.9921 86.1257 28.6012 86.278 29.2408 86.6434C31.2812 87.8311 32.9258 90.6634 32.9258 93.0084C32.9258 93.7393 32.7735 94.3484 32.4689 94.8052C31.9512 94.8357 31.3421 94.6834 30.7026 94.318C28.6621 93.1303 27.0176 90.298 27.0176 87.953C27.0176 87.1916 27.1698 86.5825 27.4744 86.1561Z" fill="url(#paint15_linear_128_31123)"/>
<path d="M27.9317 86.1875C28.3276 86.2485 28.754 86.4007 29.2108 86.6748C31.2513 87.8626 32.8959 90.6948 32.8959 93.0398C32.8959 93.5576 32.8045 94.0144 32.6522 94.4103C32.104 94.5626 31.4036 94.4408 30.6727 94.0144C28.7845 92.918 27.2617 90.2989 27.2617 88.1366C27.2922 87.2535 27.5358 86.5835 27.9317 86.1875Z" fill="url(#paint16_linear_128_31123)"/>
<path d="M32.8953 93.0072C32.8953 93.1899 32.8953 93.3727 32.8648 93.5554C32.4993 93.5249 32.073 93.4031 31.6162 93.1595C29.9716 92.2154 28.6621 89.9008 28.6621 88.0126C28.6621 87.4036 28.8143 86.8858 29.058 86.5508C29.1189 86.5813 29.1798 86.6117 29.2102 86.6422C31.2507 87.8299 32.8953 90.6622 32.8953 93.0072Z" fill="url(#paint17_linear_128_31123)"/>
<path d="M29.332 89.5361C29.332 90.4193 29.9411 91.4852 30.7024 91.9116C31.4638 92.3379 32.0729 92.0029 32.0729 91.1198C32.0729 90.2366 31.4638 89.1707 30.7024 88.7443C29.9411 88.2875 29.332 88.6529 29.332 89.5361Z" fill="url(#paint18_linear_128_31123)"/>
<path d="M38.4375 100.926C38.4375 101.291 38.7116 101.443 39.0466 101.291L46.4471 97.1802C46.7821 96.9975 47.0562 96.5407 47.0562 96.1752V90.2366C47.0562 89.8711 46.7821 89.7189 46.4471 89.8711L39.0466 93.9825C38.7116 94.1652 38.4375 94.622 38.4375 94.9875V100.926Z" fill="#0E191B"/>
<path d="M46.2343 89.3846L50.1629 87.2832C51.3507 86.6132 52.9952 86.7046 54.8225 87.74C58.477 89.8414 61.4311 94.9578 61.4311 99.191C61.4311 101.323 60.6698 102.785 59.482 103.485L55.5534 105.586C54.3657 106.256 52.7211 106.165 50.8938 105.099C47.2393 102.998 44.2852 97.8814 44.2852 93.6482C44.2852 91.5468 45.0161 90.085 46.2343 89.3846Z" fill="#2E373A"/>
<path d="M44.2852 93.677C44.2852 97.8797 47.2393 103.026 50.8939 105.128C52.7212 106.163 54.3352 106.285 55.5534 105.615C56.7716 104.945 57.5025 103.453 57.5025 101.321C57.5025 97.1184 54.5484 92.002 50.8939 89.8702C49.0666 88.8347 47.422 88.7129 46.2343 89.4133C45.0161 90.0833 44.2852 91.5452 44.2852 93.677Z" fill="#555E61"/>
<path d="M44.6816 94.1652C44.6816 98.0025 47.392 102.662 50.7116 104.58C54.0311 106.499 56.7416 104.946 56.7416 101.109C56.7416 97.2716 54.0616 92.612 50.7116 90.6934C47.3616 88.7747 44.6816 90.3279 44.6816 94.1652Z" fill="#3B4447"/>
<path d="M50.0416 88.1667L37.7988 95.2322L39.017 91.6081L46.1434 87.0703L50.0416 88.1667Z" fill="#0E191B"/>
<path d="M23.5154 80.3985L23.5458 80.368C23.6067 80.3375 23.6981 80.2766 23.759 80.2462L31.6163 75.7084C33.0781 75.008 34.9968 75.1907 37.1286 76.4089C41.6359 79.028 45.2904 85.3626 45.2904 90.5703C45.2904 90.6617 45.2904 90.753 45.2904 90.8444L37.5854 95.2908L36.4586 94.6512C36.4586 94.5599 36.4586 94.4685 36.4586 94.3771C36.4586 89.9003 33.3218 84.4185 29.4236 82.1953C25.5254 79.9416 22.3885 81.7689 22.3885 86.2458C22.3885 86.3371 22.3885 86.4285 22.3885 86.5198L21.2617 85.8803C21.2617 85.7889 21.2617 85.6976 21.2617 85.6062C21.2617 83.0785 22.1144 81.2816 23.5154 80.3985Z" fill="#18192E"/>
<path d="M36.4586 94.6542C36.4586 94.5628 36.4586 94.4715 36.4586 94.3801C36.4586 89.9033 33.3217 84.4214 29.4236 82.1983C25.5254 79.9446 22.3885 81.7719 22.3885 86.2487C22.3885 86.3401 22.3885 86.4315 22.3885 86.5228L21.2617 85.8833C21.2617 85.7919 21.2617 85.7005 21.2617 85.6092C21.2617 80.4014 24.9163 78.3001 29.4236 80.8887C33.9308 83.5078 37.5854 89.8424 37.5854 95.0501C37.5854 95.1415 37.5854 95.2328 37.5854 95.3242L36.4586 94.6542Z" fill="#18192E"/>
<path d="M41.0878 92.1853L45.0165 90.084C46.2042 89.414 47.8487 89.5053 49.676 90.5408C53.3306 92.6421 56.2847 97.7585 56.2847 101.992C56.2847 104.123 55.5233 105.585 54.3356 106.286L50.4069 108.387C49.2192 109.057 47.5746 108.966 45.7474 107.9C42.0928 105.798 39.1387 100.682 39.1387 96.449C39.1387 94.3781 39.9001 92.8858 41.0878 92.1853Z" fill="#2E373A"/>
<path d="M39.1387 96.4817C39.1387 100.684 42.0928 105.8 45.7474 107.932C47.5747 108.968 49.1888 109.089 50.407 108.419C51.6251 107.749 52.3561 106.257 52.3561 104.125C52.3561 99.9231 49.402 94.7763 45.7474 92.6749C43.9201 91.6394 42.2756 91.5176 41.0878 92.2181C39.9001 92.8881 39.1387 94.3804 39.1387 96.4817Z" fill="#555E61"/>
<path d="M39.5645 96.966C39.5645 100.803 42.275 105.463 45.5945 107.381C48.9141 109.3 51.6245 107.747 51.6245 103.909C51.6245 100.072 48.9445 95.4128 45.5945 93.4941C42.2445 91.5755 39.5645 93.1287 39.5645 96.966Z" fill="#3B4447"/>
<path d="M41.5137 98.0018C41.5137 100.591 43.3105 103.727 45.5641 105.007C47.7873 106.286 49.6146 105.25 49.6146 102.662C49.6146 100.073 47.8178 96.9359 45.5641 95.6568C43.3409 94.3777 41.5137 95.4132 41.5137 98.0018Z" fill="url(#paint19_linear_128_31123)"/>
<path d="M41.9102 98.2154C41.9102 100.56 43.5548 103.423 45.5952 104.58C47.6357 105.768 49.2802 104.793 49.2802 102.448C49.2802 100.103 47.6357 97.2409 45.5952 96.0836C43.5548 94.9263 41.9102 95.8704 41.9102 98.2154Z" fill="url(#paint20_linear_128_31123)"/>
<path d="M43.828 95.5975C44.3457 95.567 44.9548 95.7193 45.5943 96.0847C47.6348 97.2725 49.2793 100.104 49.2793 102.449C49.2793 103.18 49.1271 103.789 48.8225 104.246C48.3048 104.277 47.6957 104.124 47.0561 103.759C45.0157 102.571 43.3711 99.7393 43.3711 97.3943C43.3711 96.6329 43.5234 96.0238 43.828 95.5975Z" fill="url(#paint21_linear_128_31123)"/>
<path d="M44.2853 95.6289C44.6812 95.6898 45.1075 95.842 45.5644 96.1161C47.6048 97.3039 49.2494 100.136 49.2494 102.481C49.2494 102.999 49.158 103.455 49.0057 103.851C48.4575 104.004 47.7571 103.882 47.0262 103.455C45.138 102.359 43.6152 99.7402 43.6152 97.578C43.6457 96.6948 43.8893 96.0248 44.2853 95.6289Z" fill="url(#paint22_linear_128_31123)"/>
<path d="M49.2488 102.448C49.2488 102.631 49.2488 102.814 49.2183 102.997C48.8529 102.966 48.4265 102.844 47.9697 102.601C46.3251 101.657 45.0156 99.3422 45.0156 97.4541C45.0156 96.845 45.1678 96.3272 45.4115 95.9922C45.4724 96.0227 45.5333 96.0531 45.5638 96.0836C47.6042 97.2713 49.2488 100.103 49.2488 102.448Z" fill="url(#paint23_linear_128_31123)"/>
<path d="M45.6562 98.9775C45.6562 99.8607 46.2652 100.927 47.0266 101.353C47.788 101.779 48.3971 101.444 48.3971 100.561C48.3971 99.678 47.788 98.6121 47.0266 98.1857C46.2957 97.7289 45.6562 98.0944 45.6562 98.9775Z" fill="url(#paint24_linear_128_31123)"/>
<path d="M39.8688 89.8398L39.8993 89.8093C39.9602 89.7789 40.0515 89.718 40.1124 89.6875L47.9697 85.1498C49.4316 84.4493 51.3502 84.632 53.482 85.8502C57.9893 88.4693 61.6439 94.8039 61.6439 100.012C61.6439 100.103 61.6439 100.195 61.6439 100.286L53.9389 104.733L52.812 104.093C52.812 104.002 52.812 103.91 52.812 103.819C52.812 99.3416 49.6752 93.8598 45.777 91.6366C41.8788 89.383 38.742 91.2102 38.742 95.6871C38.742 95.7784 38.742 95.8698 38.742 95.9612L37.6152 95.3216C37.6152 95.2303 37.6152 95.1389 37.6152 95.0475C37.6152 92.5198 38.4679 90.723 39.8688 89.8398Z" fill="#18192E"/>
<path d="M52.8121 104.095C52.8121 104.004 52.8121 103.912 52.8121 103.821C52.8121 99.3447 49.6752 93.8629 45.777 91.6397C41.8789 89.386 38.742 91.2133 38.742 95.6902C38.742 95.7815 38.742 95.8729 38.742 95.9643L37.6152 95.3247C37.6152 95.2333 37.6152 95.142 37.6152 95.0506C37.6152 89.8429 41.2698 87.7415 45.777 90.3301C50.2843 92.9492 53.9389 99.2838 53.9389 104.491C53.9389 104.582 53.9389 104.674 53.9389 104.765L52.8121 104.095Z" fill="#18192E"/>
<path d="M17.334 76.1364L27.1708 70.4414L28.2672 71.0809L18.4304 76.7455L17.334 76.1364Z" fill="#677274"/>
<path d="M18.3379 76.7466L28.1748 71.082V76.5029L18.3379 82.1675V76.7466Z" fill="#18192E"/>
<path d="M17.2422 81.5576V76.1367L18.3386 76.7458V82.1667L17.2422 81.5576Z" fill="#18192E"/>
<path d="M68.4366 96.8754C69.4111 96.2967 71.0252 96.2967 71.9998 96.8754C72.487 97.1495 72.7307 97.5454 72.7307 97.9108V104.459C72.7307 104.824 72.487 105.22 71.9998 105.494C71.0252 106.073 69.4111 106.073 68.4366 105.494C67.9493 105.22 67.7057 104.824 67.7057 104.459V97.9108C67.6752 97.5149 67.9188 97.1495 68.4366 96.8754Z" fill="#333E40"/>
<path d="M68.436 96.8754C67.4614 97.454 67.4614 98.3676 68.436 98.9463C69.4105 99.5249 71.0246 99.5249 71.9992 98.9463C72.9737 98.3676 72.9737 97.454 71.9992 96.8754C71.0246 96.2967 69.4105 96.2967 68.436 96.8754Z" fill="#5A6567"/>
<path d="M72.6078 98.8871C73.5823 98.3084 75.1965 98.3084 76.1711 98.8871C76.6583 99.1612 76.902 99.5572 76.902 99.9226V106.471C76.902 106.836 76.6583 107.232 76.1711 107.506C75.1965 108.085 73.5823 108.085 72.6078 107.506C72.1205 107.232 71.877 106.836 71.877 106.471V99.8922C71.877 99.5267 72.1205 99.1612 72.6078 98.8871Z" fill="#333E40"/>
<path d="M72.6079 98.8871C71.6333 99.4657 71.6333 100.38 72.6079 100.958C73.5824 101.537 75.1965 101.537 76.1711 100.958C77.1456 100.38 77.1456 99.4657 76.1711 98.8871C75.1965 98.3084 73.5824 98.3084 72.6079 98.8871Z" fill="#5A6567"/>
<path d="M71.1471 104.551L78.0298 100.592C78.2126 100.47 78.3953 100.5 78.4866 100.592L92.6785 108.754C92.8003 108.815 92.8612 108.936 92.8612 109.15V115.576C92.8612 115.941 92.5871 116.398 92.2826 116.611L85.3999 120.57C85.2476 120.661 85.0953 120.661 84.9735 120.601L70.7512 112.408C70.7512 112.408 70.7512 112.408 70.7207 112.408C70.6294 112.347 70.5684 112.225 70.5684 112.043V105.617C70.5684 105.221 70.8425 104.734 71.1471 104.551Z" fill="url(#paint25_linear_128_31123)"/>
<path d="M85.399 120.541C85.064 120.723 84.8203 120.571 84.8203 120.206V113.779C84.8203 113.413 85.0944 112.957 85.399 112.743L92.2817 108.784C92.6167 108.601 92.8603 108.755 92.8603 109.12V115.545C92.8603 115.911 92.5862 116.368 92.2817 116.582L85.399 120.541Z" fill="#9AA3A9"/>
<path opacity="0.2" d="M73.827 106.043L80.7098 102.084C80.8925 101.962 81.0752 101.993 81.1666 102.084L81.7148 102.48C81.6234 102.419 81.4711 102.419 81.3188 102.51L74.4361 106.47C74.1011 106.652 73.8575 107.109 73.8575 107.505V113.901L74.0402 114.296L73.4311 113.87C73.4311 113.87 73.4311 113.87 73.4006 113.87C73.3093 113.809 73.2484 113.687 73.2484 113.505V107.079C73.2179 106.683 73.492 106.226 73.827 106.043Z" fill="black"/>
<path d="M73.4302 105.802L80.313 101.842C80.4957 101.721 80.6785 101.751 80.7698 101.842L81.318 102.238C81.2266 102.177 81.0744 102.177 80.9221 102.269L74.0393 106.228C73.7043 106.411 73.4607 106.868 73.4607 107.263V113.689L73.6434 114.055L73.0343 113.628C73.0343 113.628 73.0343 113.628 73.0039 113.628C72.9125 113.568 72.8516 113.446 72.8516 113.263V106.837C72.8516 106.441 73.1257 105.984 73.4302 105.802Z" fill="url(#paint26_linear_128_31123)"/>
<path opacity="0.2" d="M81.7759 110.609L88.6587 106.65C88.8414 106.529 89.0241 106.559 89.1155 106.65L89.6637 107.046C89.5723 106.985 89.42 106.985 89.2678 107.077L82.385 111.036C82.05 111.219 81.8064 111.675 81.8064 112.071V118.497L81.9891 118.893L81.38 118.467C81.38 118.467 81.38 118.467 81.3496 118.467C81.2582 118.406 81.1973 118.284 81.1973 118.101V111.675C81.1973 111.249 81.4714 110.792 81.7759 110.609Z" fill="black"/>
<path d="M81.4107 110.368L88.2934 106.409C88.4761 106.287 88.6589 106.317 88.7502 106.409L89.2984 106.805C89.207 106.744 89.0548 106.744 88.9025 106.835L82.0197 110.794C81.6847 110.977 81.4411 111.434 81.4411 111.83V118.256L81.6238 118.621L81.0147 118.195C81.0147 118.195 81.0147 118.195 80.9843 118.195C80.8929 118.134 80.832 118.012 80.832 117.829V111.403C80.832 111.007 81.1061 110.551 81.4107 110.368Z" fill="url(#paint27_linear_128_31123)"/>
<path d="M37.6158 0L123.985 49.8543V93.4958L87.2873 114.54L0.917969 64.6857V21.0746L37.6158 0Z" fill="#E1E8EC"/>
<path opacity="0.1" d="M87.2873 70.8066V114.54L0.917969 64.6852V21.0742L87.2873 70.8066ZM2.28843 63.528V63.8934L2.65387 64.1066L85.9168 112.195V111.708L2.62343 63.7411V23.6324L2.25797 23.4192V63.528H2.28843Z" fill="black"/>
<path d="M78.8209 108.417L77.7854 110.763V111.554L76.9023 111.037V110.61L78.0291 107.961L78.8209 108.417Z" fill="#8897A0"/>
<path d="M50.5293 97.2738V96.6647L51.2602 96.2383L82.0803 114.055V115.973L81.5017 116.308L50.7121 98.4919V98.0047L50.8339 97.9133V97.4565L50.5293 97.2738Z" fill="#8897A0"/>
<path opacity="0.2" d="M81.3191 115.086L81.6236 114.964V115.726L50.834 97.91V97.4531L81.3191 115.086Z" fill="#8897A0"/>
<path opacity="0.5" d="M51.2602 96.2383L82.0803 114.055L81.319 114.481L50.5293 96.6647L51.2602 96.2383Z" fill="white"/>
<path opacity="0.2" d="M50.7109 98.0016L81.5005 115.818L81.6223 115.727L50.8327 97.9102L50.7109 98.0016Z" fill="white"/>
<path d="M50.5293 100.773V100.134L51.2602 99.707L82.0803 117.523V119.442L81.5017 119.808L50.7121 101.992V101.474L50.8339 101.413V100.926L50.5293 100.773Z" fill="#8897A0"/>
<path opacity="0.2" d="M81.3191 118.589L81.6236 118.437V119.229L50.834 101.413V100.926L81.3191 118.589Z" fill="#8897A0"/>
<path opacity="0.5" d="M51.2602 99.707L82.0803 117.523L81.319 117.95L50.5293 100.134L51.2602 99.707Z" fill="white"/>
<path opacity="0.2" d="M50.7109 101.475L81.5005 119.291L81.6223 119.23L50.8327 101.414L50.7109 101.475Z" fill="white"/>
<path d="M57.1375 95.8709L56.102 98.216V99.0078L55.2188 98.49V98.0637L56.3456 95.4141L57.1375 95.8709Z" fill="#8897A0"/>
<path opacity="0.5" d="M57.1368 95.8695L56.1013 98.2145V99.0063L55.6445 98.7626V98.2145L56.7408 95.6562L57.1368 95.8695Z" fill="#8897A0"/>
<path opacity="0.5" d="M78.8204 108.417L77.7849 110.762V111.553L77.3281 111.31V110.762L78.4245 108.203L78.8204 108.417Z" fill="#8897A0"/>
<path opacity="0.1" d="M2.28906 23.418L85.9175 71.5972V112.193L85.6129 112.01V71.7799L2.28906 23.6616V23.418Z" fill="black"/>
<path opacity="0.2" d="M122.615 52.1992V92.7039L122.28 92.4907V52.8083L88.9932 71.812L88.6582 71.5988L122.615 52.1992Z" fill="black"/>
<path opacity="0.2" d="M87.2871 70.8083L123.985 49.8555V93.4971L87.3176 114.571L87.2871 70.8083ZM122.615 92.7052L122.28 92.5225L88.9926 111.648V71.8438L88.6576 71.6611V112.257L122.615 92.7052Z" fill="black"/>
<path d="M109.123 137.015L111.498 135.645L116.675 138.66L114.33 140L109.123 137.015Z" fill="#404B4D"/>
<path d="M109.123 136.621V137.016L114.33 140.001V139.605L109.123 136.621Z" fill="#273234"/>
<path d="M90.0898 125.534L90.6684 126.509L92.8611 125.534L106.565 130.742L106.078 121.148L97.7643 117.281L91.1557 118.073L90.0898 125.534Z" fill="#0E191B"/>
<path d="M91.3984 129.552C91.3984 129.918 91.6725 130.07 92.0075 129.918L99.408 125.806C99.743 125.623 100.018 125.167 100.018 124.801V112.772C100.018 112.406 99.743 112.254 99.408 112.406L92.0075 116.517C91.6725 116.7 91.3984 117.157 91.3984 117.522V129.552Z" fill="#0E191B"/>
<path d="M94.4445 122.641L98.038 120.509C99.2562 119.809 100.901 119.93 102.728 120.996C106.413 123.128 109.398 128.275 109.398 132.539C109.398 134.67 108.636 136.163 107.418 136.863L103.825 138.995C102.606 139.665 100.962 139.574 99.1344 138.508C95.4494 136.376 92.4648 131.229 92.4648 126.965C92.4648 124.834 93.2263 123.341 94.4445 122.641Z" fill="#2E373A"/>
<path d="M92.4648 126.965C92.4648 131.199 95.4494 136.376 99.1344 138.508C100.962 139.574 102.606 139.665 103.824 138.995C105.043 138.295 105.804 136.802 105.804 134.67C105.804 130.437 102.819 125.26 99.1344 123.128C97.3071 122.062 95.6321 121.971 94.4444 122.641C93.2262 123.341 92.4648 124.834 92.4648 126.965Z" fill="#555E61"/>
<path d="M92.8613 127.453C92.8613 131.32 95.5718 136.041 98.9218 137.96C102.272 139.909 104.983 138.325 104.983 134.457C104.983 130.59 102.272 125.869 98.9218 123.95C95.6023 122.032 92.8613 123.585 92.8613 127.453Z" fill="#3B4447"/>
<path d="M94.8105 128.337C94.8105 130.986 96.6683 134.184 98.9524 135.524C101.237 136.834 103.095 135.768 103.095 133.118C103.095 130.469 101.237 127.271 98.9524 125.931C96.6378 124.621 94.8105 125.687 94.8105 128.337Z" fill="url(#paint28_linear_128_31123)"/>
<path d="M95.6328 128.488C95.6328 130.742 97.2164 133.513 99.196 134.64C101.145 135.767 102.76 134.853 102.76 132.599C102.76 130.315 101.176 127.574 99.196 126.448C97.2164 125.321 95.6328 126.234 95.6328 128.488Z" fill="url(#paint29_linear_128_31123)"/>
<path d="M98.9517 126.266C99.1649 126.388 99.3476 126.51 99.5303 126.662C99.4085 126.57 99.3172 126.51 99.1953 126.449C97.2158 125.322 95.6321 126.235 95.6321 128.489C95.6321 130.743 97.2158 133.514 99.1953 134.641C101.144 135.768 102.758 134.854 102.758 132.6C102.758 132.326 102.728 132.052 102.698 131.778C102.789 132.174 102.819 132.57 102.819 132.966C102.819 135.433 101.083 136.438 98.9517 135.189C96.8199 133.971 95.084 130.956 95.084 128.489C95.084 126.022 96.7894 125.048 98.9517 126.266Z" fill="url(#paint30_linear_128_31123)"/>
<path d="M95.8457 128.61C95.8457 130.772 97.3684 133.422 99.2261 134.488C101.114 135.584 102.606 134.701 102.606 132.539C102.606 130.376 101.083 127.727 99.2261 126.661C97.3684 125.564 95.8457 126.417 95.8457 128.61Z" fill="url(#paint31_linear_128_31123)"/>
<path d="M96.4844 129.677C96.4844 131.169 97.5199 132.966 98.799 133.697C100.078 134.428 101.113 133.849 101.113 132.357C101.113 130.865 100.078 129.068 98.799 128.337C97.5503 127.606 96.4844 128.215 96.4844 129.677Z" fill="url(#paint32_linear_128_31123)"/>
<path d="M98.9524 127.543C98.8915 127.817 98.9829 128.061 99.1656 128.122C99.3483 128.152 99.5615 127.969 99.6224 127.695C99.6833 127.421 99.592 127.178 99.4093 127.117C99.2265 127.086 99.0133 127.269 98.9524 127.543Z" fill="url(#paint33_linear_128_31123)"/>
<path d="M101.845 131.321C101.571 131.352 101.358 131.535 101.388 131.717C101.419 131.9 101.662 132.022 101.936 131.991C102.21 131.961 102.424 131.778 102.393 131.596C102.363 131.413 102.119 131.291 101.845 131.321Z" fill="url(#paint34_linear_128_31123)"/>
<path d="M101.722 133.482C101.479 133.36 101.204 133.36 101.144 133.482C101.083 133.604 101.235 133.786 101.509 133.908C101.753 134.03 102.027 134.03 102.088 133.908C102.118 133.817 101.966 133.604 101.722 133.482Z" fill="url(#paint35_linear_128_31123)"/>
<path d="M100.475 134.365C100.384 134.182 100.201 134.091 100.11 134.152C100.019 134.213 100.019 134.395 100.14 134.578C100.232 134.761 100.415 134.852 100.506 134.791C100.567 134.73 100.567 134.548 100.475 134.365Z" fill="url(#paint36_linear_128_31123)"/>
<path d="M100.626 129.036C100.382 129.189 100.291 129.463 100.413 129.615C100.534 129.798 100.809 129.798 101.052 129.645C101.296 129.493 101.387 129.219 101.265 129.067C101.144 128.884 100.869 128.884 100.626 129.036Z" fill="url(#paint37_linear_128_31123)"/>
<path d="M97.1844 127.118C97.1844 127.392 97.3366 127.635 97.4889 127.605C97.6412 127.605 97.763 127.361 97.763 127.087C97.763 126.813 97.6107 126.57 97.4585 126.6C97.2757 126.6 97.1539 126.844 97.1844 127.118Z" fill="url(#paint38_linear_128_31123)"/>
<path d="M96.1496 128.731C96.3019 128.822 96.4846 128.853 96.5456 128.731C96.6065 128.639 96.5456 128.457 96.3933 128.365C96.241 128.274 96.0583 128.244 95.9974 128.365C95.906 128.487 95.9974 128.639 96.1496 128.731Z" fill="url(#paint39_linear_128_31123)"/>
<path d="M96.4238 130.648C96.4847 130.648 96.5152 130.527 96.5152 130.435C96.4847 130.344 96.4238 130.253 96.3629 130.283C96.302 130.283 96.2715 130.405 96.2715 130.496C96.2715 130.588 96.3629 130.648 96.4238 130.648Z" fill="url(#paint40_linear_128_31123)"/>
<path d="M98.6158 134.031C98.6767 134.061 98.7376 134.001 98.7681 133.909C98.7985 133.818 98.7681 133.757 98.7071 133.726C98.6462 133.696 98.5853 133.757 98.5549 133.848C98.5244 133.909 98.5549 134.001 98.6158 134.031Z" fill="url(#paint41_linear_128_31123)"/>
<path d="M97.0638 132.235C97.0943 132.296 97.1552 132.296 97.2161 132.265C97.2466 132.235 97.277 132.174 97.2161 132.113C97.1857 132.052 97.1247 132.052 97.0638 132.083C97.0334 132.113 97.0334 132.205 97.0638 132.235Z" fill="url(#paint42_linear_128_31123)"/>
<path d="M97.3066 130.437C97.3066 131.32 97.9157 132.356 98.677 132.813C99.4384 133.239 100.047 132.904 100.047 132.021C100.047 131.138 99.4384 130.102 98.677 129.645C97.9157 129.219 97.3066 129.554 97.3066 130.437Z" fill="url(#paint43_linear_128_31123)"/>
<path d="M97.1543 130.56C97.1543 131.413 97.7633 132.448 98.4943 132.844C99.2252 133.27 99.8343 132.934 99.8343 132.082C99.8343 131.229 99.2252 130.195 98.4943 129.799C97.7633 129.372 97.1543 129.707 97.1543 130.56Z" fill="url(#paint44_linear_128_31123)"/>
<path d="M114.33 140L116.675 138.66V134.031L114.97 135.005L114.33 139.604V140Z" fill="#2E373A"/>
<path d="M109.123 137.015L111.498 135.645V131.016L109.793 132.021L109.123 136.62V137.015Z" fill="#2E373A"/>
<path d="M143.689 93.9531C143.689 94.3186 143.963 94.4709 144.267 94.2881L146.582 92.9481C146.917 92.7654 147.16 92.3086 147.16 91.9127V82.3499C147.16 81.9845 146.886 81.8322 146.582 82.0149L144.267 83.3549C143.932 83.5377 143.689 83.9945 143.689 84.3904V93.9531Z" fill="#5A6567"/>
<path d="M143.994 94.1953C143.994 94.5607 144.268 94.713 144.573 94.5303L146.918 93.1904C147.253 93.0077 147.496 92.5508 147.496 92.1549V82.5922C147.496 82.2267 147.222 82.0744 146.918 82.2572L144.603 83.5972C144.268 83.7799 144.025 84.2367 144.025 84.6326L143.994 94.1953Z" fill="#404B4D"/>
<path d="M88.9922 125.777C88.9922 125.777 89.2358 119.594 89.3576 118.589C89.4795 117.554 89.6317 116.823 89.8449 116.671C90.0581 116.549 92.1595 115.331 92.1595 115.331L92.4336 114.63L90.0886 113.108L91.4286 111.372L92.2508 110.549V108.418L91.794 108.174C91.794 108.174 92.799 92.337 92.9513 90.2965C93.1036 88.2561 94.139 85.6979 95.1136 84.8452C96.0881 83.9924 103.367 79.5156 107.874 76.7138C112.412 73.9119 120.056 69.6787 121.7 68.826C123.345 67.9733 123.71 68.3692 124.38 68.826C125.05 69.2828 142.257 80.3379 142.927 81.0992C143.14 81.3429 143.414 81.7083 143.658 82.1956C143.749 82.0129 143.841 81.7997 143.902 81.4952C143.902 81.4952 145.211 81.5865 146.064 82.287C146.064 82.287 146.247 85.1497 146.155 85.9415C146.094 86.4897 146.003 87.1293 145.364 87.8602C145.942 91.4843 146.856 98.5802 146.856 98.5802L147.039 103.24C147.891 103.667 148.409 105.22 148.47 105.646C148.531 106.042 148.744 108.539 148.47 109.758C148.196 111.006 146.49 112.316 146.49 112.316C147.434 112.59 147.221 114.965 147.343 116.61C147.465 118.224 147.434 120.082 146.338 121.178C145.242 122.274 141.465 125.137 141.465 125.137C141.861 126.142 140.765 127.025 140.765 127.025C140.765 127.025 127.548 134.974 127.182 134.974C126.817 134.974 125.355 134.517 125.355 134.517C125.355 134.517 121.122 136.74 119.02 137.41C116.919 138.08 115.031 136.923 115.031 136.923V135.339L111.163 133.329V132.812L109.092 131.654L107.965 132.324L106.26 131.411C106.26 131.411 105.133 126.721 104.128 123.858C103.123 121.026 101.235 119.259 99.6513 118.193C98.0677 117.128 95.2963 115.574 95.0222 115.513C94.7481 115.453 94.4436 115.331 93.8954 115.3L92.7077 117.554L92.0377 118.224C92.0377 118.224 91.2458 119.838 90.9413 122.366C90.6063 124.894 90.7281 126.477 90.7281 126.477L88.9922 125.777Z" fill="#F04A23"/>
<path opacity="0.15" d="M92.9526 90.298C93.0439 88.8666 93.5921 87.1916 94.2317 86.0039L115.61 98.734C115.61 98.734 115.732 101.444 116.737 102.967C117.773 104.49 121.245 102.663 122.98 101.688C123.194 101.566 123.559 101.353 124.077 101.048L138.573 98.9167L146.735 97.4853C146.826 98.1249 146.857 98.5208 146.857 98.5208L147.04 103.241C147.04 103.241 147.04 104.734 147.04 104.977C147.04 105.221 146.065 106.622 145.913 106.774C146.491 106.591 147.831 106.53 148.166 106.561C148.288 106.561 148.41 106.226 148.501 105.799C148.562 106.469 148.745 108.632 148.471 109.759C148.197 111.007 146.491 112.317 146.491 112.317C146.491 112.317 146.096 113.596 143.933 115.24C144.055 114.753 144.146 114.418 144.146 114.418C143.933 114.723 143.69 115.027 143.385 115.24C141.954 116.337 136.259 119.778 134.127 121.118C131.995 122.458 125.843 125.991 125.051 126.387C124.808 126.509 124.564 126.63 124.32 126.691L122.554 127.849C122.585 127.879 122.585 127.909 122.615 127.909C122.615 127.909 121.245 128.823 118.443 129.371C117.529 129.554 116.524 129.28 115.519 128.914L115.062 130.468C115.062 130.468 116.463 131.016 117.499 131.016C118.747 131.016 122.31 129.767 124.777 128.488C125.904 128.244 127.061 127.514 127.579 127.239C128.462 126.752 137.995 120.996 139.365 120.204C140.644 119.443 142.045 118.499 142.806 117.799C142.806 117.799 144.451 116.702 145.669 115.545C146.613 114.662 147.131 114.053 147.222 113.474C147.253 113.718 147.283 114.022 147.314 114.296C147.101 114.479 146.918 114.662 146.918 114.662L146.065 117.189L143.659 119.9C143.659 119.9 142.989 120.539 142.959 120.753C142.928 120.996 142.776 121.697 143.081 121.636C143.385 121.575 145.03 120.022 145.882 119.291C146.735 118.529 147.161 118.103 147.405 117.129C147.466 118.621 147.344 120.204 146.37 121.179C145.273 122.275 141.497 125.138 141.497 125.138C141.893 126.143 140.796 127.026 140.796 127.026C140.796 127.026 127.579 134.975 127.214 134.975C126.848 134.975 125.386 134.518 125.386 134.518C125.386 134.518 121.153 136.741 119.052 137.411C116.95 138.081 115.062 136.924 115.062 136.924V135.34L111.195 133.33V132.813L109.124 131.655L108.484 131.29V130.315L115.062 133.818V131.686L110.372 129.158C110.007 126.965 109.306 124.255 109.306 124.255L105.408 121.971C105.104 121.484 103.55 118.864 103.55 118.864L114.301 124.834V123.128L92.313 110.581V108.419L91.8562 108.175C91.7953 108.175 92.8003 92.3385 92.9526 90.298ZM124.381 124.346C124.747 124.864 125.63 124.955 126.239 124.712C126.879 124.438 132.36 121.027 133.944 120.113C135.528 119.199 140.248 116.459 141.436 115.728C142.654 114.966 143.355 113.048 143.355 113.048L143.111 112.469C142.502 112.895 141.832 113.352 141.253 113.687C139.67 114.601 127.153 122.184 124.99 123.311C124.747 123.433 124.534 123.554 124.32 123.646C124.29 123.95 124.26 124.224 124.381 124.346ZM123.346 121.727C123.346 121.727 124.412 122.732 125.478 122.154C126.544 121.575 142.106 112.134 142.35 112.012C142.593 111.89 144.146 110.215 144.146 109.21C144.146 108.997 144.025 108.814 143.842 108.662C142.898 109.332 141.923 109.972 141.497 110.246C140.705 110.733 129.802 117.403 126.665 119.169C125.143 120.022 123.742 120.722 122.737 121.209L123.346 121.727ZM143.476 123.128C144.177 122.58 146.826 120.814 147.04 119.626C147.161 118.895 147.192 118.469 147.222 118.255L147.131 118.286C147.04 118.469 146.857 118.743 146.552 119.047C146.522 119.443 146.37 120.022 145.882 120.509C145.182 121.209 143.446 122.884 142.959 123.341C143.05 123.402 143.202 123.341 143.476 123.128ZM125.478 130.133C125.569 130.468 125.752 131.138 125.965 131.716C126.117 132.143 126.3 132.539 126.452 132.752C126.848 133.239 127.396 132.965 128.401 132.447C129.406 131.93 138.512 126.387 139.335 125.869C140.157 125.351 140.796 125.199 141.223 124.072C141.406 123.646 141.558 122.976 141.649 122.306L141.192 122.61L125.935 131.716L126.087 131.625C125.904 131.077 125.752 130.529 125.691 130.224C125.539 129.645 125.813 129.432 126.665 128.975C127.488 128.519 134.401 124.346 136.015 123.402C137.629 122.428 141.527 120.022 141.527 120.022C141.71 119.93 141.893 119.809 142.045 119.748C142.015 119.474 141.649 119.778 141.314 119.93C141.314 119.93 137.416 122.336 135.802 123.311C134.188 124.285 127.275 128.427 126.452 128.884C125.6 129.341 125.325 129.554 125.478 130.133ZM119.844 136.65C120.483 136.498 123.163 135.219 123.772 134.945C124.107 134.792 124.381 134.701 124.534 134.488C124.381 134.579 124.199 134.64 123.955 134.731C122.585 135.219 119.844 136.163 118.717 136.315C118.9 136.62 119.326 136.772 119.844 136.65ZM118.534 135.097C119.356 134.914 121.732 134.031 123.011 133.452C124.29 132.874 124.625 132.752 124.655 132.356C124.686 131.96 124.107 130.985 124.107 130.985L122.524 131.838L119.448 133.056C119.448 133.056 117.225 134.427 117.285 134.67C117.377 134.914 117.712 135.28 118.534 135.097ZM119.509 123.737C119.509 123.554 119.752 123.189 120.057 122.793C120.392 122.397 120.91 121.758 120.91 121.758C120.91 121.758 118.717 122.367 117.681 122.367C116.646 122.367 115.001 121.758 115.001 121.758C115.001 121.758 114.331 122.428 114.301 122.58C114.27 122.641 114.27 122.702 114.27 122.793C116.494 124.133 119.509 123.737 119.509 123.737ZM97.3685 104.581C98.1908 105.19 117.59 116.976 117.59 116.976L117.255 115.636C117.255 115.636 100.444 105.099 98.404 103.759C96.3635 102.419 96.2417 100.896 96.2417 100.896L96.7899 90.4807L95.9067 89.9326C95.9067 89.9326 95.2671 97.3939 94.993 99.9521C94.719 102.541 96.5158 104.003 97.3685 104.581Z" fill="black"/>
<path opacity="0.15" d="M88.9922 125.779C88.9922 125.779 89.2358 119.596 89.3576 118.591C89.449 117.8 89.5708 117.16 89.7231 116.855C90.3931 117.312 91.9767 118.287 91.9767 118.287C91.8549 118.53 91.1849 120.084 90.8804 122.398C90.5454 124.926 90.6672 126.51 90.6672 126.51L88.9922 125.779Z" fill="black"/>
<path opacity="0.15" d="M91.4298 116.61L92.1607 115.361L92.4348 114.661L90.0898 113.138L91.4298 111.402L91.308 111.554C91.308 111.554 99.1653 116.153 100.657 117.188C102.18 118.193 103.916 120.112 105.499 123.249C107.083 126.386 107.936 132.355 107.936 132.355L106.23 131.441C106.23 131.441 105.104 126.751 104.099 123.888C103.094 121.056 101.205 119.29 99.6221 118.224C98.0384 117.158 95.2671 115.605 94.993 115.544C94.7189 115.483 94.4143 115.361 93.8661 115.331L92.6784 117.584C92.6784 117.584 91.978 117.097 91.582 116.914C91.2166 116.793 91.4298 116.61 91.4298 116.61Z" fill="black"/>
<path opacity="0.3" d="M103.519 118.865C103.519 118.865 105.072 121.484 105.377 121.972L109.275 124.256C109.275 124.256 109.975 126.966 110.341 129.159L108.453 130.316V131.291L109.092 131.656L107.965 132.326C107.965 132.326 107.143 126.357 105.529 123.22C103.945 120.084 102.209 118.165 100.688 117.16L103.519 118.865Z" fill="url(#paint45_linear_128_31123)"/>
<path opacity="0.3" d="M94.993 100.012C95.2671 97.4536 95.9067 89.9922 95.9067 89.9922L96.7899 90.5404L96.2417 100.956C96.2417 100.956 96.333 102.479 98.404 103.819C100.444 105.159 117.255 115.696 117.255 115.696L117.59 117.036C117.59 117.036 98.2212 105.22 97.3685 104.641C96.5158 104.002 94.719 102.54 94.993 100.012Z" fill="url(#paint46_linear_128_31123)"/>
<path opacity="0.2" d="M119.51 123.738C119.51 123.738 119.571 124.073 119.723 124.469C119.906 124.865 120.332 125.748 120.576 126.174C120.819 126.54 121.124 126.997 122.037 126.784C121.855 126.905 121.641 127.058 121.398 127.21C120.484 127.819 118.352 128.276 116.951 128.154C115.551 128.032 114.211 127.301 114.211 127.301V124.804V123.099C114.211 123.099 114.211 122.946 114.211 122.824C116.495 124.134 119.51 123.738 119.51 123.738Z" fill="url(#paint47_linear_128_31123)"/>
<path opacity="0.3" d="M120.939 122.094C120.939 122.094 119.964 123.22 119.812 123.403C119.69 123.586 119.69 123.83 119.812 124.165C119.934 124.53 120.726 126.114 120.939 126.296C121.152 126.479 121.639 126.753 122.462 126.022C122.462 126.022 121.7 124.347 121.396 123.616C121.091 122.916 120.939 122.094 120.939 122.094Z" fill="url(#paint48_linear_128_31123)"/>
<path opacity="0.15" d="M120.057 122.793C120.392 122.397 120.91 121.758 120.91 121.758L121.031 121.971L121.214 122.58C121.397 123.219 122.067 124.712 122.067 124.712C122.158 124.925 122.25 125.138 122.341 125.29C122.341 125.29 122.493 125.656 122.767 126.052C122.767 126.082 122.737 126.143 122.706 126.173C122.706 126.173 122.706 126.204 122.676 126.204C122.646 126.234 122.646 126.265 122.615 126.295L122.585 126.326C122.554 126.356 122.524 126.387 122.524 126.417C122.493 126.448 122.493 126.448 122.463 126.478C122.432 126.508 122.432 126.508 122.402 126.539C122.341 126.569 122.311 126.63 122.25 126.661C122.25 126.661 122.25 126.661 122.219 126.691C122.189 126.722 122.128 126.752 122.097 126.783C121.184 126.965 120.879 126.539 120.636 126.173C120.361 125.778 119.935 124.894 119.783 124.468C119.6 124.072 119.57 123.737 119.57 123.737C119.509 123.554 119.752 123.189 120.057 122.793ZM119.844 124.194C119.966 124.559 120.757 126.143 120.971 126.326C121.184 126.508 121.671 126.783 122.493 126.052C122.493 126.052 121.732 124.377 121.427 123.646C121.123 122.915 120.971 122.123 120.971 122.123C120.971 122.123 119.996 123.25 119.844 123.433C119.691 123.585 119.691 123.828 119.844 124.194Z" fill="black"/>
<path opacity="0.3" d="M115.002 130.437L115.459 128.884C116.464 129.249 117.469 129.524 118.383 129.341C121.185 128.793 122.555 127.879 122.555 127.879C123.103 128.549 123.895 128.64 124.687 128.458C122.22 129.737 118.627 130.985 117.408 130.985C116.403 130.985 115.002 130.437 115.002 130.437Z" fill="url(#paint49_linear_128_31123)"/>
<path opacity="0.3" d="M114.269 126.934V127.299C114.269 127.299 114.787 127.573 115.518 127.817L115.488 128.883L115.031 130.436V131.685L110.341 129.157C109.975 126.964 109.275 124.254 109.275 124.254L114.269 126.934Z" fill="url(#paint50_linear_128_31123)"/>
<path opacity="0.3" d="M123.924 134.729C122.553 135.217 119.812 136.161 118.685 136.313C118.625 136.222 118.594 136.13 118.564 136.039C118.472 135.552 119.051 135.277 120.33 134.851C120.97 134.638 122.949 133.755 123.71 133.45C124.441 133.146 124.502 133.45 124.563 133.602C124.715 134.059 124.685 134.303 124.533 134.486C124.38 134.547 124.198 134.638 123.924 134.729Z" fill="url(#paint51_linear_128_31123)"/>
<path opacity="0.4" d="M142.988 123.371C143.476 122.914 145.181 121.209 145.912 120.539C146.399 120.051 146.551 119.473 146.582 119.077C146.886 118.772 147.069 118.498 147.161 118.315L147.252 118.285C147.252 118.498 147.191 118.924 147.069 119.655C146.856 120.843 144.237 122.609 143.506 123.158C143.201 123.34 143.049 123.401 142.988 123.371Z" fill="url(#paint52_linear_128_31123)"/>
<path opacity="0.4" d="M145.821 119.292C144.968 120.053 143.323 121.576 143.019 121.637C142.714 121.698 142.866 120.997 142.897 120.754C142.927 120.51 143.597 119.901 143.597 119.901L146.003 117.19L146.856 114.663C146.856 114.663 147.039 114.48 147.252 114.297C147.313 115.059 147.282 115.911 147.343 116.612C147.343 116.795 147.374 116.977 147.374 117.16C147.13 118.074 146.704 118.5 145.821 119.292Z" fill="url(#paint53_linear_128_31123)"/>
<g opacity="0.3">
<path d="M145.882 120.54C145.182 121.24 143.446 122.915 142.959 123.372C142.837 123.341 142.867 123.128 142.867 123.128C142.867 123.128 142.807 122.184 143.324 121.819C143.842 121.484 145.791 119.717 146.4 119.2C146.461 119.139 146.492 119.108 146.552 119.047C146.522 119.474 146.37 120.052 145.882 120.54Z" fill="url(#paint54_linear_128_31123)"/>
<path d="M147.131 118.315C147.192 118.193 147.222 118.133 147.222 118.133C147.222 118.133 147.222 118.193 147.222 118.285L147.131 118.315Z" fill="url(#paint55_linear_128_31123)"/>
</g>
<path opacity="0.15" d="M115 121.636L92.2812 108.571V108.418L115 121.514V121.636Z" fill="black"/>
<path opacity="0.15" d="M148.227 107.11C148.258 106.623 148.197 106.531 148.197 106.531C148.319 106.47 148.41 106.166 148.471 105.77C148.532 106.44 148.715 108.602 148.44 109.729C148.166 110.978 146.461 112.287 146.461 112.287C146.4 112.318 146.339 112.348 146.309 112.379C147.192 111.495 147.496 110.673 147.679 109.973C147.923 109.242 148.197 107.597 148.227 107.11Z" fill="black"/>
<path opacity="0.3" d="M148.014 106.928C148.014 106.928 148.106 106.715 147.74 106.715C147.405 106.715 146.339 106.837 146.187 106.867C146.035 106.898 146.004 107.081 145.943 107.263C145.882 107.446 145.791 108.025 145.73 108.421C145.669 108.817 145.152 112.532 145.152 112.532C145.152 112.532 145.974 112.227 146.583 111.618C147.222 111.009 147.527 110.004 147.74 108.938C147.923 107.872 147.984 107.263 148.014 106.928Z" fill="url(#paint56_linear_128_31123)"/>
<path opacity="0.2" d="M147.16 113.446C147.069 114.055 146.551 114.633 145.607 115.517C144.359 116.674 142.744 117.77 142.744 117.77C142.775 117.74 142.836 117.709 142.866 117.648C143.323 117.192 143.719 116.004 143.932 115.182C146.125 113.567 146.49 112.258 146.49 112.258C146.856 112.41 147.039 112.867 147.16 113.446Z" fill="url(#paint57_linear_128_31123)"/>
<g opacity="0.15">
<path d="M114.545 102.664C114.575 102.785 114.575 102.907 114.575 103.06C114.605 102.938 114.575 102.816 114.545 102.664Z" fill="black"/>
<path d="M93.4707 87.832L113.053 99.6788C113.053 99.6788 114.271 100.532 114.576 102.694C114.332 101.202 113.053 100.379 113.053 100.379L93.3184 88.4411C93.3489 88.1974 93.4098 88.0147 93.4707 87.832Z" fill="black"/>
</g>
<path d="M141.04 126.112C140.888 125.959 140.705 125.624 140.187 125.959C139.67 126.294 129.772 132.203 129.406 132.416C129.071 132.629 128.462 133.268 128.188 133.695C127.884 134.152 127.396 134.548 127.061 134.487C126.696 134.426 126.27 134.152 126.27 134.152L127.518 133.512C127.518 133.512 128.006 132.903 128.462 132.416C129.741 131.715 138.512 126.386 139.335 125.868C139.913 125.503 140.37 125.32 140.736 124.893C141.131 124.863 141.436 125.137 141.436 125.137C141.558 125.442 141.527 125.746 141.436 126.02C141.284 126.112 141.101 126.203 141.04 126.112Z" fill="#2E383B"/>
<path opacity="0.15" d="M119.478 99.7396C123.894 97.6991 139.852 87.7404 142.137 86.035C143.964 84.6645 145.182 84.1772 146.065 82.2891C146.065 82.2891 146.248 85.1518 146.157 85.9436C146.096 86.4918 146.004 87.1313 145.365 87.8622C145.365 87.8622 144.238 88.7759 140.705 90.9686C137.172 93.1614 124.716 100.775 122.981 101.72C121.275 102.694 117.773 104.521 116.737 102.999C116.189 102.146 115.885 100.958 115.732 100.045C116.555 100.349 117.834 100.501 119.478 99.7396Z" fill="black"/>
<path opacity="0.1" d="M141.314 79.9453C142.228 80.5544 142.806 80.9807 142.928 81.1026C143.141 81.3462 143.416 81.7116 143.659 82.1989C143.324 83.2953 139.061 86.0362 137.781 86.9803L124.838 94.8376C123.407 95.6294 121.336 96.9694 118.778 97.9135C116.22 98.8576 115.61 98.7662 115.61 98.7662L112.23 96.7562L141.314 79.9453Z" fill="url(#paint58_linear_128_31123)"/>
<path opacity="0.2" d="M120.332 69.5898L137.326 80.4621C137.265 80.4925 137.234 80.523 137.173 80.5534L120.18 69.6811C120.241 69.6507 120.271 69.6202 120.332 69.5898Z" fill="white"/>
<path opacity="0.15" d="M119.539 70.0156L136.563 80.9183C136.502 80.9488 136.441 80.9792 136.411 81.0097L119.387 70.1069C119.448 70.0765 119.478 70.046 119.539 70.0156Z" fill="black"/>
<path opacity="0.15" d="M116.128 71.9336L133.274 82.8973C133.213 82.9278 133.152 82.9582 133.122 82.9887L115.945 71.9945C116.037 71.9945 116.098 71.9641 116.128 71.9336Z" fill="black"/>
<path opacity="0.2" d="M133.882 82.5316L116.736 71.5679C116.797 71.5375 116.828 71.507 116.888 71.4766L134.034 82.4402C134.004 82.4707 133.943 82.5011 133.882 82.5316Z" fill="white"/>
<path opacity="0.2" d="M99.4383 81.9844L116.919 92.4912C116.858 92.5217 116.828 92.5521 116.767 92.5826L99.3164 82.0757C99.3469 82.0453 99.4078 82.0148 99.4383 81.9844Z" fill="white"/>
<path opacity="0.15" d="M116.007 93.0396L98.5566 82.5327C98.6175 82.5023 98.648 82.4718 98.7089 82.4414L116.16 92.9482C116.129 92.9787 116.068 93.0091 116.007 93.0396Z" fill="black"/>
<path opacity="0.2" d="M102.849 79.8516L120.36 90.3889C120.299 90.4193 120.269 90.4498 120.208 90.4802L102.697 79.9429C102.727 79.9125 102.788 79.882 102.849 79.8516Z" fill="white"/>
<path opacity="0.15" d="M119.447 90.938L101.996 80.4311C102.057 80.4007 102.088 80.3702 102.149 80.3398L119.599 90.8466C119.569 90.8771 119.508 90.9075 119.447 90.938Z" fill="black"/>
<g opacity="0.4">
<path d="M114.941 121.788H115.063L114.82 115.301L115.307 114.449V114.418C115.307 114.296 113.784 102.602 113.723 102.084C113.693 101.505 113.297 100.561 112.931 100.074L112.84 100.135C113.206 100.622 113.571 101.536 113.632 102.084C113.662 102.602 115.094 113.687 115.185 114.418L114.698 115.271V115.301L114.941 121.788Z" fill="black"/>
</g>
<g opacity="0.4">
<path d="M119.789 116.961L120.966 121.752L120.848 121.781L119.67 116.99L119.789 116.961Z" fill="black"/>
</g>
<g opacity="0.4">
<path d="M145.852 107.2L146.126 101.262H146.035L145.73 107.17L145.852 107.2Z" fill="black"/>
</g>
<g opacity="0.3">
<path d="M111.286 98.5832L111.712 96.3904C111.712 96.3904 112.047 95.69 112.687 95.2941C112.809 95.2027 113.235 94.9285 113.874 94.5326C116.524 92.8271 122.98 89.0203 127.031 86.6753C132.056 83.7821 138.665 79.823 138.725 79.7621C138.725 79.7621 139.761 79.214 140.096 79.1531L140.065 79.0312C139.7 79.0921 138.695 79.6403 138.634 79.6707C138.573 79.7012 131.934 83.6907 126.94 86.5839C122.889 88.9289 116.433 92.7358 113.783 94.4412C113.144 94.8676 112.717 95.1418 112.595 95.2027C111.925 95.5986 111.59 96.3294 111.59 96.3599L111.164 98.5527L111.286 98.5832Z" fill="black"/>
</g>
<path opacity="0.4" d="M100.23 106.53L100.108 112.926L99.9863 112.865L100.108 106.5L100.687 105.282L101.113 93.4961H101.235L100.808 105.312L100.23 106.53Z" fill="black"/>
<path opacity="0.4" d="M99.5605 118.193L99.591 116.487L100.566 115.299V113.32L100.688 113.381V115.33L99.7129 116.518L99.6824 118.253C99.652 118.253 99.652 118.223 99.6215 118.223C99.5911 118.223 99.5605 118.223 99.5605 118.193Z" fill="black"/>
<path d="M122.981 100.41C124.686 99.4356 137.172 91.8524 140.705 89.6597C144.238 87.4669 145.365 86.5533 145.365 86.5533C145.7 86.1574 145.974 85.7006 146.156 85.3047C146.156 85.5788 146.156 85.8224 146.126 85.9747C146.065 86.5228 145.974 87.1624 145.334 87.8933C145.334 87.8933 144.207 88.8069 140.675 90.9997C137.142 93.1924 124.686 100.806 122.95 101.75C121.245 102.725 117.742 104.552 116.707 103.029C116.494 102.694 116.311 102.329 116.189 101.963C117.255 103.455 121.275 101.354 122.981 100.41Z" fill="#404B4D"/>
<path d="M110.646 129.34L108.758 130.497V130.863L115.001 134.243V131.685L110.646 129.34Z" fill="#404B4D"/>
<path d="M115.001 133.724V134.242L108.758 130.862V130.496L115.001 133.724Z" fill="#273234"/>
<path d="M100.688 115.181L104.341 117.282V115.668L100.688 113.566V115.181Z" fill="#404B4D"/>
<path d="M126.726 119.139C129.863 117.372 140.766 110.733 141.558 110.215C142.35 109.728 145.273 107.779 145.852 107.109L145.608 108.023L144.207 109.21L142.563 109.789C142.441 110.52 141.497 111.434 141.497 111.434C141.497 111.434 126.848 120.144 125.813 120.753C124.777 121.362 124.351 120.753 124.351 120.753L123.376 121.727L121.214 122.61L121.031 121.971C121.031 121.971 123.589 120.905 126.726 119.139Z" fill="#2E383B"/>
<path d="M124.99 123.309C127.152 122.152 139.638 114.599 141.252 113.685C142.836 112.771 145.211 110.914 145.211 110.914L145.09 111.675C144.907 111.858 143.354 113.046 143.354 113.046L141.618 113.624C141.496 114.142 140.948 114.995 140.552 115.208C140.125 115.421 127.791 122.822 126.878 123.278C125.995 123.766 125.385 123.339 125.385 123.339L124.38 124.344L122.34 125.288C122.249 125.136 122.188 124.923 122.066 124.71C122.066 124.74 122.827 124.466 124.99 123.309Z" fill="#2E383B"/>
<path d="M123.042 126.416C123.53 126.934 124.23 126.751 125.052 126.355C125.844 125.959 131.966 122.396 134.128 121.087C136.138 119.838 141.224 116.762 143.051 115.453C142.929 115.879 142.564 117.006 141.985 117.493C141.254 118.133 139.427 119.32 137.843 120.264C136.26 121.209 129.681 125.137 128.463 125.838C127.245 126.538 125.113 127.848 124.23 128C123.377 128.152 122.616 128.183 122.494 127.726C122.372 127.299 122.311 126.599 122.311 126.599C122.311 126.599 122.555 126.294 122.738 126.051C122.829 126.173 122.921 126.294 123.042 126.416Z" fill="#2E383B"/>
<path d="M141.192 122.609C141.071 123.188 140.736 124.437 140.34 124.741C140.096 124.924 129.467 131.289 128.554 131.868C128.006 132.233 126.879 132.812 126.331 132.629C126.178 132.416 126.056 132.081 125.904 131.715L141.192 122.609Z" fill="#2E383B"/>
<path d="M115.945 100.959C116.128 101.66 116.372 102.421 116.768 103C117.803 104.522 121.275 102.695 123.011 101.72C124.716 100.746 137.203 93.1624 140.735 90.9696C144.268 88.7769 145.395 87.8633 145.395 87.8633C145.974 91.4874 146.887 98.5833 146.887 98.5833L146.948 99.9538C146.674 100.715 146.248 101.507 145.517 102.086C143.629 103.517 136.776 107.659 133.091 109.913C129.406 112.136 122.615 116.125 120.575 116.795C118.534 117.496 117.133 117.344 116.798 116.004C116.494 114.664 115.275 105.192 114.971 103.274C114.697 101.599 115.215 101.325 115.945 100.959Z" fill="#141C1E"/>
<path d="M116.221 101.901C116.373 102.297 116.525 102.663 116.738 102.967C117.774 104.49 121.246 102.663 122.982 101.688C124.687 100.714 137.173 93.1305 140.706 90.9378C142.899 89.5673 144.148 88.7146 144.818 88.2578C145.031 89.5369 145.762 94.4401 145.914 95.9323C146.066 97.6683 146.432 98.4905 145.213 99.4651C143.965 100.409 136.96 104.642 133.123 106.896C129.286 109.149 122.251 113.291 120.545 114.053C118.809 114.784 117.226 115.667 116.83 112.804C116.434 109.941 115.551 103.942 115.459 103.028C115.368 102.389 115.642 102.145 116.221 101.901Z" fill="#303E42"/>
<path d="M116.006 107.354C122.463 103.395 137.568 94.5322 138.36 94.0145C139.274 93.4359 141.893 95.2327 143.507 96.2986C144.512 96.9686 145.212 98.2477 145.608 99.1004C145.486 99.2222 145.365 99.3441 145.212 99.4659C143.964 100.41 136.959 104.643 133.122 106.897C129.284 109.15 122.249 113.292 120.544 114.054C118.808 114.785 117.224 115.668 116.829 112.805C116.585 111.404 116.28 109.272 116.006 107.354Z" fill="#39464A"/>
<path d="M102.453 95.9935V104.948C102.453 104.948 102.575 106.196 103.976 107.079C105.377 107.932 112.351 112.409 112.351 112.409C112.351 112.409 113.752 113.353 113.691 111.77C113.63 110.186 112.93 103.029 112.899 102.511C112.869 101.994 112.26 101.171 111.102 100.501C109.945 99.8308 104.494 96.6026 103.885 96.2371C103.245 95.9021 102.453 95.5062 102.453 95.9935Z" fill="#141C1E"/>
<path d="M104.433 106.833C103.032 105.98 102.91 104.701 102.91 104.701V95.8086C103.184 95.9 103.549 96.0827 103.854 96.2654C104.463 96.6309 109.914 99.8591 111.072 100.529C112.229 101.168 112.838 102.021 112.869 102.539C112.899 103.057 113.599 110.213 113.66 111.797C113.66 112.102 113.63 112.315 113.539 112.467C113.173 112.467 112.777 112.193 112.777 112.193C112.777 112.193 105.834 107.686 104.433 106.833Z" fill="#303E42"/>
<path d="M118.807 103.82C121.974 102.023 122.949 103.15 124.045 104.307C125.142 105.434 125.172 107.505 122.157 108.723C119.142 109.911 112.138 107.596 118.807 103.82Z" fill="#3D4B4F"/>
<path opacity="0.7" d="M140.706 90.9666C141.498 90.4793 142.168 90.0529 142.746 89.6875C143.051 91.5757 143.599 95.2302 143.173 95.2302C142.716 95.2607 139.366 93.2507 138.178 92.5197C139.244 91.8802 140.097 91.332 140.706 90.9666Z" fill="#C5D0D3"/>
<path opacity="0.2" d="M140.705 90.9691C142.898 89.5986 144.147 88.7459 144.817 88.2891C145.03 89.5682 145.761 94.4714 145.913 95.9637C146.065 97.6996 146.431 98.5219 145.212 99.4964C144.786 99.8314 143.69 100.532 142.258 101.415C140.614 99.405 138.056 96.7859 134.553 94.7759C137.142 93.1618 139.487 91.7305 140.705 90.9691Z" fill="white"/>
<path d="M130.564 128.913C130.655 128.913 130.716 128.883 130.807 128.853L137.416 124.893C137.66 124.741 137.873 124.406 137.873 124.102V123.157C137.873 122.883 137.69 122.762 137.538 122.762C137.446 122.762 137.386 122.792 137.294 122.822L130.686 126.782C130.442 126.934 130.229 127.269 130.229 127.573V128.517C130.229 128.792 130.381 128.913 130.564 128.913Z" fill="#939A9E"/>
<path d="M130.35 128.518C130.35 128.761 130.533 128.853 130.746 128.731L137.355 124.772C137.568 124.65 137.751 124.345 137.751 124.102V123.158C137.751 122.914 137.568 122.823 137.355 122.944L130.746 126.903C130.533 127.025 130.35 127.33 130.35 127.573V128.518Z" fill="#DEE5E9"/>
<path opacity="0.2" d="M116.614 103.639C116.127 102.908 115.853 101.934 115.701 101.081C115.792 101.05 115.883 100.99 115.975 100.959C116.158 101.66 116.401 102.421 116.797 103C117.833 104.522 121.304 102.695 123.04 101.72C124.746 100.746 137.232 93.1624 140.765 90.9696C144.298 88.7769 145.424 87.8633 145.424 87.8633C145.455 87.9851 145.455 88.1069 145.485 88.2592C145.424 88.3505 145.364 88.4419 145.272 88.5333C145.272 88.5333 144.145 89.4469 140.613 91.6396C137.08 93.8324 124.624 101.446 122.888 102.39C121.122 103.335 117.65 105.192 116.614 103.639Z" fill="black"/>
<path d="M145.882 120.541C145.608 120.816 145.212 121.211 144.756 121.638C144.573 121.486 144.39 121.242 144.268 121.09C144.999 120.45 145.913 119.628 146.339 119.262L146.491 119.354C146.461 119.719 146.278 120.146 145.882 120.541Z" fill="white"/>
<path d="M118.717 136.314C118.656 136.223 118.625 136.131 118.595 136.04C118.504 135.553 119.082 135.279 120.361 134.852C120.605 134.761 121.031 134.609 121.519 134.395C121.64 134.639 121.884 135.157 121.884 135.461C120.666 135.857 119.387 136.223 118.717 136.314Z" fill="white"/>
<path d="M115.215 131.988C115.215 132.11 115.307 132.232 115.398 132.263L116.251 132.598C116.342 132.628 116.434 132.567 116.434 132.476V132.171C116.434 132.049 116.342 131.928 116.251 131.897L115.398 131.562C115.307 131.532 115.215 131.593 115.215 131.684V131.988Z" fill="#F09041"/>
<path d="M89.207 125.261C89.207 125.383 89.2983 125.505 89.3897 125.535L90.2424 125.901C90.3338 125.931 90.4252 125.901 90.4252 125.779V125.474C90.4252 125.352 90.3338 125.231 90.2424 125.2L89.3897 124.835C89.2983 124.804 89.207 124.835 89.207 124.956V125.261Z" fill="#F09041"/>
<path d="M123.772 130.256C123.955 130.652 124.655 132.023 124.29 132.388C123.894 132.754 122.371 133.393 121.305 133.85C120.24 134.307 118.382 134.916 117.955 134.947C117.529 134.977 117.255 134.825 117.225 134.398C117.194 133.941 117.225 132.51 117.225 132.327C117.225 132.145 117.59 131.962 118.077 131.871C118.565 131.749 121.031 130.926 121.884 130.531C122.706 130.135 123.59 129.921 123.772 130.256Z" fill="url(#paint59_linear_128_31123)"/>
<path d="M120.971 132.386C120.971 133.026 121.398 133.27 121.946 132.965C122.494 132.66 122.92 131.899 122.92 131.26C122.92 130.62 122.494 130.376 121.946 130.681C121.398 131.016 120.971 131.777 120.971 132.386Z" fill="white"/>
<path d="M118.351 131.777C118.778 131.655 119.478 131.412 120.179 131.168C120.27 131.32 120.361 131.534 120.361 131.808C120.361 132.599 119.813 133.574 119.113 134C118.412 134.396 117.864 134.061 117.864 133.269C117.834 132.752 118.047 132.204 118.351 131.777Z" fill="white"/>
<path d="M146.857 114.66C146.857 114.66 146.826 116.852 146.796 117.187C146.766 117.492 146.644 118.071 146.248 118.436C145.821 118.771 143.659 120.812 143.294 121.025C142.928 121.238 142.776 121.268 142.928 120.598C143.081 119.959 143.751 117.766 144.299 117.127C144.847 116.487 146.857 114.66 146.857 114.66Z" fill="url(#paint60_linear_128_31123)"/>
<path d="M146.097 117.435C145.396 117.831 144.848 117.527 144.848 116.704C144.848 116.643 144.848 116.613 144.848 116.552C145.64 115.76 146.858 114.633 146.858 114.633C146.858 114.633 146.827 115.973 146.827 116.735C146.584 117.039 146.34 117.283 146.097 117.435Z" fill="white"/>
<path d="M144.3 117.129C144.33 117.098 144.3 117.098 144.3 117.129C144.696 117.037 145 117.281 145 117.799C145 118.438 144.574 119.199 144.026 119.504C143.721 119.687 143.447 119.687 143.264 119.504C143.538 118.621 143.965 117.524 144.3 117.129Z" fill="white"/>
<path d="M123.772 130.256C123.955 130.652 124.655 132.023 124.29 132.388C123.894 132.754 122.371 133.393 121.305 133.85C120.24 134.307 118.382 134.916 117.955 134.947C117.529 134.977 117.255 134.825 117.225 134.398C117.194 133.941 117.225 132.51 117.225 132.327C117.225 132.145 117.59 131.962 118.077 131.871C118.565 131.749 121.031 130.926 121.884 130.531C122.706 130.135 123.59 129.921 123.772 130.256Z" fill="url(#paint61_linear_128_31123)"/>
<path d="M117.225 132.323C117.225 132.141 117.59 131.958 118.077 131.867C118.565 131.745 121.031 130.923 121.884 130.527C122.706 130.161 123.62 129.917 123.772 130.253C123.955 130.648 124.655 132.019 124.29 132.384C123.894 132.75 122.371 133.389 121.305 133.846C120.24 134.303 118.382 134.912 117.955 134.943C117.529 134.973 117.255 134.821 117.225 134.394C117.194 133.938 117.225 132.506 117.225 132.323ZM117.285 134.394C117.316 134.729 117.499 134.882 117.834 134.882C117.864 134.882 117.895 134.882 117.955 134.882C118.382 134.851 120.24 134.212 121.275 133.785C122.25 133.389 123.833 132.719 124.229 132.323C124.381 132.171 124.412 131.684 123.711 130.283C123.65 130.192 123.559 130.131 123.376 130.131C123.041 130.131 122.493 130.283 121.884 130.557C121.031 130.923 118.534 131.775 118.077 131.897C117.59 132.019 117.285 132.171 117.285 132.293C117.285 132.537 117.255 133.938 117.285 134.394Z" fill="#2E383B"/>
<path d="M146.857 114.66C146.857 114.66 146.826 116.852 146.796 117.187C146.766 117.492 146.644 118.071 146.248 118.436C145.821 118.771 143.659 120.812 143.294 121.025C142.928 121.238 142.776 121.268 142.928 120.598C143.081 119.959 143.751 117.766 144.299 117.127C144.847 116.487 146.857 114.66 146.857 114.66Z" fill="url(#paint62_linear_128_31123)"/>
<path d="M143.233 120.964C143.598 120.751 145.761 118.71 146.187 118.375C146.613 118.04 146.705 117.462 146.735 117.127C146.766 116.852 146.796 115.086 146.796 114.69C146.826 114.66 146.826 114.66 146.826 114.66C146.826 114.66 146.796 116.852 146.766 117.187C146.735 117.492 146.613 118.071 146.217 118.436C145.791 118.771 143.629 120.812 143.263 121.025C143.05 121.147 142.928 121.207 142.867 121.116C142.959 121.116 143.08 121.055 143.233 120.964Z" fill="#2E383B"/>
<path d="M110.129 116.64C110.281 116.64 110.433 116.579 110.616 116.488L112.534 115.392C112.656 115.331 112.687 115.178 112.626 115.057C112.565 114.935 112.413 114.904 112.291 114.965L110.372 116.062C110.25 116.153 110.129 116.153 110.037 116.123C109.976 116.092 109.915 115.97 109.915 115.818V102.631C109.915 102.205 110.22 101.657 110.616 101.443L112.534 100.347C112.656 100.286 112.687 100.134 112.626 100.012C112.565 99.8906 112.413 99.8602 112.291 99.9211L110.372 101.017C109.854 101.322 109.428 102.022 109.428 102.631V115.818C109.428 116.153 109.55 116.427 109.794 116.549C109.915 116.61 110.007 116.64 110.129 116.64Z" fill="#404B4D"/>
<path d="M106.656 114.996C106.656 115.361 106.93 115.513 107.234 115.331L109.549 113.991C109.884 113.808 110.128 113.351 110.128 112.955V103.393C110.128 103.027 109.854 102.875 109.549 103.058L107.234 104.398C106.899 104.58 106.656 105.037 106.656 105.433V114.996Z" fill="#5A6567"/>
<path d="M106.961 115.238C106.961 115.604 107.235 115.756 107.54 115.573L109.854 114.233C110.189 114.051 110.433 113.594 110.433 113.198V103.635C110.433 103.27 110.159 103.117 109.854 103.3L107.54 104.64C107.205 104.823 106.961 105.28 106.961 105.676V115.238Z" fill="#404B4D"/>
<path d="M95.6321 70.1688L112.961 60.1797C112.961 60.1797 115.489 61.6415 117.56 62.8292C119.63 64.017 122.128 68.1892 122.128 68.1892C122.128 68.1892 122.615 69.712 122.615 70.9606C122.615 71.2042 122.554 71.387 122.432 71.5088L104.982 81.5284C104.525 81.8329 103.642 81.4979 103.642 81.4979L95.6625 76.8993L95.6016 76.8688V73.5188L95.6321 70.1688Z" fill="#E1E8EC"/>
<path opacity="0.1" d="M103.672 81.4986C103.672 81.4986 105.317 82.1077 105.317 80.859C105.317 79.6104 104.829 78.0876 104.829 78.0876C104.829 78.0876 102.332 73.9154 100.261 72.7276C98.1899 71.5399 95.6621 70.0781 95.6621 70.0781V76.839L103.672 81.4986Z" fill="black"/>
<path d="M104.738 75.8943L119.752 67.0625C119.844 67.1843 119.935 67.3061 119.996 67.4279L104.982 76.2598C104.921 76.1075 104.829 76.0161 104.738 75.8943Z" fill="#4A585C"/>
<path d="M104.252 75.2225L119.235 66.3906C119.327 66.5125 119.418 66.6343 119.51 66.7256L104.526 75.5575C104.434 75.4357 104.343 75.3138 104.252 75.2225Z" fill="#4A585C"/>
<path d="M105.164 76.5037L120.178 67.6719C120.27 67.7937 120.361 67.9155 120.422 68.0373L105.408 76.8692C105.347 76.7474 105.256 76.6256 105.164 76.5037Z" fill="#4A585C"/>
<path d="M106.018 77.8123L121.032 68.9805C121.063 69.0414 121.093 69.0718 121.093 69.0718C121.093 69.0718 121.124 69.1936 121.185 69.3764L106.14 78.2387C106.079 78.0559 106.049 77.9037 106.018 77.8123Z" fill="#4A585C"/>
<path d="M105.592 77.1405L120.606 68.3086C120.697 68.4304 120.789 68.5523 120.85 68.6741L105.835 77.5059C105.775 77.4146 105.683 77.2927 105.592 77.1405Z" fill="#4A585C"/>
</g>
<defs>
<linearGradient id="paint0_linear_128_31123" x1="55.8846" y1="70.6042" x2="55.4039" y2="80.9539" gradientUnits="userSpaceOnUse">
<stop stop-color="#F3F5F7"/>
<stop offset="1" stop-color="#999D9E"/>
</linearGradient>
<linearGradient id="paint1_linear_128_31123" x1="57.8982" y1="79.0761" x2="52.7395" y2="70.7132" gradientUnits="userSpaceOnUse">
<stop stop-color="#F3F5F7"/>
<stop offset="1" stop-color="#999D9E"/>
</linearGradient>
<linearGradient id="paint2_linear_128_31123" x1="59.3398" y1="75.0276" x2="53.4434" y2="75.0276" gradientUnits="userSpaceOnUse">
<stop stop-color="#C3C5C7"/>
<stop offset="1" stop-color="#696D6E"/>
</linearGradient>
<linearGradient id="paint3_linear_128_31123" x1="59.3403" y1="74.8577" x2="53.727" y2="74.8577" gradientUnits="userSpaceOnUse">
<stop stop-color="#F3F5F7"/>
<stop offset="1" stop-color="#999D9E"/>
</linearGradient>
<linearGradient id="paint4_linear_128_31123" x1="59.3398" y1="74.6165" x2="55.1056" y2="74.6165" gradientUnits="userSpaceOnUse">
<stop stop-color="#C1C3C5"/>
<stop offset="1" stop-color="#676B6C"/>
</linearGradient>
<linearGradient id="paint5_linear_128_31123" x1="56.4695" y1="72.2671" x2="58.3487" y2="79.6692" gradientUnits="userSpaceOnUse">
<stop stop-color="#F3F5F7"/>
<stop offset="1" stop-color="#999D9E"/>
</linearGradient>
<linearGradient id="paint6_linear_128_31123" x1="72.2333" y1="80.0476" x2="71.7527" y2="90.3971" gradientUnits="userSpaceOnUse">
<stop stop-color="#F3F5F7"/>
<stop offset="1" stop-color="#999D9E"/>
</linearGradient>
<linearGradient id="paint7_linear_128_31123" x1="74.2474" y1="88.5193" x2="69.0885" y2="80.1561" gradientUnits="userSpaceOnUse">
<stop stop-color="#F3F5F7"/>
<stop offset="1" stop-color="#999D9E"/>
</linearGradient>
<linearGradient id="paint8_linear_128_31123" x1="75.6888" y1="84.4714" x2="69.7918" y2="84.4714" gradientUnits="userSpaceOnUse">
<stop stop-color="#C3C5C7"/>
<stop offset="1" stop-color="#696D6E"/>
</linearGradient>
<linearGradient id="paint9_linear_128_31123" x1="75.6882" y1="84.3011" x2="70.0746" y2="84.3011" gradientUnits="userSpaceOnUse">
<stop stop-color="#F3F5F7"/>
<stop offset="1" stop-color="#999D9E"/>
</linearGradient>
<linearGradient id="paint10_linear_128_31123" x1="75.6877" y1="84.0558" x2="71.4529" y2="84.0558" gradientUnits="userSpaceOnUse">
<stop stop-color="#C1C3C5"/>
<stop offset="1" stop-color="#676B6C"/>
</linearGradient>
<linearGradient id="paint11_linear_128_31123" x1="72.8187" y1="81.7091" x2="74.6979" y2="89.1109" gradientUnits="userSpaceOnUse">
<stop stop-color="#F3F5F7"/>
<stop offset="1" stop-color="#999D9E"/>
</linearGradient>
<linearGradient id="paint12_linear_128_31123" x1="39.4384" y1="63.9828" x2="45.3324" y2="76.0983" gradientUnits="userSpaceOnUse">
<stop stop-color="#B8BFC3"/>
<stop offset="0.1261" stop-color="#C7CED1"/>
<stop offset="0.4556" stop-color="#EBF2F2"/>
<stop offset="0.6324" stop-color="#F8FFFF"/>
<stop offset="0.7175" stop-color="#EBF2F6"/>
<stop offset="0.8952" stop-color="#B8BFC3"/>
<stop offset="1" stop-color="#89939A"/>
</linearGradient>
<linearGradient id="paint13_linear_128_31123" x1="29.4524" y1="86.0507" x2="28.9718" y2="96.4001" gradientUnits="userSpaceOnUse">
<stop stop-color="#F3F5F7"/>
<stop offset="1" stop-color="#999D9E"/>
</linearGradient>
<linearGradient id="paint14_linear_128_31123" x1="31.4661" y1="94.5247" x2="26.3074" y2="86.1618" gradientUnits="userSpaceOnUse">
<stop stop-color="#F3F5F7"/>
<stop offset="1" stop-color="#999D9E"/>
</linearGradient>
<linearGradient id="paint15_linear_128_31123" x1="32.9058" y1="90.4789" x2="27.0091" y2="90.4789" gradientUnits="userSpaceOnUse">
<stop stop-color="#C3C5C7"/>
<stop offset="1" stop-color="#696D6E"/>
</linearGradient>
<linearGradient id="paint16_linear_128_31123" x1="32.9064" y1="90.3088" x2="27.2927" y2="90.3088" gradientUnits="userSpaceOnUse">
<stop stop-color="#F3F5F7"/>
<stop offset="1" stop-color="#999D9E"/>
</linearGradient>
<linearGradient id="paint17_linear_128_31123" x1="32.9058" y1="90.0631" x2="28.6713" y2="90.0631" gradientUnits="userSpaceOnUse">
<stop stop-color="#C1C3C5"/>
<stop offset="1" stop-color="#676B6C"/>
</linearGradient>
<linearGradient id="paint18_linear_128_31123" x1="30.0356" y1="87.7158" x2="31.9149" y2="95.1181" gradientUnits="userSpaceOnUse">
<stop stop-color="#F3F5F7"/>
<stop offset="1" stop-color="#999D9E"/>
</linearGradient>
<linearGradient id="paint19_linear_128_31123" x1="45.799" y1="95.4939" x2="45.3184" y2="105.843" gradientUnits="userSpaceOnUse">
<stop stop-color="#F3F5F7"/>
<stop offset="1" stop-color="#999D9E"/>
</linearGradient>
<linearGradient id="paint20_linear_128_31123" x1="47.8139" y1="103.968" x2="42.6551" y2="95.6049" gradientUnits="userSpaceOnUse">
<stop stop-color="#F3F5F7"/>
<stop offset="1" stop-color="#999D9E"/>
</linearGradient>
<linearGradient id="paint21_linear_128_31123" x1="49.2532" y1="99.922" x2="43.3571" y2="99.922" gradientUnits="userSpaceOnUse">
<stop stop-color="#C3C5C7"/>
<stop offset="1" stop-color="#696D6E"/>
</linearGradient>
<linearGradient id="paint22_linear_128_31123" x1="49.2537" y1="99.7519" x2="43.6407" y2="99.7519" gradientUnits="userSpaceOnUse">
<stop stop-color="#F3F5F7"/>
<stop offset="1" stop-color="#999D9E"/>
</linearGradient>
<linearGradient id="paint23_linear_128_31123" x1="49.2531" y1="99.5063" x2="45.0192" y2="99.5063" gradientUnits="userSpaceOnUse">
<stop stop-color="#C1C3C5"/>
<stop offset="1" stop-color="#676B6C"/>
</linearGradient>
<linearGradient id="paint24_linear_128_31123" x1="46.3842" y1="97.1591" x2="48.2634" y2="104.561" gradientUnits="userSpaceOnUse">
<stop stop-color="#F3F5F7"/>
<stop offset="1" stop-color="#999D9E"/>
</linearGradient>
<linearGradient id="paint25_linear_128_31123" x1="84.9042" y1="105.053" x2="78.5003" y2="116.145" gradientUnits="userSpaceOnUse">
<stop offset="0.4393" stop-color="#B8BFC3"/>
<stop offset="0.4438" stop-color="#BAC1C5"/>
<stop offset="0.5216" stop-color="#DEE5E9"/>
<stop offset="0.5633" stop-color="#EBF2F6"/>
<stop offset="0.8396" stop-color="#B8BFC3"/>
<stop offset="1" stop-color="#89939A"/>
</linearGradient>
<linearGradient id="paint26_linear_128_31123" x1="79.1308" y1="100.862" x2="72.0467" y2="113.133" gradientUnits="userSpaceOnUse">
<stop offset="0.4393" stop-color="#D2D9DD"/>
<stop offset="0.5171" stop-color="#F2F4F5"/>
<stop offset="0.5633" stop-color="white"/>
<stop offset="0.8396" stop-color="#D2D9DD"/>
<stop offset="1" stop-color="#A3ADB4"/>
</linearGradient>
<linearGradient id="paint27_linear_128_31123" x1="87.1053" y1="105.435" x2="80.0213" y2="117.705" gradientUnits="userSpaceOnUse">
<stop offset="0.4393" stop-color="#D2D9DD"/>
<stop offset="0.5171" stop-color="#F2F4F5"/>
<stop offset="0.5633" stop-color="white"/>
<stop offset="0.8396" stop-color="#D2D9DD"/>
<stop offset="1" stop-color="#A3ADB4"/>
</linearGradient>
<linearGradient id="paint28_linear_128_31123" x1="98.1148" y1="125.214" x2="100.082" y2="138.363" gradientUnits="userSpaceOnUse">
<stop stop-color="#F3F5F7"/>
<stop offset="1" stop-color="#999D9E"/>
</linearGradient>
<linearGradient id="paint29_linear_128_31123" x1="100.174" y1="136.652" x2="99.1419" y2="130.256" gradientUnits="userSpaceOnUse">
<stop stop-color="#E6E8EA"/>
<stop offset="1" stop-color="#8C9091"/>
</linearGradient>
<linearGradient id="paint30_linear_128_31123" x1="100.042" y1="133.644" x2="96.961" y2="126.037" gradientUnits="userSpaceOnUse">
<stop stop-color="#F3F5F7"/>
<stop offset="1" stop-color="#999D9E"/>
</linearGradient>
<linearGradient id="paint31_linear_128_31123" x1="98.4111" y1="126.206" x2="100.422" y2="136.632" gradientUnits="userSpaceOnUse">
<stop stop-color="#F3F5F7"/>
<stop offset="1" stop-color="#999D9E"/>
</linearGradient>
<linearGradient id="paint32_linear_128_31123" x1="98.795" y1="128.332" x2="98.8644" y2="136.607" gradientUnits="userSpaceOnUse">
<stop stop-color="#F3F5F7"/>
<stop offset="1" stop-color="#999D9E"/>
</linearGradient>
<linearGradient id="paint33_linear_128_31123" x1="99.6333" y1="127.623" x2="98.9291" y2="127.623" gradientUnits="userSpaceOnUse">
<stop stop-color="#8F9193"/>
<stop offset="1" stop-color="#35393A"/>
</linearGradient>
<linearGradient id="paint34_linear_128_31123" x1="102.405" y1="131.673" x2="101.394" y2="131.673" gradientUnits="userSpaceOnUse">
<stop stop-color="#8F9193"/>
<stop offset="1" stop-color="#35393A"/>
</linearGradient>
<linearGradient id="paint35_linear_128_31123" x1="102.08" y1="133.711" x2="101.136" y2="133.711" gradientUnits="userSpaceOnUse">
<stop stop-color="#8F9193"/>
<stop offset="1" stop-color="#35393A"/>
</linearGradient>
<linearGradient id="paint36_linear_128_31123" x1="100.547" y1="134.471" x2="100.037" y2="134.471" gradientUnits="userSpaceOnUse">
<stop stop-color="#8F9193"/>
<stop offset="1" stop-color="#35393A"/>
</linearGradient>
<linearGradient id="paint37_linear_128_31123" x1="101.311" y1="129.336" x2="100.369" y2="129.336" gradientUnits="userSpaceOnUse">
<stop stop-color="#8F9193"/>
<stop offset="1" stop-color="#35393A"/>
</linearGradient>
<linearGradient id="paint38_linear_128_31123" x1="97.7594" y1="127.116" x2="97.1717" y2="127.116" gradientUnits="userSpaceOnUse">
<stop stop-color="#8F9193"/>
<stop offset="1" stop-color="#35393A"/>
</linearGradient>
<linearGradient id="paint39_linear_128_31123" x1="96.5669" y1="128.567" x2="95.9496" y2="128.567" gradientUnits="userSpaceOnUse">
<stop stop-color="#8F9193"/>
<stop offset="1" stop-color="#35393A"/>
</linearGradient>
<linearGradient id="paint40_linear_128_31123" x1="96.5147" y1="130.46" x2="96.2559" y2="130.46" gradientUnits="userSpaceOnUse">
<stop stop-color="#8F9193"/>
<stop offset="1" stop-color="#35393A"/>
</linearGradient>
<linearGradient id="paint41_linear_128_31123" x1="98.7954" y1="133.873" x2="98.5497" y2="133.873" gradientUnits="userSpaceOnUse">
<stop stop-color="#8F9193"/>
<stop offset="1" stop-color="#35393A"/>
</linearGradient>
<linearGradient id="paint42_linear_128_31123" x1="97.2529" y1="132.186" x2="97.0403" y2="132.186" gradientUnits="userSpaceOnUse">
<stop stop-color="#8F9193"/>
<stop offset="1" stop-color="#35393A"/>
</linearGradient>
<linearGradient id="paint43_linear_128_31123" x1="97.3339" y1="130.664" x2="100.061" y2="131.797" gradientUnits="userSpaceOnUse">
<stop stop-color="#F3F5F7"/>
<stop offset="1" stop-color="#999D9E"/>
</linearGradient>
<linearGradient id="paint44_linear_128_31123" x1="98.2146" y1="129.897" x2="99.278" y2="135.304" gradientUnits="userSpaceOnUse">
<stop stop-color="#F3F5F7"/>
<stop offset="1" stop-color="#999D9E"/>
</linearGradient>
<linearGradient id="paint45_linear_128_31123" x1="105.558" y1="122.906" x2="108.889" y2="135.07" gradientUnits="userSpaceOnUse">
<stop stop-color="white"/>
<stop offset="1"/>
</linearGradient>
<linearGradient id="paint46_linear_128_31123" x1="103.574" y1="102.17" x2="101.244" y2="96.3138" gradientUnits="userSpaceOnUse">
<stop stop-color="white"/>
<stop offset="1"/>
</linearGradient>
<linearGradient id="paint47_linear_128_31123" x1="118.136" y1="123.855" x2="118.196" y2="129.175" gradientUnits="userSpaceOnUse">
<stop stop-color="white"/>
<stop offset="0.1072" stop-color="#FAFAFA"/>
<stop offset="0.2309" stop-color="#ECECEC"/>
<stop offset="0.3629" stop-color="#D5D5D5"/>
<stop offset="0.5005" stop-color="#B5B5B5"/>
<stop offset="0.6427" stop-color="#8B8B8B"/>
<stop offset="0.7887" stop-color="#585858"/>
<stop offset="0.9349" stop-color="#1D1D1D"/>
<stop offset="1"/>
</linearGradient>
<linearGradient id="paint48_linear_128_31123" x1="122.788" y1="123.653" x2="119.551" y2="125.106" gradientUnits="userSpaceOnUse">
<stop stop-color="white"/>
<stop offset="1"/>
</linearGradient>
<linearGradient id="paint49_linear_128_31123" x1="117.932" y1="129.61" x2="130.69" y2="124.819" gradientUnits="userSpaceOnUse">
<stop stop-color="white"/>
<stop offset="1"/>
</linearGradient>
<linearGradient id="paint50_linear_128_31123" x1="111.617" y1="129.728" x2="113.428" y2="123.449" gradientUnits="userSpaceOnUse">
<stop stop-color="white"/>
<stop offset="1"/>
</linearGradient>
<linearGradient id="paint51_linear_128_31123" x1="124.646" y1="134.802" x2="118.584" y2="134.802" gradientUnits="userSpaceOnUse">
<stop stop-color="white"/>
<stop offset="1"/>
</linearGradient>
<linearGradient id="paint52_linear_128_31123" x1="145.455" y1="119.86" x2="146.151" y2="117.272" gradientUnits="userSpaceOnUse">
<stop stop-color="white"/>
<stop offset="1"/>
</linearGradient>
<linearGradient id="paint53_linear_128_31123" x1="145.885" y1="117.297" x2="146.658" y2="115.558" gradientUnits="userSpaceOnUse">
<stop stop-color="white"/>
<stop offset="1"/>
</linearGradient>
<linearGradient id="paint54_linear_128_31123" x1="142.688" y1="122.912" x2="146.032" y2="120.203" gradientUnits="userSpaceOnUse">
<stop stop-color="white"/>
<stop offset="1"/>
</linearGradient>
<linearGradient id="paint55_linear_128_31123" x1="142.175" y1="122.275" x2="145.518" y2="119.567" gradientUnits="userSpaceOnUse">
<stop stop-color="white"/>
<stop offset="1"/>
</linearGradient>
<linearGradient id="paint56_linear_128_31123" x1="143.864" y1="109.698" x2="147.656" y2="109.59" gradientUnits="userSpaceOnUse">
<stop stop-color="white"/>
<stop offset="1"/>
</linearGradient>
<linearGradient id="paint57_linear_128_31123" x1="147.147" y1="115.052" x2="142.726" y2="115.052" gradientUnits="userSpaceOnUse">
<stop stop-color="white"/>
<stop offset="0.1072" stop-color="#FAFAFA"/>
<stop offset="0.2309" stop-color="#ECECEC"/>
<stop offset="0.3629" stop-color="#D5D5D5"/>
<stop offset="0.5005" stop-color="#B5B5B5"/>
<stop offset="0.6427" stop-color="#8B8B8B"/>
<stop offset="0.7887" stop-color="#585858"/>
<stop offset="0.9349" stop-color="#1D1D1D"/>
<stop offset="1"/>
</linearGradient>
<linearGradient id="paint58_linear_128_31123" x1="127.81" y1="89.2381" x2="129.862" y2="92.537" gradientUnits="userSpaceOnUse">
<stop stop-color="white"/>
<stop offset="1"/>
</linearGradient>
<linearGradient id="paint59_linear_128_31123" x1="124.39" y1="132.518" x2="117.207" y2="132.518" gradientUnits="userSpaceOnUse">
<stop stop-color="white"/>
<stop offset="1" stop-color="#969696"/>
</linearGradient>
<linearGradient id="paint60_linear_128_31123" x1="146.847" y1="117.896" x2="142.878" y2="117.896" gradientUnits="userSpaceOnUse">
<stop stop-color="white"/>
<stop offset="1" stop-color="#969696"/>
</linearGradient>
<linearGradient id="paint61_linear_128_31123" x1="124.39" y1="132.518" x2="117.207" y2="132.518" gradientUnits="userSpaceOnUse">
<stop stop-color="white"/>
<stop offset="1" stop-color="white"/>
</linearGradient>
<linearGradient id="paint62_linear_128_31123" x1="146.847" y1="117.896" x2="142.878" y2="117.896" gradientUnits="userSpaceOnUse">
<stop stop-color="white"/>
<stop offset="1" stop-color="white"/>
</linearGradient>
<clipPath id="clip0_128_31123">
<rect width="149" height="140" fill="white"/>
</clipPath>
</defs>
</svg>
