<svg width="205" height="140" viewBox="0 0 205 140" fill="none" xmlns="http://www.w3.org/2000/svg">
<g clip-path="url(#clip0_128_31357)">
<path d="M146.997 49.9994C141.969 47.0993 138.551 44.2993 139.355 43.7993C140.26 43.2993 144.986 45.2994 150.113 48.1994C155.141 51.0994 158.559 53.8994 157.755 54.3994C156.85 54.7994 152.024 52.8994 146.997 49.9994Z" fill="url(#paint0_linear_128_31357)"/>
<path d="M153.934 37.3001C148.907 34.4001 145.488 31.6001 146.293 31.1001C147.097 30.6001 151.923 32.6001 157.051 35.5001C162.078 38.4001 165.497 41.2001 164.693 41.7001C163.788 42.1001 158.961 40.2001 153.934 37.3001Z" fill="url(#paint1_linear_128_31357)"/>
<path d="M133.524 74.3001C128.497 71.4001 125.079 68.6001 125.883 68.1001C126.687 67.6001 131.514 69.6001 136.641 72.5001C141.669 75.4001 145.087 78.2001 144.283 78.7001C143.478 79.2001 138.652 77.2001 133.524 74.3001Z" fill="url(#paint2_linear_128_31357)"/>
<path d="M140.763 61.9994C135.735 59.0993 132.317 56.2993 133.121 55.7993C134.026 55.2993 138.752 57.2994 143.879 60.1994C148.907 63.0994 152.325 65.8994 151.521 66.3994C150.717 66.8994 145.79 64.8994 140.763 61.9994Z" fill="url(#paint3_linear_128_31357)"/>
<path d="M52.8879 104C47.8607 101.1 43.0345 99.1001 42.1296 99.6001C41.2247 100.1 44.6432 102.8 49.771 105.8C54.7983 108.7 59.6245 110.7 60.5294 110.2C61.3337 109.6 58.0157 106.9 52.8879 104Z" fill="url(#paint4_linear_128_31357)"/>
<path d="M30.7669 108C25.7396 105.1 20.9134 103.1 20.0085 103.6C19.1036 104.1 22.5221 106.8 27.65 109.8C32.6772 112.7 37.5034 114.7 38.4083 114.2C39.2127 113.6 35.7941 110.9 30.7669 108Z" fill="url(#paint5_linear_128_31357)"/>
<path d="M95.3177 96.3009C90.2904 93.4009 85.4642 91.4009 84.5593 91.9009C83.6544 92.4009 87.0729 95.1009 92.2007 98.1009C97.228 101.001 102.055 103.001 102.96 102.501C103.864 102.001 100.345 99.2009 95.3177 96.3009Z" fill="url(#paint6_linear_128_31357)"/>
<path d="M73.8001 100.399C68.7728 97.4986 63.9466 95.4986 63.0417 95.9986C62.1368 96.4986 65.5554 99.1986 70.6832 102.199C75.7104 105.099 80.5366 107.099 81.4415 106.599C82.2459 106.099 78.9279 103.299 73.8001 100.399Z" fill="url(#paint7_linear_128_31357)"/>
<path d="M182.793 136.999L183.698 136.499C183.899 136.399 184.2 136.399 184.502 136.599C185.206 136.999 185.708 137.899 185.708 138.699C185.708 139.099 185.608 139.399 185.306 139.499L184.401 139.999L182.793 136.999Z" fill="#18192E"/>
<path d="M182.389 137.699C182.389 138.499 182.892 139.399 183.596 139.799C184.3 140.199 184.803 139.899 184.803 139.099C184.803 138.299 184.3 137.399 183.596 136.999C182.993 136.699 182.389 136.999 182.389 137.699Z" fill="#18192E"/>
<path d="M183.597 137.602C183.999 137.802 184.301 138.402 184.301 138.902C184.301 139.402 183.999 139.602 183.597 139.302C183.195 139.102 182.893 138.502 182.893 138.002C182.893 137.502 183.195 137.302 183.597 137.602Z" fill="#18192E"/>
<path d="M183.295 137.5C183.295 137.6 183.195 137.7 183.195 137.8C183.195 138.3 183.496 138.8 183.899 139.1C183.999 139.2 184.1 139.2 184.2 139.2C184.1 139.5 183.798 139.5 183.496 139.3C183.094 139.1 182.793 138.5 182.793 138C182.893 137.7 183.094 137.5 183.295 137.5Z" fill="#4A5A67"/>
<path d="M183.495 137.7C183.495 138.1 183.797 138.6 184.199 138.9C184.3 138.9 184.3 139 184.4 139V139.1C184.3 139.1 184.199 139.1 184.099 139C183.697 138.8 183.395 138.3 183.395 137.8C183.395 137.7 183.395 137.6 183.395 137.5H183.495C183.495 137.6 183.495 137.6 183.495 137.7Z" fill="#18192E"/>
<path d="M183.898 138C183.998 138.1 184.099 138.2 184.099 138.3C184.099 138.4 183.998 138.5 183.898 138.4C183.797 138.3 183.697 138.2 183.697 138.1C183.697 138 183.898 138 183.898 138Z" fill="#18192E"/>
<path d="M182.391 136.298L185.709 138.198L186.815 136.798L183.497 134.898L182.391 136.298Z" fill="url(#paint8_linear_128_31357)"/>
<path d="M94.7134 115.501L87.9769 111.601C87.5747 111.301 86.9714 111.301 86.2676 111.701C84.9605 112.401 83.9551 114.301 83.9551 115.801C83.9551 116.501 84.1562 117.001 84.5583 117.301C84.5583 117.301 84.6589 117.301 84.6589 117.401L91.2949 121.301C91.6971 121.601 92.3003 121.601 93.0042 121.201C94.3113 120.501 95.3167 118.601 95.3167 117.101C95.4173 116.201 95.1156 115.701 94.7134 115.501Z" fill="#18192E"/>
<path d="M102.155 131.2L109.093 119.4L95.318 111.3C94.4131 110.7 93.2066 110.8 91.7989 111.6C89.0842 113.1 86.9727 116.9 86.9727 120C86.9727 121.5 87.4755 122.5 88.2798 123C88.3804 123 88.3804 123.1 88.4809 123.1L102.155 131.2Z" fill="#F04A23"/>
<path d="M106.679 118.001C105.874 117.601 104.668 117.801 103.461 118.501C100.747 120.001 98.6348 123.801 98.6348 126.901C98.6348 128.501 99.238 129.501 100.043 130.001L100.143 130.101L102.154 131.201L109.092 119.401L106.679 118.001Z" fill="url(#paint9_linear_128_31357)"/>
<path d="M110.599 122.5C110.599 125.6 108.387 129.3 105.773 130.9C103.058 132.4 100.947 131.2 100.947 128.1C100.947 125 103.159 121.3 105.773 119.7C108.387 118.2 110.599 119.5 110.599 122.5Z" fill="#A9B1B1"/>
<path d="M109.294 123.3C109.294 125.6 107.685 128.3 105.775 129.4C103.864 130.5 102.256 129.6 102.256 127.4C102.256 125.1 103.864 122.4 105.775 121.3C107.685 120.2 109.294 121 109.294 123.3Z" fill="#18192E"/>
<path d="M107.081 124.5C107.081 125.4 106.478 126.4 105.673 126.9C104.869 127.3 104.266 127 104.266 126.1C104.266 125.2 104.869 124.2 105.673 123.7C106.478 123.3 107.081 123.7 107.081 124.5Z" fill="#F04A23"/>
<path d="M167.911 93.399L174.849 81.599L161.074 73.499C160.169 72.899 158.963 72.999 157.555 73.799C154.84 75.299 152.729 79.099 152.729 82.199C152.729 83.699 153.232 84.699 154.036 85.199C154.136 85.199 154.136 85.299 154.237 85.299L167.911 93.399Z" fill="#F04A23"/>
<path d="M172.437 80.3015C171.632 79.9015 170.426 80.1015 169.219 80.8015C166.504 82.3015 164.393 86.1015 164.393 89.2015C164.393 90.8015 164.996 91.8015 165.801 92.3015L165.901 92.4015L167.912 93.5015L174.85 81.7015L172.437 80.3015Z" fill="url(#paint10_linear_128_31357)"/>
<path d="M176.357 84.7988C176.357 87.8988 174.145 91.5988 171.531 93.1988C168.816 94.6988 166.705 93.4988 166.705 90.3988C166.705 87.2988 168.917 83.5988 171.531 81.9988C174.145 80.4988 176.357 81.6988 176.357 84.7988Z" fill="#A9B1B1"/>
<path d="M175.05 85.5983C175.05 87.8983 173.441 90.5983 171.531 91.6983C169.62 92.7983 168.012 91.8983 168.012 89.6983C168.012 87.4983 169.62 84.6983 171.531 83.5983C173.441 82.3983 175.05 83.2983 175.05 85.5983Z" fill="#18192E"/>
<path d="M172.838 86.7981C172.838 87.6981 172.235 88.6981 171.43 89.1981C170.626 89.5981 170.023 89.2981 170.023 88.3981C170.023 87.4981 170.626 86.4981 171.43 85.9981C172.235 85.5981 172.838 85.8981 172.838 86.7981Z" fill="#F04A23"/>
<path d="M173.542 83.1016C173.743 83.5016 173.944 84.1016 173.944 84.7016C173.944 87.0016 172.335 89.7016 170.425 90.8016C169.62 91.2016 168.917 91.4016 168.414 91.2016C169.017 92.2016 170.224 92.4016 171.531 91.6016C173.441 90.5016 175.05 87.7016 175.05 85.5016C175.05 84.2016 174.447 83.3016 173.542 83.1016Z" fill="#18192E"/>
<path d="M155.945 25.8016V12.6016L157.755 13.7016L162.782 29.8016L155.945 25.8016Z" fill="#F04A23"/>
<path d="M159.566 98.5984C159.566 98.5984 169.62 49.2984 166.503 31.9984L155.946 25.8984C155.946 25.8984 140.462 58.2984 135.435 66.3984C130.408 74.4984 124.978 77.9984 124.475 78.4984L159.566 98.5984Z" fill="#EFEFEF"/>
<path d="M141.064 55.9984L145.991 58.7984C150.516 50.8984 155.845 39.2984 155.845 39.2984L150.817 36.3984C150.817 36.3984 142.573 53.1984 141.064 55.9984Z" fill="#F04A23"/>
<path d="M145.991 58.9008L141.064 56.0008L141.165 55.9008L145.991 58.7008C150.315 51.2008 155.342 40.2008 155.845 39.3008L150.918 36.4008L151.018 36.3008L156.146 39.2008V39.3008C155.845 39.5008 150.516 51.0008 145.991 58.9008Z" fill="#D0D0D0"/>
<path d="M143.378 57.2991L143.277 57.1992C147.5 49.8992 153.131 37.8992 153.231 37.6992L153.332 37.7991C153.231 37.9991 147.601 49.9991 143.378 57.2991Z" fill="#D0D0D0"/>
<path d="M130.708 82C138.249 74.5 143.075 65 143.075 65L137.847 62C137.847 62 132.518 72 126.787 76.5L130.708 82Z" fill="#F04A23"/>
<path d="M130.81 81.9984L130.709 81.8984C137.848 74.7984 142.574 65.7984 143.076 64.9984L137.948 61.9984L138.049 61.8984L143.277 64.8984V64.9984C143.177 65.0984 138.351 74.5984 130.81 81.9984Z" fill="#D0D0D0"/>
<path d="M127.894 80.4008L127.793 80.3008C127.894 80.2008 136.842 71.4008 140.06 63.3008L140.16 63.4008C136.943 71.5008 127.994 80.3008 127.894 80.4008Z" fill="#D0D0D0"/>
<path d="M153.386 31.0977L153.258 31.3692L163.811 36.3096L163.939 36.0382L153.386 31.0977Z" fill="#D0D0D0"/>
<path d="M154.538 95.7984C154.438 95.7984 154.337 95.6984 154.438 95.5984C162.582 65.7984 164.09 30.8984 164.09 30.4984C164.09 30.3984 164.191 30.3984 164.291 30.3984C164.392 30.3984 164.392 30.4984 164.392 30.5984C164.392 30.8984 162.884 65.8984 154.74 95.6984C154.639 95.7984 154.639 95.7984 154.538 95.7984Z" fill="#D0D0D0"/>
<path d="M134.629 84.2016L134.529 84.1016L148.806 63.1016L160.57 34.6016L160.771 34.7016L149.007 63.2016L134.629 84.2016Z" fill="#D0D0D0"/>
<path d="M160.169 68.7016L148.908 63.3016V63.1016L160.27 68.6016L160.169 68.7016Z" fill="#D0D0D0"/>
<path d="M71.0861 54.2008L72.6948 21.5008L62.6403 15.8008L42.3301 37.7008L71.0861 54.2008Z" fill="#F04A23"/>
<path d="M49.6699 41.9008L67.0643 21.3008L60.8305 17.8008L42.3301 37.7008L49.6699 41.9008Z" fill="#F04A23"/>
<path d="M203.718 135.005L203.72 135.014C204 136.222 203.861 137.415 203.025 138.246C202.176 139.091 200.477 139.698 197.316 139.403L197.307 139.402C194.935 139.221 191.316 138.167 186.759 136.425C182.217 134.689 176.789 132.287 170.816 129.442C158.872 123.753 144.777 116.305 131.288 108.9C117.801 101.496 104.925 94.1392 95.421 88.6326C90.669 85.8794 86.7602 83.589 84.0394 81.9869C82.6791 81.1859 81.6158 80.557 80.8926 80.1284C80.531 79.9141 80.2545 79.7499 80.0684 79.6393L79.8578 79.514L79.806 79.4831L79.7775 79.4624L79.641 79.3635L79.1217 78.9868C78.6735 78.6615 78.0315 78.1952 77.2564 77.6312C75.7061 76.5033 73.6234 74.985 71.4938 73.423C69.364 71.8608 67.1882 70.2558 65.4511 68.9542C63.7014 67.6431 62.4297 66.664 62.0756 66.3358C52.9948 57.8003 41.114 43.2164 37.737 38.9456C37.7285 38.9164 37.7185 38.8682 37.7117 38.7932C37.7016 38.6826 37.7012 38.5564 37.7012 38.4012C37.7012 37.559 37.9936 36.6206 38.4871 35.7791C38.9783 34.9417 39.6442 34.242 40.35 33.8438C40.427 33.8063 40.528 33.7658 40.6537 33.7158L40.6644 33.7115C40.7163 33.6909 40.773 33.6683 40.8303 33.6445C44.2172 35.0199 53.4619 38.9327 61.9409 42.5363C66.2641 44.3737 70.3863 46.1299 73.4277 47.4267C74.9483 48.0751 76.1988 48.6087 77.0691 48.9802L78.0757 49.4099L78.3393 49.5225L78.4041 49.5501L184.047 109.233L184.049 109.234L184.053 109.236L184.059 109.24L184.097 109.262C184.131 109.282 184.182 109.313 184.247 109.352C184.379 109.431 184.573 109.548 184.816 109.699C185.304 110.002 185.993 110.439 186.798 110.979C188.409 112.06 190.474 113.545 192.31 115.173C195.69 118.239 201.336 123.852 203.718 135.005Z" fill="#EFEFEF" stroke="#E0E0E0"/>
<path d="M119.549 102.7C113.214 97.9 101.149 91.3 94.4125 82.3C84.9612 69.7 75.9121 50.1 86.4694 53.5L78.5263 49C78.5263 49 47.1561 35.6 40.7212 33C40.5201 33.1 40.2185 33.2 40.0174 33.3C38.4086 34.2 37.1016 36.4 37.1016 38.3C37.1016 38.6 37.1016 38.9 37.2021 39.1C40.5201 43.3 52.485 58 61.6346 66.6C63.1428 68 79.4312 79.8 79.4312 79.8C79.4312 79.8 97.6299 90.6 119.951 103.1C119.85 103.1 119.649 102.9 119.549 102.7Z" fill="#F04A23"/>
<path d="M66.8627 57.6992L10.0545 58.5991L0 52.8992V51.7991L38.1067 41.6992L66.8627 56.5991V57.6992Z" fill="#F04A23"/>
<path d="M56.0033 51.9991L9.65179 55.8992L3.41797 52.2991L38.1062 41.6992L56.0033 51.9991Z" fill="white"/>
<path d="M9.55193 56.1984L2.71484 52.2984L38.1069 41.3984L57.0094 52.1984L9.55193 56.1984ZM4.22302 52.3984L9.75302 55.5984L55.099 51.7984L38.1069 41.9984L4.22302 52.3984Z" fill="#18192E"/>
<path d="M66.8627 56.6016L10.0545 57.5016L0 51.8016L38.1067 40.1016L66.8627 56.6016Z" fill="#F04A23"/>
<path d="M45.446 44.3016L9.65179 54.3016L3.41797 50.7016L38.1062 40.1016L45.446 44.3016Z" fill="#F04A23"/>
<path d="M68.9739 50.3L59.5226 38.9L42.7315 5.3L33.5819 0L33.1797 0.2L42.5304 35.1L67.6668 50.8L68.9739 50.3Z" fill="#F04A23"/>
<path d="M48.764 38.6984L38.9106 4.99844L35.0898 2.89844L42.5302 35.0984L48.764 38.6984Z" fill="white"/>
<path d="M49.2666 39.4008L42.2284 35.4008L34.6875 2.30078L39.212 4.80078L49.2666 39.4008ZM42.8317 34.9008L48.3617 38.1008L38.7093 5.20078L35.5924 3.40078L42.8317 34.9008Z" fill="#18192E"/>
<path d="M67.6668 50.7992L58.3161 39.4993L42.3293 5.49922L33.1797 0.199219L41.3239 35.6993L67.6668 50.7992Z" fill="#F04A23"/>
<path d="M47.559 39.2984L37.7055 5.59844L33.8848 3.39844L41.3252 35.6984L47.559 39.2984Z" fill="#F04A23"/>
<path d="M137.849 111.7C137.849 111.7 51.9826 117.5 21.819 115.7L11.2617 109.6V108.9C11.2617 108.9 68.4721 100.6 81.8446 97.8C95.921 94.9 101.954 91.8 102.859 91.5L137.949 111L138.854 111.7H137.849Z" fill="#D0D0D0"/>
<path d="M77.8228 67.8985L77.2195 67.4985C76.9179 67.2985 76.7168 67.4985 76.7168 67.7985V69.5985C76.7168 69.8985 76.9179 70.3985 77.2195 70.4985L77.8228 70.8985C78.1244 71.0985 78.3255 70.8985 78.3255 70.5985V68.7985C78.426 68.4985 78.1244 68.0985 77.8228 67.8985Z" fill="#18192E"/>
<path d="M78.1234 71.0991C78.0229 71.0991 77.9223 71.0991 77.8218 70.9991L77.2185 70.5991C76.9169 70.3991 76.6152 69.9991 76.6152 69.5991V67.7992C76.6152 67.5992 76.7158 67.4992 76.8163 67.3992C76.9169 67.2992 77.1179 67.2992 77.319 67.3992L77.9223 67.7992C78.2239 67.9992 78.5256 68.3992 78.5256 68.7992V70.5991C78.5256 70.7991 78.425 70.8991 78.3245 70.9991C78.2239 70.9991 78.1234 71.0991 78.1234 71.0991ZM77.0174 67.5991H76.9169C76.8163 67.5991 76.8163 67.6992 76.8163 67.8992V69.6991C76.8163 69.9991 77.0174 70.3991 77.319 70.5991L77.9223 70.9991C78.0229 71.0991 78.1234 71.0991 78.2239 70.9991C78.3245 70.9991 78.3245 70.8991 78.3245 70.6991V68.8992C78.3245 68.5992 78.1234 68.1991 77.8218 67.9991L77.2185 67.5991C77.1179 67.5991 77.0174 67.5991 77.0174 67.5991Z" fill="#D0D0D0"/>
<path d="M81.0396 69.6993L80.4363 69.2993C80.1347 69.0993 79.9336 69.2993 79.9336 69.5993V71.3993C79.9336 71.6993 80.1347 72.1993 80.4363 72.2993L81.0396 72.6993C81.3412 72.8993 81.5423 72.6993 81.5423 72.3993V70.5993C81.5423 70.2993 81.2407 69.8993 81.0396 69.6993Z" fill="#18192E"/>
<path d="M81.2406 72.9C81.14 72.9 81.0395 72.9 80.9389 72.8L80.3357 72.4C80.034 72.2 79.7324 71.8 79.7324 71.4V69.6C79.7324 69.4 79.8329 69.3 79.9335 69.2C80.034 69.1 80.2351 69.1 80.4362 69.2L81.0395 69.6C81.3411 69.8 81.6428 70.2 81.6428 70.6V72.4C81.6428 72.6 81.5422 72.7 81.4417 72.8C81.3411 72.8 81.3411 72.9 81.2406 72.9ZM80.1346 69.3H80.034C79.9335 69.3 79.9335 69.4 79.9335 69.6V71.4C79.9335 71.7 80.1346 72.1 80.4362 72.3L81.0395 72.7C81.14 72.8 81.2406 72.8 81.3411 72.7C81.4417 72.7 81.4417 72.6 81.4417 72.4V70.6C81.4417 70.3 81.2406 69.9 80.9389 69.7L80.3357 69.3C80.2351 69.4 80.1346 69.3 80.1346 69.3Z" fill="#D0D0D0"/>
<path d="M84.1558 71.5L83.4519 71.1C83.1503 70.9 82.9492 71.1 82.9492 71.4V73.2C82.9492 73.5 83.1503 74 83.4519 74.1L84.0552 74.5C84.3568 74.7 84.5579 74.5 84.5579 74.2V72.4C84.6585 72.1 84.4574 71.7 84.1558 71.5Z" fill="#18192E"/>
<path d="M84.3578 74.7008C84.2572 74.7008 84.1567 74.7008 84.0561 74.6008L83.4529 74.2008C83.1512 74.0008 82.8496 73.6008 82.8496 73.2008V71.4008C82.8496 71.2008 82.9501 71.1008 83.0507 71.0008C83.1512 70.9008 83.3523 70.9008 83.5534 71.0008L84.1567 71.4008C84.4583 71.6008 84.76 72.0008 84.76 72.4008V74.2008C84.76 74.4008 84.6594 74.5008 84.5589 74.6008C84.4583 74.6008 84.4583 74.7008 84.3578 74.7008ZM83.2518 71.1008H83.1512C83.0507 71.1008 83.0507 71.2008 83.0507 71.4008V73.2008C83.0507 73.5008 83.2518 73.9008 83.5534 74.1008L84.1567 74.5008C84.2572 74.6008 84.3578 74.6008 84.4583 74.5008C84.5589 74.5008 84.5589 74.4008 84.5589 74.2008V72.4008C84.5589 72.1008 84.3578 71.7008 84.0561 71.5008L83.4529 71.2008C83.3523 71.2008 83.2518 71.1008 83.2518 71.1008Z" fill="#D0D0D0"/>
<path d="M87.274 73.3008L86.6707 72.9008C86.3691 72.7008 86.168 72.9008 86.168 73.2008V75.0008C86.168 75.3008 86.3691 75.8008 86.6707 75.9008L87.274 76.3008C87.5756 76.5008 87.7767 76.3008 87.7767 76.0008V74.2008C87.7767 73.9008 87.5756 73.5008 87.274 73.3008Z" fill="#18192E"/>
<path d="M87.475 76.5016C87.3745 76.5016 87.2739 76.5016 87.1734 76.4016L86.5701 76.0016C86.2685 75.8016 85.9668 75.4016 85.9668 75.0016V73.2016C85.9668 73.0016 86.0674 72.9016 86.1679 72.8016C86.2685 72.7016 86.4696 72.7016 86.6707 72.8016L87.2739 73.2016C87.5756 73.4016 87.8772 73.8016 87.8772 74.2016V76.0016C87.8772 76.2016 87.7767 76.3016 87.6761 76.4016C87.5756 76.4016 87.5756 76.5016 87.475 76.5016ZM86.369 72.9016H86.2685C86.1679 72.9016 86.1679 73.0016 86.1679 73.2016V75.0016C86.1679 75.3016 86.369 75.7016 86.6707 75.9016L87.2739 76.3016C87.3745 76.4016 87.475 76.4016 87.5756 76.3016C87.6761 76.3016 87.6761 76.2016 87.6761 76.0016V74.2016C87.6761 73.9016 87.475 73.5016 87.1734 73.3016L86.5701 73.0016C86.4696 73.0016 86.4696 72.9016 86.369 72.9016Z" fill="#D0D0D0"/>
<path d="M90.3912 75.1016L89.7879 74.7016C89.4863 74.5016 89.2852 74.7016 89.2852 75.0016V76.8016C89.2852 77.1016 89.4863 77.6016 89.7879 77.7016L90.3912 78.1016C90.6928 78.3016 90.8939 78.1016 90.8939 77.8016V76.0016C90.8939 75.7016 90.6928 75.3016 90.3912 75.1016Z" fill="#18192E"/>
<path d="M90.5921 78.2984C90.4916 78.2984 90.3911 78.2984 90.2905 78.1984L89.6872 77.7984C89.3856 77.5984 89.084 77.1984 89.084 76.7984V74.9984C89.084 74.7984 89.1845 74.6984 89.2851 74.5984C89.3856 74.4984 89.5867 74.4984 89.7878 74.5984L90.3911 74.9984C90.6927 75.1984 90.9943 75.5984 90.9943 75.9984V77.7984C90.9943 77.9984 90.8938 78.0984 90.7932 78.1984C90.7932 78.1984 90.6927 78.2984 90.5921 78.2984ZM89.4861 74.6984H89.3856C89.2851 74.6984 89.2851 74.7984 89.2851 74.9984V76.7984C89.2851 77.0984 89.4862 77.4984 89.7878 77.6984L90.3911 78.0984C90.4916 78.1984 90.5921 78.1984 90.6927 78.0984C90.7932 78.0984 90.7932 77.9984 90.7932 77.7984V75.9984C90.7932 75.6984 90.5922 75.2984 90.2905 75.0984L89.6872 74.6984C89.5867 74.7984 89.5867 74.6984 89.4861 74.6984Z" fill="#D0D0D0"/>
<path d="M93.5064 76.8985L92.9031 76.4985C92.6015 76.2985 92.4004 76.4985 92.4004 76.7985V78.5985C92.4004 78.8985 92.6015 79.3985 92.9031 79.4985L93.5064 79.8985C93.808 80.0985 94.0091 79.8985 94.0091 79.5985V77.7985C94.0091 77.4985 93.808 77.0985 93.5064 76.8985Z" fill="#18192E"/>
<path d="M93.7094 80.0016C93.6088 80.0016 93.5083 80.0016 93.4077 79.9016L92.8045 79.5016C92.5028 79.3016 92.2012 78.9016 92.2012 78.5016V76.7016C92.2012 76.5016 92.3017 76.4016 92.4023 76.3016C92.5028 76.2016 92.7039 76.2016 92.905 76.3016L93.5083 76.7016C93.8099 76.9016 94.1116 77.3016 94.1116 77.7016V79.5016C94.1116 79.7016 94.011 79.8016 93.9105 79.9016C93.9105 80.0016 93.8099 80.0016 93.7094 80.0016ZM92.6034 76.5016H92.5028C92.4023 76.5016 92.4023 76.6016 92.4023 76.8016V78.6016C92.4023 78.9016 92.6034 79.3016 92.905 79.5016L93.5083 79.9016C93.6088 80.0016 93.7094 80.0016 93.8099 79.9016C93.9105 79.9016 93.9105 79.8016 93.9105 79.6016V77.8016C93.9105 77.5016 93.7094 77.1016 93.4077 76.9016L92.8045 76.5016C92.8045 76.6016 92.7039 76.5016 92.6034 76.5016Z" fill="#D0D0D0"/>
<path d="M96.6236 78.6993L96.0203 78.2993C95.7187 78.0993 95.5176 78.2993 95.5176 78.5993V80.3993C95.5176 80.6993 95.7187 81.1993 96.0203 81.2993L96.6236 81.6993C96.9252 81.8993 97.1263 81.6993 97.1263 81.3993V79.5993C97.2269 79.2993 96.9252 78.8993 96.6236 78.6993Z" fill="#18192E"/>
<path d="M96.9261 81.7984C96.8256 81.7984 96.725 81.7984 96.6245 81.6984L96.0212 81.2984C95.7196 81.0984 95.418 80.6984 95.418 80.2984V78.4984C95.418 78.2984 95.5185 78.1984 95.619 78.0984C95.7196 77.9984 95.9207 77.9984 96.1218 78.0984L96.725 78.4984C97.0267 78.6984 97.3283 79.0984 97.3283 79.4984V81.2984C97.3283 81.4984 97.2278 81.5984 97.1272 81.6984C97.0267 81.7984 96.9261 81.7984 96.9261 81.7984ZM95.7196 78.2984H95.619C95.5185 78.2984 95.5185 78.3984 95.5185 78.5984V80.3984C95.5185 80.6984 95.7196 81.0984 96.0212 81.2984L96.6245 81.6984C96.725 81.7984 96.8256 81.7984 96.9261 81.6984C97.0267 81.6984 97.0267 81.5984 97.0267 81.3984V79.5984C97.0267 79.2984 96.8256 78.8984 96.524 78.6984L95.9207 78.2984C95.9207 78.3984 95.8201 78.2984 95.7196 78.2984Z" fill="#D0D0D0"/>
<path d="M99.7408 80.5L99.1375 80.1C98.8359 79.9 98.6348 80.1 98.6348 80.4V82.2C98.6348 82.5 98.8359 83 99.1375 83.1L99.7408 83.5C100.043 83.7 100.244 83.5 100.244 83.2V81.4C100.344 81.1 100.043 80.7 99.7408 80.5Z" fill="#18192E"/>
<path d="M100.043 83.5991C99.9428 83.5991 99.8423 83.5991 99.7417 83.4991L99.1385 83.0991C98.8368 82.8991 98.5352 82.4991 98.5352 82.0991V80.2992C98.5352 80.0992 98.6357 79.9992 98.7363 79.8992C98.8368 79.7992 99.0379 79.7992 99.239 79.8992L99.8423 80.2992C100.143 80.4992 100.445 80.8992 100.445 81.2992V83.0991C100.445 83.2991 100.344 83.3991 100.244 83.4991C100.143 83.5991 100.043 83.5991 100.043 83.5991ZM98.9374 80.0991H98.8368C98.7363 80.0991 98.7363 80.1992 98.7363 80.3992V82.1991C98.7363 82.4991 98.9374 82.8991 99.239 83.0991L99.8423 83.4991C99.9428 83.5991 100.043 83.5991 100.143 83.4991C100.244 83.4991 100.244 83.3991 100.244 83.1991V81.3992C100.244 81.0992 100.043 80.6991 99.7417 80.4991L99.1385 80.0991C99.0379 80.1991 98.9374 80.0991 98.9374 80.0991Z" fill="#D0D0D0"/>
<path d="M102.96 82.3008L102.356 81.9008C102.055 81.7008 101.854 81.9008 101.854 82.2008V84.0008C101.854 84.3008 102.055 84.8008 102.356 84.9008L102.96 85.3008C103.261 85.5008 103.462 85.3008 103.462 85.0008V83.2008C103.462 82.9008 103.161 82.5008 102.96 82.3008Z" fill="#18192E"/>
<path d="M103.16 85.4C103.059 85.4 102.959 85.4 102.858 85.3L102.255 84.9C101.953 84.7 101.652 84.3 101.652 83.9V82.1C101.652 81.9 101.752 81.8 101.853 81.7C101.953 81.6 102.154 81.6 102.355 81.7L102.959 82.1C103.26 82.3 103.562 82.7 103.562 83.1V85C103.562 85.2 103.461 85.3 103.361 85.4C103.26 85.4 103.26 85.4 103.16 85.4ZM102.054 81.9H101.953C101.853 81.9 101.853 82 101.853 82.2V84C101.853 84.3 102.054 84.7 102.355 84.9L102.959 85.3C103.059 85.4 103.16 85.4 103.26 85.3C103.361 85.3 103.361 85.2 103.361 85V83.2C103.361 82.9 103.16 82.5 102.858 82.3L102.255 81.9C102.154 82 102.054 81.9 102.054 81.9Z" fill="#D0D0D0"/>
<path d="M106.075 84.1016L105.472 83.7016C105.171 83.5016 104.969 83.7016 104.969 84.0016V85.8016C104.969 86.1016 105.171 86.6016 105.472 86.7016L106.075 87.1016C106.377 87.3016 106.578 87.1016 106.578 86.8016V85.0016C106.578 84.7016 106.377 84.3016 106.075 84.1016Z" fill="#18192E"/>
<path d="M106.277 87.1984C106.176 87.1984 106.076 87.1984 105.975 87.0984L105.372 86.6984C105.07 86.4984 104.768 86.0984 104.768 85.6984V83.9984C104.768 83.7984 104.869 83.6984 104.97 83.5984C105.07 83.4984 105.271 83.4984 105.472 83.5984L106.076 83.9984C106.377 84.1984 106.679 84.5984 106.679 84.9984V86.7984C106.679 86.9984 106.578 87.0984 106.478 87.1984C106.377 87.1984 106.377 87.1984 106.277 87.1984ZM105.171 83.6984H105.07C104.97 83.6984 104.97 83.7984 104.97 83.9984V85.7984C104.97 86.0984 105.171 86.4984 105.472 86.6984L106.076 87.0984C106.176 87.1984 106.277 87.1984 106.377 87.0984C106.478 87.0984 106.478 86.9984 106.478 86.7984V84.9984C106.478 84.6984 106.277 84.2984 105.975 84.0984L105.372 83.6984C105.271 83.7984 105.171 83.6984 105.171 83.6984Z" fill="#D0D0D0"/>
<path d="M109.192 85.8985L108.589 85.4985C108.288 85.2985 108.086 85.4985 108.086 85.7985V87.5985C108.086 87.8985 108.288 88.3985 108.589 88.4985L109.192 88.8985C109.494 89.0985 109.695 88.8985 109.695 88.5985V86.7985C109.695 86.4985 109.494 86.0985 109.192 85.8985Z" fill="#18192E"/>
<path d="M109.394 89.0016C109.293 89.0016 109.193 89.0016 109.092 88.9016L108.489 88.5016C108.187 88.3016 107.885 87.9016 107.885 87.5016V85.7016C107.885 85.5016 107.986 85.4016 108.087 85.3016C108.187 85.2016 108.388 85.2016 108.589 85.3016L109.193 85.7016C109.494 85.9016 109.796 86.3016 109.796 86.7016V88.5016C109.796 88.7016 109.695 88.8016 109.595 88.9016C109.494 89.0016 109.494 89.0016 109.394 89.0016ZM108.288 85.5016H108.187C108.087 85.5016 108.087 85.6016 108.087 85.8016V87.6016C108.087 87.9016 108.288 88.3016 108.589 88.5016L109.193 88.9016C109.293 89.0016 109.394 89.0016 109.494 88.9016C109.595 88.9016 109.595 88.8016 109.595 88.6016V86.8016C109.595 86.5016 109.394 86.1016 109.092 85.9016L108.489 85.5016C108.388 85.6016 108.388 85.5016 108.288 85.5016Z" fill="#D0D0D0"/>
<path d="M112.309 87.6993L111.706 87.2993C111.404 87.0993 111.203 87.2993 111.203 87.5993V89.3993C111.203 89.6993 111.404 90.1993 111.706 90.2993L112.309 90.6993C112.611 90.8993 112.812 90.6993 112.812 90.3993V88.5993C112.812 88.2993 112.611 87.8993 112.309 87.6993Z" fill="#18192E"/>
<path d="M112.51 90.7984C112.41 90.7984 112.309 90.7984 112.209 90.6984L111.606 90.2984C111.304 90.0984 111.002 89.6984 111.002 89.2984V87.4984C111.002 87.2984 111.103 87.1984 111.203 87.0984C111.304 86.9984 111.505 86.9984 111.706 87.0984L112.309 87.4984C112.611 87.6984 112.913 88.0984 112.913 88.4984V90.2984C112.913 90.4984 112.812 90.5984 112.712 90.6984C112.712 90.7984 112.611 90.7984 112.51 90.7984ZM111.404 87.2984H111.304C111.203 87.2984 111.203 87.3984 111.203 87.5984V89.3984C111.203 89.6984 111.404 90.0984 111.706 90.2984L112.309 90.6984C112.41 90.7984 112.51 90.7984 112.611 90.6984C112.712 90.6984 112.712 90.5984 112.712 90.3984V88.5984C112.712 88.2984 112.51 87.8984 112.209 87.6984L111.606 87.2984C111.505 87.2984 111.505 87.2984 111.404 87.2984Z" fill="#D0D0D0"/>
<path d="M115.426 89.5L114.823 89.1C114.521 88.9 114.32 89.1 114.32 89.4V91.2C114.32 91.5 114.521 92 114.823 92.1L115.426 92.5C115.728 92.7 115.929 92.5 115.929 92.2V90.4C115.929 90.1 115.728 89.7 115.426 89.5Z" fill="#18192E"/>
<path d="M115.627 92.5992C115.527 92.5992 115.426 92.5992 115.326 92.4992L114.723 92.0992C114.421 91.8992 114.119 91.4992 114.119 91.0992V89.2992C114.119 89.0992 114.22 88.9992 114.32 88.8992C114.421 88.7992 114.622 88.7992 114.823 88.8992L115.426 89.2992C115.728 89.4992 116.03 89.8992 116.03 90.2992V92.0992C116.03 92.2992 115.929 92.3992 115.829 92.4992C115.829 92.5992 115.728 92.5992 115.627 92.5992ZM114.521 89.0992H114.421C114.32 89.0992 114.32 89.1992 114.32 89.3992V91.1992C114.32 91.4992 114.521 91.8992 114.823 92.0992L115.426 92.4992C115.527 92.5992 115.627 92.5992 115.728 92.4992C115.829 92.4992 115.829 92.3992 115.829 92.1992V90.3992C115.829 90.0992 115.627 89.6992 115.326 89.4992L114.723 89.0992C114.723 89.0992 114.622 89.0992 114.521 89.0992Z" fill="#D0D0D0"/>
<path d="M118.544 91.3008L117.941 90.9008C117.639 90.7008 117.438 90.9008 117.438 91.2008V93.0008C117.438 93.3008 117.639 93.8008 117.941 93.9008L118.544 94.3008C118.846 94.5008 119.047 94.3008 119.047 94.0008V92.2008C119.147 91.9008 118.846 91.5008 118.544 91.3008Z" fill="#18192E"/>
<path d="M118.846 94.4C118.745 94.4 118.645 94.4 118.544 94.3L117.941 93.9C117.639 93.7 117.338 93.3 117.338 92.9V91.1C117.338 90.9 117.438 90.8 117.539 90.7C117.639 90.6 117.84 90.6 118.042 90.7L118.645 91.1C118.946 91.3 119.248 91.7 119.248 92.1V94C119.248 94.2 119.148 94.3 119.047 94.4C118.946 94.4 118.846 94.4 118.846 94.4ZM117.639 90.9H117.539C117.438 90.9 117.438 91 117.438 91.2V93C117.438 93.3 117.639 93.7 117.941 93.9L118.544 94.3C118.645 94.4 118.745 94.4 118.846 94.3C118.946 94.3 118.946 94.2 118.946 94V92.2C118.946 91.9 118.745 91.5 118.444 91.3L117.84 90.9C117.84 90.9 117.74 90.9 117.639 90.9Z" fill="#D0D0D0"/>
<path d="M121.661 93.1016L121.058 92.7016C120.756 92.5016 120.555 92.7016 120.555 93.0016V94.8016C120.555 95.1016 120.756 95.6016 121.058 95.7016L121.661 96.1016C121.963 96.3016 122.164 96.1016 122.164 95.8016V94.0016C122.264 93.7016 121.963 93.3016 121.661 93.1016Z" fill="#18192E"/>
<path d="M121.961 96.1984C121.86 96.1984 121.76 96.1984 121.659 96.0984L121.056 95.6984C120.754 95.4984 120.453 95.0984 120.453 94.6984V92.9984C120.453 92.7984 120.553 92.6984 120.654 92.5984C120.754 92.4984 120.955 92.4984 121.156 92.5984L121.76 92.9984C122.061 93.1984 122.363 93.5984 122.363 93.9984V95.7984C122.363 95.9984 122.262 96.0984 122.162 96.1984C122.061 96.1984 121.961 96.1984 121.961 96.1984ZM120.855 92.6984H120.754C120.654 92.6984 120.654 92.7984 120.654 92.9984V94.7984C120.654 95.0984 120.855 95.4984 121.156 95.6984L121.76 96.0984C121.86 96.1984 121.961 96.1984 122.061 96.0984C122.162 96.0984 122.162 95.9984 122.162 95.7984V93.9984C122.162 93.6984 121.961 93.2984 121.659 93.0984L121.056 92.6984C120.955 92.6984 120.855 92.6984 120.855 92.6984Z" fill="#D0D0D0"/>
<path d="M124.877 94.8985L124.274 94.4985C123.973 94.2985 123.771 94.4985 123.771 94.7985V96.5985C123.771 96.8985 123.973 97.3985 124.274 97.4985L124.877 97.8985C125.179 98.0985 125.38 97.8985 125.38 97.5985V95.7985C125.38 95.4985 125.079 95.0985 124.877 94.8985Z" fill="#18192E"/>
<path d="M125.079 98.0016C124.978 98.0016 124.877 98.0016 124.777 97.9016L124.174 97.5016C123.872 97.3016 123.57 96.9016 123.57 96.5016V94.7016C123.57 94.5016 123.671 94.4016 123.771 94.3016C123.872 94.2016 124.073 94.2016 124.274 94.3016L124.877 94.7016C125.179 94.9016 125.481 95.3016 125.481 95.7016V97.5016C125.481 97.7016 125.38 97.8016 125.28 97.9016C125.179 98.0016 125.179 98.0016 125.079 98.0016ZM123.973 94.5016H123.872C123.771 94.5016 123.771 94.6016 123.771 94.8016V96.6016C123.771 96.9016 123.973 97.3016 124.274 97.5016L124.877 97.9016C124.978 98.0016 125.079 98.0016 125.179 97.9016C125.28 97.9016 125.28 97.8016 125.28 97.6016V95.8016C125.28 95.5016 125.079 95.1016 124.777 94.9016L124.174 94.5016C124.073 94.5016 123.973 94.5016 123.973 94.5016Z" fill="#D0D0D0"/>
<path d="M127.995 96.6993L127.392 96.2993C127.091 96.0993 126.889 96.2993 126.889 96.5993V98.3993C126.889 98.6993 127.091 99.1993 127.392 99.2993L127.995 99.6993C128.297 99.8993 128.498 99.6993 128.498 99.3993V97.5993C128.498 97.2993 128.297 96.8993 127.995 96.6993Z" fill="#18192E"/>
<path d="M128.197 99.7984C128.096 99.7984 127.996 99.7984 127.895 99.6984L127.292 99.2984C126.99 99.0984 126.688 98.6984 126.688 98.2984V96.4984C126.688 96.2984 126.789 96.1984 126.89 96.0984C126.99 95.9984 127.191 95.9984 127.392 96.0984L127.996 96.4984C128.297 96.6984 128.599 97.0984 128.599 97.4984V99.2984C128.599 99.4984 128.498 99.5984 128.398 99.6984C128.297 99.7984 128.297 99.7984 128.197 99.7984ZM127.09 96.2984H126.99C126.89 96.2984 126.89 96.3984 126.89 96.5984V98.3984C126.89 98.6984 127.091 99.0984 127.392 99.2984L127.996 99.6984C128.096 99.7984 128.197 99.7984 128.297 99.6984C128.398 99.6984 128.398 99.5984 128.398 99.3984V97.5984C128.398 97.2984 128.197 96.8984 127.895 96.6984L127.292 96.2984C127.191 96.2984 127.09 96.2984 127.09 96.2984Z" fill="#D0D0D0"/>
<path d="M131.112 98.5L130.509 98.1C130.207 97.9 130.006 98.1 130.006 98.4V100.2C130.006 100.5 130.207 101 130.509 101.1L131.112 101.5C131.414 101.7 131.615 101.5 131.615 101.2V99.4C131.615 99.1 131.414 98.7 131.112 98.5Z" fill="#18192E"/>
<path d="M131.314 101.599C131.213 101.599 131.112 101.599 131.012 101.499L130.409 101.099C130.107 100.899 129.805 100.499 129.805 100.099V98.2992C129.805 98.0992 129.906 97.9992 130.006 97.8992C130.107 97.7992 130.308 97.7992 130.509 97.8992L131.112 98.2992C131.414 98.4992 131.716 98.8992 131.716 99.2992V101.099C131.716 101.299 131.615 101.399 131.515 101.499C131.414 101.599 131.414 101.599 131.314 101.599ZM130.207 98.0992H130.107C130.006 98.0992 130.006 98.1992 130.006 98.3992V100.199C130.006 100.499 130.207 100.899 130.509 101.099L131.112 101.499C131.213 101.599 131.313 101.599 131.414 101.499C131.515 101.499 131.515 101.399 131.515 101.199V99.3992C131.515 99.0992 131.313 98.6992 131.012 98.4992L130.409 98.0992C130.308 98.0992 130.308 98.0992 130.207 98.0992Z" fill="#D0D0D0"/>
<path d="M134.227 100.301L133.624 99.9008C133.322 99.7008 133.121 99.9008 133.121 100.201V102.001C133.121 102.301 133.322 102.801 133.624 102.901L134.227 103.301C134.529 103.501 134.73 103.301 134.73 103.001V101.201C134.73 100.901 134.529 100.501 134.227 100.301Z" fill="#18192E"/>
<path d="M134.43 103.4C134.33 103.4 134.229 103.4 134.129 103.3L133.525 102.9C133.224 102.7 132.922 102.3 132.922 101.9V100.1C132.922 99.9 133.023 99.8 133.123 99.7C133.224 99.6 133.425 99.6 133.626 99.7L134.229 100.1C134.531 100.3 134.833 100.7 134.833 101.1V102.9C134.833 103.1 134.732 103.2 134.631 103.3C134.631 103.4 134.531 103.4 134.43 103.4ZM133.324 99.9H133.224C133.123 99.9 133.123 100 133.123 100.2V102C133.123 102.3 133.324 102.7 133.626 102.9L134.229 103.3C134.33 103.4 134.43 103.4 134.531 103.3C134.631 103.3 134.631 103.2 134.631 103V101.2C134.631 100.9 134.43 100.5 134.129 100.3L133.525 99.9C133.425 99.9 133.425 99.9 133.324 99.9Z" fill="#D0D0D0"/>
<path d="M137.344 102.102L136.741 101.702C136.439 101.502 136.238 101.702 136.238 102.002V103.802C136.238 104.102 136.439 104.602 136.741 104.702L137.344 105.102C137.646 105.302 137.847 105.102 137.847 104.802V103.002C137.847 102.702 137.646 102.302 137.344 102.102Z" fill="#18192E"/>
<path d="M137.545 105.198C137.445 105.198 137.344 105.198 137.244 105.098L136.64 104.698C136.339 104.498 136.037 104.098 136.037 103.698V101.998C136.037 101.798 136.138 101.698 136.238 101.598C136.339 101.498 136.54 101.498 136.741 101.598L137.344 101.998C137.646 102.198 137.948 102.598 137.948 102.998V104.798C137.948 104.998 137.847 105.098 137.746 105.198C137.746 105.198 137.646 105.198 137.545 105.198ZM136.439 101.698H136.339C136.238 101.698 136.238 101.798 136.238 101.998V103.798C136.238 104.098 136.439 104.498 136.741 104.698L137.344 105.098C137.445 105.198 137.545 105.198 137.646 105.098C137.746 105.098 137.746 104.998 137.746 104.798V102.998C137.746 102.698 137.545 102.298 137.244 102.098L136.64 101.698C136.64 101.698 136.54 101.698 136.439 101.698Z" fill="#D0D0D0"/>
<path d="M140.461 103.898L139.858 103.498C139.556 103.298 139.355 103.498 139.355 103.798V105.598C139.355 105.898 139.556 106.398 139.858 106.498L140.461 106.898C140.763 107.098 140.964 106.898 140.964 106.598V104.798C141.064 104.498 140.763 103.998 140.461 103.898Z" fill="#18192E"/>
<path d="M140.764 107.002C140.663 107.002 140.563 107.002 140.462 106.902L139.859 106.502C139.557 106.302 139.256 105.902 139.256 105.502V103.702C139.256 103.502 139.356 103.402 139.457 103.302C139.557 103.202 139.758 103.202 139.959 103.302L140.563 103.702C140.864 103.902 141.166 104.302 141.166 104.702V106.502C141.166 106.702 141.065 106.802 140.965 106.902C140.864 107.002 140.764 107.002 140.764 107.002ZM139.557 103.502H139.457C139.356 103.502 139.356 103.602 139.356 103.802V105.602C139.356 105.902 139.557 106.302 139.859 106.502L140.462 106.902C140.563 107.002 140.663 107.002 140.764 106.902C140.864 106.902 140.864 106.802 140.864 106.602V104.802C140.864 104.502 140.663 104.102 140.362 103.902L139.758 103.502C139.758 103.502 139.658 103.502 139.557 103.502Z" fill="#D0D0D0"/>
<path d="M143.579 105.699L142.976 105.299C142.674 105.099 142.473 105.299 142.473 105.599V107.399C142.473 107.699 142.674 108.199 142.976 108.299L143.579 108.699C143.881 108.899 144.082 108.699 144.082 108.399V106.599C144.182 106.299 143.881 105.799 143.579 105.699Z" fill="#18192E"/>
<path d="M143.88 108.798C143.779 108.798 143.679 108.798 143.578 108.698L142.975 108.298C142.673 108.098 142.371 107.698 142.371 107.298V105.498C142.371 105.298 142.472 105.198 142.573 105.098C142.673 104.998 142.874 104.998 143.075 105.098L143.679 105.498C143.98 105.698 144.282 106.098 144.282 106.498V108.298C144.282 108.498 144.181 108.598 144.081 108.698C143.98 108.798 143.88 108.798 143.88 108.798ZM142.774 105.298H142.673C142.573 105.298 142.573 105.398 142.573 105.598V107.398C142.573 107.698 142.774 108.098 143.075 108.298L143.679 108.698C143.779 108.798 143.88 108.798 143.98 108.698C144.081 108.698 144.081 108.598 144.081 108.398V106.598C144.081 106.298 143.88 105.898 143.578 105.698L142.975 105.298C142.874 105.298 142.774 105.298 142.774 105.298Z" fill="#D0D0D0"/>
<path d="M146.696 107.5L146.093 107.1C145.791 106.9 145.59 107.1 145.59 107.4V109.2C145.59 109.5 145.791 110 146.093 110.1L146.696 110.5C146.998 110.7 147.199 110.5 147.199 110.2V108.4C147.299 108.1 146.998 107.6 146.696 107.5Z" fill="#18192E"/>
<path d="M146.997 110.599C146.896 110.599 146.796 110.599 146.695 110.499L146.092 110.099C145.79 109.899 145.488 109.499 145.488 109.099V107.299C145.488 107.099 145.589 106.999 145.69 106.899C145.79 106.799 145.991 106.799 146.192 106.899L146.796 107.299C147.097 107.499 147.399 107.899 147.399 108.299V110.099C147.399 110.299 147.298 110.399 147.198 110.499C147.097 110.599 146.997 110.599 146.997 110.599ZM145.891 107.099H145.79C145.69 107.099 145.69 107.199 145.69 107.399V109.199C145.69 109.499 145.891 109.899 146.192 110.099L146.796 110.499C146.896 110.599 146.997 110.599 147.097 110.499C147.198 110.499 147.198 110.399 147.198 110.199V108.399C147.198 108.099 146.997 107.699 146.695 107.499L146.092 107.099C145.991 107.099 145.891 107.099 145.891 107.099Z" fill="#D0D0D0"/>
<path d="M149.913 109.301L149.31 108.901C149.008 108.701 148.807 108.901 148.807 109.201V111.001C148.807 111.301 149.008 111.801 149.31 111.901L149.913 112.301C150.215 112.501 150.416 112.301 150.416 112.001V110.201C150.416 109.901 150.215 109.401 149.913 109.301Z" fill="#18192E"/>
<path d="M150.113 112.4C150.013 112.4 149.912 112.4 149.812 112.3L149.209 111.9C148.907 111.7 148.605 111.3 148.605 110.9V109.1C148.605 108.9 148.706 108.8 148.806 108.7C148.907 108.6 149.108 108.6 149.309 108.7L149.912 109.1C150.214 109.3 150.516 109.7 150.516 110.1V111.9C150.516 112.1 150.415 112.2 150.315 112.3C150.214 112.4 150.214 112.4 150.113 112.4ZM149.007 108.9H148.907C148.806 108.9 148.806 109 148.806 109.2V111C148.806 111.3 149.007 111.7 149.309 111.9L149.912 112.3C150.013 112.4 150.113 112.4 150.214 112.3C150.315 112.3 150.315 112.2 150.315 112V110.2C150.315 109.9 150.113 109.5 149.812 109.3L149.209 108.9C149.108 108.9 149.007 108.9 149.007 108.9Z" fill="#D0D0D0"/>
<path d="M153.03 111.102L152.427 110.702C152.125 110.502 151.924 110.702 151.924 111.002V112.802C151.924 113.102 152.125 113.602 152.427 113.702L153.03 114.102C153.332 114.302 153.533 114.102 153.533 113.802V112.002C153.533 111.702 153.332 111.202 153.03 111.102Z" fill="#18192E"/>
<path d="M153.231 114.198C153.131 114.198 153.03 114.198 152.93 114.098L152.326 113.698C152.025 113.498 151.723 113.098 151.723 112.698V110.998C151.723 110.798 151.824 110.698 151.924 110.598C152.025 110.498 152.226 110.498 152.427 110.598L153.03 110.998C153.332 111.198 153.634 111.598 153.634 111.998V113.798C153.634 113.998 153.533 114.098 153.433 114.198C153.332 114.198 153.332 114.198 153.231 114.198ZM152.125 110.698H152.025C151.924 110.698 151.924 110.798 151.924 110.998V112.798C151.924 113.098 152.125 113.498 152.427 113.698L153.03 114.098C153.131 114.198 153.231 114.198 153.332 114.098C153.432 114.098 153.433 113.998 153.433 113.798V111.998C153.433 111.698 153.231 111.298 152.93 111.098L152.326 110.698C152.226 110.698 152.226 110.698 152.125 110.698Z" fill="#D0D0D0"/>
<path d="M156.147 112.898L155.544 112.498C155.242 112.298 155.041 112.498 155.041 112.798V114.598C155.041 114.898 155.242 115.398 155.544 115.498L156.147 115.898C156.449 116.098 156.65 115.898 156.65 115.598V113.798C156.65 113.498 156.449 112.998 156.147 112.898Z" fill="#18192E"/>
<path d="M156.348 116.002C156.248 116.002 156.147 116.002 156.047 115.902L155.443 115.502C155.142 115.302 154.84 114.902 154.84 114.502V112.702C154.84 112.502 154.941 112.402 155.041 112.302C155.142 112.202 155.343 112.202 155.544 112.302L156.147 112.702C156.449 112.902 156.751 113.302 156.751 113.702V115.502C156.751 115.702 156.65 115.802 156.549 115.902C156.549 116.002 156.449 116.002 156.348 116.002ZM155.242 112.502H155.142C155.041 112.502 155.041 112.602 155.041 112.802V114.602C155.041 114.902 155.242 115.302 155.544 115.502L156.147 115.902C156.248 116.002 156.348 116.002 156.449 115.902C156.549 115.902 156.549 115.802 156.549 115.602V113.802C156.549 113.502 156.348 113.102 156.047 112.902L155.443 112.502C155.343 112.502 155.343 112.502 155.242 112.502Z" fill="#D0D0D0"/>
<path d="M159.264 114.699L158.661 114.299C158.359 114.099 158.158 114.299 158.158 114.599V116.399C158.158 116.699 158.359 117.199 158.661 117.299L159.264 117.699C159.566 117.899 159.767 117.699 159.767 117.399V115.599C159.767 115.199 159.566 114.799 159.264 114.699Z" fill="#18192E"/>
<path d="M159.465 117.798C159.365 117.798 159.264 117.798 159.164 117.698L158.56 117.298C158.259 117.098 157.957 116.698 157.957 116.298V114.498C157.957 114.298 158.058 114.198 158.158 114.098C158.259 113.998 158.46 113.998 158.661 114.098L159.264 114.498C159.566 114.698 159.867 115.098 159.867 115.498V117.298C159.867 117.498 159.767 117.598 159.666 117.698C159.666 117.798 159.566 117.798 159.465 117.798ZM158.359 114.298H158.259C158.158 114.298 158.158 114.398 158.158 114.598V116.398C158.158 116.698 158.359 117.098 158.661 117.298L159.264 117.698C159.365 117.798 159.465 117.798 159.566 117.698C159.666 117.698 159.666 117.598 159.666 117.398V115.598C159.666 115.298 159.465 114.898 159.164 114.698L158.56 114.298C158.46 114.298 158.46 114.298 158.359 114.298Z" fill="#D0D0D0"/>
<path d="M162.381 116.5L161.778 116.1C161.476 115.9 161.275 116.1 161.275 116.4V118.2C161.275 118.5 161.476 119 161.778 119.1L162.381 119.5C162.683 119.7 162.884 119.5 162.884 119.2V117.4C162.984 117 162.683 116.6 162.381 116.5Z" fill="#18192E"/>
<path d="M162.683 119.599C162.582 119.599 162.482 119.599 162.381 119.499L161.778 119.099C161.476 118.899 161.174 118.499 161.174 118.099V116.299C161.174 116.099 161.275 115.999 161.376 115.899C161.476 115.799 161.677 115.799 161.878 115.899L162.482 116.299C162.783 116.499 163.085 116.899 163.085 117.299V119.099C163.085 119.299 162.984 119.399 162.884 119.499C162.783 119.599 162.683 119.599 162.683 119.599ZM161.476 116.099H161.376C161.275 116.099 161.275 116.199 161.275 116.399V118.199C161.275 118.499 161.476 118.899 161.778 119.099L162.381 119.499C162.482 119.599 162.582 119.599 162.683 119.499C162.783 119.499 162.783 119.399 162.783 119.199V117.399C162.783 117.099 162.582 116.699 162.28 116.499L161.677 116.099C161.677 116.099 161.577 116.099 161.476 116.099Z" fill="#D0D0D0"/>
<path d="M168.112 126.202C167.911 126.202 167.71 126.102 167.509 126.002L166.101 125.202C165.397 124.802 164.895 123.902 164.895 123.102V119.202C164.895 118.802 164.995 118.502 165.297 118.402C165.498 118.302 165.9 118.302 166.202 118.502L167.609 119.302C168.313 119.702 168.816 120.602 168.816 121.402V125.302C168.816 125.702 168.715 126.002 168.414 126.102C168.313 126.202 168.213 126.202 168.112 126.202ZM165.598 118.502C165.498 118.502 165.397 118.502 165.297 118.602C165.096 118.702 164.995 119.002 164.995 119.302V123.202C164.995 123.902 165.498 124.802 166.101 125.202L167.509 126.002C167.81 126.202 168.112 126.202 168.313 126.102C168.514 126.002 168.615 125.702 168.615 125.402V121.502C168.615 120.802 168.112 119.902 167.509 119.502L166.101 118.702C165.9 118.602 165.8 118.502 165.598 118.502Z" fill="#D0D0D0"/>
<path d="M74.4029 72.7016C74.2018 72.7016 74.0008 72.6016 73.7997 72.5016L72.392 71.7016C71.6882 71.3016 71.1855 70.4016 71.1855 69.6016V65.7016C71.1855 65.3016 71.286 65.0016 71.5877 64.9016C71.7887 64.8016 72.1909 64.8016 72.4926 65.0016L73.9002 65.8016C74.604 66.2016 75.1067 67.1016 75.1067 67.9016V71.8016C75.1067 72.2016 75.0062 72.5016 74.7046 72.6016C74.604 72.7016 74.5035 72.7016 74.4029 72.7016ZM71.8893 65.0016C71.7887 65.0016 71.6882 65.0016 71.5877 65.1016C71.3866 65.2016 71.286 65.5016 71.286 65.8016V69.7016C71.286 70.4016 71.7887 71.3016 72.392 71.7016L73.7997 72.5016C74.1013 72.7016 74.4029 72.7016 74.604 72.6016C74.8051 72.5016 74.9057 72.2016 74.9057 71.9016V68.0016C74.9057 67.3016 74.4029 66.4016 73.7997 66.0016L72.392 65.1016C72.1909 65.0016 71.9898 65.0016 71.8893 65.0016Z" fill="#D0D0D0"/>
<path d="M194.958 131.299C192.142 131.299 189.025 130.699 186.21 129.599L185.305 125.899C187.618 126.599 189.93 126.899 192.042 126.899C194.354 126.899 196.265 126.499 197.672 125.699C198.778 125.099 199.482 124.199 199.683 123.199C200.689 124.799 201.493 126.599 202.197 128.399C201.895 128.999 201.292 129.599 200.488 130.099C199.08 130.899 197.17 131.299 194.958 131.299Z" fill="#18192E"/>
<path d="M199.683 123.4C200.588 125 201.393 126.6 202.096 128.4C201.795 129.1 201.192 129.6 200.387 130.1C199.08 130.9 197.17 131.3 194.857 131.3C192.142 131.3 189.026 130.7 186.11 129.6L185.305 126.1C187.517 126.8 189.83 127.1 191.941 127.1C194.254 127.1 196.265 126.7 197.572 125.9C198.678 125.2 199.382 124.4 199.683 123.4ZM199.583 123C199.382 124 198.778 125 197.572 125.7C196.164 126.5 194.153 126.9 191.941 126.9C189.83 126.9 187.417 126.5 185.104 125.8L186.009 129.6C188.925 130.7 192.142 131.4 194.857 131.4C197.069 131.4 199.08 131 200.488 130.2C201.393 129.7 201.895 129.1 202.297 128.4C201.493 126.4 200.588 124.6 199.583 123Z" fill="#D0D0D0"/>
<path d="M137.849 111.001C137.849 111.001 51.9826 116.801 21.819 115.001L11.2617 108.901C11.2617 108.901 67.7682 100.001 81.8446 97.1008C95.921 94.2008 101.954 91.1008 102.859 90.8008L137.849 111.001Z" fill="#EFEFEF"/>
<path d="M63.7452 100.398L68.6719 103.198C54.8972 105.798 34.6875 108.898 34.6875 108.898L29.6602 105.998C29.6602 105.998 58.2152 101.298 63.7452 100.398Z" fill="#F04A23"/>
<path d="M34.6875 108.898L29.6602 105.998L29.7608 105.898L34.7881 108.798C35.5924 108.698 55.0982 105.698 68.5713 103.198L63.8457 100.498L63.9462 100.398L69.0741 103.298H68.873C55.0982 105.798 34.8886 108.898 34.6875 108.898Z" fill="#8D8D8D"/>
<path d="M32.0742 107.402V107.302C32.2753 107.302 53.1888 104.002 65.958 101.602V101.702C53.2893 104.102 32.3758 107.402 32.0742 107.402Z" fill="#8D8D8D"/>
<path d="M74.2031 98.5984L79.4315 101.598C79.4315 101.598 95.921 98.8984 109.093 94.4984L102.859 90.8984C102.758 90.8984 94.1111 95.0984 74.2031 98.5984Z" fill="#F04A23"/>
<path d="M79.4315 101.598L74.2031 98.5984L74.3037 98.4984L79.4315 101.498C80.2359 101.398 96.3231 98.5984 108.992 94.3984V94.4984C96.1221 98.7984 79.6326 101.598 79.4315 101.598Z" fill="#8D8D8D"/>
<path d="M76.5156 99.8992V99.7992C90.6925 97.8992 106.076 92.7992 106.177 92.6992V92.7992C106.076 92.8992 90.6925 97.9992 76.5156 99.8992Z" fill="#8D8D8D"/>
<path d="M20.7661 107.281L20.5918 107.526L29.2075 113.594L29.3819 113.349L20.7661 107.281Z" fill="#8D8D8D"/>
<path d="M19.5049 113.8C19.4043 113.8 19.4043 113.7 19.4043 113.7C19.4043 113.6 19.5049 113.6 19.5049 113.5C20.1081 113.5 80.9381 112.6 132.82 108C132.92 108 133.021 108.1 133.021 108.1C133.021 108.2 132.92 108.3 132.92 108.3C81.0387 112.9 20.1081 113.8 19.5049 113.8Z" fill="#8D8D8D"/>
<path d="M26.6445 111.702V111.602L76.3139 104.802L112.812 96.6016L112.913 96.7016L76.3139 104.902L26.6445 111.702Z" fill="#8D8D8D"/>
<path d="M85.8652 111.401L76.2129 104.901L76.3134 104.801L85.9658 111.301L85.8652 111.401Z" fill="#8D8D8D"/>
<path d="M11.3607 108.901L9.75195 95.6016L11.5618 96.7016L18.1978 112.801L11.3607 108.901Z" fill="#F04A23"/>
<path d="M11.3607 109.699L9.75195 122.899L11.5618 123.899L18.3989 113.699L11.3607 109.699Z" fill="#F04A23"/>
<path d="M107.784 120.801C107.985 121.201 108.186 121.801 108.186 122.401C108.186 124.701 106.577 127.401 104.667 128.501C103.862 128.901 103.159 129.101 102.656 128.901C103.259 129.901 104.466 130.101 105.773 129.301C107.683 128.201 109.292 125.401 109.292 123.201C109.292 121.901 108.689 121.001 107.784 120.801Z" fill="#18192E"/>
<path d="M200.387 124.4C199.985 123.6 199.985 123.7 199.583 123C199.382 124 198.778 125 197.572 125.7C194.757 127.3 189.93 127.3 185.104 125.8L186.009 129.6C194.354 132 199.683 127.3 200.387 124.4Z" fill="#18192E"/>
<path d="M67.6678 50.7992L28.6562 42.9992L38.1075 40.0992L37.3031 39.2992C37.3031 39.2992 36.4987 35.3992 40.8222 33.1992L41.3249 35.6992L67.6678 50.7992Z" fill="#D0D0D0"/>
<path d="M66.8637 57.6992L57.1108 62.1992L53.1895 57.8992L66.8637 57.6992Z" fill="#D0D0D0"/>
</g>
<defs>
<linearGradient id="paint0_linear_128_31357" x1="150.822" y1="46.7946" x2="146.262" y2="51.3795" gradientUnits="userSpaceOnUse">
<stop stop-color="#E2F0F0"/>
<stop offset="0.00802994" stop-color="#E3F1F1"/>
<stop offset="0.1384" stop-color="#F3F9F9"/>
<stop offset="0.2875" stop-color="#FCFEFE"/>
<stop offset="0.4961" stop-color="white"/>
<stop offset="0.7071" stop-color="#FBFEFE"/>
<stop offset="0.913" stop-color="#EFFAFA"/>
<stop offset="1" stop-color="#E8F7F7"/>
</linearGradient>
<linearGradient id="paint1_linear_128_31357" x1="157.737" y1="34.0889" x2="153.177" y2="38.6739" gradientUnits="userSpaceOnUse">
<stop stop-color="#E2F0F0"/>
<stop offset="0.00802994" stop-color="#E3F1F1"/>
<stop offset="0.1384" stop-color="#F3F9F9"/>
<stop offset="0.2875" stop-color="#FCFEFE"/>
<stop offset="0.4961" stop-color="white"/>
<stop offset="0.7071" stop-color="#FBFEFE"/>
<stop offset="0.913" stop-color="#EFFAFA"/>
<stop offset="1" stop-color="#E8F7F7"/>
</linearGradient>
<linearGradient id="paint2_linear_128_31357" x1="137.397" y1="71.1491" x2="132.837" y2="75.7341" gradientUnits="userSpaceOnUse">
<stop stop-color="#E2F0F0"/>
<stop offset="0.00802994" stop-color="#E3F1F1"/>
<stop offset="0.1384" stop-color="#F3F9F9"/>
<stop offset="0.2875" stop-color="#FCFEFE"/>
<stop offset="0.4961" stop-color="white"/>
<stop offset="0.7071" stop-color="#FBFEFE"/>
<stop offset="0.913" stop-color="#EFFAFA"/>
<stop offset="1" stop-color="#E8F7F7"/>
</linearGradient>
<linearGradient id="paint3_linear_128_31357" x1="144.597" y1="58.8072" x2="140.036" y2="63.3922" gradientUnits="userSpaceOnUse">
<stop stop-color="#E2F0F0"/>
<stop offset="0.00802994" stop-color="#E3F1F1"/>
<stop offset="0.1384" stop-color="#F3F9F9"/>
<stop offset="0.2875" stop-color="#FCFEFE"/>
<stop offset="0.4961" stop-color="white"/>
<stop offset="0.7071" stop-color="#FBFEFE"/>
<stop offset="0.913" stop-color="#EFFAFA"/>
<stop offset="1" stop-color="#E8F7F7"/>
</linearGradient>
<linearGradient id="paint4_linear_128_31357" x1="49.0571" y1="107.16" x2="53.6172" y2="102.575" gradientUnits="userSpaceOnUse">
<stop stop-color="#E2F0F0"/>
<stop offset="0.00802994" stop-color="#E3F1F1"/>
<stop offset="0.1384" stop-color="#F3F9F9"/>
<stop offset="0.2875" stop-color="#FCFEFE"/>
<stop offset="0.4961" stop-color="white"/>
<stop offset="0.7071" stop-color="#FBFEFE"/>
<stop offset="0.913" stop-color="#EFFAFA"/>
<stop offset="1" stop-color="#E8F7F7"/>
</linearGradient>
<linearGradient id="paint5_linear_128_31357" x1="26.9287" y1="111.131" x2="31.4887" y2="106.546" gradientUnits="userSpaceOnUse">
<stop stop-color="#E2F0F0"/>
<stop offset="0.00802994" stop-color="#E3F1F1"/>
<stop offset="0.1384" stop-color="#F3F9F9"/>
<stop offset="0.2875" stop-color="#FCFEFE"/>
<stop offset="0.4961" stop-color="white"/>
<stop offset="0.7071" stop-color="#FBFEFE"/>
<stop offset="0.913" stop-color="#EFFAFA"/>
<stop offset="1" stop-color="#E8F7F7"/>
</linearGradient>
<linearGradient id="paint6_linear_128_31357" x1="91.4676" y1="99.4515" x2="96.0276" y2="94.8666" gradientUnits="userSpaceOnUse">
<stop stop-color="#E2F0F0"/>
<stop offset="0.00802994" stop-color="#E3F1F1"/>
<stop offset="0.1384" stop-color="#F3F9F9"/>
<stop offset="0.2875" stop-color="#FCFEFE"/>
<stop offset="0.4961" stop-color="white"/>
<stop offset="0.7071" stop-color="#FBFEFE"/>
<stop offset="0.913" stop-color="#EFFAFA"/>
<stop offset="1" stop-color="#E8F7F7"/>
</linearGradient>
<linearGradient id="paint7_linear_128_31357" x1="69.9754" y1="103.585" x2="74.5354" y2="98.9992" gradientUnits="userSpaceOnUse">
<stop stop-color="#E2F0F0"/>
<stop offset="0.00802994" stop-color="#E3F1F1"/>
<stop offset="0.1384" stop-color="#F3F9F9"/>
<stop offset="0.2875" stop-color="#FCFEFE"/>
<stop offset="0.4961" stop-color="white"/>
<stop offset="0.7071" stop-color="#FBFEFE"/>
<stop offset="0.913" stop-color="#EFFAFA"/>
<stop offset="1" stop-color="#E8F7F7"/>
</linearGradient>
<linearGradient id="paint8_linear_128_31357" x1="185.982" y1="137.959" x2="183.186" y2="135.148" gradientUnits="userSpaceOnUse">
<stop stop-color="#E2F0F0"/>
<stop offset="0.00802994" stop-color="#E3F1F1"/>
<stop offset="0.1384" stop-color="#F3F9F9"/>
<stop offset="0.2875" stop-color="#FCFEFE"/>
<stop offset="0.4961" stop-color="white"/>
<stop offset="0.7071" stop-color="#FBFEFE"/>
<stop offset="0.913" stop-color="#EFFAFA"/>
<stop offset="1" stop-color="#E8F7F7"/>
</linearGradient>
<linearGradient id="paint9_linear_128_31357" x1="106.124" y1="118.166" x2="99.721" y2="129.209" gradientUnits="userSpaceOnUse">
<stop stop-color="#E2F0F0"/>
<stop offset="0.00802994" stop-color="#E3F1F1"/>
<stop offset="0.1384" stop-color="#F3F9F9"/>
<stop offset="0.2875" stop-color="#FCFEFE"/>
<stop offset="0.4961" stop-color="white"/>
<stop offset="0.7071" stop-color="#FBFEFE"/>
<stop offset="0.913" stop-color="#EFFAFA"/>
<stop offset="1" stop-color="#E8F7F7"/>
</linearGradient>
<linearGradient id="paint10_linear_128_31357" x1="171.7" y1="80.483" x2="165.497" y2="92.363" gradientUnits="userSpaceOnUse">
<stop stop-color="#E2F0F0"/>
<stop offset="0.00802994" stop-color="#E3F1F1"/>
<stop offset="0.1384" stop-color="#F3F9F9"/>
<stop offset="0.2875" stop-color="#FCFEFE"/>
<stop offset="0.4961" stop-color="white"/>
<stop offset="0.7071" stop-color="#FBFEFE"/>
<stop offset="0.913" stop-color="#EFFAFA"/>
<stop offset="1" stop-color="#E8F7F7"/>
</linearGradient>
<clipPath id="clip0_128_31357">
<rect width="205" height="140" fill="white"/>
</clipPath>
</defs>
</svg>
