<svg width="40" height="40" viewBox="0 0 40 40" fill="none" xmlns="http://www.w3.org/2000/svg">
<path d="M14.7732 6.44115C15.6042 5.50621 16.0197 5.03874 16.4221 4.72075C18.5423 3.04508 21.5358 3.04508 23.6561 4.72075C24.0584 5.03874 24.4739 5.50621 25.3049 6.44115V6.44115C25.5692 6.73849 25.7013 6.88717 25.8398 7.0235C26.5475 7.72022 27.4213 8.22474 28.3786 8.48925C28.5659 8.54101 28.7607 8.58111 29.1503 8.66132V8.66132C30.3755 8.9135 30.9881 9.0396 31.4647 9.22905C33.9759 10.2274 35.4727 12.8199 35.0817 15.4939C35.0075 16.0013 34.8104 16.5949 34.4162 17.782V17.782C34.2908 18.1596 34.2281 18.3483 34.1793 18.5364C33.9298 19.4977 33.9298 20.5067 34.1793 21.4679C34.2281 21.656 34.2908 21.8448 34.4162 22.2223V22.2223C34.8104 23.4095 35.0075 24.003 35.0817 24.5105C35.4727 27.1845 33.9759 29.777 31.4647 30.7753C30.9881 30.9648 30.3755 31.0908 29.1503 31.343V31.343C28.7607 31.4232 28.5659 31.4633 28.3786 31.5151C27.4213 31.7796 26.5475 32.2841 25.8398 32.9808C25.7013 33.1172 25.5692 33.2659 25.3049 33.5632V33.5632C24.4739 34.4981 24.0584 34.9656 23.6561 35.2836C21.5358 36.9593 18.5423 36.9593 16.4221 35.2836C16.0197 34.9656 15.6042 34.4981 14.7732 33.5632V33.5632C14.5089 33.2659 14.3768 33.1172 14.2383 32.9808C13.5306 32.2841 12.6568 31.7796 11.6996 31.5151C11.5123 31.4633 11.3174 31.4232 10.9278 31.343V31.343C9.70261 31.0908 9.09002 30.9648 8.61346 30.7753C6.10218 29.777 4.6054 27.1845 4.99646 24.5105C5.07067 24.003 5.26777 23.4095 5.66195 22.2223V22.2223C5.78732 21.8448 5.85 21.656 5.89883 21.4679C6.14837 20.5067 6.14837 19.4977 5.89883 18.5364C5.85 18.3483 5.78732 18.1596 5.66195 17.782V17.782C5.26777 16.5949 5.07067 16.0013 4.99646 15.4939C4.6054 12.8199 6.10218 10.2274 8.61346 9.22905C9.09002 9.0396 9.70261 8.9135 10.9278 8.66132V8.66132C11.3174 8.58111 11.5123 8.54101 11.6996 8.48925C12.6568 8.22474 13.5306 7.72022 14.2383 7.0235C14.3768 6.88717 14.5089 6.73849 14.7732 6.44115V6.44115Z" fill="#18192E" fill-opacity="0.18"/>
<path d="M23.75 20C23.75 22.0711 22.0711 23.75 20 23.75C17.9289 23.75 16.25 22.0711 16.25 20C16.25 17.9289 17.9289 16.25 20 16.25C22.0711 16.25 23.75 17.9289 23.75 20Z" fill="#18192E"/>
</svg>
