<svg width="40" height="40" viewBox="0 0 40 40" fill="none" xmlns="http://www.w3.org/2000/svg">
<path d="M20 37.0861C28.0645 37.0861 33.3628 28.5659 35.3817 18.9707L35.3817 18.9707C35.8887 16.5612 36.1421 15.3565 35.6854 13.8324C35.5551 13.3978 35.2911 12.7999 35.0577 12.4108C34.239 11.0465 32.9547 10.2909 30.3859 8.77966L25.7046 6.02555C23.2387 4.57481 22.0057 3.84945 20.6635 3.70615C20.2224 3.65906 19.7776 3.65906 19.3365 3.70615C17.9943 3.84945 16.7613 4.57481 14.2954 6.02555L9.61409 8.77966C7.04535 10.2909 5.76098 11.0465 4.94233 12.4108C4.70888 12.7999 4.44488 13.3978 4.31463 13.8324C3.85786 15.3565 4.11134 16.5612 4.61831 18.9707C6.63717 28.5659 11.9355 37.0861 20 37.0861Z" fill="#18192E" fill-opacity="0.18"/>
<path d="M15.8335 20.8333L17.2232 22.6863C17.6761 23.2901 17.9025 23.592 18.2051 23.6583C18.3019 23.6795 18.4017 23.6832 18.4998 23.6694C18.8065 23.6261 19.055 23.3421 19.5521 22.774L24.1668 17.5" stroke="#18192E" stroke-width="2.5" stroke-linecap="round" stroke-linejoin="round"/>
</svg>
