<svg width="40" height="40" viewBox="0 0 40 40" fill="none" xmlns="http://www.w3.org/2000/svg">
<path d="M21.8335 13.7502C21.8335 11.2189 23.8855 9.16683 26.4168 9.16683C28.9481 9.16683 31.0002 11.2189 31.0002 13.7502C31.0002 16.2815 28.9481 18.3335 26.4168 18.3335C23.8855 18.3335 21.8335 16.2815 21.8335 13.7502Z" fill="#18192E"/>
<path d="M9.3335 10.4168C9.3335 7.88552 11.3855 5.8335 13.9168 5.8335C16.4481 5.8335 18.5002 7.88552 18.5002 10.4168C18.5002 12.9481 16.4481 15.0002 13.9168 15.0002C11.3855 15.0002 9.3335 12.9481 9.3335 10.4168Z" fill="#18192E"/>
<path fill-rule="evenodd" clip-rule="evenodd" d="M23.2427 22.5516C23.3123 22.852 23.39 23.2195 23.4913 23.6989L23.4914 23.6989C23.7024 24.6971 23.808 25.1961 23.8268 25.6019C23.9441 28.137 22.1437 30.3579 19.6392 30.7676C19.2534 30.8307 18.7665 30.8331 17.8211 30.8332C17.9792 31.3052 18.4223 31.6665 18.9767 31.6665H30.0661C31.0362 31.6665 31.3588 31.662 31.5692 31.627C33.1877 31.358 34.2659 29.8073 33.9546 28.1964L35.1819 27.9592L33.9546 28.1964C33.9141 27.987 33.806 27.683 33.4683 26.7737L33.4683 26.7736C33.1939 26.035 33.0872 25.7524 32.9693 25.514C32.145 23.8485 30.5246 22.7218 28.6763 22.5291C28.4118 22.5015 28.1097 22.4998 27.3218 22.4998H24.3459C23.9783 22.4998 23.8389 22.5002 23.7031 22.5074C23.549 22.5156 23.3954 22.5304 23.2427 22.5516ZM22.2815 20.1864C21.1004 18.2999 19.1198 17.0071 16.8531 16.7242C16.3905 16.6665 15.8658 16.6665 14.8163 16.6665H12.8931C11.8095 16.6665 11.2677 16.6665 10.7804 16.7307C8.27304 17.0607 6.10089 18.6321 5.00293 20.9103C4.78953 21.3531 4.62001 21.8677 4.28097 22.8969C3.87644 24.125 3.67417 24.739 3.6145 25.2305C3.29953 27.8245 5.03515 30.2236 7.5975 30.7361C8.08296 30.8332 8.72945 30.8332 10.0224 30.8332H15.276C15.4648 32.6408 16.9856 34.1665 18.9767 34.1665H30.0661L30.1993 34.1665C30.983 34.1667 31.5357 34.1669 31.9792 34.0932C34.985 33.5935 36.9874 30.7137 36.4092 27.722C36.3239 27.2806 36.1313 26.7626 35.8583 26.028L35.8582 26.028L35.8119 25.9032L35.8118 25.9032L35.7857 25.8328C35.5462 25.1879 35.3929 24.7749 35.2099 24.4052L34.1283 24.9404L35.2099 24.4052C34.0053 21.971 31.6369 20.3242 28.9356 20.0425C28.5253 19.9997 28.0847 19.9998 27.3968 19.9998L27.3218 19.9998H24.3459L24.3126 19.9998C23.9892 19.9998 23.7806 19.9998 23.5707 20.0109C23.1367 20.034 22.7055 20.0927 22.2815 20.1864Z" fill="#18192E" fill-opacity="0.18"/>
</svg>
