<svg width="40" height="40" viewBox="0 0 40 40" fill="none" xmlns="http://www.w3.org/2000/svg">
<path d="M12.5 27.2852V30.7394C12.5 33.7879 12.5 35.3122 13.2985 35.9378C13.5472 36.1327 13.8371 36.2684 14.146 36.3348C15.1378 36.5477 16.3088 35.5719 18.6507 33.6203L20 32.4958L21.3493 33.6203C23.6912 35.5719 24.8622 36.5477 25.854 36.3348C26.1629 36.2684 26.4528 36.1327 26.7015 35.9378C27.5 35.3122 27.5 33.7879 27.5 30.7394V27.2852C25.3078 28.6727 22.7421 29.4703 20 29.4703C17.2579 29.4703 14.6922 28.6727 12.5 27.2852Z" fill="#18192E"/>
<path d="M8.3335 15.4167C8.3335 8.97334 13.5568 3.75 20.0002 3.75C26.4435 3.75 31.6668 8.97334 31.6668 15.4167C31.6668 21.86 26.4435 27.0833 20.0002 27.0833C13.5568 27.0833 8.3335 21.86 8.3335 15.4167Z" fill="#18192E" fill-opacity="0.18"/>
<path d="M15 15.4165C15 12.6551 17.2386 10.4165 20 10.4165C22.7614 10.4165 25 12.6551 25 15.4165C25 18.1779 22.7614 20.4165 20 20.4165C17.2386 20.4165 15 18.1779 15 15.4165Z" fill="#18192E"/>
</svg>
