<svg width="40" height="40" viewBox="0 0 40 40" fill="none" xmlns="http://www.w3.org/2000/svg">
<path d="M14.1665 31.25C14.1665 30.8617 14.1665 30.6676 14.2299 30.5144C14.3145 30.3102 14.4767 30.148 14.6809 30.0634C14.8341 30 15.0282 30 15.4165 30H24.5832C24.9715 30 25.1656 30 25.3187 30.0634C25.5229 30.148 25.6852 30.3102 25.7697 30.5144C25.8332 30.6676 25.8332 30.8617 25.8332 31.25V31.25C25.8332 32.8031 25.8332 33.5797 25.5794 34.1923C25.2411 35.009 24.5922 35.658 23.7754 35.9963C23.1629 36.25 22.3863 36.25 20.8332 36.25H19.1665C17.6134 36.25 16.8368 36.25 16.2242 35.9963C15.4075 35.658 14.7586 35.009 14.4202 34.1923C14.1665 33.5797 14.1665 32.8031 14.1665 31.25V31.25Z" fill="#18192E"/>
<path d="M15.0691 27.5H24.9309C25.0105 27.5 25.0504 27.5 25.0839 27.4973C25.4911 27.4643 25.8143 27.1411 25.8473 26.734C25.85 26.7004 25.85 26.6605 25.85 26.5809V26.2112C25.85 25.6382 26.0399 25.0813 26.3899 24.6277L28.7545 21.5633C34.364 14.2937 29.1822 3.75 20 3.75C10.8178 3.75 5.63598 14.2937 11.2455 21.5633L13.6101 24.6277C13.9601 25.0813 14.15 25.6382 14.15 26.2112V26.5809C14.15 26.6605 14.15 26.7004 14.1527 26.734C14.1857 27.1411 14.5089 27.4643 14.916 27.4973C14.9496 27.5 14.9895 27.5 15.0691 27.5Z" fill="#18192E" fill-opacity="0.18"/>
<path d="M17.5 19.1665L20 23.3332L22.5 19.1665" stroke="#18192E" stroke-width="2.5" stroke-linecap="round" stroke-linejoin="round"/>
</svg>
