<svg width="40" height="40" viewBox="0 0 40 40" fill="none" xmlns="http://www.w3.org/2000/svg">
<path fill-rule="evenodd" clip-rule="evenodd" d="M9.27924 10.3626C9.31711 11.0266 9.37587 11.784 9.44371 12.6584L9.90235 18.5697C9.9111 18.6824 9.91547 18.7388 9.91972 18.7874C9.9647 19.3021 10.0482 19.8049 10.1671 20.2931C8.18784 19.8374 6.63835 18.194 6.36381 16.1044L6.20672 14.9088C5.92766 12.7849 7.30563 10.8662 9.27924 10.3626ZM9.30422 7.80928C5.7982 8.33854 3.25039 11.5992 3.72802 15.2345L3.88511 16.4301C4.3703 20.1229 7.50314 22.889 11.2213 22.9193C12.7771 25.609 15.5434 27.491 18.7509 27.8531V29.2914L18.1698 29.6401C14.5352 31.8208 12.718 32.9112 12.6049 33.9381C12.5465 34.4689 12.6941 35.0019 13.0173 35.427C13.6426 36.2494 15.7619 36.2494 20.0005 36.2494C24.239 36.2494 26.3583 36.2494 26.9836 35.427C27.3068 35.0019 27.4545 34.4689 27.396 33.9381C27.283 32.9112 25.4657 31.8208 21.8311 29.6401L21.2509 29.2919V27.8535C24.4598 27.4923 27.2276 25.61 28.7839 22.9192C32.5006 22.8873 35.6317 20.1218 36.1167 16.4301L36.2738 15.2345C36.7513 11.6003 34.2053 8.34065 30.701 7.80979C30.6343 7.32016 30.5155 6.90356 30.3269 6.52428C29.9006 5.66673 29.237 4.94965 28.415 4.45829C27.2301 3.75 25.5926 3.75 22.3175 3.75H17.6877C14.4126 3.75 12.775 3.75 11.5901 4.45829C10.7681 4.94965 10.1045 5.66673 9.67821 6.52428C9.48973 6.90342 9.37098 7.31987 9.30422 7.80928ZM30.7259 10.3635C30.688 11.0273 30.6293 11.7843 30.5614 12.6584L30.1028 18.5697L30.1027 18.5704C30.094 18.6827 30.0897 18.7389 30.0854 18.7874C30.0405 19.3018 29.9571 19.8044 29.8382 20.2923C31.8158 19.8354 33.3636 18.1928 33.638 16.1044L33.7951 14.9088C34.074 12.786 32.6977 10.8683 30.7259 10.3635Z" fill="#18192E" fill-opacity="0.18"/>
<path d="M18.6623 11.892C19.1781 10.8469 19.4359 10.3243 19.8235 10.2367C19.9446 10.2093 20.0702 10.2093 20.1912 10.2367C20.5788 10.3243 20.8367 10.8469 21.3525 11.892L21.6176 12.4293C21.7693 12.7365 21.8451 12.8901 21.9674 12.9985C22.0076 13.0342 22.0513 13.0659 22.0977 13.0931C22.2385 13.176 22.408 13.2006 22.7471 13.2498L23.34 13.336C24.4933 13.5036 25.07 13.5874 25.2731 13.9289C25.3366 14.0356 25.3754 14.155 25.3868 14.2786C25.4232 14.6743 25.0059 15.0811 24.1713 15.8945L23.7423 16.3128C23.4969 16.5519 23.3743 16.6715 23.309 16.8212C23.2875 16.8706 23.2708 16.9219 23.2592 16.9745C23.224 17.134 23.253 17.3028 23.3109 17.6405L23.4122 18.231C23.6092 19.3797 23.7077 19.954 23.4457 20.2528C23.3638 20.3461 23.2622 20.4199 23.1482 20.4689C22.7831 20.6258 22.2673 20.3546 21.2357 19.8123L20.7054 19.5335C20.4021 19.3741 20.2505 19.2943 20.0879 19.2786C20.0343 19.2733 19.9804 19.2733 19.9268 19.2786C19.7642 19.2943 19.6126 19.3741 19.3094 19.5335L18.779 19.8123C17.7474 20.3546 17.2317 20.6258 16.8666 20.4689C16.7526 20.4199 16.6509 20.3461 16.5691 20.2528C16.3071 19.954 16.4056 19.3797 16.6026 18.231L16.7039 17.6405C16.7618 17.3028 16.7907 17.134 16.7555 16.9745C16.7439 16.9219 16.7272 16.8706 16.7057 16.8212C16.6405 16.6715 16.5178 16.5519 16.2725 16.3128L15.8434 15.8945C15.0089 15.0811 14.5916 14.6743 14.628 14.2786C14.6393 14.155 14.6781 14.0356 14.7416 13.9289C14.9447 13.5874 15.5214 13.5036 16.6747 13.336L17.2677 13.2498C17.6067 13.2006 17.7762 13.176 17.9171 13.0931C17.9635 13.0659 18.0071 13.0342 18.0474 12.9985C18.1697 12.8901 18.2455 12.7365 18.3971 12.4293L18.6623 11.892Z" fill="#18192E"/>
</svg>
