<?xml version="1.0" encoding="UTF-8"?>
<svg id="Calque_2" data-name="Calque 2" xmlns="http://www.w3.org/2000/svg" viewBox="0 0 188.15 79.14">
  <defs>
    <style>
      .cls-1 {
        fill: #1a2a5f;
      }

      .cls-2 {
        fill: #17265f;
      }

      .cls-3 {
        fill: #64b5f5;
      }

      .cls-4 {
        fill: #3171b7;
      }
    </style>
  </defs>
  <g id="Calque_1-2" data-name="Calque 1">
    <g>
      <g>
        <path class="cls-2" d="M38.6,64.35l-.4-.98-2,.07-.1,1.11-2.01.11-.23-1.09h-2c-.11.38-.16.78-.32.91-.23.19-1.43.04-1.84-.12-.2-.08-.18-.66-.24-1.01l-1.98-.27-.36.77c-.1.2-.73.07-.95,0l-.86-.29c-.19-.07-.11-.68-.14-1l-1.87-.62-.51.99-1.94-.79.25-1.03-1.86-.81c-.2.3-.49.83-.69.75l-.93-.39c-.18-.07-.57-.34-.71-.46-.16-.14.13-.6.29-.93-.39-.37-1.16-.91-1.69-1.12-.24.21-.56.75-.76.68s-.63-.31-.81-.45l-.68-.55c-.18-.14.15-.63.39-.97l-1.5-1.36-.88.72-1.49-1.34.6-.99-1.36-1.4-.92.56-1.29-1.59.7-.72-1.08-1.62-1,.41-1.03-1.69.76-.68-.89-1.67c-.26,0-.86.3-1.02.14-.37-.38-.64-1.13-.77-1.66-.06-.22.45-.46.79-.68l-.62-1.81-1.11.12-.58-1.96.97-.45-.35-1.79-1.16-.03-.21-1.95.99-.36-.13-1.97-.85-.2c-.22-.05-.26-.74-.23-.97l.11-.89c.02-.18.49-.14.89-.19l.14-1.98-1.08-.3.31-2.04.98-.04c.27,0,.35-1.48.33-1.77,0-.2-.45-.3-.8-.48l.5-1.9,1.07.14.65-1.9-.92-.63.76-1.79.99.35.99-1.78-.86-.66,1.04-1.71.99.43,1.21-1.6-.71-.83,1.2-1.62.96.6,1.35-1.34-.53-1.1,1.76-1.46c.3.27.5.5.67.53.2.04.64-.24.81-.38l.73-.6c.18-.15-.17-.68-.34-1.03l1.75-1.18c.28.35.45.69.65.74s.67-.18.84-.29l.71-.46c.19-.12-.03-.66-.16-1.09l1.85-.98.6,1.01,1.9-.86-.09-.89c-.03-.31,1.36-.65,1.83-.67.22,0,.32.65.44.94l2.02-.52.11-1.07,1.89-.37.29,1.04,2.04-.14.15-1.09L32.1,0l.14,1.01,1.94.06.26-1.07,2.07.22v1.07s2.05.33,2.05.33l.43-1.01,1.9.52-.11,1,1.95.64.58-1,1.8.74-.15,1.01,1.83.82.56-.82,1.8.93-.34,1.01,1.59,1.07.81-.73,1.67,1.23-.55.87,1.47,1.24.94-.57,1.38,1.32-.54.85,1.31,1.57,1-.63,1.3,1.54-.77.81,1.19,1.6.94-.48,1.06,1.67-.82.81.83,1.75,1.07-.25.86,1.79-.94.53.57,1.83,1.19-.15.5,1.96-1.01.49.41,1.89,1.18.09.2,1.92-1.07.25.14,2.01,1.14.19-.02,1.93-1.12.21-.08,1.9,1.02.34-.23,1.92-1.16.1-.31,1.8.78.39c.2.1.03.71-.04.93l-.29.91c-.08.25-.82.12-1.16.13l-.62,1.74.94.61-.84,1.78-.99-.26-.93,1.73.86.68-1.11,1.73c-.38-.15-.76-.33-.96-.34-.23-.02-.52.47-.68.71l-.46.69c-.12.18.36.54.65.81l-1.27,1.67-.98-.58-1.4,1.36.68.79c-.4.46-1.04,1.08-1.54,1.44-.27-.22-.63-.71-.8-.6l-.8.5c-.21.13-.57.43-.64.62s.2.57.37.92l-1.64,1.19-.74-.83-1.77,1.05.36,1.01-1.83.94-.62-.94-1.85.85.12,1.02-1.87.67-.44-1.02-1.97.5v1.08s-1.89.36-1.89.36ZM37.98,54.15c.18-.05.72-.21.8-.04l.4.86,1.93-.52-.2-1.07,1.75-.74.56.91,1.81-.92-.34-.98,1.58-1.01.71.76,1.62-1.24c-.23-.37-.53-.68-.45-.83.18-.33.87-.95,1.28-1.13.16-.08.51.2.8.38l1.33-1.36-.71-.83,1.08-1.51.99.42.92-1.69c-.29-.24-.74-.48-.71-.69s.21-.65.33-.86l.41-.72c.09-.16.63.1.91.14.37-.44.69-1.35.76-1.93-.31-.12-.85-.23-.82-.41l.15-.84c.04-.25.14-.79.36-.81l.94-.06.33-2.07c-.36-.07-.98,0-.98-.22l-.02-.83c0-.24.06-.71.18-.88s.63-.17.88-.24l.03-1.85-1.05-.19-.19-1.91,1.02-.29-.56-2c-.42.05-.85.18-.92.02l-.34-.75c-.09-.2-.27-.82-.11-.95s.39-.25.77-.47l-.72-1.81-1.04.32-.8-1.67c.21-.24.72-.61.62-.8l-.47-.88c-.1-.18-.43-.65-.61-.57l-.79.38-1.19-1.51.71-.88-1.35-1.38-.83.54-1.43-1.19.52-.9-1.58-1.21-.72.78-1.63-1,.39-.94-1.78-.93-.6.9-1.81-.76.23-1.04-1.9-.48c-.15.3-.26.84-.46.82l-.9-.09c-.22-.02-.92-.16-.91-.38l.04-.88c-.6-.08-1.5-.15-2.06-.16-.1.44-.11.93-.33.94l-.88.02c-.24,0-.86.05-.9-.15l-.16-.88-2.08.05-.05,1.11-1.91.24-.34-1-1.81.5.09,1.05-1.77.64-.63-.93-1.82.88.39.94-2.48,1.61c-.16.1-.59.45-.72.32l-.7-.66-1.47,1.18.48.98-1.29,1.31-.99-.54-1.11,1.58.71.62-.97,1.53-1.18-.26-.77,1.77c.33.19.81.38.75.55l-.24.78c-.09.29-.26.71-.45.83-.16.1-.68-.09-.93-.1-.29.4-.58,1.37-.54,1.86.19.14.81.27.78.45l-.13.88c-.03.22-.15.84-.37.85l-.93.03-.21,1.8,1.03.26-.06,2-1.15.13.23,1.94c.32.06.93.02,1,.22.18.45.29,1.34.18,1.74-.04.17-.49.2-.83.31l.38,1.84h1.19s.61,1.77.61,1.77l-.98.58.91,1.76c.36-.14.8-.38.97-.26.33.21.85,1.19.89,1.58.02.21-.46.39-.8.65l1.19,1.6c.33-.16.75-.46.94-.35.37.21,1.23,1.24,1.07,1.46l-.5.68,1.44,1.44c.27-.21.62-.68.79-.56l.78.55c.18.13.62.51.54.7l-.31.75c.4.4,1.17.93,1.68,1.1.22-.23.5-.72.68-.63l.69.34c.24.12.65.37.79.54s-.08.67-.14,1.01l1.68.8c.19-.34.38-.88.6-.82l.88.23c.18.05.6.27.73.41s-.02.51-.11.94l2,.58.38-1.03,1.95.36.04,1.06,2.08.11c.06-.38.02-.95.24-.97l.89-.04c.22-.01.88-.08.92.13l.16.89,2.01-.19c.06-.32,0-.96.2-1.02l.89-.26Z"/>
        <path class="cls-2" d="M14.25,25.86l7.62-.52c1.06,2.91,1.95,5.63,3.15,8.43l3.66-8.81,7.65-.5,4.35,8.47,2.49-8.94,7.62-.44-5.16,16.03-7.94.53-4.98-9.48-4.06,10.01-8,.49-6.41-15.26Z"/>
      </g>
      <g>
        <path class="cls-4" d="M96.35,59.1l-2.04.03-.21.96c-.06.28-1.86.15-1.9-.07l-.23-1.03c-.52-.12-1.44-.15-2.03-.13l-.26,1.01-2.12-.58.07-.91-1.88-.72c-.12.33-.28.89-.51.93-.46.07-1.41-.33-1.77-.61-.18-.14,0-.63.1-1.09l-1.95-.76c-.16.25-.37.72-.55.68-.53-.1-1.4-.54-1.65-.93-.11-.18.15-.57.28-.9l-1.71-1.18-.72.66-1.52-1.04.45-1.06-1.5-1.28-.83.55-1.29-1.31.54-.92-1.19-1.57c-.38.18-.65.36-.82.35-.37-.02-.94-1.03-1.13-1.48-.09-.21.37-.55.65-.8l-.94-1.77c-.37.05-.78.19-.92.06-.34-.31-.9-1.38-.74-1.63.1-.16.39-.3.79-.53l-.69-1.87c-.41.06-.79.16-.96.06s-.33-.55-.38-.77l-.2-.93c-.05-.23.52-.35,1-.5-.08-.41-.31-1.4-.46-1.89-.07-.24-.84-.18-1.05-.11l-.29-1.81c.24-.14.76-.34,1.17-.49l-.24-1.88-.81-.14c-.23-.04-.2-.76-.18-.99l.1-.89c.03-.23.68-.19,1.05-.23.13-.57.26-1.52.3-2.07l-.85-.43c-.25-.12.18-1.47.32-1.65s.67-.13,1.01-.17c.22-.39.51-1.39.5-1.85,0-.18-.64-.32-.66-.49-.08-.54.23-1.16.52-1.69.11-.2.69.02,1.04.1l.89-1.85-.68-.51c-.28-.21.51-1.28.75-1.54.16-.17.7.02,1.08.1l1.29-1.69-.75-.6c-.14-.11.72-1.27,1.11-1.47.2-.1.63.17.99.35l1.18-1.23c-.21-.27-.58-.6-.49-.79s.43-.57.6-.68l.71-.46c.18-.12.54.31.8.52l1.58-1.19-.39-.99,1.8-1.14.49.83,1.85-.94-.29-1.06,1.79-.69.6.77,1.94-.66-.17-1.05,2-.59.38,1.09,2.13-.45-.1-1.05,1.97-.22.37,1,2.03-.08.26-.74c.08-.23,1.51-.29,1.79-.12.19.12.19.61.24,1l2.09.26c.09-.34.13-.78.33-.84s.75-.05.95,0l.8.2c.21.05.14.66.14,1.06l2.02.51c.16-.33.27-.77.46-.81.22-.04.69.12.95.23l.8.35c.17.07-.1.69,0,.84.27.42,1.29.92,1.78.84.22-.03.6-.6.8-.5l.89.46c.15.08.48.33.58.47s-.16.49-.3.81l1.61,1.18.86-.76c.44.33,1.15.94,1.45,1.3-.26.59-.31.95.05,1.28l1.07,1,.84-.64,1.31,1.41-.65.82,1.2,1.53.94-.29c.36-.11,1.13,1.23,1.09,1.51-.03.22-.39.49-.71.73l.94,1.72,1.04-.23c.3.53.69,1.27.92,1.79-.28.19-.83.51-.79.69.09.43.43,1.31.57,1.64l.9-.06c.35-.02.76,1.72.6,1.81l-.9.49.39,1.94,1.08.14c.23.03.23.74.2.98l-.08.7c-.02.18-.47.15-.89.19l.05,2.17.91.17c.22.04.22.71.19.93l-.1.9c-.03.23-.63.16-1.03.2-.1.58-.2,1.5-.21,2.11.24.09.9.13.88.32l-.1.91c-.03.22-.17.68-.28.89-.1.19-.56.04-1-.09l-.57,2.05.73.49c.21.14-.2,1.64-.53,1.74-.25.07-.69.04-1.1.03-.29.49-.66,1.22-.87,1.72.31.23.72.42.76.63s-.2.68-.33.88l-.48.73c-.12.18-.6-.15-.93-.3-.35.27-1.01,1.08-1.13,1.55-.06.23.59.7.47.91-.13.22-.42.63-.61.86l-.52.63c-.11.13-.61-.37-.78-.33-.49.13-1.29.95-1.42,1.44-.05.17.44.64.32.77l-.53.6c-.12.14-.49.4-.66.49-.19.1-.52-.17-.88-.51l-1.67,1.2.33.84c.08.2-.45.55-.64.65l-.86.44c-.19.1-.58-.45-.79-.58-.52.07-1.42.59-1.76.97l.06.88c.02.23-1.44.83-1.66.7-.17-.1-.33-.41-.55-.76l-2.14.78c.14.34.34.73.23.86-.14.16-.58.37-.8.41l-.96.16c-.24.04-.36-.6-.47-.93l-2.03.39-.17.97c-.04.22-1.35.37-1.82.24-.19-.05-.23-.59-.33-1.01ZM93.95,52.27l.27-1.06h1.59s.44,1.08.44,1.08l1.92-.24.03-1.08,1.79-.43.36,1.05c.68-.22,1.4-.48,1.93-.73-.03-.32-.28-.93-.08-1.04l.75-.42c.2-.11.81-.31.95-.12.12.16.27.4.49.75l1.77-1.22c-.12-.35-.4-.83-.23-1.01.19-.2,1.13-1.13,1.36-.92l.54.52c.52-.17,1.41-.96,1.62-1.49-.02-.22-.51-.75-.38-.92l.5-.63c.1-.13.44-.57.58-.48l.72.45c.39-.27,1.09-1.21,1.1-1.74,0-.18-.61-.5-.54-.66l.33-.73c.1-.22.46-.8.68-.73l.86.27.66-1.88-.88-.49c-.05-.03.33-1.66.66-1.66h1s.24-2.01.24-2.01c-.42-.13-.79-.21-.93-.36-.15-.16.1-1.51.33-1.58l.78-.24c0-.54-.07-1.52-.14-2.03-.78-.12-1.16-.32-1.22-.99-.02-.26-.07-.88.13-.95l.82-.25-.43-1.89-1.13.04-.53-1.62.99-.57-1.09-1.88c-.36.15-.84.47-.97.3l-.59-.74c-.13-.16-.47-.7-.32-.84l.66-.63-1.37-1.71-.64.61c-.16.15-1.4-.98-1.29-1.26l.34-.9-1.56-1.24c-.35.32-.51.49-.67.57-.13.06-1.1-.29-1.45-.75-.14-.19.05-.72.11-1.09-.43-.29-1.25-.69-1.7-.82-.24.36-.5.82-.72.74l-.84-.28c-.18-.06-.64-.3-.68-.49s.03-.51.08-.9c-.49-.22-1.37-.47-1.92-.49l-.38.82c-.08.17-.61.13-.81.07l-.92-.26c-.17-.05-.05-.77-.19-.87-.44-.32-1.61-.43-2.08-.21-.1.32-.13.89-.34.92l-.81.13c-.19.03-.74.01-.79-.15l-.22-.78c-.55-.1-1.51.06-2.07.26.01.38.12.88-.09.96l-.86.33c-.21.08-.8.19-.9,0l-.43-.75-1.98.71c.26.37.45.99.2,1.1l-1.65.7c-.29-.5-.54-.85-.72-.73l-.68.47c-.15.1.3.68.22.85-.19.42-1.08,1.02-1.48,1.09l-.88-.56c-.45.43-1.01,1.01-1.31,1.37l.45.74c.1.16-.65,1.18-1.07,1.3-.21.06-.65-.23-.94-.34-.42.26-.99,1.09-1.03,1.56.11.18.6.5.53.66l-.36.74c-.11.23-.34.76-.57.74l-.88-.09c-.45.3-.85,1.39-.72,1.88.24.11.65.21.7.36.08.26-.18,1.53-.53,1.6l-1.05.18-.42,1.9,1.07.28-.26,1.81c-.23-.03-.82-.02-.95.12l.08,2,.77-.03c.14,0,.3.44.32.6l.11,1.35-1.04.2.52,2.1c.38-.05.91-.22,1.01-.02l.38.8c.09.19.3.8.12.91l-.73.45c.18.52.58,1.37.82,1.79.43-.13.68-.21.88-.24.26-.05,1.04,1.16.88,1.42l-.5.79c.16.49.83,1.28,1.19,1.51l.82-.39c.22-.11,1.2,1.03,1.09,1.29l-.34.82c.4.38,1.11.92,1.57,1.23.27-.26.63-.64.81-.52l.71.43c.19.12.7.43.63.62l-.3.81,1.83,1.07.56-.97,1.76.74-.25.98c.64.26,1.46.52,2.05.61.13-.41.22-.92.42-.89l.75.1c.34.05.73.13.94.2.17.06.02.76.14.88.37.38,1.55.49,2.08.28Z"/>
        <path class="cls-4" d="M98.87,35.57h-9.85s-1.37,2.26-1.37,2.26c-.56.3-1.77.06-2.46.06l-6.67-.03,10.93-14.92,9.71-.02,10.42,14.93-6.08.05c-1.11,0-2.21.06-3.3-.04l-1.32-2.3ZM96.9,32.07l-2.77-4.89-2.93,4.86,5.7.03Z"/>
      </g>
      <g>
        <path class="cls-3" d="M160.76,65.2l-2.31.27-.12,1.12c-.04.33-2.08.4-2.17.15l-.38-1.15c-.6-.08-1.65,0-2.32.09l-.18,1.19-2.47-.41-.03-1.05-2.22-.6c-.1.39-.21,1.06-.46,1.12-.51.14-1.63-.2-2.08-.49-.22-.14-.07-.72-.01-1.26l-2.31-.64c-.15.31-.33.87-.54.85-.61-.05-1.66-.46-1.98-.87-.15-.19.1-.67.2-1.07l-2.08-1.15-.73.84-1.85-1.01.38-1.26-1.85-1.28-.88.73-1.62-1.35.5-1.12-1.54-1.65c-.41.25-.7.49-.89.5-.42.02-1.19-1.07-1.46-1.56-.13-.23.35-.67.64-.99l-1.28-1.91c-.42.11-.87.31-1.04.18-.42-.31-1.18-1.48-1.04-1.78.09-.2.4-.39.83-.7l-1-2.06c-.45.12-.88.28-1.08.18s-.44-.59-.52-.83l-.34-1.04c-.08-.26.55-.47,1.07-.7-.14-.46-.53-1.57-.75-2.11-.11-.27-.98-.11-1.2,0l-.55-2.04c.26-.19.83-.49,1.27-.71l-.5-2.12-.93-.06c-.26-.02-.32-.85-.32-1.12v-1.03c0-.27.75-.3,1.16-.38.07-.67.12-1.78.09-2.41l-1.01-.39c-.3-.11.03-1.71.16-1.93s.75-.23,1.13-.32c.2-.48.41-1.65.34-2.19-.03-.2-.76-.29-.81-.49-.16-.61.12-1.35.39-2,.1-.24.79-.06,1.19-.01l.78-2.23-.84-.5c-.34-.21.42-1.53.66-1.86.16-.21.8-.06,1.23-.01l1.25-2.09-.92-.59c-.18-.11.66-1.54,1.07-1.81.21-.14.73.12,1.16.28l1.19-1.56c-.27-.28-.73-.62-.65-.84s.42-.7.6-.85l.75-.61c.19-.16.65.29.97.5l1.65-1.56-.56-1.09,1.9-1.52.66.9,1.99-1.29-.46-1.18,1.94-1,.77.81,2.12-.99-.32-1.18,2.2-.91.57,1.21,2.35-.77-.24-1.19,2.21-.49.54,1.1,2.3-.33.2-.88c.06-.28,1.68-.52,2.01-.35.23.11.28.68.39,1.12l2.41.05c.06-.4.05-.91.27-1s.84-.15,1.08-.12l.94.13c.25.03.24.74.29,1.19l2.35.35c.14-.39.21-.92.42-.98.25-.07.79.05,1.1.15l.95.3c.2.06-.03.8.1.97.35.45,1.57.89,2.12.75.24-.06.61-.76.84-.67l1.06.42c.18.07.58.32.71.47s-.12.58-.24.96l1.96,1.16.88-.97c.53.32,1.42.94,1.8,1.32-.22.71-.24,1.12.21,1.46l1.34,1.02.88-.83,1.66,1.46-.64,1.02,1.54,1.61,1.03-.44c.39-.17,1.43,1.28,1.42,1.6,0,.26-.39.61-.71.93l1.28,1.86,1.15-.39c.41.57.93,1.37,1.26,1.94-.3.25-.88.68-.82.89.15.48.65,1.45.85,1.81l1.01-.17c.39-.07,1.07,1.88.9,2l-.96.67.67,2.17,1.24.03c.26,0,.35.82.35,1.1v.82c-.01.21-.52.23-1,.32l.32,2.48,1.05.09c.25.02.33.79.33,1.04v1.04c-.01.26-.71.26-1.16.35-.05.67-.04,1.74.02,2.45.28.07,1.04.04,1.04.27v1.06c0,.26-.12.8-.22,1.05-.09.23-.63.11-1.14.01l-.4,2.42.89.47c.25.14-.03,1.91-.39,2.05-.28.11-.77.13-1.24.16-.26.59-.6,1.48-.78,2.08.37.22.87.39.93.63s-.14.8-.27,1.05l-.45.89c-.11.22-.69-.1-1.09-.23-.36.35-1.01,1.36-1.09,1.91-.04.28.75.73.64.98-.12.27-.4.78-.58,1.06l-.51.78c-.11.17-.74-.36-.92-.28-.54.21-1.34,1.24-1.43,1.83-.03.2.57.68.46.85l-.52.76c-.12.17-.51.52-.69.64-.21.14-.61-.13-1.06-.48l-1.74,1.58.48.92c.11.21-.45.68-.65.82l-.92.61c-.21.14-.71-.44-.97-.57-.58.14-1.54.84-1.88,1.32l.18,1c.05.26-1.53,1.12-1.79,1-.2-.09-.42-.43-.72-.81l-2.34,1.15c.2.38.47.8.36.96-.14.2-.62.49-.86.56l-1.07.29c-.27.07-.48-.65-.65-1.01l-2.25.69-.08,1.14c-.02.25-1.48.58-2.03.5-.22-.03-.34-.65-.5-1.12ZM157.21,57.67l.18-1.25,1.8-.19.63,1.18,2.15-.51-.1-1.24,1.98-.71.53,1.16c.74-.33,1.53-.72,2.1-1.07-.08-.37-.43-1.03-.22-1.18l.8-.57c.22-.15.89-.45,1.06-.26.15.17.36.43.65.8l1.85-1.61c-.18-.38-.55-.91-.38-1.13.19-.25,1.15-1.43,1.43-1.21l.67.53c.57-.26,1.48-1.26,1.66-1.9-.05-.26-.67-.79-.54-1l.49-.78c.1-.16.43-.71.6-.62l.88.43c.41-.36,1.09-1.52,1.04-2.13-.02-.2-.75-.5-.69-.69l.28-.87c.08-.26.42-.98.68-.92l1.01.21.52-2.24-1.06-.46c-.06-.03.17-1.95.54-1.98l1.13-.11.02-2.35c-.49-.1-.92-.14-1.1-.3-.19-.17-.07-1.75.18-1.86l.86-.37c-.07-.62-.26-1.74-.4-2.31-.9-.04-1.35-.23-1.5-.98-.06-.3-.19-1,.04-1.1l.9-.38-.72-2.12-1.27.18-.79-1.79,1.05-.78-1.47-2.02c-.39.22-.89.63-1.06.46l-.76-.78c-.17-.17-.61-.74-.46-.93l.68-.8-1.76-1.79-.65.78c-.16.19-1.7-.96-1.62-1.29l.28-1.07-1.91-1.23c-.36.41-.52.63-.69.73-.15.08-1.29-.2-1.73-.69-.18-.2-.04-.83,0-1.26-.53-.28-1.5-.64-2.03-.74-.22.44-.47.99-.72.94l-.99-.22c-.22-.05-.76-.27-.83-.48s-.03-.59-.02-1.04c-.58-.19-1.61-.38-2.24-.34l-.34.98c-.07.2-.68.22-.91.18l-1.07-.19c-.2-.04-.15-.88-.32-.98-.53-.31-1.88-.3-2.39,0-.08.38-.04,1.04-.28,1.1l-.91.25c-.21.06-.84.1-.91-.08l-.35-.87c-.63-.05-1.71.25-2.31.55.06.43.24,1,.01,1.11l-.93.48c-.23.12-.88.31-1.02.11l-.58-.81-2.16,1.05c.34.4.64,1.08.36,1.24l-1.78,1c-.39-.54-.72-.91-.9-.75l-.72.62c-.16.14.42.75.36.95-.17.51-1.1,1.29-1.55,1.43l-1.07-.54c-.46.55-1.03,1.28-1.32,1.73l.6.79c.13.17-.59,1.43-1.06,1.62-.23.09-.76-.19-1.11-.27-.44.35-.99,1.36-.98,1.91.15.19.75.5.68.7l-.32.9c-.1.28-.29.91-.55.91h-1.01c-.47.4-.79,1.7-.59,2.24.29.1.76.16.83.33.12.28-.02,1.78-.41,1.89l-1.16.33-.24,2.23,1.25.19-.08,2.1c-.27,0-.93.08-1.06.25l.33,2.28.87-.13c.16-.02.4.47.43.65l.29,1.54-1.16.35.84,2.35c.42-.1,1.01-.36,1.14-.14l.53.87c.13.21.44.88.25,1.03l-.77.6c.27.57.82,1.5,1.14,1.96.48-.2.74-.32.97-.39.29-.09,1.32,1.21,1.17,1.53l-.47.97c.24.55,1.09,1.37,1.53,1.59l.88-.55c.24-.15,1.48,1.04,1.39,1.34l-.29.98c.5.39,1.37.92,1.93,1.22.27-.33.63-.8.86-.7l.86.4c.23.11.85.41.79.64l-.25.96,2.2,1.01.52-1.18,2.09.64-.16,1.16c.76.22,1.71.42,2.4.45.09-.48.14-1.08.37-1.07l.86.03c.39.01.84.06,1.09.11.2.04.11.86.27,1,.47.4,1.82.37,2.4.07Z"/>
        <path class="cls-3" d="M160.76,37.93l-11.17,1.19-1.28,2.75c-.6.42-2,.29-2.79.37l-7.56.77,10.58-18.41,11-1.19,13.63,15.87-6.89.79c-1.26.14-2.5.33-3.75.35l-1.77-2.48ZM158.11,34.15l-3.73-5.27-2.73,5.92,6.46-.65Z"/>
      </g>
      <g>
        <path class="cls-1" d="M16.67,69.98c.59-.08,1.16-.07,1.9.03l-4.32,8.85c-.54.02-1.19,0-1.63-.05l-.65-6.19-2.74,6.2c-.49.05-1.18.07-1.68.04l-1.03-8.91,2.02-.03.39,6.47,2.82-6.45,1.73-.02.45,6.64,2.74-6.59Z"/>
        <path class="cls-1" d="M102.1,78.56c-1.42.84-3.23.77-4.39-.23-1.02-.88-1.16-2.31-.97-3.57.36-2.3,1.82-4.3,4.08-4.89,1.63-.43,3.52.2,4.03,1.9.77,2.56-.42,5.43-2.75,6.8ZM101.38,77.21c1.65-1.16,2.29-3.58,1.33-5.32-.53-.96-2-.71-2.67-.03-1.82,1.85-1.83,4.96-.48,5.57.48.22,1.31.14,1.83-.22Z"/>
        <path class="cls-1" d="M94.08,75.96l1.26,2.9-1.94.03-.59-1.42c-1.13,1.11-2.19,1.75-3.67,1.63-1.26-.1-2.05-1.13-1.86-2.41.21-1.34,1.11-2.31,2.3-2.92-.52-.6-.82-1.3-.65-1.99.33-1.33,1.49-1.99,2.81-1.97.72.01,1.44.23,1.76.84.68,1.32-.35,2.24-1.39,3.06l1.3,1.26.66-1.23c.18-.34,1.04-.26,1.61-.05l-1.6,2.27ZM92.14,72.22c.15-.38.08-.92-.12-1.09-.17-.15-.82-.23-1.02-.12-.37.2-.59.8-.56,1.17.02.28.37.79.74.87.28.06.8-.45.96-.83ZM92.24,76.32c-.49-.83-1.07-1.63-1.89-1.83-1.09.41-1.75,2.27-.84,2.97.97.75,2.32-.18,2.73-1.14Z"/>
        <path class="cls-1" d="M49.16,72.4c.47-.13,1.15-.12,1.75-.04l-3.35,6.4c-.43.16-1.28.18-1.62,0l-.53-4.39-2.11,4.47-1.51.03-.94-6.53,1.88-.05.32,4.4,2.13-4.36c.46-.05,1.06-.07,1.57-.06l.46,4.38,1.94-4.27Z"/>
        <path class="cls-1" d="M75.92,76.36l-2.94-.02-1.07,2.57-1.98-.08,4.69-8.9h2.33s1.22,8.95,1.22,8.95l-2.13.03-.12-2.54ZM75.81,74.98l-.46-3.68-1.68,3.68h2.14Z"/>
        <path class="cls-1" d="M139.8,76.38l-2.97-.02-1.04,2.47c-.56.11-1.3.1-1.96-.06l4.64-8.81,2.37-.1,1.22,8.97-2.11.08-.15-2.54ZM139.71,74.97l-.49-3.55-1.77,3.57,2.25-.03Z"/>
        <path class="cls-1" d="M57.86,78.58c-1.06.71-2.74.83-3.45-.43-.76-1.35-.34-3,.41-4.27.93-1.58,2.64-2.18,4.35-1.51l.48-3.09c.42-.19,1.28-.18,1.76-.06l-1.69,9.53c-.53.31-1.37.23-1.85-.18ZM58.22,77.01c.3-1.12.5-2.21.62-3.2-.54-.66-1.51-.47-2.02.06-.84.87-1.24,2.23-.66,3.37.35.7,1.84.6,2.06-.23Z"/>
        <path class="cls-1" d="M34.49,78.98c-1.81-.64-1.58-3.83-.11-5.62,1-1.22,2.55-1.6,3.91-.94l.51-3.27,1.79.03-1.75,9.7c-.67.11-1.3.03-1.76-.31-.74.4-1.69.73-2.61.4ZM37.37,77.05c.32-1.12.53-2.2.68-3.24-.34-.41-1.12-.51-1.58-.3-1.11.51-1.93,2.63-1.1,3.83.37.53,1.78.46,1.99-.3Z"/>
        <path class="cls-1" d="M20.73,79.06c-1.07.23-2.04-.05-2.66-.7s-.76-1.64-.6-2.61c.36-2.2,2.1-3.82,4.38-3.68,1.51.09,2.41,1.4,2.28,2.85-.18,1.98-1.33,3.7-3.4,4.14ZM22.34,74.56c-.02-.39-.42-.98-.73-1.1s-1.09,0-1.35.26c-1.37,1.36-1.29,3.79-.22,4.06,1.26.31,2.41-1.51,2.3-3.21Z"/>
        <path class="cls-1" d="M127.97,73.62c-.57.12-1,.55-1.08.97l-.78,4.31-1.79-.03c.4-2,.83-3.74,1.01-5.74l.06-.68c.02-.2,1.36-.23,1.43-.11l.36.54c1-.68,2.33-1.14,3.45-.35.43.31.48,1.25.38,1.79l-.83,4.47c-.45.11-1.17.12-1.75.08l.85-4.19c.05-.23-.14-.73-.3-.9s-.67-.23-1.02-.16Z"/>
        <path class="cls-1" d="M64.43,77.61c.75,0,1.45-.16,2.22-.27.06.27-.08,1.23-.39,1.38-1.51.71-4.56.7-4.91-1.69-.23-1.59.35-3.22,1.63-4.22,1.1-.86,2.84-1.12,3.91-.14.83.76.64,2.19.23,3.08l-4.04.18c-.12.78.36,1.68,1.35,1.68ZM65.9,74.74c-.1-.69-.14-1.05-.32-1.23-.15-.14-.72-.23-.92-.19-.74.16-1.11.67-1.41,1.51l2.65-.1Z"/>
        <path class="cls-1" d="M163.81,73.85c-.57-.67-1.9-.13-2.04.55l-.88,4.45c-.53.04-1.23.04-1.72-.03.5-2.36.83-4.29,1.05-6.39.59-.29,1.63-.37,1.75.41.86-.57,1.79-.92,2.89-.6.55.16,1.11.85,1,1.47l-.91,5.18h-1.77s.76-3.54.76-3.54c.09-.4.08-1.24-.15-1.5Z"/>
        <path class="cls-1" d="M114.32,77.59c.78.08,1.51-.06,2.45-.23.14.13-.01,1.2-.35,1.35-.85.37-1.99.46-2.88.32-1.15-.17-1.95-1.01-2.09-2.16-.18-1.51.4-3,1.57-4,1.06-.9,2.83-1.22,3.93-.29.91.77.75,2.23.28,3.17l-3.98.17c-.27.66.3,1.58,1.07,1.66ZM115.98,74.75c-.02-.67-.1-1.2-.37-1.3-1.06-.38-1.99.24-2.19,1.36l2.57-.06Z"/>
        <path class="cls-1" d="M152.97,78.45c-.62-.74-.23-1.84.37-2.47,1.59-1.67,3.62-.63,3.66-1.76,0-.26-.44-.77-.7-.76l-2.64.17.52-1.25c1.16-.28,2.53-.44,3.65-.05.9.31.92,1.35.79,2.13l-.72,4.21c-.25.44-1.38.3-1.8-.08-.95.54-2.27.85-3.11-.15ZM156.59,75.88c-.89.01-1.57.21-2.03.66-.19.19-.27.86-.09,1.02.56.48,1.8.03,1.97-.4.11-.28.17-.95.15-1.29Z"/>
        <path class="cls-1" d="M118.32,78.67c-.89-.81-.43-2.19.41-2.9,1.71-1.46,3.42-.33,3.44-1.56,0-.21-.36-.73-.6-.72l-2.55.11c-.09-.16.15-1.11.46-1.2,1.06-.31,3.42-.57,4.09.34.85,1.16-.5,4.15-.47,6.11-.55.15-1.31.06-1.82-.26-.83.42-2.09.87-2.95.08ZM119.57,77.46c.4.52,1.22.31,1.61.08.52-.31.62-.92.6-1.74-.99-.08-2.8.89-2.21,1.66Z"/>
        <path class="cls-1" d="M175.37,77.59c.86.1,1.53-.08,2.57-.27l-.36,1.42c-1.67.59-4.48.69-4.96-1.54-.41-1.92.56-4.03,2.34-4.85,1.13-.52,2.64-.44,3.36.6.53.77.31,1.9.04,2.79l-4.07.18c-.14.59.17,1.56,1.08,1.67ZM177.07,74.67c-.04-.45-.14-1-.31-1.16-.33-.31-1.25-.24-1.67.15-.27.25-.47.65-.6,1.2,1.03-.01,1.72-.05,2.58-.19Z"/>
        <path class="cls-1" d="M107.87,77.22c.68.67,1.47.4,2.56.21-.04.31-.14.81-.22,1.15-.12.5-3.45,1.19-4.39-.89-.66-1.46-.1-3.21.87-4.27,1.14-1.23,2.75-1.58,4.42-1.14l-.34,1.47c-1.25-.45-2.21-.31-2.89.64-.5.7-.84,2-.01,2.82Z"/>
        <path class="cls-1" d="M170.19,77.62l1.21-.14c0,.31-.05.89-.18,1.11-.29.48-2.49.9-3.72-.06-1.57-1.24-1.02-4.32.83-5.63,1.17-.83,2.42-1.02,3.87-.55-.14.46-.35,1.05-.51,1.35-.86-.19-1.54-.29-2.26.16-.85.53-1.41,2.3-.63,3.34.22.29.94.49,1.38.44Z"/>
        <path class="cls-1" d="M31.51,78.88h-1.75s1.75-9.65,1.75-9.65c.52-.07,1.23-.08,1.75,0l-1.75,9.65Z"/>
        <path class="cls-1" d="M144.62,78.86c-.52.03-1.25.02-1.78-.05l1.77-9.59c.55-.07,1.23-.07,1.77,0l-1.76,9.64Z"/>
        <path class="cls-1" d="M147.98,78.79c-.49.13-1.25.13-1.77.01l1.79-9.6c.54-.05,1.24-.05,1.78-.02l-1.8,9.6Z"/>
        <path class="cls-1" d="M83.93,78.88h-1.8c.48-2.24.93-4.05,1.02-6.47l1.63-.22.15.79c.84-.8,1.59-1.17,2.68-.62l-.61,1.6c-.87-.32-2.02-.22-2.27.66-.39,1.38-.54,2.59-.81,4.26Z"/>
        <path class="cls-1" d="M24.54,78.9l.55-2.71c.25-1.23.4-2.35.53-3.77.32-.1,1.11-.17,1.57-.15l.15.77c.68-.75,1.56-1.27,2.66-.66l-.58,1.5c-.68-.04-1.21-.08-1.67.08-.35.12-.72.81-.79,1.22l-.63,3.7h-1.79Z"/>
        <path class="cls-1" d="M80.67,78.88h-1.72s1.18-6.49,1.18-6.49c.5-.07,1.24-.11,1.76-.1l-1.22,6.59Z"/>
        <path class="cls-1" d="M151.28,78.85c-.52.03-1.22.02-1.7-.03l1.11-6.35c.4-.2,1.23-.23,1.79-.16l-1.2,6.54Z"/>
        <path class="cls-1" d="M52.36,78.8c-.4.11-1.25.11-1.73.02l1.12-6.4c.39-.12,1.19-.15,1.79-.09l-1.18,6.47Z"/>
        <path class="cls-1" d="M182.74,68.21c0,1.44-1.17,2.61-2.61,2.61s-2.61-1.17-2.61-2.61,1.17-2.61,2.61-2.61,2.61,1.17,2.61,2.61ZM182.22,68.22c0-1.14-.93-2.07-2.07-2.07s-2.07.93-2.07,2.07.93,2.07,2.07,2.07,2.07-.93,2.07-2.07Z"/>
        <path class="cls-1" d="M82.47,69.61c.25.35,0,1.2-.28,1.45-.33.3-1.12.52-1.53.17-.45-.38-.18-1.14.06-1.47.35-.48,1.22-.89,1.75-.15Z"/>
        <path class="cls-1" d="M152.93,69.42c.45.32.25,1.17,0,1.48-.36.44-1.17.73-1.72.24-.29-.27-.1-1.11.15-1.42.29-.35.99-.7,1.57-.3Z"/>
        <path class="cls-1" d="M54.1,69.53c.38.38.09,1.26-.22,1.52-.39.33-1.25.52-1.6.06-.29-.38-.12-1.11.14-1.38.35-.38,1.11-.77,1.68-.2Z"/>
        <path class="cls-1" d="M181.02,69.59c-.35-.07-.9-1.62-1.26-.88-.14.29-.26.66-.44.89-.01,0-.04,0-.06,0-.09-.36-.08-.84-.11-1.22.04-.42-.16-1.09.1-1.43.61-.35,1.88-.3,2.05.54.11.29-.18.54-.32.78-.18.23-.05.26.1.59.17.36.39.56,0,.73h-.05ZM180.69,67.56c-.27-.65-1.65-.07-.76.42.34.17.82.03.78-.35l-.02-.07Z"/>
      </g>
    </g>
  </g>
</svg>